<svg width="30" height="27" viewBox="0 0 30 27" fill="none" xmlns="http://www.w3.org/2000/svg">
<path d="M18.525 0C19.98 0.0149834 21.165 0.764151 21.855 2.11265C22.0331 2.46851 22.2816 2.98824 22.5417 3.53651L22.8558 4.19946L23.01 4.52497L23.16 4.85461C23.22 4.95949 23.325 5.03441 23.46 5.03441C27.06 5.03441 30 7.97114 30 11.5671V20.4673C30 24.0633 27.06 27 23.46 27H6.54C2.925 27 0 24.0633 0 20.4673V11.5671C0 7.97114 2.925 5.03441 6.54 5.03441C6.66 5.03441 6.78 4.97447 6.825 4.85461L6.915 4.67481C7.335 3.79079 7.845 2.71199 8.145 2.11265C8.835 0.764151 10.005 0.0149834 11.46 0H18.525ZM15 9.60433C13.425 9.60433 11.94 10.2186 10.815 11.3424C9.705 12.4661 9.09 13.9345 9.105 15.4928C9.105 17.066 9.72 18.5344 10.83 19.6582C11.955 20.7669 13.425 21.3812 15 21.3812C16.62 21.3812 18.09 20.722 19.155 19.6582C20.22 18.5943 20.88 17.126 20.895 15.4928C20.895 13.9345 20.28 12.4512 19.17 11.3274C18.06 10.2186 16.575 9.60433 15 9.60433ZM15 11.8518C15.975 11.8518 16.89 12.2264 17.58 12.9156C18.27 13.6049 18.645 14.5189 18.645 15.4928C18.63 17.5006 17.01 19.1337 15 19.1337C14.025 19.1337 13.11 18.7592 12.42 18.0699C11.73 17.3807 11.355 16.4667 11.355 15.4928V15.4778C11.34 14.5339 11.715 13.6199 12.405 12.9306C13.11 12.2264 14.025 11.8518 15 11.8518ZM23.415 9.24473C22.665 9.24473 22.065 9.85905 22.065 10.6082C22.065 11.3574 22.665 11.9567 23.415 11.9567C24.165 11.9567 24.78 11.3574 24.78 10.6082C24.78 9.85905 24.165 9.24473 23.415 9.24473Z" fill="#D9D9D9"/>
</svg>
