<svg width="332" height="20" viewBox="0 0 332 20" fill="none" xmlns="http://www.w3.org/2000/svg">
<path d="M325.231 4.23485C325.304 4.1604 325.391 4.10134 325.486 4.06104C325.581 4.02074 325.684 4 325.787 4C325.89 4 325.992 4.02074 326.087 4.06104C326.183 4.10134 326.269 4.1604 326.342 4.23485L331.556 9.54907C331.615 9.60823 331.661 9.6785 331.692 9.75587C331.724 9.83323 331.74 9.91616 331.74 9.99991C331.74 10.0837 331.724 10.1666 331.692 10.244C331.661 10.3213 331.615 10.3916 331.556 10.4508L326.342 15.765C326.035 16.0783 325.539 16.0783 325.231 15.765C324.924 15.4516 324.924 14.9464 325.231 14.6331L329.774 9.99672L325.225 5.36036C324.924 5.0534 324.924 4.5418 325.231 4.23485Z" fill="black"/>
<mask id="mask0_1_5907" style="mask-type:alpha" maskUnits="userSpaceOnUse" x="0" y="0" width="23" height="20">
<path d="M9.58656 0.392327C11.0974 -0.445533 13.0193 0.104966 13.8636 1.60232L21.94 15.6191C22.1178 16.0375 22.1955 16.3777 22.2178 16.7311C22.2622 17.5569 21.9734 18.3595 21.4068 18.9772C20.8402 19.5926 20.0737 19.956 19.2405 20H2.97656C2.63217 19.9791 2.28779 19.9009 1.96562 19.7798C0.354779 19.1302 -0.422867 17.3026 0.232578 15.7182L8.36454 1.59241C8.64227 1.09586 9.06442 0.667576 9.58656 0.392327ZM11.1085 13.6362C10.5753 13.6362 10.1309 14.0766 10.1309 14.6062C10.1309 15.1336 10.5753 15.5751 11.1085 15.5751C11.6418 15.5751 12.075 15.1336 12.075 14.5941C12.075 14.0667 11.6418 13.6362 11.1085 13.6362ZM11.1085 6.76711C10.5753 6.76711 10.1309 7.19539 10.1309 7.72497V10.8397C10.1309 11.3682 10.5753 11.8097 11.1085 11.8097C11.6418 11.8097 12.075 11.3682 12.075 10.8397V7.72497C12.075 7.19539 11.6418 6.76711 11.1085 6.76711Z" fill="black"/>
</mask>
<g mask="url(#mask0_1_5907)">
<rect width="22.4" height="20.8" fill="black"/>
</g>
<path d="M44.4028 5.816C44.1041 5.82533 43.8848 5.89067 43.7448 6.012C43.6048 6.124 43.5161 6.292 43.4788 6.516C43.4415 6.73067 43.4228 7.01533 43.4228 7.37V13.124C43.4228 13.376 43.4181 13.6047 43.4088 13.81C43.4088 14.006 43.3995 14.1647 43.3808 14.286C43.5395 14.2673 43.7121 14.258 43.8988 14.258C44.0948 14.2487 44.2628 14.2393 44.4028 14.23V15H40.9588V14.384C41.2668 14.3653 41.4861 14.3 41.6168 14.188C41.7568 14.076 41.8455 13.908 41.8828 13.684C41.9201 13.46 41.9388 13.1753 41.9388 12.83V7.006C41.9388 6.80067 41.9435 6.60467 41.9528 6.418C41.9621 6.222 41.9715 6.054 41.9808 5.914C41.8221 5.92333 41.6495 5.93267 41.4628 5.942C41.2761 5.95133 41.1081 5.96067 40.9588 5.97V5.2H44.4028V5.816ZM46.5191 8.49L46.0851 8.168C46.1878 8.03733 46.2951 7.85067 46.4071 7.608C46.5284 7.36533 46.6264 7.09933 46.7011 6.81C46.7851 6.51133 46.8131 6.222 46.7851 5.942C46.7198 5.97 46.6591 5.98867 46.6031 5.998C46.5564 6.00733 46.5051 6.012 46.4491 6.012C46.2531 6.012 46.0804 5.94667 45.9311 5.816C45.7818 5.676 45.7071 5.48933 45.7071 5.256C45.7071 4.98533 45.7864 4.77067 45.9451 4.612C46.1131 4.444 46.3138 4.36 46.5471 4.36C46.9111 4.36 47.1818 4.49067 47.3591 4.752C47.5458 5.004 47.6391 5.32133 47.6391 5.704C47.6391 5.956 47.5924 6.25 47.4991 6.586C47.4151 6.922 47.2891 7.258 47.1211 7.594C46.9531 7.92067 46.7524 8.21933 46.5191 8.49ZM48.434 15V14.412C48.714 14.412 48.91 14.3467 49.022 14.216C49.134 14.0853 49.1994 13.9033 49.218 13.67C49.246 13.4367 49.26 13.166 49.26 12.858V9.946C49.26 9.79667 49.26 9.638 49.26 9.47C49.2694 9.29267 49.288 9.12 49.316 8.952C49.1574 8.96133 48.9894 8.97067 48.812 8.98C48.6347 8.98 48.4714 8.98467 48.322 8.994V8.252C48.742 8.252 49.0687 8.23333 49.302 8.196C49.5447 8.14933 49.7267 8.098 49.848 8.042C49.9787 7.986 50.0767 7.92533 50.142 7.86H50.646C50.6647 7.95333 50.674 8.06533 50.674 8.196C50.6834 8.31733 50.6927 8.448 50.702 8.588C50.9914 8.34533 51.318 8.14933 51.682 8C52.0554 7.85067 52.4147 7.776 52.76 7.776C53.2174 7.776 53.5954 7.86 53.894 8.028C54.202 8.18667 54.4447 8.41533 54.622 8.714C54.9487 8.44333 55.3174 8.21933 55.728 8.042C56.1387 7.86467 56.54 7.776 56.932 7.776C57.7254 7.776 58.3134 8.014 58.696 8.49C59.0787 8.95667 59.2654 9.74067 59.256 10.842L59.242 13.264C59.242 13.432 59.2374 13.6047 59.228 13.782C59.228 13.95 59.214 14.1227 59.186 14.3C59.3354 14.2907 59.4894 14.286 59.648 14.286C59.8067 14.2767 59.9514 14.2673 60.082 14.258V15H57.002V14.412C57.2634 14.412 57.4454 14.3467 57.548 14.216C57.66 14.0853 57.7254 13.9033 57.744 13.67C57.772 13.4367 57.786 13.166 57.786 12.858V10.842C57.7767 10.1047 57.6554 9.56333 57.422 9.218C57.1887 8.87267 56.834 8.7 56.358 8.7C56.0874 8.7 55.8214 8.76067 55.56 8.882C55.2987 8.994 55.0654 9.13867 54.86 9.316C54.9067 9.47467 54.9394 9.652 54.958 9.848C54.986 10.0347 55 10.2307 55 10.436C54.9907 10.9027 54.986 11.374 54.986 11.85C54.986 12.3167 54.986 12.788 54.986 13.264C54.986 13.432 54.9814 13.6047 54.972 13.782C54.9627 13.95 54.9487 14.1227 54.93 14.3C55.0794 14.2907 55.2287 14.286 55.378 14.286C55.5367 14.2767 55.6814 14.2673 55.812 14.258V15H52.704V14.412C52.984 14.412 53.1754 14.3467 53.278 14.216C53.39 14.0853 53.4554 13.9033 53.474 13.67C53.502 13.4367 53.516 13.166 53.516 12.858V10.828C53.5254 10.0907 53.418 9.54933 53.194 9.204C52.9794 8.84933 52.634 8.67667 52.158 8.686C51.8874 8.686 51.626 8.74667 51.374 8.868C51.122 8.98 50.9027 9.12467 50.716 9.302C50.716 9.414 50.716 9.53067 50.716 9.652C50.7254 9.77333 50.73 9.904 50.73 10.044V13.264C50.73 13.432 50.7254 13.6047 50.716 13.782C50.7067 13.95 50.6927 14.1227 50.674 14.3C50.8234 14.2907 50.9727 14.286 51.122 14.286C51.2714 14.2767 51.4114 14.2673 51.542 14.258V15H48.434ZM64.1703 18.794C63.7409 18.794 63.4282 18.7007 63.2323 18.514C63.0269 18.3273 62.9242 18.1173 62.9242 17.884C62.9242 17.6973 62.9849 17.5247 63.1062 17.366C63.2276 17.2167 63.4002 17.1373 63.6242 17.128C63.8576 17.1187 64.0302 17.1887 64.1422 17.338C64.2543 17.4873 64.3103 17.6413 64.3103 17.8C64.3103 17.828 64.3103 17.856 64.3103 17.884C64.3103 17.912 64.3056 17.94 64.2963 17.968C64.3989 18.0147 64.5063 18.038 64.6182 18.038C64.8609 18.038 65.0383 17.954 65.1503 17.786C65.2716 17.618 65.3509 17.4033 65.3883 17.142C65.4349 16.89 65.4583 16.638 65.4583 16.386V9.96C65.4583 9.80133 65.4629 9.64267 65.4723 9.484C65.4816 9.316 65.4956 9.13867 65.5143 8.952C65.3463 8.96133 65.1736 8.97067 64.9963 8.98C64.8283 8.98 64.6696 8.98467 64.5203 8.994V8.252C64.9403 8.252 65.2763 8.23333 65.5283 8.196C65.7803 8.14933 65.9716 8.098 66.1023 8.042C66.2423 7.986 66.3449 7.92533 66.4103 7.86H66.9283V15.014C66.9283 15.882 66.8069 16.596 66.5643 17.156C66.3216 17.716 65.9903 18.1267 65.5703 18.388C65.1596 18.6587 64.6929 18.794 64.1703 18.794ZM66.1583 6.572C65.9156 6.572 65.7103 6.48333 65.5423 6.306C65.3743 6.11933 65.2903 5.89533 65.2903 5.634C65.2903 5.37267 65.3789 5.15333 65.5563 4.976C65.7336 4.78933 65.9343 4.696 66.1583 4.696C66.4009 4.696 66.6016 4.78933 66.7603 4.976C66.9283 5.15333 67.0123 5.37267 67.0123 5.634C67.0123 5.89533 66.9283 6.11933 66.7603 6.306C66.6016 6.48333 66.4009 6.572 66.1583 6.572ZM71.0068 15.224C70.4842 15.224 70.0502 15.126 69.7048 14.93C69.3688 14.734 69.1168 14.412 68.9488 13.964C68.7808 13.5067 68.6968 12.9047 68.6968 12.158V9.96C68.6968 9.80133 68.6968 9.638 68.6968 9.47C68.7062 9.29267 68.7248 9.12 68.7528 8.952C68.5942 8.96133 68.4262 8.97067 68.2488 8.98C68.0715 8.98 67.9128 8.98467 67.7728 8.994V8.252H68.1088C68.5755 8.252 68.9255 8.21 69.1588 8.126C69.3922 8.042 69.5555 7.95333 69.6488 7.86H70.1808V12.13C70.1808 12.8673 70.2835 13.418 70.4888 13.782C70.6942 14.146 71.0395 14.3233 71.5248 14.314C71.8422 14.314 72.1455 14.2207 72.4348 14.034C72.7335 13.8473 72.9762 13.628 73.1628 13.376V10.058C73.1628 9.85267 73.1675 9.66133 73.1768 9.484C73.1862 9.29733 73.2048 9.12 73.2328 8.952C73.0648 8.96133 72.8922 8.97067 72.7148 8.98C72.5375 8.98 72.3742 8.98467 72.2248 8.994V8.252H72.6308C73.0415 8.252 73.3635 8.21 73.5968 8.126C73.8302 8.042 73.9982 7.95333 74.1008 7.86H74.6328L74.6188 13.012C74.6188 13.1613 74.6142 13.3667 74.6048 13.628C74.5955 13.88 74.5815 14.104 74.5628 14.3C74.7215 14.2907 74.8848 14.2813 75.0528 14.272C75.2302 14.2627 75.3935 14.258 75.5428 14.258V15H73.3168C73.2982 14.8507 73.2795 14.7107 73.2608 14.58C73.2515 14.4493 73.2375 14.3233 73.2188 14.202C72.9295 14.4727 72.5935 14.7107 72.2108 14.916C71.8282 15.1213 71.4268 15.224 71.0068 15.224ZM79.4981 15.224C79.0594 15.224 78.6534 15.1633 78.2801 15.042C77.9067 14.93 77.6081 14.7947 77.3841 14.636L77.4261 15.098H76.6841L76.6141 12.69H77.2021C77.2207 13.0353 77.3281 13.348 77.5241 13.628C77.7201 13.908 77.9721 14.1273 78.2801 14.286C78.5974 14.4447 78.9381 14.524 79.3021 14.524C79.5167 14.524 79.7267 14.4913 79.9321 14.426C80.1374 14.3513 80.3101 14.244 80.4501 14.104C80.5901 13.9547 80.6601 13.7727 80.6601 13.558C80.6601 13.3247 80.5854 13.1333 80.4361 12.984C80.2961 12.8253 80.1001 12.6853 79.8481 12.564C79.6054 12.4427 79.3254 12.3213 79.0081 12.2C78.7281 12.088 78.4434 11.9713 78.1541 11.85C77.8741 11.7287 77.6127 11.584 77.3701 11.416C77.1274 11.248 76.9361 11.0427 76.7961 10.8C76.6561 10.548 76.5861 10.24 76.5861 9.876C76.5861 9.66133 76.6281 9.43267 76.7121 9.19C76.7961 8.938 76.9314 8.70933 77.1181 8.504C77.3047 8.28933 77.5567 8.11667 77.8741 7.986C78.1914 7.846 78.5834 7.776 79.0501 7.776C79.3021 7.776 79.5821 7.818 79.8901 7.902C80.2074 7.986 80.5014 8.13067 80.7721 8.336L80.7581 7.846H81.5001V10.31H80.8981C80.8701 9.98333 80.7814 9.68 80.6321 9.4C80.4921 9.12 80.2914 8.89133 80.0301 8.714C79.7687 8.53667 79.4514 8.448 79.0781 8.448C78.7141 8.448 78.4154 8.54133 78.1821 8.728C77.9581 8.90533 77.8461 9.12933 77.8461 9.4C77.8461 9.67067 77.9301 9.89 78.0981 10.058C78.2754 10.226 78.5041 10.3707 78.7841 10.492C79.0641 10.6133 79.3674 10.7347 79.6941 10.856C80.0861 11.0147 80.4547 11.1873 80.8001 11.374C81.1454 11.5607 81.4254 11.794 81.6401 12.074C81.8547 12.354 81.9621 12.7087 81.9621 13.138C81.9621 13.6047 81.8407 13.9967 81.5981 14.314C81.3647 14.622 81.0614 14.8507 80.6881 15C80.3147 15.1493 79.9181 15.224 79.4981 15.224ZM85.7662 15.224C85.5329 15.224 85.2996 15.1913 85.0662 15.126C84.8329 15.07 84.6136 14.9533 84.4082 14.776C84.2122 14.5893 84.0582 14.3233 83.9462 13.978C83.8342 13.6327 83.7782 13.1753 83.7782 12.606L83.8062 8.784H82.7702V8C83.0222 7.99067 83.2789 7.89733 83.5402 7.72C83.8016 7.54267 84.0302 7.30467 84.2262 7.006C84.4222 6.70733 84.5576 6.38533 84.6322 6.04H85.2902V8H87.4462V8.728L85.2902 8.756L85.2622 12.494C85.2622 12.8487 85.2902 13.1613 85.3462 13.432C85.4116 13.6933 85.5142 13.8987 85.6542 14.048C85.8036 14.188 86.0042 14.258 86.2562 14.258C86.4709 14.258 86.6902 14.1927 86.9142 14.062C87.1476 13.9313 87.3669 13.7167 87.5722 13.418L88.0482 13.838C87.8242 14.1647 87.6002 14.4213 87.3762 14.608C87.1522 14.7947 86.9376 14.93 86.7322 15.014C86.5269 15.1073 86.3402 15.1633 86.1722 15.182C86.0042 15.21 85.8689 15.224 85.7662 15.224ZM92.3208 15V14.412C92.6008 14.412 92.7968 14.3467 92.9088 14.216C93.0208 14.0853 93.0861 13.9033 93.1048 13.67C93.1328 13.4367 93.1468 13.166 93.1468 12.858L93.1608 9.946C93.1608 9.79667 93.1608 9.638 93.1608 9.47C93.1701 9.29267 93.1888 9.12 93.2168 8.952C93.0488 8.96133 92.8761 8.97067 92.6988 8.98C92.5308 8.98 92.3721 8.98467 92.2228 8.994V8.252C92.6428 8.252 92.9694 8.23333 93.2028 8.196C93.4454 8.14933 93.6274 8.098 93.7488 8.042C93.8794 7.986 93.9774 7.92533 94.0428 7.86H94.5468C94.5561 7.944 94.5608 8.02333 94.5608 8.098C94.5701 8.17267 94.5748 8.252 94.5748 8.336C94.5841 8.42 94.5934 8.52733 94.6028 8.658C94.8081 8.49 95.0321 8.34067 95.2748 8.21C95.5174 8.07933 95.7694 7.97667 96.0308 7.902C96.3014 7.818 96.5581 7.776 96.8008 7.776C97.6314 7.776 98.2288 8.028 98.5928 8.532C98.9661 9.036 99.1528 9.82467 99.1528 10.898V13.264C99.1528 13.432 99.1481 13.6047 99.1388 13.782C99.1294 13.95 99.1154 14.1227 99.0968 14.3C99.2461 14.2907 99.3954 14.286 99.5448 14.286C99.7034 14.2767 99.8481 14.2673 99.9788 14.258V15H96.8568V14.412C97.1368 14.412 97.3328 14.3467 97.4448 14.216C97.5568 14.0853 97.6221 13.9033 97.6408 13.67C97.6688 13.4367 97.6828 13.166 97.6828 12.858V10.898C97.6734 10.1607 97.5521 9.60533 97.3188 9.232C97.0948 8.85867 96.7308 8.67667 96.2268 8.686C95.9281 8.686 95.6341 8.76067 95.3448 8.91C95.0554 9.05933 94.8128 9.24133 94.6168 9.456C94.6168 9.54933 94.6168 9.652 94.6168 9.764C94.6168 9.86667 94.6168 9.974 94.6168 10.086V13.264C94.6168 13.432 94.6121 13.6047 94.6028 13.782C94.5934 13.95 94.5794 14.1227 94.5608 14.3C94.7101 14.2907 94.8594 14.286 95.0088 14.286C95.1674 14.2767 95.3121 14.2673 95.4428 14.258V15H92.3208ZM104.419 15.224C103.757 15.224 103.159 15.0747 102.627 14.776C102.095 14.4773 101.671 14.062 101.353 13.53C101.045 12.9887 100.891 12.368 100.891 11.668C100.891 10.912 101.045 10.2447 101.353 9.666C101.671 9.078 102.095 8.616 102.627 8.28C103.159 7.944 103.752 7.776 104.405 7.776C105.068 7.776 105.665 7.93 106.197 8.238C106.729 8.53667 107.149 8.95667 107.457 9.498C107.775 10.03 107.933 10.646 107.933 11.346C107.933 12.0833 107.779 12.746 107.471 13.334C107.163 13.922 106.743 14.384 106.211 14.72C105.689 15.056 105.091 15.224 104.419 15.224ZM104.517 14.524C104.965 14.5147 105.315 14.3747 105.567 14.104C105.829 13.8333 106.015 13.488 106.127 13.068C106.239 12.6387 106.295 12.1953 106.295 11.738C106.295 11.3367 106.258 10.9447 106.183 10.562C106.118 10.17 106.011 9.81533 105.861 9.498C105.712 9.18067 105.516 8.92867 105.273 8.742C105.031 8.546 104.737 8.45267 104.391 8.462C103.953 8.462 103.593 8.59733 103.313 8.868C103.043 9.13867 102.842 9.48867 102.711 9.918C102.59 10.338 102.529 10.786 102.529 11.262C102.529 11.8127 102.599 12.3353 102.739 12.83C102.879 13.3247 103.094 13.7307 103.383 14.048C103.682 14.3653 104.06 14.524 104.517 14.524ZM111.743 15.224C111.509 15.224 111.276 15.1913 111.043 15.126C110.809 15.07 110.59 14.9533 110.385 14.776C110.189 14.5893 110.035 14.3233 109.923 13.978C109.811 13.6327 109.755 13.1753 109.755 12.606L109.783 8.784H108.747V8C108.999 7.99067 109.255 7.89733 109.517 7.72C109.778 7.54267 110.007 7.30467 110.203 7.006C110.399 6.70733 110.534 6.38533 110.609 6.04H111.267V8H113.423V8.728L111.267 8.756L111.239 12.494C111.239 12.8487 111.267 13.1613 111.323 13.432C111.388 13.6933 111.491 13.8987 111.631 14.048C111.78 14.188 111.981 14.258 112.233 14.258C112.447 14.258 112.667 14.1927 112.891 14.062C113.124 13.9313 113.343 13.7167 113.549 13.418L114.025 13.838C113.801 14.1647 113.577 14.4213 113.353 14.608C113.129 14.7947 112.914 14.93 112.709 15.014C112.503 15.1073 112.317 15.1633 112.149 15.182C111.981 15.21 111.845 15.224 111.743 15.224ZM118.297 14.412C118.577 14.412 118.773 14.3467 118.885 14.216C118.997 14.0853 119.063 13.9033 119.081 13.67C119.109 13.4367 119.123 13.166 119.123 12.858V9.96C119.123 9.80133 119.128 9.64267 119.137 9.484C119.147 9.316 119.161 9.13867 119.179 8.952C119.021 8.96133 118.853 8.97067 118.675 8.98C118.498 8.98 118.335 8.98467 118.185 8.994V8.252C118.605 8.252 118.937 8.23333 119.179 8.196C119.431 8.14933 119.623 8.098 119.753 8.042C119.893 7.986 119.996 7.92533 120.061 7.86H120.593V13.264C120.593 13.432 120.589 13.6047 120.579 13.782C120.57 13.95 120.556 14.1227 120.537 14.3C120.687 14.2907 120.836 14.286 120.985 14.286C121.144 14.2767 121.289 14.2673 121.419 14.258V15H118.297V14.412ZM119.795 6.572C119.553 6.572 119.347 6.48333 119.179 6.306C119.011 6.11933 118.927 5.89533 118.927 5.634C118.927 5.37267 119.016 5.15333 119.193 4.976C119.371 4.78933 119.571 4.696 119.795 4.696C120.038 4.696 120.239 4.78933 120.397 4.976C120.565 5.15333 120.649 5.37267 120.649 5.634C120.649 5.89533 120.565 6.11933 120.397 6.306C120.239 6.48333 120.038 6.572 119.795 6.572ZM122.44 15V14.412C122.72 14.412 122.916 14.3467 123.028 14.216C123.14 14.0853 123.205 13.9033 123.224 13.67C123.252 13.4367 123.266 13.166 123.266 12.858L123.28 9.946C123.28 9.79667 123.28 9.638 123.28 9.47C123.289 9.29267 123.308 9.12 123.336 8.952C123.168 8.96133 122.995 8.97067 122.818 8.98C122.65 8.98 122.491 8.98467 122.342 8.994V8.252C122.762 8.252 123.089 8.23333 123.322 8.196C123.565 8.14933 123.747 8.098 123.868 8.042C123.999 7.986 124.097 7.92533 124.162 7.86H124.666C124.675 7.944 124.68 8.02333 124.68 8.098C124.689 8.17267 124.694 8.252 124.694 8.336C124.703 8.42 124.713 8.52733 124.722 8.658C124.927 8.49 125.151 8.34067 125.394 8.21C125.637 8.07933 125.889 7.97667 126.15 7.902C126.421 7.818 126.677 7.776 126.92 7.776C127.751 7.776 128.348 8.028 128.712 8.532C129.085 9.036 129.272 9.82467 129.272 10.898V13.264C129.272 13.432 129.267 13.6047 129.258 13.782C129.249 13.95 129.235 14.1227 129.216 14.3C129.365 14.2907 129.515 14.286 129.664 14.286C129.823 14.2767 129.967 14.2673 130.098 14.258V15H126.976V14.412C127.256 14.412 127.452 14.3467 127.564 14.216C127.676 14.0853 127.741 13.9033 127.76 13.67C127.788 13.4367 127.802 13.166 127.802 12.858V10.898C127.793 10.1607 127.671 9.60533 127.438 9.232C127.214 8.85867 126.85 8.67667 126.346 8.686C126.047 8.686 125.753 8.76067 125.464 8.91C125.175 9.05933 124.932 9.24133 124.736 9.456C124.736 9.54933 124.736 9.652 124.736 9.764C124.736 9.86667 124.736 9.974 124.736 10.086V13.264C124.736 13.432 124.731 13.6047 124.722 13.782C124.713 13.95 124.699 14.1227 124.68 14.3C124.829 14.2907 124.979 14.286 125.128 14.286C125.287 14.2767 125.431 14.2673 125.562 14.258V15H122.44ZM133.645 15.224C133.412 15.224 133.178 15.1913 132.945 15.126C132.712 15.07 132.492 14.9533 132.287 14.776C132.091 14.5893 131.937 14.3233 131.825 13.978C131.713 13.6327 131.657 13.1753 131.657 12.606L131.685 8.784H130.649V8C130.901 7.99067 131.158 7.89733 131.419 7.72C131.68 7.54267 131.909 7.30467 132.105 7.006C132.301 6.70733 132.436 6.38533 132.511 6.04H133.169V8H135.325V8.728L133.169 8.756L133.141 12.494C133.141 12.8487 133.169 13.1613 133.225 13.432C133.29 13.6933 133.393 13.8987 133.533 14.048C133.682 14.188 133.883 14.258 134.135 14.258C134.35 14.258 134.569 14.1927 134.793 14.062C135.026 13.9313 135.246 13.7167 135.451 13.418L135.927 13.838C135.703 14.1647 135.479 14.4213 135.255 14.608C135.031 14.7947 134.816 14.93 134.611 15.014C134.406 15.1073 134.219 15.1633 134.051 15.182C133.883 15.21 133.748 15.224 133.645 15.224ZM139.882 15.224C139.229 15.224 138.641 15.0747 138.118 14.776C137.605 14.468 137.199 14.0387 136.9 13.488C136.601 12.928 136.452 12.27 136.452 11.514C136.452 10.8607 136.597 10.2493 136.886 9.68C137.185 9.11067 137.6 8.65333 138.132 8.308C138.664 7.95333 139.28 7.776 139.98 7.776C140.372 7.776 140.741 7.83667 141.086 7.958C141.441 8.07933 141.753 8.27067 142.024 8.532C142.304 8.784 142.523 9.11533 142.682 9.526C142.841 9.92733 142.92 10.4173 142.92 10.996L138.104 11.08C138.104 11.7147 138.174 12.2793 138.314 12.774C138.463 13.2687 138.701 13.6513 139.028 13.922C139.355 14.1927 139.779 14.328 140.302 14.328C140.554 14.328 140.82 14.286 141.1 14.202C141.389 14.1087 141.66 13.978 141.912 13.81C142.173 13.642 142.393 13.4413 142.57 13.208L143.004 13.586C142.724 14.006 142.402 14.3373 142.038 14.58C141.674 14.8133 141.301 14.9767 140.918 15.07C140.545 15.1727 140.199 15.224 139.882 15.224ZM138.16 10.352H141.394C141.394 9.99733 141.343 9.68 141.24 9.4C141.147 9.11067 140.997 8.882 140.792 8.714C140.587 8.546 140.325 8.462 140.008 8.462C139.513 8.462 139.107 8.62067 138.79 8.938C138.473 9.246 138.263 9.71733 138.16 10.352ZM144.096 14.412C144.376 14.412 144.572 14.3467 144.684 14.216C144.796 14.0853 144.861 13.9033 144.88 13.67C144.908 13.4367 144.922 13.166 144.922 12.858V9.946C144.922 9.79667 144.922 9.638 144.922 9.47C144.931 9.29267 144.95 9.12 144.978 8.952C144.819 8.96133 144.651 8.97067 144.474 8.98C144.297 8.98 144.133 8.98467 143.984 8.994V8.252H144.46C144.852 8.252 145.151 8.21 145.356 8.126C145.561 8.042 145.711 7.95333 145.804 7.86H146.308C146.327 7.99067 146.341 8.17267 146.35 8.406C146.359 8.63933 146.369 8.90067 146.378 9.19C146.555 8.92867 146.761 8.69533 146.994 8.49C147.227 8.27533 147.479 8.10267 147.75 7.972C148.03 7.84133 148.319 7.776 148.618 7.776C148.907 7.776 149.155 7.85533 149.36 8.014C149.575 8.16333 149.682 8.41067 149.682 8.756C149.682 8.84933 149.654 8.95667 149.598 9.078C149.551 9.19933 149.467 9.30667 149.346 9.4C149.234 9.484 149.08 9.526 148.884 9.526C148.688 9.51667 148.515 9.442 148.366 9.302C148.226 9.162 148.161 8.97067 148.17 8.728C147.946 8.728 147.722 8.798 147.498 8.938C147.274 9.06867 147.064 9.246 146.868 9.47C146.681 9.694 146.523 9.93667 146.392 10.198V13.264C146.392 13.432 146.387 13.6047 146.378 13.782C146.378 13.95 146.364 14.1227 146.336 14.3C146.485 14.2907 146.639 14.286 146.798 14.286C146.957 14.2767 147.101 14.2673 147.232 14.258V15H144.096V14.412ZM153.354 15.224C152.915 15.224 152.509 15.1633 152.136 15.042C151.762 14.93 151.464 14.7947 151.24 14.636L151.282 15.098H150.54L150.47 12.69H151.058C151.076 13.0353 151.184 13.348 151.38 13.628C151.576 13.908 151.828 14.1273 152.136 14.286C152.453 14.4447 152.794 14.524 153.158 14.524C153.372 14.524 153.582 14.4913 153.788 14.426C153.993 14.3513 154.166 14.244 154.306 14.104C154.446 13.9547 154.516 13.7727 154.516 13.558C154.516 13.3247 154.441 13.1333 154.292 12.984C154.152 12.8253 153.956 12.6853 153.704 12.564C153.461 12.4427 153.181 12.3213 152.864 12.2C152.584 12.088 152.299 11.9713 152.01 11.85C151.73 11.7287 151.468 11.584 151.226 11.416C150.983 11.248 150.792 11.0427 150.652 10.8C150.512 10.548 150.442 10.24 150.442 9.876C150.442 9.66133 150.484 9.43267 150.568 9.19C150.652 8.938 150.787 8.70933 150.974 8.504C151.16 8.28933 151.412 8.11667 151.73 7.986C152.047 7.846 152.439 7.776 152.906 7.776C153.158 7.776 153.438 7.818 153.746 7.902C154.063 7.986 154.357 8.13067 154.628 8.336L154.614 7.846H155.356V10.31H154.754C154.726 9.98333 154.637 9.68 154.488 9.4C154.348 9.12 154.147 8.89133 153.886 8.714C153.624 8.53667 153.307 8.448 152.934 8.448C152.57 8.448 152.271 8.54133 152.038 8.728C151.814 8.90533 151.702 9.12933 151.702 9.4C151.702 9.67067 151.786 9.89 151.954 10.058C152.131 10.226 152.36 10.3707 152.64 10.492C152.92 10.6133 153.223 10.7347 153.55 10.856C153.942 11.0147 154.31 11.1873 154.656 11.374C155.001 11.5607 155.281 11.794 155.496 12.074C155.71 12.354 155.818 12.7087 155.818 13.138C155.818 13.6047 155.696 13.9967 155.454 14.314C155.22 14.622 154.917 14.8507 154.544 15C154.17 15.1493 153.774 15.224 153.354 15.224ZM159.622 15.224C159.388 15.224 159.155 15.1913 158.922 15.126C158.688 15.07 158.469 14.9533 158.264 14.776C158.068 14.5893 157.914 14.3233 157.802 13.978C157.69 13.6327 157.634 13.1753 157.634 12.606L157.662 8.784H156.626V8C156.878 7.99067 157.134 7.89733 157.396 7.72C157.657 7.54267 157.886 7.30467 158.082 7.006C158.278 6.70733 158.413 6.38533 158.488 6.04H159.146V8H161.302V8.728L159.146 8.756L159.118 12.494C159.118 12.8487 159.146 13.1613 159.202 13.432C159.267 13.6933 159.37 13.8987 159.51 14.048C159.659 14.188 159.86 14.258 160.112 14.258C160.326 14.258 160.546 14.1927 160.77 14.062C161.003 13.9313 161.222 13.7167 161.428 13.418L161.904 13.838C161.68 14.1647 161.456 14.4213 161.232 14.608C161.008 14.7947 160.793 14.93 160.588 15.014C160.382 15.1073 160.196 15.1633 160.028 15.182C159.86 15.21 159.724 15.224 159.622 15.224ZM165.858 15.224C165.205 15.224 164.617 15.0747 164.094 14.776C163.581 14.468 163.175 14.0387 162.876 13.488C162.578 12.928 162.428 12.27 162.428 11.514C162.428 10.8607 162.573 10.2493 162.862 9.68C163.161 9.11067 163.576 8.65333 164.108 8.308C164.64 7.95333 165.256 7.776 165.956 7.776C166.348 7.776 166.717 7.83667 167.062 7.958C167.417 8.07933 167.73 8.27067 168 8.532C168.28 8.784 168.5 9.11533 168.658 9.526C168.817 9.92733 168.896 10.4173 168.896 10.996L164.08 11.08C164.08 11.7147 164.15 12.2793 164.29 12.774C164.44 13.2687 164.678 13.6513 165.004 13.922C165.331 14.1927 165.756 14.328 166.278 14.328C166.53 14.328 166.796 14.286 167.076 14.202C167.366 14.1087 167.636 13.978 167.888 13.81C168.15 13.642 168.369 13.4413 168.546 13.208L168.98 13.586C168.7 14.006 168.378 14.3373 168.014 14.58C167.65 14.8133 167.277 14.9767 166.894 15.07C166.521 15.1727 166.176 15.224 165.858 15.224ZM164.136 10.352H167.37C167.37 9.99733 167.319 9.68 167.216 9.4C167.123 9.11067 166.974 8.882 166.768 8.714C166.563 8.546 166.302 8.462 165.984 8.462C165.49 8.462 165.084 8.62067 164.766 8.938C164.449 9.246 164.239 9.71733 164.136 10.352ZM172.93 15.224C172.36 15.224 171.852 15.084 171.404 14.804C170.965 14.5147 170.615 14.104 170.354 13.572C170.102 13.04 169.976 12.4147 169.976 11.696C169.976 10.9307 170.125 10.254 170.424 9.666C170.722 9.078 171.142 8.616 171.684 8.28C172.225 7.944 172.841 7.776 173.532 7.776C173.821 7.776 174.096 7.81333 174.358 7.888C174.628 7.95333 174.852 8.03267 175.03 8.126V6.53C175.03 6.39 175.034 6.236 175.044 6.068C175.053 5.89067 175.067 5.70867 175.086 5.522C174.918 5.53133 174.745 5.54067 174.568 5.55C174.39 5.55933 174.232 5.564 174.092 5.564V4.822C174.512 4.822 174.843 4.80333 175.086 4.766C175.338 4.71933 175.529 4.668 175.66 4.612C175.8 4.556 175.902 4.49533 175.968 4.43H176.486V13.264C176.486 13.404 176.481 13.5627 176.472 13.74C176.462 13.9173 176.448 14.104 176.43 14.3C176.598 14.2907 176.766 14.2813 176.934 14.272C177.102 14.2627 177.256 14.258 177.396 14.258V15H175.17C175.151 14.8693 175.132 14.748 175.114 14.636C175.104 14.524 175.095 14.412 175.086 14.3C174.806 14.5987 174.484 14.8273 174.12 14.986C173.756 15.1447 173.359 15.224 172.93 15.224ZM173.504 14.342C173.793 14.342 174.073 14.2627 174.344 14.104C174.624 13.9453 174.852 13.7447 175.03 13.502C175.03 13.3807 175.03 13.2547 175.03 13.124C175.03 12.9933 175.03 12.8533 175.03 12.704V8.896C174.852 8.76533 174.642 8.66733 174.4 8.602C174.166 8.52733 173.924 8.49 173.672 8.49C173.214 8.49 172.827 8.62533 172.51 8.896C172.202 9.15733 171.973 9.51667 171.824 9.974C171.674 10.4313 171.604 10.954 171.614 11.542C171.632 12.046 171.712 12.5127 171.852 12.942C171.992 13.3713 172.197 13.712 172.468 13.964C172.748 14.216 173.093 14.342 173.504 14.342Z" fill="black"/>
</svg>
