<svg width="333" height="20" viewBox="0 0 333 20" fill="none" xmlns="http://www.w3.org/2000/svg">
<path d="M13.7222 0C14.8 0.0110988 15.6778 0.566038 16.1889 1.56493C16.3208 1.82852 16.5049 2.21351 16.6976 2.61964L16.9302 3.11071L17.0444 3.35183L17.1556 3.596C17.2 3.6737 17.2778 3.72919 17.3778 3.72919C20.0444 3.72919 22.2222 5.90455 22.2222 8.56826V15.1609C22.2222 17.8246 20.0444 20 17.3778 20H4.84444C2.16667 20 0 17.8246 0 15.1609V8.56826C0 5.90455 2.16667 3.72919 4.84444 3.72919C4.93333 3.72919 5.02222 3.68479 5.05556 3.596L5.12222 3.46282C5.43333 2.80799 5.81111 2.00888 6.03333 1.56493C6.54444 0.566038 7.41111 0.0110988 8.48889 0H13.7222ZM11.1111 7.11432C9.94444 7.11432 8.84445 7.56937 8.01111 8.40178C7.18889 9.23419 6.73333 10.3219 6.74444 11.4761C6.74444 12.6415 7.2 13.7292 8.02222 14.5616C8.85556 15.3829 9.94444 15.838 11.1111 15.838C12.3111 15.838 13.4 15.3496 14.1889 14.5616C14.9778 13.7736 15.4667 12.6859 15.4778 11.4761C15.4778 10.3219 15.0222 9.22309 14.2 8.39068C13.3778 7.56937 12.2778 7.11432 11.1111 7.11432ZM11.1111 8.77913C11.8333 8.77913 12.5111 9.0566 13.0222 9.56715C13.5333 10.0777 13.8111 10.7547 13.8111 11.4761C13.8 12.9634 12.6 14.1731 11.1111 14.1731C10.3889 14.1731 9.71111 13.8957 9.2 13.3851C8.68889 12.8746 8.41111 12.1976 8.41111 11.4761V11.465C8.4 10.7658 8.67778 10.0888 9.18889 9.57825C9.71111 9.0566 10.3889 8.77913 11.1111 8.77913ZM17.3444 6.84795C16.7889 6.84795 16.3444 7.303 16.3444 7.85794C16.3444 8.41288 16.7889 8.85683 17.3444 8.85683C17.9 8.85683 18.3556 8.41288 18.3556 7.85794C18.3556 7.303 17.9 6.84795 17.3444 6.84795Z" fill="black"/>
<path d="M42.0291 15V14.384C42.3371 14.3653 42.5564 14.3 42.6871 14.188C42.8271 14.076 42.9158 13.908 42.9531 13.684C42.9904 13.46 43.0091 13.1753 43.0091 12.83V7.006C43.0091 6.80067 43.0138 6.60467 43.0231 6.418C43.0324 6.222 43.0418 6.054 43.0511 5.914C42.8924 5.92333 42.7198 5.93267 42.5331 5.942C42.3464 5.95133 42.1784 5.96067 42.0291 5.97V5.2H48.6931L48.7771 7.734H48.1611C48.1611 7.202 48.0724 6.796 47.8951 6.516C47.7178 6.236 47.4891 6.04933 47.2091 5.956C46.9291 5.86267 46.6258 5.82067 46.2991 5.83L45.4591 5.858C45.1604 5.858 44.9411 5.91867 44.8011 6.04C44.6704 6.16133 44.5864 6.334 44.5491 6.558C44.5118 6.782 44.4931 7.06667 44.4931 7.412V9.82L46.6071 9.834L46.5231 8.616H47.2931V11.724H46.6771C46.6771 11.3133 46.6164 11.0193 46.4951 10.842C46.3831 10.6647 46.2104 10.5573 45.9771 10.52C45.7438 10.4827 45.4544 10.4687 45.1091 10.478L44.4931 10.506V13.124C44.4931 13.376 44.4884 13.6047 44.4791 13.81C44.4791 14.006 44.4698 14.1647 44.4511 14.286C44.5911 14.2767 44.7404 14.272 44.8991 14.272C45.0671 14.2627 45.2304 14.2533 45.3891 14.244C45.5478 14.2347 45.6924 14.23 45.8231 14.23V15H42.0291ZM53.2379 15C53.2192 14.8507 53.2052 14.72 53.1959 14.608C53.1865 14.496 53.1725 14.3793 53.1539 14.258C52.8365 14.5753 52.4959 14.818 52.1319 14.986C51.7679 15.1447 51.3899 15.224 50.9979 15.224C50.3259 15.224 49.8172 15.0607 49.4719 14.734C49.1359 14.398 48.9679 13.9827 48.9679 13.488C48.9679 13.0587 49.0939 12.6853 49.3459 12.368C49.5979 12.0507 49.9292 11.794 50.3399 11.598C50.7505 11.3927 51.1985 11.2433 51.6839 11.15C52.1692 11.0473 52.6452 10.996 53.1119 10.996V10.17C53.1119 9.87133 53.0839 9.596 53.0279 9.344C52.9719 9.08267 52.8552 8.87267 52.6779 8.714C52.5099 8.546 52.2439 8.462 51.8799 8.462C51.6372 8.45267 51.3945 8.49933 51.1519 8.602C50.9092 8.69533 50.7225 8.854 50.5919 9.078C50.6665 9.15267 50.7132 9.24133 50.7319 9.344C50.7599 9.43733 50.7739 9.526 50.7739 9.61C50.7739 9.74067 50.7179 9.89 50.6059 10.058C50.4939 10.2167 50.3025 10.2913 50.0319 10.282C49.8079 10.282 49.6352 10.2073 49.5139 10.058C49.4019 9.89933 49.3459 9.71733 49.3459 9.512C49.3459 9.176 49.4672 8.87733 49.7099 8.616C49.9619 8.35467 50.3025 8.14933 50.7319 8C51.1612 7.85067 51.6419 7.776 52.1739 7.776C52.9765 7.776 53.5739 7.986 53.9659 8.406C54.3672 8.826 54.5679 9.48867 54.5679 10.394C54.5679 10.73 54.5679 11.052 54.5679 11.36C54.5679 11.668 54.5632 11.976 54.5539 12.284C54.5539 12.592 54.5539 12.9187 54.5539 13.264C54.5539 13.404 54.5492 13.5627 54.5399 13.74C54.5305 13.9173 54.5165 14.104 54.4979 14.3C54.6565 14.2907 54.8199 14.2813 54.9879 14.272C55.1559 14.2627 55.3145 14.258 55.4639 14.258V15H53.2379ZM53.1119 11.64C52.8132 11.6587 52.5052 11.7007 52.1879 11.766C51.8799 11.8313 51.5999 11.9293 51.3479 12.06C51.0959 12.1907 50.8905 12.3587 50.7319 12.564C50.5825 12.7693 50.5079 13.0167 50.5079 13.306C50.5265 13.6233 50.6292 13.8567 50.8159 14.006C51.0119 14.1553 51.2405 14.23 51.5019 14.23C51.8285 14.23 52.1179 14.1693 52.3699 14.048C52.6219 13.9173 52.8692 13.74 53.1119 13.516C53.1025 13.4133 53.0979 13.3107 53.0979 13.208C53.0979 13.096 53.0979 12.9793 53.0979 12.858C53.0979 12.774 53.0979 12.62 53.0979 12.396C53.1072 12.1627 53.1119 11.9107 53.1119 11.64ZM56.2136 15V14.412C56.4936 14.412 56.685 14.3467 56.7876 14.216C56.8996 14.0853 56.965 13.9033 56.9836 13.67C57.0116 13.4367 57.0256 13.166 57.0256 12.858L57.0396 6.53C57.0396 6.37133 57.0396 6.21267 57.0396 6.054C57.049 5.886 57.063 5.70867 57.0816 5.522C56.923 5.53133 56.755 5.54067 56.5776 5.55C56.4003 5.55 56.2416 5.55467 56.1016 5.564V4.822C56.5123 4.822 56.839 4.80333 57.0816 4.766C57.3336 4.71933 57.5296 4.668 57.6696 4.612C57.8096 4.556 57.9076 4.49533 57.9636 4.43H58.4956V10.968H59.0976L60.5676 9.386C60.717 9.23667 60.8476 9.106 60.9596 8.994C61.0716 8.882 61.1836 8.784 61.2956 8.7L60.4136 8.728V8H63.1716V8.574C62.845 8.61133 62.5463 8.70933 62.2756 8.868C62.0143 9.01733 61.7763 9.19 61.5616 9.386C61.347 9.582 61.165 9.764 61.0156 9.932L59.9796 11.024C60.157 11.108 60.311 11.2153 60.4416 11.346C60.5723 11.4673 60.7123 11.626 60.8616 11.822L61.8416 13.082C61.8883 13.138 61.963 13.2407 62.0656 13.39C62.1776 13.53 62.3083 13.6793 62.4576 13.838C62.607 13.9967 62.761 14.132 62.9196 14.244C63.0876 14.356 63.2463 14.412 63.3956 14.412V15H62.0096C61.739 15 61.487 14.874 61.2536 14.622C61.0296 14.37 60.7823 14.0667 60.5116 13.712C60.2876 13.4133 60.0823 13.1333 59.8956 12.872C59.709 12.6013 59.5363 12.3587 59.3776 12.144C59.2283 11.9293 59.0976 11.7613 58.9856 11.64L58.4956 11.668V13.264C58.4956 13.432 58.491 13.6047 58.4816 13.782C58.4816 13.95 58.4676 14.1227 58.4396 14.3C58.589 14.2907 58.743 14.286 58.9016 14.286C59.0603 14.2767 59.205 14.2673 59.3356 14.258V15H56.2136ZM67.3292 15.224C66.6759 15.224 66.0879 15.0747 65.5652 14.776C65.0519 14.468 64.6459 14.0387 64.3472 13.488C64.0485 12.928 63.8992 12.27 63.8992 11.514C63.8992 10.8607 64.0439 10.2493 64.3332 9.68C64.6319 9.11067 65.0472 8.65333 65.5792 8.308C66.1112 7.95333 66.7272 7.776 67.4272 7.776C67.8192 7.776 68.1879 7.83667 68.5332 7.958C68.8879 8.07933 69.2005 8.27067 69.4712 8.532C69.7512 8.784 69.9705 9.11533 70.1292 9.526C70.2879 9.92733 70.3672 10.4173 70.3672 10.996L65.5512 11.08C65.5512 11.7147 65.6212 12.2793 65.7612 12.774C65.9105 13.2687 66.1485 13.6513 66.4752 13.922C66.8019 14.1927 67.2265 14.328 67.7492 14.328C68.0012 14.328 68.2672 14.286 68.5472 14.202C68.8365 14.1087 69.1072 13.978 69.3592 13.81C69.6205 13.642 69.8399 13.4413 70.0172 13.208L70.4512 13.586C70.1712 14.006 69.8492 14.3373 69.4852 14.58C69.1212 14.8133 68.7479 14.9767 68.3652 15.07C67.9919 15.1727 67.6465 15.224 67.3292 15.224ZM65.6072 10.352H68.8412C68.8412 9.99733 68.7899 9.68 68.6872 9.4C68.5939 9.11067 68.4445 8.882 68.2392 8.714C68.0339 8.546 67.7725 8.462 67.4552 8.462C66.9605 8.462 66.5545 8.62067 66.2372 8.938C65.9199 9.246 65.7099 9.71733 65.6072 10.352ZM75.0951 18.57V17.982C75.3751 17.982 75.5711 17.9167 75.6831 17.786C75.7951 17.6553 75.8605 17.4733 75.8791 17.24C75.9071 17.0067 75.9211 16.736 75.9211 16.428L75.9351 9.946C75.9351 9.79667 75.9398 9.638 75.9491 9.47C75.9585 9.29267 75.9725 9.12 75.9911 8.952C75.8325 8.96133 75.6645 8.97067 75.4871 8.98C75.3098 8.98 75.1465 8.98467 74.9971 8.994V8.252C75.4171 8.252 75.7438 8.23333 75.9771 8.196C76.2198 8.14933 76.4018 8.098 76.5231 8.042C76.6538 7.986 76.7518 7.92533 76.8171 7.86H77.3211C77.3305 7.95333 77.3398 8.06533 77.3491 8.196C77.3585 8.32667 77.3678 8.45733 77.3771 8.588C77.6758 8.32667 78.0071 8.126 78.3711 7.986C78.7351 7.846 79.0991 7.776 79.4631 7.776C80.0045 7.776 80.4991 7.92067 80.9471 8.21C81.4045 8.49 81.7685 8.89133 82.0391 9.414C82.3191 9.93667 82.4591 10.5573 82.4591 11.276C82.4591 12.0507 82.3005 12.7367 81.9831 13.334C81.6658 13.9313 81.2365 14.398 80.6951 14.734C80.1631 15.0607 79.5705 15.224 78.9171 15.224C78.6185 15.224 78.3431 15.1867 78.0911 15.112C77.8391 15.0467 77.6011 14.9533 77.3771 14.832V16.834C77.3771 17.002 77.3725 17.17 77.3631 17.338C77.3631 17.5153 77.3538 17.6927 77.3351 17.87C77.4845 17.8607 77.6338 17.8513 77.7831 17.842C77.9418 17.842 78.0865 17.8373 78.2171 17.828V18.57H75.0951ZM78.8191 14.496C79.2671 14.496 79.6358 14.3653 79.9251 14.104C80.2238 13.8333 80.4431 13.474 80.5831 13.026C80.7325 12.5687 80.8071 12.0553 80.8071 11.486C80.8071 11.01 80.7418 10.5573 80.6111 10.128C80.4805 9.68933 80.2705 9.33467 79.9811 9.064C79.7011 8.784 79.3325 8.64867 78.8751 8.658C78.5858 8.658 78.3105 8.728 78.0491 8.868C77.7878 9.008 77.5685 9.18067 77.3911 9.386C77.3911 9.50733 77.3911 9.638 77.3911 9.778C77.4005 9.918 77.4051 10.0953 77.4051 10.31C77.4051 10.5153 77.4051 10.7813 77.4051 11.108C77.4051 11.4253 77.4005 11.8267 77.3911 12.312C77.3911 12.788 77.3911 13.3667 77.3911 14.048C77.5778 14.188 77.7925 14.3 78.0351 14.384C78.2871 14.468 78.5485 14.5053 78.8191 14.496ZM83.5883 14.412C83.8683 14.412 84.0643 14.3467 84.1763 14.216C84.2883 14.0853 84.3537 13.9033 84.3723 13.67C84.4003 13.4367 84.4143 13.166 84.4143 12.858V9.946C84.4143 9.79667 84.4143 9.638 84.4143 9.47C84.4237 9.29267 84.4423 9.12 84.4703 8.952C84.3117 8.96133 84.1437 8.97067 83.9663 8.98C83.789 8.98 83.6257 8.98467 83.4763 8.994V8.252H83.9523C84.3443 8.252 84.643 8.21 84.8483 8.126C85.0537 8.042 85.203 7.95333 85.2963 7.86H85.8003C85.819 7.99067 85.833 8.17267 85.8423 8.406C85.8517 8.63933 85.861 8.90067 85.8703 9.19C86.0477 8.92867 86.253 8.69533 86.4863 8.49C86.7197 8.27533 86.9717 8.10267 87.2423 7.972C87.5223 7.84133 87.8117 7.776 88.1103 7.776C88.3997 7.776 88.647 7.85533 88.8523 8.014C89.067 8.16333 89.1743 8.41067 89.1743 8.756C89.1743 8.84933 89.1463 8.95667 89.0903 9.078C89.0437 9.19933 88.9597 9.30667 88.8383 9.4C88.7263 9.484 88.5723 9.526 88.3763 9.526C88.1803 9.51667 88.0077 9.442 87.8583 9.302C87.7183 9.162 87.653 8.97067 87.6623 8.728C87.4383 8.728 87.2143 8.798 86.9903 8.938C86.7663 9.06867 86.5563 9.246 86.3603 9.47C86.1737 9.694 86.015 9.93667 85.8843 10.198V13.264C85.8843 13.432 85.8797 13.6047 85.8703 13.782C85.8703 13.95 85.8563 14.1227 85.8283 14.3C85.9777 14.2907 86.1317 14.286 86.2903 14.286C86.449 14.2767 86.5937 14.2673 86.7243 14.258V15H83.5883V14.412ZM93.2397 15.224C92.577 15.224 91.9797 15.0747 91.4477 14.776C90.9157 14.4773 90.491 14.062 90.1737 13.53C89.8657 12.9887 89.7117 12.368 89.7117 11.668C89.7117 10.912 89.8657 10.2447 90.1737 9.666C90.491 9.078 90.9157 8.616 91.4477 8.28C91.9797 7.944 92.5724 7.776 93.2257 7.776C93.8884 7.776 94.4857 7.93 95.0177 8.238C95.5497 8.53667 95.9697 8.95667 96.2777 9.498C96.595 10.03 96.7537 10.646 96.7537 11.346C96.7537 12.0833 96.5997 12.746 96.2917 13.334C95.9837 13.922 95.5637 14.384 95.0317 14.72C94.509 15.056 93.9117 15.224 93.2397 15.224ZM93.3377 14.524C93.7857 14.5147 94.1357 14.3747 94.3877 14.104C94.649 13.8333 94.8357 13.488 94.9477 13.068C95.0597 12.6387 95.1157 12.1953 95.1157 11.738C95.1157 11.3367 95.0784 10.9447 95.0037 10.562C94.9384 10.17 94.831 9.81533 94.6817 9.498C94.5324 9.18067 94.3364 8.92867 94.0937 8.742C93.851 8.546 93.557 8.45267 93.2117 8.462C92.773 8.462 92.4137 8.59733 92.1337 8.868C91.863 9.13867 91.6624 9.48867 91.5317 9.918C91.4104 10.338 91.3497 10.786 91.3497 11.262C91.3497 11.8127 91.4197 12.3353 91.5597 12.83C91.6997 13.3247 91.9144 13.7307 92.2037 14.048C92.5024 14.3653 92.8804 14.524 93.3377 14.524ZM97.8908 15V14.412C98.1708 14.412 98.3668 14.3467 98.4788 14.216C98.5908 14.0853 98.6561 13.9033 98.6748 13.67C98.7028 13.4367 98.7168 13.166 98.7168 12.858L98.7028 8.784L97.5968 8.812V8H98.7028C98.7214 6.796 99.0061 5.89533 99.5568 5.298C100.117 4.69133 100.929 4.388 101.993 4.388C102.581 4.388 103.089 4.45333 103.519 4.584C103.948 4.71467 104.279 4.88733 104.513 5.102C104.746 5.30733 104.858 5.522 104.849 5.746C104.849 5.93267 104.793 6.10533 104.681 6.264C104.569 6.42267 104.396 6.502 104.163 6.502C103.92 6.51133 103.738 6.44133 103.617 6.292C103.505 6.14267 103.449 5.98867 103.449 5.83C103.449 5.774 103.453 5.718 103.463 5.662C103.472 5.59667 103.486 5.536 103.505 5.48C103.393 5.38667 103.225 5.298 103.001 5.214C102.786 5.12067 102.506 5.074 102.161 5.074C101.703 5.074 101.325 5.172 101.027 5.368C100.728 5.564 100.504 5.84867 100.355 6.222C100.215 6.586 100.145 7.02467 100.145 7.538V8H102.679C102.959 8 103.22 7.99533 103.463 7.986C103.705 7.97667 103.906 7.96267 104.065 7.944C104.223 7.916 104.317 7.888 104.345 7.86H104.877V13.264C104.877 13.432 104.872 13.6047 104.863 13.782C104.853 13.95 104.839 14.1227 104.821 14.3C104.97 14.2907 105.119 14.286 105.269 14.286C105.427 14.2767 105.572 14.2673 105.703 14.258V15H102.581V14.412C102.861 14.412 103.057 14.3467 103.169 14.216C103.281 14.0853 103.346 13.9033 103.365 13.67C103.393 13.4367 103.407 13.166 103.407 12.858V9.68C103.407 9.53067 103.411 9.37667 103.421 9.218C103.43 9.05 103.444 8.868 103.463 8.672L100.159 8.756L100.173 13.264C100.173 13.432 100.168 13.6047 100.159 13.782C100.149 13.95 100.135 14.1227 100.117 14.3C100.266 14.2907 100.42 14.286 100.579 14.286C100.747 14.2767 100.896 14.2673 101.027 14.258V15H97.8908ZM106.58 14.412C106.86 14.412 107.056 14.3467 107.168 14.216C107.28 14.0853 107.346 13.9033 107.364 13.67C107.392 13.4367 107.406 13.166 107.406 12.858V6.53C107.406 6.37133 107.406 6.21267 107.406 6.054C107.416 5.886 107.43 5.70867 107.448 5.522C107.29 5.53133 107.122 5.54067 106.944 5.55C106.767 5.55 106.608 5.55467 106.468 5.564V4.822C106.888 4.822 107.22 4.80333 107.462 4.766C107.714 4.71933 107.906 4.668 108.036 4.612C108.176 4.556 108.279 4.49533 108.344 4.43H108.876V13.264C108.876 13.432 108.872 13.6047 108.862 13.782C108.853 13.95 108.839 14.1227 108.82 14.3C108.97 14.2907 109.119 14.286 109.268 14.286C109.427 14.2767 109.572 14.2673 109.702 14.258V15H106.58V14.412ZM114.101 15.224C113.447 15.224 112.859 15.0747 112.337 14.776C111.823 14.468 111.417 14.0387 111.119 13.488C110.82 12.928 110.671 12.27 110.671 11.514C110.671 10.8607 110.815 10.2493 111.105 9.68C111.403 9.11067 111.819 8.65333 112.351 8.308C112.883 7.95333 113.499 7.776 114.199 7.776C114.591 7.776 114.959 7.83667 115.305 7.958C115.659 8.07933 115.972 8.27067 116.243 8.532C116.523 8.784 116.742 9.11533 116.901 9.526C117.059 9.92733 117.139 10.4173 117.139 10.996L112.323 11.08C112.323 11.7147 112.393 12.2793 112.533 12.774C112.682 13.2687 112.92 13.6513 113.247 13.922C113.573 14.1927 113.998 14.328 114.521 14.328C114.773 14.328 115.039 14.286 115.319 14.202C115.608 14.1087 115.879 13.978 116.131 13.81C116.392 13.642 116.611 13.4413 116.789 13.208L117.223 13.586C116.943 14.006 116.621 14.3373 116.257 14.58C115.893 14.8133 115.519 14.9767 115.137 15.07C114.763 15.1727 114.418 15.224 114.101 15.224ZM112.379 10.352H115.613C115.613 9.99733 115.561 9.68 115.459 9.4C115.365 9.11067 115.216 8.882 115.011 8.714C114.805 8.546 114.544 8.462 114.227 8.462C113.732 8.462 113.326 8.62067 113.009 8.938C112.691 9.246 112.481 9.71733 112.379 10.352Z" fill="black"/>
<path d="M326.231 4.23485C326.304 4.1604 326.391 4.10134 326.486 4.06104C326.581 4.02074 326.684 4 326.787 4C326.89 4 326.992 4.02074 327.087 4.06104C327.183 4.10134 327.269 4.1604 327.342 4.23485L332.556 9.54907C332.615 9.60823 332.661 9.6785 332.692 9.75587C332.724 9.83323 332.74 9.91616 332.74 9.99991C332.74 10.0837 332.724 10.1666 332.692 10.244C332.661 10.3213 332.615 10.3916 332.556 10.4508L327.342 15.765C327.035 16.0783 326.539 16.0783 326.231 15.765C325.924 15.4516 325.924 14.9464 326.231 14.6331L330.774 9.99672L326.225 5.36036C325.924 5.0534 325.924 4.5418 326.231 4.23485Z" fill="black"/>
</svg>
