<svg width="333" height="20" viewBox="0 0 333 20" fill="none" xmlns="http://www.w3.org/2000/svg">
<path d="M10 0C8.02219 0 6.08879 0.58649 4.4443 1.6853C2.79981 2.78412 1.51809 4.3459 0.761209 6.17316C0.00433284 8.00042 -0.1937 10.0111 0.192152 11.9509C0.578004 13.8907 1.53041 15.6725 2.92894 17.0711C4.32746 18.4696 6.10929 19.422 8.0491 19.8078C9.98891 20.1937 11.9996 19.9957 13.8268 19.2388C15.6541 18.4819 17.2159 17.2002 18.3147 15.5557C19.4135 13.9112 20 11.9778 20 10C19.997 7.34874 18.9425 4.80691 17.0678 2.93219C15.1931 1.05746 12.6513 0.00294858 10 0ZM10 18C8.41775 18 6.87103 17.5308 5.55544 16.6518C4.23985 15.7727 3.21447 14.5233 2.60897 13.0615C2.00347 11.5997 1.84504 9.99112 2.15372 8.43927C2.4624 6.88743 3.22433 5.46196 4.34315 4.34314C5.46197 3.22432 6.88743 2.4624 8.43928 2.15372C9.99113 1.84504 11.5997 2.00346 13.0615 2.60896C14.5233 3.21446 15.7727 4.23984 16.6518 5.55544C17.5308 6.87103 18 8.41775 18 10C17.9976 12.121 17.1539 14.1544 15.6542 15.6542C14.1544 17.1539 12.121 17.9976 10 18ZM10 9.5C9.73479 9.5 9.48043 9.60535 9.2929 9.79289C9.10536 9.98043 9 10.2348 9 10.5V13.5C9 13.7652 9.10536 14.0196 9.2929 14.2071C9.48043 14.3946 9.73479 14.5 10 14.5C10.2652 14.5 10.5196 14.3946 10.7071 14.2071C10.8946 14.0196 11 13.7652 11 13.5V10.5C11 10.2348 10.8946 9.98043 10.7071 9.79289C10.5196 9.60535 10.2652 9.5 10 9.5ZM10 5.5C9.75278 5.5 9.5111 5.57331 9.30554 5.71066C9.09998 5.84801 8.93976 6.04324 8.84515 6.27164C8.75054 6.50005 8.72579 6.75138 8.77402 6.99386C8.82225 7.23634 8.9413 7.45907 9.11612 7.63388C9.29093 7.8087 9.51366 7.92775 9.75614 7.97598C9.99862 8.02421 10.2499 7.99946 10.4784 7.90485C10.7068 7.81024 10.902 7.65002 11.0393 7.44446C11.1767 7.2389 11.25 6.99722 11.25 6.75C11.25 6.41848 11.1183 6.10054 10.8839 5.86611C10.6495 5.63169 10.3315 5.5 10 5.5Z" fill="black"/>
<path d="M45.2026 5.816C44.9039 5.82533 44.6846 5.89067 44.5446 6.012C44.4046 6.124 44.3159 6.292 44.2786 6.516C44.2413 6.73067 44.2226 7.01533 44.2226 7.37V13.124C44.2226 13.376 44.2179 13.6047 44.2086 13.81C44.2086 14.006 44.1993 14.1647 44.1806 14.286C44.3393 14.2673 44.5119 14.258 44.6986 14.258C44.8946 14.2487 45.0626 14.2393 45.2026 14.23V15H41.7586V14.384C42.0666 14.3653 42.2859 14.3 42.4166 14.188C42.5566 14.076 42.6453 13.908 42.6826 13.684C42.7199 13.46 42.7386 13.1753 42.7386 12.83V7.006C42.7386 6.80067 42.7433 6.60467 42.7526 6.418C42.7619 6.222 42.7713 6.054 42.7806 5.914C42.6219 5.92333 42.4493 5.93267 42.2626 5.942C42.0759 5.95133 41.9079 5.96067 41.7586 5.97V5.2H45.2026V5.816ZM49.1104 15.224C48.541 15.224 48.0324 15.084 47.5844 14.804C47.1457 14.5147 46.7957 14.104 46.5344 13.572C46.2824 13.04 46.1564 12.4147 46.1564 11.696C46.1564 10.9307 46.3057 10.254 46.6044 9.666C46.903 9.078 47.323 8.616 47.8644 8.28C48.4057 7.944 49.0217 7.776 49.7124 7.776C50.0017 7.776 50.277 7.81333 50.5384 7.888C50.809 7.95333 51.033 8.03267 51.2104 8.126V6.53C51.2104 6.39 51.215 6.236 51.2244 6.068C51.2337 5.89067 51.2477 5.70867 51.2664 5.522C51.0984 5.53133 50.9257 5.54067 50.7484 5.55C50.571 5.55933 50.4124 5.564 50.2724 5.564V4.822C50.6924 4.822 51.0237 4.80333 51.2664 4.766C51.5184 4.71933 51.7097 4.668 51.8404 4.612C51.9804 4.556 52.083 4.49533 52.1484 4.43H52.6664V13.264C52.6664 13.404 52.6617 13.5627 52.6524 13.74C52.643 13.9173 52.629 14.104 52.6104 14.3C52.7784 14.2907 52.9464 14.2813 53.1144 14.272C53.2824 14.2627 53.4364 14.258 53.5764 14.258V15H51.3504C51.3317 14.8693 51.313 14.748 51.2944 14.636C51.285 14.524 51.2757 14.412 51.2664 14.3C50.9864 14.5987 50.6644 14.8273 50.3004 14.986C49.9364 15.1447 49.5397 15.224 49.1104 15.224ZM49.6844 14.342C49.9737 14.342 50.2537 14.2627 50.5244 14.104C50.8044 13.9453 51.033 13.7447 51.2104 13.502C51.2104 13.3807 51.2104 13.2547 51.2104 13.124C51.2104 12.9933 51.2104 12.8533 51.2104 12.704V8.896C51.033 8.76533 50.823 8.66733 50.5804 8.602C50.347 8.52733 50.1044 8.49 49.8524 8.49C49.395 8.49 49.0077 8.62533 48.6904 8.896C48.3824 9.15733 48.1537 9.51667 48.0044 9.974C47.855 10.4313 47.785 10.954 47.7944 11.542C47.813 12.046 47.8924 12.5127 48.0324 12.942C48.1724 13.3713 48.3777 13.712 48.6484 13.964C48.9284 14.216 49.2737 14.342 49.6844 14.342ZM57.9259 15.224C57.2725 15.224 56.6845 15.0747 56.1619 14.776C55.6485 14.468 55.2425 14.0387 54.9439 13.488C54.6452 12.928 54.4959 12.27 54.4959 11.514C54.4959 10.8607 54.6405 10.2493 54.9299 9.68C55.2285 9.11067 55.6439 8.65333 56.1759 8.308C56.7079 7.95333 57.3239 7.776 58.0239 7.776C58.4159 7.776 58.7845 7.83667 59.1299 7.958C59.4845 8.07933 59.7972 8.27067 60.0679 8.532C60.3479 8.784 60.5672 9.11533 60.7259 9.526C60.8845 9.92733 60.9639 10.4173 60.9639 10.996L56.1479 11.08C56.1479 11.7147 56.2179 12.2793 56.3579 12.774C56.5072 13.2687 56.7452 13.6513 57.0719 13.922C57.3985 14.1927 57.8232 14.328 58.3459 14.328C58.5979 14.328 58.8639 14.286 59.1439 14.202C59.4332 14.1087 59.7039 13.978 59.9559 13.81C60.2172 13.642 60.4365 13.4413 60.6139 13.208L61.0479 13.586C60.7679 14.006 60.4459 14.3373 60.0819 14.58C59.7179 14.8133 59.3445 14.9767 58.9619 15.07C58.5885 15.1727 58.2432 15.224 57.9259 15.224ZM56.2039 10.352H59.4379C59.4379 9.99733 59.3865 9.68 59.2839 9.4C59.1905 9.11067 59.0412 8.882 58.8359 8.714C58.6305 8.546 58.3692 8.462 58.0519 8.462C57.5572 8.462 57.1512 8.62067 56.8339 8.938C56.5165 9.246 56.3065 9.71733 56.2039 10.352ZM62.1401 15V14.412C62.4201 14.412 62.6161 14.3467 62.7281 14.216C62.8401 14.0853 62.9054 13.9033 62.9241 13.67C62.9521 13.4367 62.9661 13.166 62.9661 12.858L62.9801 9.946C62.9801 9.79667 62.9801 9.638 62.9801 9.47C62.9894 9.29267 63.0081 9.12 63.0361 8.952C62.8681 8.96133 62.6954 8.97067 62.5181 8.98C62.3501 8.98 62.1914 8.98467 62.0421 8.994V8.252C62.4621 8.252 62.7888 8.23333 63.0221 8.196C63.2648 8.14933 63.4468 8.098 63.5681 8.042C63.6988 7.986 63.7968 7.92533 63.8621 7.86H64.3661C64.3754 7.944 64.3801 8.02333 64.3801 8.098C64.3894 8.17267 64.3941 8.252 64.3941 8.336C64.4034 8.42 64.4128 8.52733 64.4221 8.658C64.6274 8.49 64.8514 8.34067 65.0941 8.21C65.3368 8.07933 65.5888 7.97667 65.8501 7.902C66.1208 7.818 66.3774 7.776 66.6201 7.776C67.4508 7.776 68.0481 8.028 68.4121 8.532C68.7854 9.036 68.9721 9.82467 68.9721 10.898V13.264C68.9721 13.432 68.9674 13.6047 68.9581 13.782C68.9488 13.95 68.9348 14.1227 68.9161 14.3C69.0654 14.2907 69.2148 14.286 69.3641 14.286C69.5228 14.2767 69.6674 14.2673 69.7981 14.258V15H66.6761V14.412C66.9561 14.412 67.1521 14.3467 67.2641 14.216C67.3761 14.0853 67.4414 13.9033 67.4601 13.67C67.4881 13.4367 67.5021 13.166 67.5021 12.858V10.898C67.4928 10.1607 67.3714 9.60533 67.1381 9.232C66.9141 8.85867 66.5501 8.67667 66.0461 8.686C65.7474 8.686 65.4534 8.76067 65.1641 8.91C64.8748 9.05933 64.6321 9.24133 64.4361 9.456C64.4361 9.54933 64.4361 9.652 64.4361 9.764C64.4361 9.86667 64.4361 9.974 64.4361 10.086V13.264C64.4361 13.432 64.4314 13.6047 64.4221 13.782C64.4128 13.95 64.3988 14.1227 64.3801 14.3C64.5294 14.2907 64.6788 14.286 64.8281 14.286C64.9868 14.2767 65.1314 14.2673 65.2621 14.258V15H62.1401ZM73.3453 15.224C73.112 15.224 72.8787 15.1913 72.6453 15.126C72.412 15.07 72.1927 14.9533 71.9873 14.776C71.7913 14.5893 71.6373 14.3233 71.5253 13.978C71.4133 13.6327 71.3573 13.1753 71.3573 12.606L71.3853 8.784H70.3493V8C70.6013 7.99067 70.858 7.89733 71.1193 7.72C71.3807 7.54267 71.6093 7.30467 71.8053 7.006C72.0013 6.70733 72.1367 6.38533 72.2113 6.04H72.8693V8H75.0253V8.728L72.8693 8.756L72.8413 12.494C72.8413 12.8487 72.8693 13.1613 72.9253 13.432C72.9907 13.6933 73.0933 13.8987 73.2333 14.048C73.3827 14.188 73.5833 14.258 73.8353 14.258C74.05 14.258 74.2693 14.1927 74.4933 14.062C74.7267 13.9313 74.946 13.7167 75.1513 13.418L75.6273 13.838C75.4033 14.1647 75.1793 14.4213 74.9553 14.608C74.7313 14.7947 74.5167 14.93 74.3113 15.014C74.106 15.1073 73.9193 15.1633 73.7513 15.182C73.5833 15.21 73.448 15.224 73.3453 15.224ZM76.2221 14.412C76.5021 14.412 76.6981 14.3467 76.8101 14.216C76.9221 14.0853 76.9875 13.9033 77.0061 13.67C77.0341 13.4367 77.0481 13.166 77.0481 12.858V9.96C77.0481 9.80133 77.0528 9.64267 77.0621 9.484C77.0715 9.316 77.0855 9.13867 77.1041 8.952C76.9455 8.96133 76.7775 8.97067 76.6001 8.98C76.4228 8.98 76.2595 8.98467 76.1101 8.994V8.252C76.5301 8.252 76.8615 8.23333 77.1041 8.196C77.3561 8.14933 77.5475 8.098 77.6781 8.042C77.8181 7.986 77.9208 7.92533 77.9861 7.86H78.5181V13.264C78.5181 13.432 78.5135 13.6047 78.5041 13.782C78.4948 13.95 78.4808 14.1227 78.4621 14.3C78.6115 14.2907 78.7608 14.286 78.9101 14.286C79.0688 14.2767 79.2135 14.2673 79.3441 14.258V15H76.2221V14.412ZM77.7201 6.572C77.4775 6.572 77.2721 6.48333 77.1041 6.306C76.9361 6.11933 76.8521 5.89533 76.8521 5.634C76.8521 5.37267 76.9408 5.15333 77.1181 4.976C77.2955 4.78933 77.4961 4.696 77.7201 4.696C77.9628 4.696 78.1635 4.78933 78.3221 4.976C78.4901 5.15333 78.5741 5.37267 78.5741 5.634C78.5741 5.89533 78.4901 6.11933 78.3221 6.306C78.1635 6.48333 77.9628 6.572 77.7201 6.572ZM83.1617 15.224C82.9284 15.224 82.6951 15.1913 82.4617 15.126C82.2284 15.07 82.0091 14.9533 81.8037 14.776C81.6077 14.5893 81.4537 14.3233 81.3417 13.978C81.2297 13.6327 81.1737 13.1753 81.1737 12.606L81.2017 8.784H80.1657V8C80.4177 7.99067 80.6744 7.89733 80.9357 7.72C81.1971 7.54267 81.4257 7.30467 81.6217 7.006C81.8177 6.70733 81.9531 6.38533 82.0277 6.04H82.6857V8H84.8417V8.728L82.6857 8.756L82.6577 12.494C82.6577 12.8487 82.6857 13.1613 82.7417 13.432C82.8071 13.6933 82.9097 13.8987 83.0497 14.048C83.1991 14.188 83.3997 14.258 83.6517 14.258C83.8664 14.258 84.0857 14.1927 84.3097 14.062C84.5431 13.9313 84.7624 13.7167 84.9677 13.418L85.4437 13.838C85.2197 14.1647 84.9957 14.4213 84.7717 14.608C84.5477 14.7947 84.3331 14.93 84.1277 15.014C83.9224 15.1073 83.7357 15.1633 83.5677 15.182C83.3997 15.21 83.2644 15.224 83.1617 15.224ZM87.2702 18.794C86.9622 18.794 86.6962 18.71 86.4722 18.542C86.2575 18.3833 86.1502 18.15 86.1502 17.842C86.1502 17.646 86.2109 17.4687 86.3322 17.31C86.4629 17.1513 86.6309 17.072 86.8362 17.072C87.0602 17.0627 87.2189 17.1327 87.3122 17.282C87.4149 17.4313 87.4662 17.5853 87.4662 17.744C87.4662 17.772 87.4662 17.8 87.4662 17.828C87.4662 17.856 87.4615 17.8887 87.4522 17.926C87.4802 17.9447 87.5222 17.9493 87.5782 17.94C87.6809 17.9307 87.7929 17.8747 87.9142 17.772C88.0355 17.6693 88.1475 17.5247 88.2502 17.338C88.3622 17.1327 88.4882 16.848 88.6282 16.484C88.7682 16.12 88.9222 15.7 89.0902 15.224L86.8922 10.632C86.6402 10.1093 86.4629 9.70333 86.3602 9.414C86.2669 9.11533 86.2062 8.882 86.1782 8.714L85.5062 8.742V8H88.6002V8.574H88.5722C88.1895 8.61133 87.9795 8.756 87.9422 9.008C87.9142 9.26 88.0029 9.60533 88.2082 10.044L89.7482 13.432C89.9255 12.956 90.1029 12.438 90.2802 11.878C90.4669 11.318 90.6582 10.744 90.8542 10.156C90.9195 9.97867 90.9849 9.792 91.0502 9.596C91.1249 9.39067 91.1995 9.204 91.2742 9.036C91.3582 8.868 91.4375 8.75133 91.5122 8.686L90.6022 8.742V8H92.8982V8.574C92.5715 8.686 92.3149 8.89133 92.1282 9.19C91.9509 9.48867 91.7782 9.86667 91.6102 10.324L89.8602 15.252C89.5895 16.0267 89.3375 16.6753 89.1042 17.198C88.8709 17.73 88.6095 18.1267 88.3202 18.388C88.0402 18.6587 87.6902 18.794 87.2702 18.794ZM93.783 11.122V9.974H98.809V11.08L93.783 11.122ZM100.691 6.53C100.691 6.37133 100.691 6.21267 100.691 6.054C100.7 5.886 100.714 5.70867 100.733 5.522C100.565 5.53133 100.392 5.54067 100.215 5.55C100.047 5.55 99.888 5.55467 99.7386 5.564V4.822C100.159 4.822 100.495 4.80333 100.747 4.766C100.999 4.71933 101.19 4.668 101.321 4.612C101.461 4.556 101.563 4.49533 101.629 4.43H102.147V8.574C102.427 8.31267 102.739 8.11667 103.085 7.986C103.439 7.846 103.808 7.776 104.191 7.776C104.769 7.776 105.287 7.92067 105.745 8.21C106.211 8.49933 106.575 8.91 106.837 9.442C107.107 9.974 107.243 10.604 107.243 11.332C107.243 12.1067 107.079 12.788 106.753 13.376C106.435 13.964 106.011 14.4213 105.479 14.748C104.947 15.0653 104.349 15.224 103.687 15.224C103.388 15.224 103.047 15.168 102.665 15.056C102.291 14.944 101.951 14.7153 101.643 14.37L101.279 15H100.663L100.691 6.53ZM102.147 12.83C102.147 13.2687 102.217 13.6093 102.357 13.852C102.497 14.0853 102.674 14.2533 102.889 14.356C103.113 14.4493 103.346 14.496 103.589 14.496C104.027 14.5053 104.396 14.384 104.695 14.132C104.993 13.88 105.217 13.5393 105.367 13.11C105.525 12.6713 105.605 12.1767 105.605 11.626C105.605 11.066 105.535 10.562 105.395 10.114C105.255 9.666 105.04 9.31133 104.751 9.05C104.461 8.77933 104.097 8.64867 103.659 8.658C103.369 8.658 103.089 8.72333 102.819 8.854C102.557 8.98467 102.333 9.162 102.147 9.386V12.83ZM112.522 15C112.503 14.8507 112.489 14.72 112.48 14.608C112.471 14.496 112.457 14.3793 112.438 14.258C112.121 14.5753 111.78 14.818 111.416 14.986C111.052 15.1447 110.674 15.224 110.282 15.224C109.61 15.224 109.101 15.0607 108.756 14.734C108.42 14.398 108.252 13.9827 108.252 13.488C108.252 13.0587 108.378 12.6853 108.63 12.368C108.882 12.0507 109.213 11.794 109.624 11.598C110.035 11.3927 110.483 11.2433 110.968 11.15C111.453 11.0473 111.929 10.996 112.396 10.996V10.17C112.396 9.87133 112.368 9.596 112.312 9.344C112.256 9.08267 112.139 8.87267 111.962 8.714C111.794 8.546 111.528 8.462 111.164 8.462C110.921 8.45267 110.679 8.49933 110.436 8.602C110.193 8.69533 110.007 8.854 109.876 9.078C109.951 9.15267 109.997 9.24133 110.016 9.344C110.044 9.43733 110.058 9.526 110.058 9.61C110.058 9.74067 110.002 9.89 109.89 10.058C109.778 10.2167 109.587 10.2913 109.316 10.282C109.092 10.282 108.919 10.2073 108.798 10.058C108.686 9.89933 108.63 9.71733 108.63 9.512C108.63 9.176 108.751 8.87733 108.994 8.616C109.246 8.35467 109.587 8.14933 110.016 8C110.445 7.85067 110.926 7.776 111.458 7.776C112.261 7.776 112.858 7.986 113.25 8.406C113.651 8.826 113.852 9.48867 113.852 10.394C113.852 10.73 113.852 11.052 113.852 11.36C113.852 11.668 113.847 11.976 113.838 12.284C113.838 12.592 113.838 12.9187 113.838 13.264C113.838 13.404 113.833 13.5627 113.824 13.74C113.815 13.9173 113.801 14.104 113.782 14.3C113.941 14.2907 114.104 14.2813 114.272 14.272C114.44 14.2627 114.599 14.258 114.748 14.258V15H112.522ZM112.396 11.64C112.097 11.6587 111.789 11.7007 111.472 11.766C111.164 11.8313 110.884 11.9293 110.632 12.06C110.38 12.1907 110.175 12.3587 110.016 12.564C109.867 12.7693 109.792 13.0167 109.792 13.306C109.811 13.6233 109.913 13.8567 110.1 14.006C110.296 14.1553 110.525 14.23 110.786 14.23C111.113 14.23 111.402 14.1693 111.654 14.048C111.906 13.9173 112.153 13.74 112.396 13.516C112.387 13.4133 112.382 13.3107 112.382 13.208C112.382 13.096 112.382 12.9793 112.382 12.858C112.382 12.774 112.382 12.62 112.382 12.396C112.391 12.1627 112.396 11.9107 112.396 11.64ZM118.634 15.224C118.195 15.224 117.789 15.1633 117.416 15.042C117.042 14.93 116.744 14.7947 116.52 14.636L116.562 15.098H115.82L115.75 12.69H116.338C116.356 13.0353 116.464 13.348 116.66 13.628C116.856 13.908 117.108 14.1273 117.416 14.286C117.733 14.4447 118.074 14.524 118.438 14.524C118.652 14.524 118.862 14.4913 119.068 14.426C119.273 14.3513 119.446 14.244 119.586 14.104C119.726 13.9547 119.796 13.7727 119.796 13.558C119.796 13.3247 119.721 13.1333 119.572 12.984C119.432 12.8253 119.236 12.6853 118.984 12.564C118.741 12.4427 118.461 12.3213 118.144 12.2C117.864 12.088 117.579 11.9713 117.29 11.85C117.01 11.7287 116.748 11.584 116.506 11.416C116.263 11.248 116.072 11.0427 115.932 10.8C115.792 10.548 115.722 10.24 115.722 9.876C115.722 9.66133 115.764 9.43267 115.848 9.19C115.932 8.938 116.067 8.70933 116.254 8.504C116.44 8.28933 116.692 8.11667 117.01 7.986C117.327 7.846 117.719 7.776 118.186 7.776C118.438 7.776 118.718 7.818 119.026 7.902C119.343 7.986 119.637 8.13067 119.908 8.336L119.894 7.846H120.636V10.31H120.034C120.006 9.98333 119.917 9.68 119.768 9.4C119.628 9.12 119.427 8.89133 119.166 8.714C118.904 8.53667 118.587 8.448 118.214 8.448C117.85 8.448 117.551 8.54133 117.318 8.728C117.094 8.90533 116.982 9.12933 116.982 9.4C116.982 9.67067 117.066 9.89 117.234 10.058C117.411 10.226 117.64 10.3707 117.92 10.492C118.2 10.6133 118.503 10.7347 118.83 10.856C119.222 11.0147 119.59 11.1873 119.936 11.374C120.281 11.5607 120.561 11.794 120.776 12.074C120.99 12.354 121.098 12.7087 121.098 13.138C121.098 13.6047 120.976 13.9967 120.734 14.314C120.5 14.622 120.197 14.8507 119.824 15C119.45 15.1493 119.054 15.224 118.634 15.224ZM125.588 15.224C124.935 15.224 124.347 15.0747 123.824 14.776C123.311 14.468 122.905 14.0387 122.606 13.488C122.307 12.928 122.158 12.27 122.158 11.514C122.158 10.8607 122.303 10.2493 122.592 9.68C122.891 9.11067 123.306 8.65333 123.838 8.308C124.37 7.95333 124.986 7.776 125.686 7.776C126.078 7.776 126.447 7.83667 126.792 7.958C127.147 8.07933 127.459 8.27067 127.73 8.532C128.01 8.784 128.229 9.11533 128.388 9.526C128.547 9.92733 128.626 10.4173 128.626 10.996L123.81 11.08C123.81 11.7147 123.88 12.2793 124.02 12.774C124.169 13.2687 124.407 13.6513 124.734 13.922C125.061 14.1927 125.485 14.328 126.008 14.328C126.26 14.328 126.526 14.286 126.806 14.202C127.095 14.1087 127.366 13.978 127.618 13.81C127.879 13.642 128.099 13.4413 128.276 13.208L128.71 13.586C128.43 14.006 128.108 14.3373 127.744 14.58C127.38 14.8133 127.007 14.9767 126.624 15.07C126.251 15.1727 125.905 15.224 125.588 15.224ZM123.866 10.352H127.1C127.1 9.99733 127.049 9.68 126.946 9.4C126.853 9.11067 126.703 8.882 126.498 8.714C126.293 8.546 126.031 8.462 125.714 8.462C125.219 8.462 124.813 8.62067 124.496 8.938C124.179 9.246 123.969 9.71733 123.866 10.352ZM132.659 15.224C132.09 15.224 131.581 15.084 131.133 14.804C130.695 14.5147 130.345 14.104 130.083 13.572C129.831 13.04 129.705 12.4147 129.705 11.696C129.705 10.9307 129.855 10.254 130.153 9.666C130.452 9.078 130.872 8.616 131.413 8.28C131.955 7.944 132.571 7.776 133.261 7.776C133.551 7.776 133.826 7.81333 134.087 7.888C134.358 7.95333 134.582 8.03267 134.759 8.126V6.53C134.759 6.39 134.764 6.236 134.773 6.068C134.783 5.89067 134.797 5.70867 134.815 5.522C134.647 5.53133 134.475 5.54067 134.297 5.55C134.12 5.55933 133.961 5.564 133.821 5.564V4.822C134.241 4.822 134.573 4.80333 134.815 4.766C135.067 4.71933 135.259 4.668 135.389 4.612C135.529 4.556 135.632 4.49533 135.697 4.43H136.215V13.264C136.215 13.404 136.211 13.5627 136.201 13.74C136.192 13.9173 136.178 14.104 136.159 14.3C136.327 14.2907 136.495 14.2813 136.663 14.272C136.831 14.2627 136.985 14.258 137.125 14.258V15H134.899C134.881 14.8693 134.862 14.748 134.843 14.636C134.834 14.524 134.825 14.412 134.815 14.3C134.535 14.5987 134.213 14.8273 133.849 14.986C133.485 15.1447 133.089 15.224 132.659 15.224ZM133.233 14.342C133.523 14.342 133.803 14.2627 134.073 14.104C134.353 13.9453 134.582 13.7447 134.759 13.502C134.759 13.3807 134.759 13.2547 134.759 13.124C134.759 12.9933 134.759 12.8533 134.759 12.704V8.896C134.582 8.76533 134.372 8.66733 134.129 8.602C133.896 8.52733 133.653 8.49 133.401 8.49C132.944 8.49 132.557 8.62533 132.239 8.896C131.931 9.15733 131.703 9.51667 131.553 9.974C131.404 10.4313 131.334 10.954 131.343 11.542C131.362 12.046 131.441 12.5127 131.581 12.942C131.721 13.3713 131.927 13.712 132.197 13.964C132.477 14.216 132.823 14.342 133.233 14.342ZM146.174 14.412C146.454 14.412 146.65 14.3467 146.762 14.216C146.884 14.0853 146.954 13.9033 146.972 13.67C147 13.4367 147.014 13.166 147.014 12.858L147 10.898C147 10.1607 146.884 9.61 146.65 9.246C146.426 8.87267 146.062 8.69067 145.558 8.7C145.25 8.70933 144.947 8.784 144.648 8.924C144.359 9.064 144.116 9.24133 143.92 9.456V13.264C143.92 13.432 143.916 13.6047 143.906 13.782C143.897 13.95 143.883 14.1227 143.864 14.3C144.014 14.2907 144.163 14.286 144.312 14.286C144.471 14.2767 144.616 14.2673 144.746 14.258V15H141.624V14.412C141.904 14.412 142.1 14.3467 142.212 14.216C142.324 14.0853 142.394 13.9033 142.422 13.67C142.45 13.4367 142.464 13.166 142.464 12.858V6.53C142.464 6.37133 142.464 6.21267 142.464 6.054C142.474 5.886 142.488 5.70867 142.506 5.522C142.348 5.53133 142.18 5.54067 142.002 5.55C141.825 5.55 141.662 5.55467 141.512 5.564V4.822C141.932 4.822 142.268 4.80333 142.52 4.766C142.772 4.71933 142.964 4.668 143.094 4.612C143.234 4.556 143.337 4.49533 143.402 4.43H143.92V8.658C144.126 8.49 144.354 8.34067 144.606 8.21C144.858 8.07933 145.115 7.97667 145.376 7.902C145.647 7.818 145.899 7.776 146.132 7.776C146.963 7.776 147.556 8.028 147.91 8.532C148.274 9.036 148.461 9.82467 148.47 10.898V13.264C148.47 13.432 148.466 13.6047 148.456 13.782C148.456 13.95 148.442 14.1227 148.414 14.3C148.564 14.2907 148.718 14.286 148.876 14.286C149.035 14.2767 149.18 14.2673 149.31 14.258V15H146.174V14.412ZM154.413 15C154.394 14.8507 154.38 14.72 154.371 14.608C154.361 14.496 154.347 14.3793 154.329 14.258C154.011 14.5753 153.671 14.818 153.307 14.986C152.943 15.1447 152.565 15.224 152.173 15.224C151.501 15.224 150.992 15.0607 150.647 14.734C150.311 14.398 150.143 13.9827 150.143 13.488C150.143 13.0587 150.269 12.6853 150.521 12.368C150.773 12.0507 151.104 11.794 151.515 11.598C151.925 11.3927 152.373 11.2433 152.859 11.15C153.344 11.0473 153.82 10.996 154.287 10.996V10.17C154.287 9.87133 154.259 9.596 154.203 9.344C154.147 9.08267 154.03 8.87267 153.853 8.714C153.685 8.546 153.419 8.462 153.055 8.462C152.812 8.45267 152.569 8.49933 152.327 8.602C152.084 8.69533 151.897 8.854 151.767 9.078C151.841 9.15267 151.888 9.24133 151.907 9.344C151.935 9.43733 151.949 9.526 151.949 9.61C151.949 9.74067 151.893 9.89 151.781 10.058C151.669 10.2167 151.477 10.2913 151.207 10.282C150.983 10.282 150.81 10.2073 150.689 10.058C150.577 9.89933 150.521 9.71733 150.521 9.512C150.521 9.176 150.642 8.87733 150.885 8.616C151.137 8.35467 151.477 8.14933 151.907 8C152.336 7.85067 152.817 7.776 153.349 7.776C154.151 7.776 154.749 7.986 155.141 8.406C155.542 8.826 155.743 9.48867 155.743 10.394C155.743 10.73 155.743 11.052 155.743 11.36C155.743 11.668 155.738 11.976 155.729 12.284C155.729 12.592 155.729 12.9187 155.729 13.264C155.729 13.404 155.724 13.5627 155.715 13.74C155.705 13.9173 155.691 14.104 155.673 14.3C155.831 14.2907 155.995 14.2813 156.163 14.272C156.331 14.2627 156.489 14.258 156.639 14.258V15H154.413ZM154.287 11.64C153.988 11.6587 153.68 11.7007 153.363 11.766C153.055 11.8313 152.775 11.9293 152.523 12.06C152.271 12.1907 152.065 12.3587 151.907 12.564C151.757 12.7693 151.683 13.0167 151.683 13.306C151.701 13.6233 151.804 13.8567 151.991 14.006C152.187 14.1553 152.415 14.23 152.677 14.23C153.003 14.23 153.293 14.1693 153.545 14.048C153.797 13.9173 154.044 13.74 154.287 13.516C154.277 13.4133 154.273 13.3107 154.273 13.208C154.273 13.096 154.273 12.9793 154.273 12.858C154.273 12.774 154.273 12.62 154.273 12.396C154.282 12.1627 154.287 11.9107 154.287 11.64ZM160.134 15.224C159.901 15.224 159.668 15.1913 159.434 15.126C159.201 15.07 158.982 14.9533 158.776 14.776C158.58 14.5893 158.426 14.3233 158.314 13.978C158.202 13.6327 158.146 13.1753 158.146 12.606L158.174 8.784H157.138V8C157.39 7.99067 157.647 7.89733 157.908 7.72C158.17 7.54267 158.398 7.30467 158.594 7.006C158.79 6.70733 158.926 6.38533 159 6.04H159.658V8H161.814V8.728L159.658 8.756L159.63 12.494C159.63 12.8487 159.658 13.1613 159.714 13.432C159.78 13.6933 159.882 13.8987 160.022 14.048C160.172 14.188 160.372 14.258 160.624 14.258C160.839 14.258 161.058 14.1927 161.282 14.062C161.516 13.9313 161.735 13.7167 161.94 13.418L162.416 13.838C162.192 14.1647 161.968 14.4213 161.744 14.608C161.52 14.7947 161.306 14.93 161.1 15.014C160.895 15.1073 160.708 15.1633 160.54 15.182C160.372 15.21 160.237 15.224 160.134 15.224ZM166.371 15.224C165.718 15.224 165.13 15.0747 164.607 14.776C164.094 14.468 163.688 14.0387 163.389 13.488C163.091 12.928 162.941 12.27 162.941 11.514C162.941 10.8607 163.086 10.2493 163.375 9.68C163.674 9.11067 164.089 8.65333 164.621 8.308C165.153 7.95333 165.769 7.776 166.469 7.776C166.861 7.776 167.23 7.83667 167.575 7.958C167.93 8.07933 168.243 8.27067 168.513 8.532C168.793 8.784 169.013 9.11533 169.171 9.526C169.33 9.92733 169.409 10.4173 169.409 10.996L164.593 11.08C164.593 11.7147 164.663 12.2793 164.803 12.774C164.953 13.2687 165.191 13.6513 165.517 13.922C165.844 14.1927 166.269 14.328 166.791 14.328C167.043 14.328 167.309 14.286 167.589 14.202C167.879 14.1087 168.149 13.978 168.401 13.81C168.663 13.642 168.882 13.4413 169.059 13.208L169.493 13.586C169.213 14.006 168.891 14.3373 168.527 14.58C168.163 14.8133 167.79 14.9767 167.407 15.07C167.034 15.1727 166.689 15.224 166.371 15.224ZM164.649 10.352H167.883C167.883 9.99733 167.832 9.68 167.729 9.4C167.636 9.11067 167.487 8.882 167.281 8.714C167.076 8.546 166.815 8.462 166.497 8.462C166.003 8.462 165.597 8.62067 165.279 8.938C164.962 9.246 164.752 9.71733 164.649 10.352Z" fill="black"/>
<path d="M326.231 4.23485C326.304 4.1604 326.391 4.10134 326.486 4.06104C326.581 4.02074 326.684 4 326.787 4C326.89 4 326.992 4.02074 327.087 4.06104C327.183 4.10134 327.269 4.1604 327.342 4.23485L332.556 9.54907C332.615 9.60823 332.661 9.6785 332.692 9.75587C332.724 9.83323 332.74 9.91616 332.74 9.99991C332.74 10.0837 332.724 10.1666 332.692 10.244C332.661 10.3213 332.615 10.3916 332.556 10.4508L327.342 15.765C327.035 16.0783 326.539 16.0783 326.231 15.765C325.924 15.4516 325.924 14.9464 326.231 14.6331L330.774 9.99672L326.225 5.36036C325.924 5.0534 325.924 4.5418 326.231 4.23485Z" fill="black"/>
</svg>
