<svg width="222" height="201" viewBox="0 0 222 201" fill="none" xmlns="http://www.w3.org/2000/svg">
<path d="M22.2079 198.501C15.2629 186.247 7.3896 172.332 5.24206 157.315C4.15757 149.714 4.84686 141.731 7.18741 134.835C9.76997 127.228 14.2335 121.11 20.1309 117.14C22.741 115.378 25.6452 114.012 28.4606 112.691C32.4616 110.813 36.6004 108.871 39.7957 105.792C46.9246 98.9084 47.9172 88.2933 48.8791 78.0274C48.9741 77.0041 49.0721 75.9442 49.1855 74.9179C50.8153 58.5892 55.0675 42.6343 61.7858 27.6628C64.5154 21.5755 68.0844 14.704 73.8653 9.8728C80.0353 4.71686 88.074 3.01047 94.3482 5.51951C99.4581 7.56596 103.652 12.2593 107.172 19.8416C107.889 21.3917 108.569 22.9939 109.225 24.5472C111.038 28.8361 112.901 33.2752 115.811 36.9514C119.374 41.4732 124.411 44.8217 130.783 46.9079C136.27 48.7032 142.703 49.5119 149.391 49.2423C155.628 48.9911 161.918 47.9894 167.999 47.0213C174.08 46.0532 180.415 45.0422 186.686 44.788C191.395 44.598 198.441 44.9166 205.251 47.5206C211.669 49.9715 216.253 53.8377 218.878 58.9967C221.022 63.2305 221.709 68.3098 220.842 73.6863C220.067 78.4746 218.121 83.3824 215.217 87.8797C211.541 93.5595 206.74 98.4673 202.093 103.216C199.832 105.526 197.498 107.915 195.322 110.357C191.551 114.597 188.736 118.604 186.714 122.611C184.3 127.387 183.102 132.108 183.151 136.633C183.24 144.77 187.265 152.257 191.162 159.472C192.363 161.699 193.613 164.003 194.713 166.291C199.443 176.067 201.713 189.301 193.904 197.126L193.221 196.442C200.671 188.977 198.429 176.189 193.834 166.726C192.737 164.456 191.499 162.161 190.301 159.943C186.352 152.612 182.266 145.03 182.174 136.66C182.125 131.976 183.356 127.108 185.85 122.194C187.912 118.117 190.773 114.042 194.599 109.741C196.79 107.29 199.133 104.882 201.404 102.563C206.017 97.8515 210.787 92.9774 214.405 87.3773C217.239 82.9934 219.135 78.2142 219.886 73.5577C220.734 68.3098 220.103 63.5675 218.017 59.4654C215.505 54.527 211.094 50.8201 204.905 48.455C198.251 45.9092 191.346 45.5967 186.726 45.7836C180.495 46.0348 174.212 47.0366 168.137 48.0047C162.062 48.9728 155.723 49.9561 149.431 50.2104C142.626 50.4861 136.077 49.6621 130.483 47.8301C123.927 45.6856 118.734 42.2238 115.052 37.5519C112.077 33.7745 110.174 29.2803 108.333 24.927C107.681 23.3953 107.007 21.7838 106.293 20.249C102.886 12.8965 98.8607 8.37167 93.9897 6.42019C88.0403 4.03982 80.3845 5.68801 74.4842 10.6172C68.8564 15.3228 65.3518 22.0749 62.665 28.061C55.9865 42.9406 51.7527 58.7975 50.129 75.0251C50.0249 76.0514 49.9268 77.1083 49.8227 78.1285C48.8454 88.5721 47.8344 99.368 40.4483 106.5C37.1488 109.689 32.9365 111.668 28.8619 113.58C26.0833 114.885 23.2097 116.233 20.6609 117.954C14.9535 121.805 10.6063 127.758 8.10034 135.156C5.80575 141.911 5.13177 149.736 6.19789 157.189C8.31785 172.029 16.1421 185.846 23.0474 198.038L22.2079 198.501Z" fill="#E6E6E6"/>
<path d="M25.7705 197.956C16.4972 189.268 6.93588 180.163 2.34057 168.316C-2.25474 156.469 -0.30326 141.05 10.2047 133.903C17.2784 129.093 26.7723 128.818 33.6224 123.692C41.5478 117.764 43.9251 106.748 43.0274 96.8926C42.1298 87.0372 38.6037 77.6076 37.124 67.8227C34.8539 52.5326 37.6203 36.9177 45.0065 23.337C49.9909 14.2353 57.3403 6.0219 66.9629 2.14346C76.5855 -1.73498 88.6589 -0.472801 95.9256 6.93484C105.285 16.4778 104.439 32.6502 113.25 42.7047C121.368 51.9689 135.369 53.3505 147.537 51.4389C159.705 49.5272 171.534 45.0054 183.855 44.9687C196.177 44.9319 209.877 51.0958 213.066 63.0068C216.237 74.829 208.036 86.4858 199.804 95.5446C191.572 104.604 182.204 114.6 182.486 126.836C182.719 137.074 189.734 145.719 193.625 155.195C199.213 168.803 198.085 184.988 190.666 197.692L25.7705 197.956Z" fill="#E6E6E6"/>
<mask id="mask0_1_4471" style="mask-type:luminance" maskUnits="userSpaceOnUse" x="0" y="0" width="214" height="198">
<path d="M25.7705 197.956C16.4972 189.268 6.93588 180.163 2.34057 168.316C-2.25474 156.469 -0.30326 141.05 10.2047 133.903C17.2784 129.093 26.7723 128.818 33.6224 123.692C41.5478 117.764 43.9251 106.748 43.0274 96.8926C42.1298 87.0372 38.6037 77.6076 37.124 67.8227C34.8539 52.5326 37.6203 36.9177 45.0065 23.337C49.9909 14.2353 57.3403 6.0219 66.9629 2.14346C76.5855 -1.73498 88.6589 -0.472801 95.9256 6.93484C105.285 16.4778 104.439 32.6502 113.25 42.7047C121.368 51.9689 135.369 53.3505 147.537 51.4389C159.705 49.5272 171.534 45.0054 183.855 44.9687C196.177 44.9319 209.877 51.0958 213.066 63.0068C216.237 74.829 208.036 86.4858 199.804 95.5446C191.572 104.604 182.204 114.6 182.486 126.836C182.719 137.074 189.734 145.719 193.625 155.195C199.213 168.803 198.085 184.988 190.666 197.692L25.7705 197.956Z" fill="white"/>
</mask>
<g mask="url(#mask0_1_4471)">
<path d="M70.8229 77.8743H48.5571V110.97H70.8229V77.8743Z" fill="white"/>
<path d="M97.1203 77.8743H74.8545V110.97H97.1203V77.8743Z" fill="white"/>
<path d="M70.8229 41.2251H48.5571V74.3205H70.8229V41.2251Z" fill="white"/>
<path d="M97.1203 41.2251H74.8545V74.3205H97.1203V41.2251Z" fill="white"/>
<path d="M138.579 77.8743H116.313V110.97H138.579V77.8743Z" fill="white"/>
<path d="M164.88 77.8743H142.614V110.97H164.88V77.8743Z" fill="white"/>
<path d="M138.579 41.2251H116.313V74.3205H138.579V41.2251Z" fill="white"/>
<path d="M164.88 41.2251H142.614V74.3205H164.88V41.2251Z" fill="white"/>
</g>
<path d="M128.258 187.953L128.635 190.049C125.854 192.552 121.825 194.163 118.084 194.083C117.855 194.114 117.916 194.763 118.069 194.935C118.247 195.088 118.473 195.171 118.709 195.168C122.661 195.572 126.653 195.287 130.507 194.335C130.605 194.699 130.633 194.861 130.731 195.226H135.326C134.814 192.775 134.358 190.306 133.846 187.852C131.705 187.181 130.381 187.23 128.258 187.953Z" fill="black"/>
<path opacity="0.2" d="M128.258 187.953L128.635 190.049C125.854 192.552 121.825 194.163 118.084 194.083C117.855 194.114 117.916 194.763 118.069 194.935C118.247 195.088 118.473 195.171 118.709 195.168C122.661 195.572 126.653 195.287 130.507 194.335C130.605 194.699 130.633 194.861 130.731 195.226H135.326C134.814 192.775 134.358 190.306 133.846 187.852C131.705 187.181 130.381 187.23 128.258 187.953Z" fill="black"/>
<path d="M154.73 133.683C145.727 134.063 136.775 135.221 127.97 137.141C125.798 137.616 124.193 139.451 124.009 141.666C122.719 157.324 123.396 173.876 127.128 189.007C129.769 188.937 132.097 188.805 134.64 188.088C133.191 175.426 133.108 162.829 134.682 150.183C146.159 152.162 157.904 150.811 168.942 147.098C168.329 143.232 166.926 139.415 164.022 136.792C161.118 134.17 158.639 133.517 154.73 133.683Z" fill="#2F2E41"/>
<path opacity="0.2" d="M154.73 133.683C145.727 134.063 136.775 135.221 127.97 137.141C125.798 137.616 124.193 139.451 124.009 141.666C122.719 157.324 123.396 173.876 127.128 189.007C129.769 188.937 132.097 188.805 134.64 188.088C133.191 175.426 133.108 162.829 134.682 150.183C146.159 152.162 157.904 150.811 168.942 147.098C168.329 143.232 166.926 139.415 164.022 136.792C161.118 134.17 158.639 133.517 154.73 133.683Z" fill="black"/>
<path d="M121.173 192.941H88.1323V195.26H121.173V192.941Z" fill="#2F2E41"/>
<path d="M109.203 126.459H100.101V194.102H109.203V126.459Z" fill="#2F2E41"/>
<path d="M81.8027 150.388C76.993 163.182 71.0773 175.534 64.123 187.301C62.9926 187.04 61.5864 187.117 60.4468 186.857C65.6088 176.762 69.4199 166.031 71.7819 154.941C74.3552 152.732 78.5217 151.237 81.8027 150.388Z" fill="#F9B499"/>
<path d="M60.358 186.02C60.7103 185.542 61.3475 185.377 61.8898 185.619C62.0522 185.686 62.2206 185.732 62.3953 185.75C62.9314 185.812 63.5165 185.75 63.9761 186.029C64.5428 186.382 64.6899 187.12 64.8951 187.754C65.3822 189.237 66.4545 190.468 67.6952 191.412C68.9696 192.313 70.3298 193.085 71.7574 193.713C71.0651 194.203 69.8795 194.178 69.0707 193.924L65.0881 192.699C64.3559 192.512 63.6574 192.215 63.0141 191.819C61.8745 191.035 61.2648 189.699 60.7073 188.431C60.1926 189.35 59.4052 190.315 58.8906 191.237C58.6026 191.118 58.2043 190.958 57.9194 190.836C58.2411 189.191 59.3011 187.5 60.358 186.02Z" fill="#666666"/>
<path d="M148.842 195.346C147.372 195.346 146.177 194.151 146.177 192.68V182.368H151.51V192.68C151.51 194.154 150.316 195.346 148.842 195.346Z" fill="#BCBEC0"/>
<path d="M174.892 182.368H180.231V192.907C180.231 194.261 179.135 195.358 177.78 195.358H177.321C175.967 195.358 174.87 194.261 174.87 192.907V182.368H174.892Z" fill="#BCBEC0"/>
<path d="M141.101 149.249H186.704V172.691C186.704 181.701 179.401 189.004 170.391 189.004H157.414C148.404 189.004 141.101 181.701 141.101 172.691V149.249Z" fill="#D1D3D4"/>
<path d="M174.205 154.472L185.54 156.371L194.449 103.243C194.973 100.112 192.859 97.1467 189.728 96.6229C186.597 96.1021 183.635 98.2129 183.108 101.344L174.205 154.472Z" fill="#D1D3D4"/>
<path d="M64.8734 195.346C66.3439 195.346 67.5356 194.151 67.5387 192.68V182.368H62.2051V192.68C62.2051 194.154 63.3999 195.346 64.8734 195.346Z" fill="#BCBEC0"/>
<path d="M36.3767 195.346H35.9171C34.5631 195.346 33.4663 194.249 33.4663 192.895V182.356H38.8275V192.895C38.8275 194.249 37.7308 195.346 36.3767 195.346Z" fill="#BCBEC0"/>
<path d="M56.3017 189.007H43.3246C34.3147 189.007 27.0112 181.704 27.0112 172.694V149.251H72.6151V172.694C72.6151 181.704 65.3116 189.007 56.3017 189.007Z" fill="#D1D3D4"/>
<path d="M78.828 80.4628C77.2288 82.2458 76.3251 84.5434 76.276 86.9391C76.2515 88.5904 76.6345 90.2386 76.469 91.8806C76.3036 93.5227 75.36 95.272 73.7486 95.6243C73.2248 98.1762 72.4068 100.832 70.44 102.536C68.4732 104.239 65.4035 104.864 63.207 103.455C59.2244 100.924 57.0585 96.3534 57.9837 91.7336C58.9088 87.1138 62.4135 83.3027 66.583 81.1061C70.2286 79.1853 75.0782 78.7013 78.828 80.4628Z" fill="#2F2E41"/>
<path d="M62.1013 91.9389C63.2379 91.4701 64.8585 92.2881 65.606 93.0816C66.4975 94.0006 67.003 95.226 67.4595 96.4515C70.2412 103.73 72.1314 111.316 74.0154 118.877C80.7767 119.701 89.7559 121.039 96.4007 122.553C96.6826 123.953 96.5263 125.408 95.9504 126.716C87.4 125.987 78.4545 124.918 70.0083 123.383C64.6042 114.652 59.5708 104.594 60.9372 94.019C61.0199 93.3849 61.1486 92.7048 61.6173 92.2667C61.7551 92.1288 61.9206 92.0155 62.1013 91.9389Z" fill="#ED999C"/>
<path d="M84.036 151.488C80.7794 164.765 76.371 177.73 70.8628 190.242C69.7109 190.116 68.3231 190.361 67.1865 190.242C71.1017 179.605 73.6046 168.5 74.6248 157.21C76.9286 154.701 80.8744 152.725 84.036 151.488Z" fill="#F9B499"/>
<path d="M48.8052 111.083C44.7001 109.297 42.8191 104.521 44.6051 100.416C45.1933 99.0615 46.143 97.8943 47.347 97.0395C48.361 96.3196 49.5251 95.8417 50.5514 95.1463C51.5777 94.4508 52.506 93.4429 52.6561 92.2114C52.7878 91.1055 52.2793 90.0026 52.3957 88.8966C52.5887 87.0309 54.4299 85.8117 56.1669 85.107C57.9039 84.4024 59.8431 83.8449 60.9705 82.3499C61.8712 81.1244 62.0336 79.5437 62.1439 78.0364C62.2541 76.5291 62.3706 74.9453 63.2008 73.6831C64.031 72.4209 65.9243 70.7758 67.1834 71.6152C67.695 70.785 68.565 70.2366 69.5362 70.1294C70.492 70.0283 71.8246 70.1631 72.4802 70.8677C73.5647 70.3622 74.8208 70.3622 75.9053 70.8677C76.9714 71.3763 77.5351 72.2065 77.8139 73.3553C79.2997 72.4944 81.2021 73.003 82.063 74.4888C82.9238 75.9746 82.4153 77.8771 80.9295 78.7379C81.3186 81.0448 80.3964 83.3761 78.5338 84.7915C75.9757 86.6296 72.6886 87.1811 69.8272 88.4861C67.2416 89.6656 65.4065 92.0705 64.1689 94.6285C62.9312 97.1866 62.1867 99.9499 61.1053 102.594C60.0239 105.238 58.5748 107.802 56.2741 109.477C53.9734 111.153 51.4184 112.216 48.8052 111.083Z" fill="#2F2E41"/>
<path d="M40.396 149.248C37.1058 146.917 34.4773 141.148 34.5998 137.117C34.7224 133.085 36.3338 129.231 38.368 125.745C40.4022 122.259 42.8683 119.048 44.9423 115.586C47.2032 111.809 48.9739 107.759 50.2177 103.537C50.9989 100.893 51.5963 98.1209 53.1465 95.8417C54.7885 93.4337 57.3742 91.7947 60.1068 90.7868C62.8395 89.7789 65.7499 89.347 68.6327 88.9211C68.5346 89.0192 68.1303 89.4542 68.02 89.5492C66.9202 90.652 66.6353 92.8333 67.297 94.2425C67.9587 95.6517 69.0708 96.9629 69.034 98.5315C68.9942 100.256 67.5329 101.665 67.3215 103.381C67.0151 105.752 69.1596 107.897 68.9482 110.277C68.8165 111.729 67.8239 112.952 66.7884 113.981C63.5686 117.185 59.5309 119.48 56.351 122.724C56.017 123.061 55.6954 123.417 55.3859 123.784C51.2011 128.778 55.1562 136.345 61.6539 135.833H61.7458C64.8584 135.588 67.9832 135.061 71.0835 135.432C79.8636 136.489 86.1653 144.405 85.2279 153.2C83.114 153.96 80.9818 156.129 79.4255 157.747C77.8693 159.364 76.4079 161.064 74.5606 162.336C72.7133 163.607 70.3666 164.379 68.2007 163.794C65.5324 163.077 65.3608 159.778 64.8308 157.054C64.3008 154.331 63.6759 151.279 61.3323 149.824C59.9843 148.988 58.1431 149.163 56.5593 149.236C51.1766 149.552 45.7787 149.555 40.396 149.248Z" fill="#ED999C"/>
<path d="M64.9105 72.0074C65.5018 70.8586 66.3443 69.8629 67.3798 69.0909C68.4397 68.3649 69.8061 68.0095 71.0407 68.3679C71.54 68.5364 72.018 68.757 72.4683 69.0297C74.6679 68.0126 77.1065 67.4979 79.4624 68.0677C81.8182 68.6375 83.9474 70.5522 84.2262 72.9694C84.3855 74.351 83.9413 75.7449 83.2397 76.952C82.5014 78.1222 81.6375 79.2098 80.6663 80.1963C80.1302 80.7814 79.8851 81.2471 79.107 81.4033C78.3197 81.5258 77.517 81.5105 76.7327 81.3604C74.0736 80.9591 71.4206 80.1166 69.2975 78.4623C67.1745 76.808 63.5963 74.3541 64.9105 72.0074Z" fill="#2F2E41"/>
<path d="M122.618 122.32C121.552 122.47 120.474 122.112 119.493 121.686C118.513 121.26 117.53 120.767 116.463 120.598C115.397 120.43 114.196 120.693 113.535 121.542C112.94 122.305 112.092 122.825 111.39 123.503C111.053 123.833 110.692 124.204 110.64 124.676C110.618 125.135 110.827 125.577 111.191 125.858C111.553 126.131 111.957 126.342 112.386 126.486C113.985 127.099 115.891 126.833 117.609 126.839C118.957 126.839 120.403 126.817 121.503 126.036C122.493 125.334 122.814 123.509 122.618 122.32Z" fill="#F9B499"/>
<path d="M110.996 101.718H116.418V110.985C116.418 112.354 115.306 113.466 113.937 113.466H113.468C112.098 113.466 110.986 112.354 110.986 110.985V101.718H110.996Z" fill="white"/>
<path d="M114.123 110.522H113.287V124.443H114.123V110.522Z" fill="white"/>
<path d="M116.865 124.443H110.49V125.368H116.865V124.443Z" fill="white"/>
<path d="M111.654 105.869V110.752C111.654 111.882 112.573 112.801 113.703 112.801C114.834 112.801 115.753 111.882 115.753 110.752V105.869H111.654Z" fill="#2F2E41"/>
<path d="M93.8395 101.718H99.2681V110.985C99.2681 112.354 98.156 113.466 96.7866 113.466H96.3179C94.9485 113.466 93.8364 112.354 93.8364 110.985V101.718H93.8395Z" fill="white"/>
<path d="M96.9858 110.522H96.1494V124.443H96.9858V110.522Z" fill="white"/>
<path d="M99.7243 124.443H93.3491V125.368H99.7243V124.443Z" fill="white"/>
<path d="M94.5161 105.869V110.752C94.5161 111.882 95.4352 112.801 96.5656 112.801C97.6961 112.801 98.6151 111.882 98.6151 110.752V105.869H94.5161Z" fill="#2F2E41"/>
<path d="M155.756 95.4068C154.589 94.8615 153.155 95.2689 152.157 96.0808C151.158 96.8926 150.515 98.0506 149.902 99.1872C146.253 106.074 143.45 113.368 140.659 120.632C133.831 120.592 127.005 120.899 120.21 121.551C119.76 122.908 119.738 124.37 120.149 125.739C128.727 126.045 137.737 126.088 146.302 125.595C151.204 119.508 155.545 112.085 157.916 104.646C158.44 102.995 158.903 101.277 158.783 99.5487C158.664 97.8209 157.331 96.139 155.756 95.4068Z" fill="#F68040"/>
<path d="M125.651 122.32C124.585 122.47 123.507 122.112 122.527 121.686C121.546 121.26 120.563 120.767 119.497 120.598C118.431 120.43 117.23 120.693 116.568 121.542C115.974 122.305 115.122 122.825 114.423 123.503C114.083 123.833 113.725 124.204 113.673 124.676C113.651 125.135 113.86 125.577 114.224 125.858C114.586 126.131 114.99 126.342 115.419 126.486C117.018 127.099 118.924 126.833 120.627 126.839C121.978 126.839 123.424 126.817 124.521 126.036C125.526 125.334 125.847 123.509 125.651 122.32Z" fill="#F9B499"/>
<path d="M89.8566 122.32C90.9227 122.47 92.0011 122.112 92.9814 121.686C93.9617 121.26 94.9451 120.767 96.0112 120.598C97.0774 120.43 98.2813 120.693 98.94 121.542C99.5343 122.305 100.386 122.825 101.084 123.503C101.425 123.833 101.783 124.204 101.835 124.676C101.856 125.135 101.648 125.577 101.284 125.858C100.922 126.131 100.518 126.342 100.089 126.486C98.4896 127.099 96.5841 126.833 94.8808 126.839C93.5328 126.839 92.0838 126.817 90.987 126.036C89.9699 125.334 89.6483 123.509 89.8566 122.32Z" fill="#F9B499"/>
<path d="M133.592 187.953L133.969 190.049C131.187 192.552 127.158 194.163 123.418 194.083C123.185 194.114 123.246 194.763 123.402 194.935C123.58 195.088 123.807 195.171 124.043 195.168C127.992 195.569 131.983 195.287 135.837 194.335C135.938 194.699 135.963 194.861 136.064 195.226H140.659C140.148 192.775 139.691 190.306 139.18 187.852C137.035 187.181 135.712 187.23 133.592 187.953Z" fill="black"/>
<path d="M160.061 133.683C151.06 134.063 142.105 135.221 133.304 137.141C131.132 137.616 129.523 139.451 129.343 141.666C128.053 157.324 128.73 173.876 132.461 189.007C135.102 188.937 137.43 188.805 139.973 188.088C138.524 175.426 138.426 162.829 140.016 150.183C151.492 152.162 163.238 150.811 174.276 147.098C173.663 143.232 172.26 139.415 169.355 136.792C166.451 134.17 163.973 133.517 160.061 133.683Z" fill="#2F2E41"/>
<path d="M170.97 138.566C170.489 137.926 169.947 137.331 169.356 136.792C166.451 134.17 163.973 133.517 160.061 133.683C157.543 133.79 155.024 133.958 152.509 134.188C151.703 139.96 152.825 145.839 155.698 150.909C161.142 150.495 166.528 149.488 171.751 147.901C172.431 144.849 172.009 141.584 170.97 138.566Z" fill="#2F2E41"/>
<path d="M175.942 148.078C178.748 134.547 177.878 120.509 173.415 107.428C171.917 103.063 170.002 98.7889 167.208 95.1126C164.414 91.4364 160.686 88.3728 156.311 86.9023C154.85 91.0534 152.849 95.226 149.877 98.4703C152.328 110.902 153.474 123.968 154.148 136.621C154.393 141.216 157.941 145.352 161.978 147.539C166.016 149.726 171.653 149.717 175.942 148.078Z" fill="#F68040"/>
<path d="M139.826 87.0832C144.376 88.1523 148.358 90.8942 150.984 94.7635C153.1 92.8794 154.88 90.9402 155.901 88.2933C154.038 86.4551 152.862 84.3107 151.985 81.8384C151.422 80.2576 148.857 80.2147 147.271 80.76C145.684 81.3053 144.425 82.5185 143.288 83.7378C142.151 84.9571 141.306 86.2958 139.826 87.0832Z" fill="#F9B499"/>
<path d="M77.1242 86.6359C72.8751 87.6315 69.159 90.1896 66.7082 93.7984C64.7322 92.0399 62.505 93.3419 61.5522 90.8758C63.2923 89.1633 66.5274 83.5019 67.3423 81.2042C67.8693 79.7306 68.6903 80.23 70.17 80.7385C71.6497 81.2471 72.823 82.3775 73.8952 83.5141C74.9675 84.6507 75.7426 85.9006 77.1242 86.6359Z" fill="#F9B499"/>
<path d="M154.822 85.4565C153.272 88.7223 151.232 91.7276 148.766 94.3714C148.995 96.1115 149.256 97.9282 149.486 99.6683C153.18 96.4332 155.931 92.2607 157.451 87.5918C156.948 86.682 155.852 85.6128 154.822 85.4565Z" fill="white"/>
<path d="M136.459 76.183C139.124 77.5738 142.298 77.5861 144.973 76.2105C145.968 76.9979 147.255 77.3257 148.508 77.1081C148.554 78.2692 148.964 79.4426 149.289 80.5577C149.491 80.5148 149.703 80.5117 149.902 80.4689C149.804 78.8268 150.622 77.099 151.673 75.8276C151.648 74.5654 150.968 73.4043 149.877 72.764C148.79 72.1238 147.512 71.8971 146.256 71.7561C144.292 71.5417 142.252 71.5233 140.405 72.2218C138.558 72.9203 136.824 74.2407 136.459 76.183Z" fill="#1A2E35"/>
<path d="M159.549 95.4068C158.382 94.8615 156.945 95.2689 155.946 96.0808C154.947 96.8926 154.301 98.0506 153.698 99.1872C150.049 106.074 147.246 113.368 144.455 120.632C137.629 120.592 130.804 120.899 124.009 121.551C123.555 122.908 123.534 124.37 123.944 125.739C132.522 126.045 141.532 126.088 150.098 125.595C155 119.508 159.341 112.085 161.712 104.646C162.236 102.995 162.701 101.277 162.582 99.5487C162.462 97.8209 161.121 96.139 159.549 95.4068Z" fill="#F68040"/>
<path d="M150.194 125.172H59.1084V127.742H150.194V125.172Z" fill="#2F2E41"/>
<path d="M54.0134 95.373C55.0826 94.7603 56.7706 95.373 57.6314 96.0807C58.6301 96.8956 59.2796 98.0506 59.8801 99.1871C63.5287 106.074 66.3319 113.368 69.1258 120.632C75.9361 120.632 85.0134 120.859 91.796 121.551C92.2464 122.908 92.2678 124.369 91.8573 125.739C83.2794 126.045 74.2726 126.088 65.7039 125.595C59.2704 117.59 53.0484 108.225 53.1158 97.5604C53.1158 96.9201 53.1648 96.2278 53.5753 95.7407C53.6978 95.5905 53.8449 95.468 54.0134 95.373Z" fill="#ED999C"/>
<path d="M66.9659 190.456C67.165 189.899 67.7257 189.556 68.3139 189.635C68.4885 189.654 68.6662 189.647 68.8377 189.617C69.3708 189.522 69.91 189.289 70.4338 189.433C71.0772 189.611 71.4295 190.276 71.8094 190.824C72.7008 192.104 74.0794 192.968 75.5377 193.532C77.0143 194.031 78.54 194.384 80.087 194.58C79.5632 195.248 78.4174 195.56 77.5688 195.548L73.4147 195.499C72.661 195.526 71.9074 195.441 71.1783 195.245C69.8609 194.816 68.8959 193.713 68.0014 192.653C67.7716 193.682 67.2906 194.831 67.0578 195.86C66.7515 195.827 66.3226 195.79 66.0131 195.756C65.8385 194.096 66.3716 192.172 66.9659 190.456Z" fill="#666666"/>
<path d="M39.5106 154.472L28.1755 156.371L19.2667 103.243C18.7428 100.112 20.8567 97.1467 23.9907 96.6229C27.1216 96.1021 30.0841 98.2129 30.611 101.344L39.5106 154.472Z" fill="#D1D3D4"/>
<path d="M167.729 141.289C168.011 137.794 168.112 134.289 168.035 130.784C165.287 131.198 162.499 131.256 159.736 130.953C159.647 132.007 159.485 132.877 159.482 133.934C159.436 135.361 159.613 136.786 160.012 138.158C160.453 139.516 161.292 140.787 162.524 141.504C163.755 142.221 166.558 142.116 167.729 141.289Z" fill="#2F2E41"/>
<path d="M204.601 200.465H8.84131C7.40758 200.465 6.24343 199.307 6.2373 197.873C6.2373 196.436 7.40145 195.272 8.83825 195.272H204.598C206.032 195.278 207.19 196.439 207.19 197.873C207.184 199.301 206.029 200.459 204.601 200.465Z" fill="#E6E6E6"/>
<path d="M24.796 83.845C26.3408 83.845 27.593 82.5927 27.593 81.048C27.593 79.5032 26.3408 78.251 24.796 78.251C23.2513 78.251 21.999 79.5032 21.999 81.048C21.999 82.5927 23.2513 83.845 24.796 83.845Z" fill="#E6E6E6"/>
<path d="M26.8518 59.7778C27.9905 59.7778 28.9136 58.8547 28.9136 57.7161C28.9136 56.5774 27.9905 55.6543 26.8518 55.6543C25.7131 55.6543 24.79 56.5774 24.79 57.7161C24.79 58.8547 25.7131 59.7778 26.8518 59.7778Z" fill="#E6E6E6"/>
<path d="M6.51291 101.007C7.49086 101.007 8.28364 100.214 8.28364 99.2361C8.28364 98.2581 7.49086 97.4653 6.51291 97.4653C5.53497 97.4653 4.74219 98.2581 4.74219 99.2361C4.74219 100.214 5.53497 101.007 6.51291 101.007Z" fill="#E6E6E6"/>
<path d="M12.358 77.6015C13.0872 77.6015 13.6784 77.0103 13.6784 76.2811C13.6784 75.5518 13.0872 74.9607 12.358 74.9607C11.6288 74.9607 11.0376 75.5518 11.0376 76.2811C11.0376 77.0103 11.6288 77.6015 12.358 77.6015Z" fill="#E6E6E6"/>
<path d="M130.341 30.0553C131.23 30.0553 131.95 29.3353 131.95 28.447C131.95 27.5587 131.23 26.8386 130.341 26.8386C129.453 26.8386 128.733 27.5587 128.733 28.447C128.733 29.3353 129.453 30.0553 130.341 30.0553Z" fill="#E6E6E6"/>
<path d="M151.219 32.1141C151.786 32.1141 152.245 31.6546 152.245 31.0878C152.245 30.521 151.786 30.0615 151.219 30.0615C150.652 30.0615 150.193 30.521 150.193 31.0878C150.193 31.6546 150.652 32.1141 151.219 32.1141Z" fill="#E6E6E6"/>
<path d="M125.449 13.0679C126.576 13.0679 127.489 12.1545 127.489 11.0276C127.489 9.90079 126.576 8.9873 125.449 8.9873C124.322 8.9873 123.409 9.90079 123.409 11.0276C123.409 12.1545 124.322 13.0679 125.449 13.0679Z" fill="#E6E6E6"/>
<path d="M139.507 40.9126C140.367 40.9126 141.064 40.2158 141.064 39.3563C141.064 38.4968 140.367 37.8 139.507 37.8C138.648 37.8 137.951 38.4968 137.951 39.3563C137.951 40.2158 138.648 40.9126 139.507 40.9126Z" fill="#E6E6E6"/>
<path d="M204.758 136.373C205.509 136.373 206.118 135.764 206.118 135.012C206.118 134.261 205.509 133.652 204.758 133.652C204.006 133.652 203.397 134.261 203.397 135.012C203.397 135.764 204.006 136.373 204.758 136.373Z" fill="#E6E6E6"/>
<path d="M213.651 106.73C213.651 106.255 213.265 105.869 212.791 105.869C212.316 105.869 211.93 106.255 211.93 106.73C211.93 107.204 212.316 107.59 212.791 107.59C213.265 107.59 213.651 107.204 213.651 106.73Z" fill="#E6E6E6"/>
<path d="M201.853 121.548C203.462 121.548 204.767 120.243 204.767 118.634C204.767 117.025 203.462 115.721 201.853 115.721C200.244 115.721 198.94 117.025 198.94 118.634C198.94 120.243 200.244 121.548 201.853 121.548Z" fill="#E6E6E6"/>
<path d="M203.732 153.712C204.537 153.712 205.19 153.059 205.19 152.254C205.19 151.449 204.537 150.796 203.732 150.796C202.926 150.796 202.273 151.449 202.273 152.254C202.273 153.059 202.926 153.712 203.732 153.712Z" fill="#E6E6E6"/>
<path d="M217.823 133.378C218.092 132.24 217.387 131.1 216.249 130.832C215.111 130.563 213.971 131.268 213.703 132.406C213.434 133.544 214.139 134.684 215.277 134.952C216.414 135.221 217.555 134.516 217.823 133.378Z" fill="#E6E6E6"/>
<path d="M2.37118 123.371C3.68075 123.371 4.74236 122.309 4.74236 121C4.74236 119.69 3.68075 118.628 2.37118 118.628C1.06161 118.628 0 119.69 0 121C0 122.309 1.06161 123.371 2.37118 123.371Z" fill="#E6E6E6"/>
<path d="M33.1659 13.8828C33.9543 13.8828 34.5935 13.2436 34.5935 12.4552C34.5935 11.6668 33.9543 11.0276 33.1659 11.0276C32.3774 11.0276 31.7383 11.6668 31.7383 12.4552C31.7383 13.2436 32.3774 13.8828 33.1659 13.8828Z" fill="#E6E6E6"/>
<path d="M180.099 70.1234C180.207 68.7847 179.793 67.3662 178.782 66.4656C177.63 65.4331 175.841 65.2647 174.432 65.8988C173.684 66.2419 173.035 66.7689 172.542 67.4306C172.416 66.6157 172.088 65.8437 171.589 65.185C170.639 63.9596 168.982 63.2795 167.481 63.6532C166.179 63.978 165.137 65.0349 164.604 66.2695C164.111 67.5255 163.945 68.8858 164.129 70.2245C164.549 73.9498 166.497 77.335 169.509 79.5653C173.219 79.0016 176.53 76.9214 178.644 73.8211C179.435 72.7305 179.934 71.4591 180.099 70.1234Z" fill="#D1D3D4"/>
<path d="M102.001 81.2715C101.505 80.4321 100.65 79.8654 99.6817 79.7398C98.539 79.6815 97.4637 80.2759 96.9 81.2715C96.609 81.7862 96.4558 82.3621 96.4466 82.9534C96.0269 82.5398 95.5061 82.2365 94.9394 82.0742C93.8426 81.7617 92.6601 82.0956 91.8911 82.9381C91.2907 83.707 91.0762 84.7088 91.3121 85.6555C91.5572 86.5837 92.0351 87.4323 92.706 88.1216C94.5442 90.0853 97.1145 91.1974 99.8043 91.1851C101.734 89.3041 102.794 86.7032 102.724 84.0073C102.724 83.0484 102.473 82.1048 102.001 81.2715Z" fill="#D1D3D4"/>
<path d="M47.6133 73.383C47.1967 72.7642 46.5196 72.369 45.7752 72.3169C44.9052 72.323 44.1117 72.8193 43.7226 73.6005C43.5235 74.0049 43.4316 74.4522 43.45 74.9025C43.113 74.5992 42.7055 74.3909 42.2644 74.2898C41.4127 74.0999 40.5304 74.4062 39.979 75.0833C39.5623 75.699 39.449 76.4711 39.6726 77.1787C39.8963 77.8803 40.2976 78.5114 40.8398 79.0077C42.3257 80.423 44.3353 81.1583 46.3848 81.0327C47.7696 79.5162 48.4589 77.4912 48.2873 75.4448C48.2444 74.7095 48.0116 74.0018 47.6133 73.383Z" fill="#D1D3D4"/>
<path d="M54.5406 60.2557C54.5161 59.8881 54.3262 59.5511 54.026 59.3367C53.6491 59.1161 53.1835 59.1253 52.8159 59.3612C52.629 59.4868 52.4727 59.6522 52.3655 59.8513C52.2981 59.6369 52.1756 59.4439 52.0132 59.2876C51.6977 58.9874 51.2381 58.8924 50.8276 59.0426C50.4876 59.1957 50.2394 59.499 50.1536 59.8605C50.0709 60.219 50.0832 60.5896 50.1904 60.942C50.4631 61.9315 51.137 62.7617 52.05 63.2304C53.0334 62.9333 53.8483 62.2409 54.2986 61.3188C54.4702 60.991 54.5529 60.6264 54.5406 60.2557Z" fill="#D1D3D4"/>
<path d="M177.357 86.6664C176.815 86.2161 176.098 86.0415 175.409 86.1916C174.615 86.4275 174.021 87.0892 173.877 87.9041C173.807 88.3238 173.843 88.7558 173.981 89.1571C173.598 88.9825 173.176 88.9028 172.756 88.9273C171.935 88.9855 171.215 89.5002 170.896 90.26C170.679 90.9309 170.78 91.6631 171.169 92.2482C171.564 92.818 172.097 93.2775 172.719 93.5808C174.447 94.4631 176.466 94.5887 178.289 93.927C179.137 92.1808 179.217 90.1619 178.512 88.3544C178.279 87.7019 177.881 87.1198 177.357 86.6664Z" fill="#D1D3D4"/>
<path d="M156.948 61.1594C157.077 60.6386 156.954 60.0871 156.62 59.6674C156.191 59.2079 155.539 59.0271 154.935 59.2018C154.626 59.2967 154.341 59.4652 154.111 59.695C154.105 59.3733 154.016 59.0547 153.854 58.7759C153.538 58.2337 152.947 57.9151 152.322 57.9518C151.789 58.0254 151.324 58.3379 151.054 58.8035C150.797 59.2661 150.662 59.79 150.668 60.32C150.64 61.7996 151.235 63.2273 152.301 64.2535C153.78 64.2474 155.193 63.6255 156.195 62.5349C156.562 62.1489 156.819 61.674 156.948 61.1594Z" fill="#D1D3D4"/>
<path d="M103.922 67.7766C103.983 67.4059 103.869 67.026 103.615 66.7473C103.29 66.447 102.825 66.3582 102.411 66.5144C102.2 66.5941 102.01 66.7289 101.863 66.9035C101.838 66.6768 101.762 66.4593 101.633 66.2694C101.382 65.9048 100.95 65.7148 100.512 65.7731C100.138 65.8527 99.8225 66.1009 99.6602 66.447C99.5039 66.781 99.4365 67.1547 99.4672 67.5223C99.5284 68.5609 100.019 69.5259 100.821 70.1876C101.857 70.1049 102.81 69.5933 103.453 68.7753C103.695 68.4904 103.854 68.1442 103.922 67.7766Z" fill="#D1D3D4"/>
<path d="M150.02 82.0283C150.993 76.8123 148.958 72.0574 145.475 71.4081C141.992 70.7588 138.38 74.461 137.408 79.677C136.435 84.8931 138.47 89.6479 141.953 90.2972C145.436 90.9465 149.048 87.2444 150.02 82.0283Z" fill="#F9B499"/>
<path d="M141.06 77.2431C138.781 78.0856 136.158 78.3123 133.953 77.3228C131.747 76.3333 130.065 73.9315 130.417 71.5266C130.491 70.8128 130.828 70.1541 131.361 69.6731C131.915 69.2289 132.822 68.9501 133.383 69.3821C132.841 68.4293 133.512 67.1335 134.516 66.7015C135.521 66.2695 136.695 66.5054 137.702 66.9374C138.71 67.3694 139.629 67.9913 140.659 68.365C142.411 68.9992 144.335 68.8674 146.195 68.7786C148.054 68.6897 150.006 68.6744 151.675 69.5016C153.345 70.3287 154.616 72.2588 154.071 74.0479C155.342 76.8663 154.794 81.2472 152.625 83.4499C151.482 82.7238 150.481 81.2778 149.525 80.3312C148.425 79.2559 147.662 77.3994 146.244 76.8081C144.825 76.2169 142.506 76.7132 141.06 77.2431Z" fill="#2F2E41"/>
<path d="M149.43 78.1559C149.758 77.5003 150.322 76.9979 151.011 76.7467C151.707 76.5415 152.567 76.8141 152.849 77.4758C153.027 77.9997 152.978 78.5756 152.711 79.0597C152.099 80.3617 150.919 81.3114 149.516 81.6269C149.247 80.1656 148.701 79.4549 149.43 78.1559Z" fill="#F9B499"/>
<path d="M145.558 89.4972C145.558 89.4972 148.116 88.3422 149.559 83.8787C149.559 83.8787 149.188 88.3943 146.771 90.3366L145.558 89.4972Z" fill="#F4A48E"/>
<path d="M71.0063 89.4236L71.8334 88.8691C71.8334 88.8691 70.0903 87.1107 69.5327 85.0428C69.5327 85.0275 69.7901 88.045 71.0063 89.4236Z" fill="#F4A48E"/>
<path d="M76.4159 90.5258C79.6714 89.9699 81.6879 85.8729 80.9199 81.3748C80.1518 76.8767 76.89 73.681 73.6345 74.2369C70.3789 74.7928 68.3624 78.8898 69.1304 83.3879C69.8985 87.886 73.1603 91.0817 76.4159 90.5258Z" fill="#F9B499"/>
<path d="M72.3946 76.8631C72.3946 77.8863 72.3946 78.9402 72.0147 79.8899C71.6349 80.8396 70.7893 81.6729 69.7569 81.7127C70.0633 83.1403 69.377 84.7762 67.9954 85.2664L67.833 85.0489C68.3048 86.8043 68.17 88.7251 66.871 90.0026L66.3625 89.8709C65.7498 91.4027 64.267 92.1931 62.6097 92.1686C60.9247 92.0889 59.3684 91.2434 58.385 89.874C57.852 89.1602 58.6117 88.3422 59.108 87.5978C59.6043 86.8533 60.3518 86.3417 61.0013 85.7321C62.7046 84.136 63.7248 81.9578 65.0789 80.0553C66.433 78.1529 68.3967 76.3944 70.7311 76.3791C70.9731 76.3638 71.2121 76.4158 71.4265 76.5292C71.6287 76.6517 72.3946 76.615 72.3946 76.8631Z" fill="#2F2E41"/>
<path d="M80.7487 76.9765C80.3566 78.2295 79.0239 78.928 77.7709 78.5359C77.5197 78.4562 77.2838 78.3398 77.0724 78.1836C76.6895 78.6891 76.0952 78.8637 75.4641 78.9158C74.8238 78.9648 74.1927 78.7411 73.724 78.3031C73.1113 79.4059 70.9668 79.6786 69.916 79.0046C69.4289 79.9206 68.6324 80.6313 67.6674 81.0173C67.2507 82.8463 65.6485 84.1605 63.7736 84.2157C63.4183 81.7648 63.2896 78.9066 64.5426 76.7835C65.4004 75.3222 66.9107 74.3327 68.5252 73.7996C70.1397 73.2666 71.8491 73.1594 73.5402 73.1318C75.0536 73.1073 76.6037 73.1563 78.0007 73.7445C79.3977 74.3327 81.2021 75.5336 80.7487 76.9765Z" fill="#2F2E41"/>
</svg>
