<svg width="333" height="20" viewBox="0 0 333 20" fill="none" xmlns="http://www.w3.org/2000/svg">
<mask id="mask0_1_5870" style="mask-type:alpha" maskUnits="userSpaceOnUse" x="0" y="0" width="23" height="20">
<path d="M9.58656 0.392327C11.0974 -0.445533 13.0193 0.104966 13.8636 1.60232L21.94 15.6191C22.1178 16.0375 22.1955 16.3777 22.2178 16.7311C22.2622 17.5569 21.9734 18.3595 21.4068 18.9772C20.8402 19.5926 20.0737 19.956 19.2405 20H2.97656C2.63217 19.9791 2.28779 19.9009 1.96562 19.7798C0.354779 19.1302 -0.422867 17.3026 0.232578 15.7182L8.36454 1.59241C8.64227 1.09586 9.06442 0.667576 9.58656 0.392327ZM11.1085 13.6362C10.5753 13.6362 10.1309 14.0766 10.1309 14.6062C10.1309 15.1336 10.5753 15.5751 11.1085 15.5751C11.6418 15.5751 12.075 15.1336 12.075 14.5941C12.075 14.0667 11.6418 13.6362 11.1085 13.6362ZM11.1085 6.76711C10.5753 6.76711 10.1309 7.19539 10.1309 7.72497V10.8397C10.1309 11.3682 10.5753 11.8097 11.1085 11.8097C11.6418 11.8097 12.075 11.3682 12.075 10.8397V7.72497C12.075 7.19539 11.6418 6.76711 11.1085 6.76711Z" fill="black"/>
</mask>
<g mask="url(#mask0_1_5870)">
<rect width="22.4" height="20.8" fill="black"/>
</g>
<path d="M45.3354 5.816C45.0367 5.82533 44.8174 5.89067 44.6774 6.012C44.5374 6.124 44.4487 6.292 44.4114 6.516C44.3741 6.73067 44.3554 7.01533 44.3554 7.37V13.124C44.3554 13.376 44.3507 13.6047 44.3414 13.81C44.3414 14.006 44.3321 14.1647 44.3134 14.286C44.4721 14.2673 44.6447 14.258 44.8314 14.258C45.0274 14.2487 45.1954 14.2393 45.3354 14.23V15H41.8914V14.384C42.1994 14.3653 42.4187 14.3 42.5494 14.188C42.6894 14.076 42.7781 13.908 42.8154 13.684C42.8527 13.46 42.8714 13.1753 42.8714 12.83V7.006C42.8714 6.80067 42.8761 6.60467 42.8854 6.418C42.8947 6.222 42.9041 6.054 42.9134 5.914C42.7547 5.92333 42.5821 5.93267 42.3954 5.942C42.2087 5.95133 42.0407 5.96067 41.8914 5.97V5.2H45.3354V5.816ZM46.5502 15V14.412C46.8302 14.412 47.0262 14.3467 47.1382 14.216C47.2502 14.0853 47.3156 13.9033 47.3342 13.67C47.3622 13.4367 47.3762 13.166 47.3762 12.858L47.3902 9.946C47.3902 9.79667 47.3902 9.638 47.3902 9.47C47.3996 9.29267 47.4182 9.12 47.4462 8.952C47.2782 8.96133 47.1056 8.97067 46.9282 8.98C46.7602 8.98 46.6016 8.98467 46.4522 8.994V8.252C46.8722 8.252 47.1989 8.23333 47.4322 8.196C47.6749 8.14933 47.8569 8.098 47.9782 8.042C48.1089 7.986 48.2069 7.92533 48.2722 7.86H48.7762C48.7856 7.944 48.7902 8.02333 48.7902 8.098C48.7996 8.17267 48.8042 8.252 48.8042 8.336C48.8136 8.42 48.8229 8.52733 48.8322 8.658C49.0376 8.49 49.2616 8.34067 49.5042 8.21C49.7469 8.07933 49.9989 7.97667 50.2602 7.902C50.5309 7.818 50.7876 7.776 51.0302 7.776C51.8609 7.776 52.4582 8.028 52.8222 8.532C53.1956 9.036 53.3822 9.82467 53.3822 10.898V13.264C53.3822 13.432 53.3776 13.6047 53.3682 13.782C53.3589 13.95 53.3449 14.1227 53.3262 14.3C53.4756 14.2907 53.6249 14.286 53.7742 14.286C53.9329 14.2767 54.0776 14.2673 54.2082 14.258V15H51.0862V14.412C51.3662 14.412 51.5622 14.3467 51.6742 14.216C51.7862 14.0853 51.8516 13.9033 51.8702 13.67C51.8982 13.4367 51.9122 13.166 51.9122 12.858V10.898C51.9029 10.1607 51.7816 9.60533 51.5482 9.232C51.3242 8.85867 50.9602 8.67667 50.4562 8.686C50.1576 8.686 49.8636 8.76067 49.5742 8.91C49.2849 9.05933 49.0422 9.24133 48.8462 9.456C48.8462 9.54933 48.8462 9.652 48.8462 9.764C48.8462 9.86667 48.8462 9.974 48.8462 10.086V13.264C48.8462 13.432 48.8416 13.6047 48.8322 13.782C48.8229 13.95 48.8089 14.1227 48.7902 14.3C48.9396 14.2907 49.0889 14.286 49.2382 14.286C49.3969 14.2767 49.5416 14.2673 49.6722 14.258V15H46.5502ZM59.3209 15C59.3022 14.8507 59.2882 14.72 59.2789 14.608C59.2695 14.496 59.2555 14.3793 59.2369 14.258C58.9195 14.5753 58.5789 14.818 58.2149 14.986C57.8509 15.1447 57.4729 15.224 57.0809 15.224C56.4089 15.224 55.9002 15.0607 55.5549 14.734C55.2189 14.398 55.0509 13.9827 55.0509 13.488C55.0509 13.0587 55.1769 12.6853 55.4289 12.368C55.6809 12.0507 56.0122 11.794 56.4229 11.598C56.8335 11.3927 57.2815 11.2433 57.7669 11.15C58.2522 11.0473 58.7282 10.996 59.1949 10.996V10.17C59.1949 9.87133 59.1669 9.596 59.1109 9.344C59.0549 9.08267 58.9382 8.87267 58.7609 8.714C58.5929 8.546 58.3269 8.462 57.9629 8.462C57.7202 8.45267 57.4775 8.49933 57.2349 8.602C56.9922 8.69533 56.8055 8.854 56.6749 9.078C56.7495 9.15267 56.7962 9.24133 56.8149 9.344C56.8429 9.43733 56.8569 9.526 56.8569 9.61C56.8569 9.74067 56.8009 9.89 56.6889 10.058C56.5769 10.2167 56.3855 10.2913 56.1149 10.282C55.8909 10.282 55.7182 10.2073 55.5969 10.058C55.4849 9.89933 55.4289 9.71733 55.4289 9.512C55.4289 9.176 55.5502 8.87733 55.7929 8.616C56.0449 8.35467 56.3855 8.14933 56.8149 8C57.2442 7.85067 57.7249 7.776 58.2569 7.776C59.0595 7.776 59.6569 7.986 60.0489 8.406C60.4502 8.826 60.6509 9.48867 60.6509 10.394C60.6509 10.73 60.6509 11.052 60.6509 11.36C60.6509 11.668 60.6462 11.976 60.6369 12.284C60.6369 12.592 60.6369 12.9187 60.6369 13.264C60.6369 13.404 60.6322 13.5627 60.6229 13.74C60.6135 13.9173 60.5995 14.104 60.5809 14.3C60.7395 14.2907 60.9029 14.2813 61.0709 14.272C61.2389 14.2627 61.3975 14.258 61.5469 14.258V15H59.3209ZM59.1949 11.64C58.8962 11.6587 58.5882 11.7007 58.2709 11.766C57.9629 11.8313 57.6829 11.9293 57.4309 12.06C57.1789 12.1907 56.9735 12.3587 56.8149 12.564C56.6655 12.7693 56.5909 13.0167 56.5909 13.306C56.6095 13.6233 56.7122 13.8567 56.8989 14.006C57.0949 14.1553 57.3235 14.23 57.5849 14.23C57.9115 14.23 58.2009 14.1693 58.4529 14.048C58.7049 13.9173 58.9522 13.74 59.1949 13.516C59.1855 13.4133 59.1809 13.3107 59.1809 13.208C59.1809 13.096 59.1809 12.9793 59.1809 12.858C59.1809 12.774 59.1809 12.62 59.1809 12.396C59.1902 12.1627 59.1949 11.9107 59.1949 11.64ZM62.3246 18.57V17.982C62.6046 17.982 62.8006 17.9167 62.9126 17.786C63.0246 17.6553 63.09 17.4733 63.1086 17.24C63.1366 17.0067 63.1506 16.736 63.1506 16.428L63.1646 9.946C63.1646 9.79667 63.1693 9.638 63.1786 9.47C63.188 9.29267 63.202 9.12 63.2206 8.952C63.062 8.96133 62.894 8.97067 62.7166 8.98C62.5393 8.98 62.376 8.98467 62.2266 8.994V8.252C62.6466 8.252 62.9733 8.23333 63.2066 8.196C63.4493 8.14933 63.6313 8.098 63.7526 8.042C63.8833 7.986 63.9813 7.92533 64.0466 7.86H64.5506C64.56 7.95333 64.5693 8.06533 64.5786 8.196C64.588 8.32667 64.5973 8.45733 64.6066 8.588C64.9053 8.32667 65.2366 8.126 65.6006 7.986C65.9646 7.846 66.3286 7.776 66.6926 7.776C67.234 7.776 67.7286 7.92067 68.1766 8.21C68.634 8.49 68.998 8.89133 69.2686 9.414C69.5486 9.93667 69.6886 10.5573 69.6886 11.276C69.6886 12.0507 69.53 12.7367 69.2126 13.334C68.8953 13.9313 68.466 14.398 67.9246 14.734C67.3926 15.0607 66.8 15.224 66.1466 15.224C65.848 15.224 65.5726 15.1867 65.3206 15.112C65.0686 15.0467 64.8306 14.9533 64.6066 14.832V16.834C64.6066 17.002 64.602 17.17 64.5926 17.338C64.5926 17.5153 64.5833 17.6927 64.5646 17.87C64.714 17.8607 64.8633 17.8513 65.0126 17.842C65.1713 17.842 65.316 17.8373 65.4466 17.828V18.57H62.3246ZM66.0486 14.496C66.4966 14.496 66.8653 14.3653 67.1546 14.104C67.4533 13.8333 67.6726 13.474 67.8126 13.026C67.962 12.5687 68.0366 12.0553 68.0366 11.486C68.0366 11.01 67.9713 10.5573 67.8406 10.128C67.71 9.68933 67.5 9.33467 67.2106 9.064C66.9306 8.784 66.562 8.64867 66.1046 8.658C65.8153 8.658 65.54 8.728 65.2786 8.868C65.0173 9.008 64.798 9.18067 64.6206 9.386C64.6206 9.50733 64.6206 9.638 64.6206 9.778C64.63 9.918 64.6346 10.0953 64.6346 10.31C64.6346 10.5153 64.6346 10.7813 64.6346 11.108C64.6346 11.4253 64.63 11.8267 64.6206 12.312C64.6206 12.788 64.6206 13.3667 64.6206 14.048C64.8073 14.188 65.022 14.3 65.2646 14.384C65.5166 14.468 65.778 14.5053 66.0486 14.496ZM70.6918 18.57V17.982C70.9718 17.982 71.1678 17.9167 71.2798 17.786C71.3918 17.6553 71.4572 17.4733 71.4758 17.24C71.5038 17.0067 71.5178 16.736 71.5178 16.428L71.5318 9.946C71.5318 9.79667 71.5365 9.638 71.5458 9.47C71.5552 9.29267 71.5692 9.12 71.5878 8.952C71.4292 8.96133 71.2612 8.97067 71.0838 8.98C70.9065 8.98 70.7432 8.98467 70.5938 8.994V8.252C71.0138 8.252 71.3405 8.23333 71.5738 8.196C71.8165 8.14933 71.9985 8.098 72.1198 8.042C72.2505 7.986 72.3485 7.92533 72.4138 7.86H72.9178C72.9272 7.95333 72.9365 8.06533 72.9458 8.196C72.9552 8.32667 72.9645 8.45733 72.9738 8.588C73.2725 8.32667 73.6038 8.126 73.9678 7.986C74.3318 7.846 74.6958 7.776 75.0598 7.776C75.6012 7.776 76.0958 7.92067 76.5438 8.21C77.0012 8.49 77.3652 8.89133 77.6358 9.414C77.9158 9.93667 78.0558 10.5573 78.0558 11.276C78.0558 12.0507 77.8972 12.7367 77.5798 13.334C77.2625 13.9313 76.8332 14.398 76.2918 14.734C75.7598 15.0607 75.1672 15.224 74.5138 15.224C74.2152 15.224 73.9398 15.1867 73.6878 15.112C73.4358 15.0467 73.1978 14.9533 72.9738 14.832V16.834C72.9738 17.002 72.9692 17.17 72.9598 17.338C72.9598 17.5153 72.9505 17.6927 72.9318 17.87C73.0812 17.8607 73.2305 17.8513 73.3798 17.842C73.5385 17.842 73.6832 17.8373 73.8138 17.828V18.57H70.6918ZM74.4158 14.496C74.8638 14.496 75.2325 14.3653 75.5218 14.104C75.8205 13.8333 76.0398 13.474 76.1798 13.026C76.3292 12.5687 76.4038 12.0553 76.4038 11.486C76.4038 11.01 76.3385 10.5573 76.2078 10.128C76.0772 9.68933 75.8672 9.33467 75.5778 9.064C75.2978 8.784 74.9292 8.64867 74.4718 8.658C74.1825 8.658 73.9072 8.728 73.6458 8.868C73.3845 9.008 73.1652 9.18067 72.9878 9.386C72.9878 9.50733 72.9878 9.638 72.9878 9.778C72.9972 9.918 73.0018 10.0953 73.0018 10.31C73.0018 10.5153 73.0018 10.7813 73.0018 11.108C73.0018 11.4253 72.9972 11.8267 72.9878 12.312C72.9878 12.788 72.9878 13.3667 72.9878 14.048C73.1745 14.188 73.3892 14.3 73.6318 14.384C73.8838 14.468 74.1452 14.5053 74.4158 14.496ZM79.185 14.412C79.465 14.412 79.661 14.3467 79.773 14.216C79.885 14.0853 79.9503 13.9033 79.969 13.67C79.997 13.4367 80.011 13.166 80.011 12.858V9.946C80.011 9.79667 80.011 9.638 80.011 9.47C80.0203 9.29267 80.039 9.12 80.067 8.952C79.9083 8.96133 79.7403 8.97067 79.563 8.98C79.3857 8.98 79.2223 8.98467 79.073 8.994V8.252H79.549C79.941 8.252 80.2397 8.21 80.445 8.126C80.6503 8.042 80.7997 7.95333 80.893 7.86H81.397C81.4157 7.99067 81.4297 8.17267 81.439 8.406C81.4483 8.63933 81.4577 8.90067 81.467 9.19C81.6443 8.92867 81.8497 8.69533 82.083 8.49C82.3163 8.27533 82.5683 8.10267 82.839 7.972C83.119 7.84133 83.4083 7.776 83.707 7.776C83.9963 7.776 84.2437 7.85533 84.449 8.014C84.6637 8.16333 84.771 8.41067 84.771 8.756C84.771 8.84933 84.743 8.95667 84.687 9.078C84.6403 9.19933 84.5563 9.30667 84.435 9.4C84.323 9.484 84.169 9.526 83.973 9.526C83.777 9.51667 83.6043 9.442 83.455 9.302C83.315 9.162 83.2497 8.97067 83.259 8.728C83.035 8.728 82.811 8.798 82.587 8.938C82.363 9.06867 82.153 9.246 81.957 9.47C81.7703 9.694 81.6117 9.93667 81.481 10.198V13.264C81.481 13.432 81.4763 13.6047 81.467 13.782C81.467 13.95 81.453 14.1227 81.425 14.3C81.5743 14.2907 81.7283 14.286 81.887 14.286C82.0457 14.2767 82.1903 14.2673 82.321 14.258V15H79.185V14.412ZM88.8364 15.224C88.1737 15.224 87.5764 15.0747 87.0444 14.776C86.5124 14.4773 86.0877 14.062 85.7704 13.53C85.4624 12.9887 85.3084 12.368 85.3084 11.668C85.3084 10.912 85.4624 10.2447 85.7704 9.666C86.0877 9.078 86.5124 8.616 87.0444 8.28C87.5764 7.944 88.169 7.776 88.8224 7.776C89.485 7.776 90.0824 7.93 90.6144 8.238C91.1464 8.53667 91.5664 8.95667 91.8744 9.498C92.1917 10.03 92.3504 10.646 92.3504 11.346C92.3504 12.0833 92.1964 12.746 91.8884 13.334C91.5804 13.922 91.1604 14.384 90.6284 14.72C90.1057 15.056 89.5084 15.224 88.8364 15.224ZM88.9344 14.524C89.3824 14.5147 89.7324 14.3747 89.9844 14.104C90.2457 13.8333 90.4324 13.488 90.5444 13.068C90.6564 12.6387 90.7124 12.1953 90.7124 11.738C90.7124 11.3367 90.675 10.9447 90.6004 10.562C90.535 10.17 90.4277 9.81533 90.2784 9.498C90.129 9.18067 89.933 8.92867 89.6904 8.742C89.4477 8.546 89.1537 8.45267 88.8084 8.462C88.3697 8.462 88.0104 8.59733 87.7304 8.868C87.4597 9.13867 87.259 9.48867 87.1284 9.918C87.007 10.338 86.9464 10.786 86.9464 11.262C86.9464 11.8127 87.0164 12.3353 87.1564 12.83C87.2964 13.3247 87.511 13.7307 87.8004 14.048C88.099 14.3653 88.477 14.524 88.9344 14.524ZM93.3598 18.57V17.982C93.6398 17.982 93.8358 17.9167 93.9478 17.786C94.0598 17.6553 94.1251 17.4733 94.1438 17.24C94.1718 17.0067 94.1858 16.736 94.1858 16.428L94.1998 9.946C94.1998 9.79667 94.2045 9.638 94.2138 9.47C94.2231 9.29267 94.2371 9.12 94.2558 8.952C94.0971 8.96133 93.9291 8.97067 93.7518 8.98C93.5745 8.98 93.4111 8.98467 93.2618 8.994V8.252C93.6818 8.252 94.0085 8.23333 94.2418 8.196C94.4845 8.14933 94.6665 8.098 94.7878 8.042C94.9185 7.986 95.0165 7.92533 95.0818 7.86H95.5858C95.5951 7.95333 95.6045 8.06533 95.6138 8.196C95.6231 8.32667 95.6325 8.45733 95.6418 8.588C95.9405 8.32667 96.2718 8.126 96.6358 7.986C96.9998 7.846 97.3638 7.776 97.7278 7.776C98.2691 7.776 98.7638 7.92067 99.2118 8.21C99.6691 8.49 100.033 8.89133 100.304 9.414C100.584 9.93667 100.724 10.5573 100.724 11.276C100.724 12.0507 100.565 12.7367 100.248 13.334C99.9305 13.9313 99.5011 14.398 98.9598 14.734C98.4278 15.0607 97.8351 15.224 97.1818 15.224C96.8831 15.224 96.6078 15.1867 96.3558 15.112C96.1038 15.0467 95.8658 14.9533 95.6418 14.832V16.834C95.6418 17.002 95.6371 17.17 95.6278 17.338C95.6278 17.5153 95.6185 17.6927 95.5998 17.87C95.7491 17.8607 95.8985 17.8513 96.0478 17.842C96.2065 17.842 96.3511 17.8373 96.4818 17.828V18.57H93.3598ZM97.0838 14.496C97.5318 14.496 97.9005 14.3653 98.1898 14.104C98.4885 13.8333 98.7078 13.474 98.8478 13.026C98.9971 12.5687 99.0718 12.0553 99.0718 11.486C99.0718 11.01 99.0065 10.5573 98.8758 10.128C98.7451 9.68933 98.5351 9.33467 98.2458 9.064C97.9658 8.784 97.5971 8.64867 97.1398 8.658C96.8505 8.658 96.5751 8.728 96.3138 8.868C96.0525 9.008 95.8331 9.18067 95.6558 9.386C95.6558 9.50733 95.6558 9.638 95.6558 9.778C95.6651 9.918 95.6698 10.0953 95.6698 10.31C95.6698 10.5153 95.6698 10.7813 95.6698 11.108C95.6698 11.4253 95.6651 11.8267 95.6558 12.312C95.6558 12.788 95.6558 13.3667 95.6558 14.048C95.8425 14.188 96.0571 14.3 96.2998 14.384C96.5518 14.468 96.8131 14.5053 97.0838 14.496ZM101.853 14.412C102.133 14.412 102.329 14.3467 102.441 14.216C102.553 14.0853 102.618 13.9033 102.637 13.67C102.665 13.4367 102.679 13.166 102.679 12.858V9.946C102.679 9.79667 102.679 9.638 102.679 9.47C102.688 9.29267 102.707 9.12 102.735 8.952C102.576 8.96133 102.408 8.97067 102.231 8.98C102.054 8.98 101.89 8.98467 101.741 8.994V8.252H102.217C102.609 8.252 102.908 8.21 103.113 8.126C103.318 8.042 103.468 7.95333 103.561 7.86H104.065C104.084 7.99067 104.098 8.17267 104.107 8.406C104.116 8.63933 104.126 8.90067 104.135 9.19C104.312 8.92867 104.518 8.69533 104.751 8.49C104.984 8.27533 105.236 8.10267 105.507 7.972C105.787 7.84133 106.076 7.776 106.375 7.776C106.664 7.776 106.912 7.85533 107.117 8.014C107.332 8.16333 107.439 8.41067 107.439 8.756C107.439 8.84933 107.411 8.95667 107.355 9.078C107.308 9.19933 107.224 9.30667 107.103 9.4C106.991 9.484 106.837 9.526 106.641 9.526C106.445 9.51667 106.272 9.442 106.123 9.302C105.983 9.162 105.918 8.97067 105.927 8.728C105.703 8.728 105.479 8.798 105.255 8.938C105.031 9.06867 104.821 9.246 104.625 9.47C104.438 9.694 104.28 9.93667 104.149 10.198V13.264C104.149 13.432 104.144 13.6047 104.135 13.782C104.135 13.95 104.121 14.1227 104.093 14.3C104.242 14.2907 104.396 14.286 104.555 14.286C104.714 14.2767 104.858 14.2673 104.989 14.258V15H101.853V14.412ZM108.142 14.412C108.422 14.412 108.618 14.3467 108.73 14.216C108.842 14.0853 108.907 13.9033 108.926 13.67C108.954 13.4367 108.968 13.166 108.968 12.858V9.96C108.968 9.80133 108.973 9.64267 108.982 9.484C108.991 9.316 109.005 9.13867 109.024 8.952C108.865 8.96133 108.697 8.97067 108.52 8.98C108.343 8.98 108.179 8.98467 108.03 8.994V8.252C108.45 8.252 108.781 8.23333 109.024 8.196C109.276 8.14933 109.467 8.098 109.598 8.042C109.738 7.986 109.841 7.92533 109.906 7.86H110.438V13.264C110.438 13.432 110.433 13.6047 110.424 13.782C110.415 13.95 110.401 14.1227 110.382 14.3C110.531 14.2907 110.681 14.286 110.83 14.286C110.989 14.2767 111.133 14.2673 111.264 14.258V15H108.142V14.412ZM109.64 6.572C109.397 6.572 109.192 6.48333 109.024 6.306C108.856 6.11933 108.772 5.89533 108.772 5.634C108.772 5.37267 108.861 5.15333 109.038 4.976C109.215 4.78933 109.416 4.696 109.64 4.696C109.883 4.696 110.083 4.78933 110.242 4.976C110.41 5.15333 110.494 5.37267 110.494 5.634C110.494 5.89533 110.41 6.11933 110.242 6.306C110.083 6.48333 109.883 6.572 109.64 6.572ZM116.415 15C116.396 14.8507 116.382 14.72 116.373 14.608C116.363 14.496 116.349 14.3793 116.331 14.258C116.013 14.5753 115.673 14.818 115.309 14.986C114.945 15.1447 114.567 15.224 114.175 15.224C113.503 15.224 112.994 15.0607 112.649 14.734C112.313 14.398 112.145 13.9827 112.145 13.488C112.145 13.0587 112.271 12.6853 112.523 12.368C112.775 12.0507 113.106 11.794 113.517 11.598C113.927 11.3927 114.375 11.2433 114.861 11.15C115.346 11.0473 115.822 10.996 116.289 10.996V10.17C116.289 9.87133 116.261 9.596 116.205 9.344C116.149 9.08267 116.032 8.87267 115.855 8.714C115.687 8.546 115.421 8.462 115.057 8.462C114.814 8.45267 114.571 8.49933 114.329 8.602C114.086 8.69533 113.899 8.854 113.769 9.078C113.843 9.15267 113.89 9.24133 113.909 9.344C113.937 9.43733 113.951 9.526 113.951 9.61C113.951 9.74067 113.895 9.89 113.783 10.058C113.671 10.2167 113.479 10.2913 113.209 10.282C112.985 10.282 112.812 10.2073 112.691 10.058C112.579 9.89933 112.523 9.71733 112.523 9.512C112.523 9.176 112.644 8.87733 112.887 8.616C113.139 8.35467 113.479 8.14933 113.909 8C114.338 7.85067 114.819 7.776 115.351 7.776C116.153 7.776 116.751 7.986 117.143 8.406C117.544 8.826 117.745 9.48867 117.745 10.394C117.745 10.73 117.745 11.052 117.745 11.36C117.745 11.668 117.74 11.976 117.731 12.284C117.731 12.592 117.731 12.9187 117.731 13.264C117.731 13.404 117.726 13.5627 117.717 13.74C117.707 13.9173 117.693 14.104 117.675 14.3C117.833 14.2907 117.997 14.2813 118.165 14.272C118.333 14.2627 118.491 14.258 118.641 14.258V15H116.415ZM116.289 11.64C115.99 11.6587 115.682 11.7007 115.365 11.766C115.057 11.8313 114.777 11.9293 114.525 12.06C114.273 12.1907 114.067 12.3587 113.909 12.564C113.759 12.7693 113.685 13.0167 113.685 13.306C113.703 13.6233 113.806 13.8567 113.993 14.006C114.189 14.1553 114.417 14.23 114.679 14.23C115.005 14.23 115.295 14.1693 115.547 14.048C115.799 13.9173 116.046 13.74 116.289 13.516C116.279 13.4133 116.275 13.3107 116.275 13.208C116.275 13.096 116.275 12.9793 116.275 12.858C116.275 12.774 116.275 12.62 116.275 12.396C116.284 12.1627 116.289 11.9107 116.289 11.64ZM122.136 15.224C121.903 15.224 121.67 15.1913 121.436 15.126C121.203 15.07 120.984 14.9533 120.778 14.776C120.582 14.5893 120.428 14.3233 120.316 13.978C120.204 13.6327 120.148 13.1753 120.148 12.606L120.176 8.784H119.14V8C119.392 7.99067 119.649 7.89733 119.91 7.72C120.172 7.54267 120.4 7.30467 120.596 7.006C120.792 6.70733 120.928 6.38533 121.002 6.04H121.66V8H123.816V8.728L121.66 8.756L121.632 12.494C121.632 12.8487 121.66 13.1613 121.716 13.432C121.782 13.6933 121.884 13.8987 122.024 14.048C122.174 14.188 122.374 14.258 122.626 14.258C122.841 14.258 123.06 14.1927 123.284 14.062C123.518 13.9313 123.737 13.7167 123.942 13.418L124.418 13.838C124.194 14.1647 123.97 14.4213 123.746 14.608C123.522 14.7947 123.308 14.93 123.102 15.014C122.897 15.1073 122.71 15.1633 122.542 15.182C122.374 15.21 122.239 15.224 122.136 15.224ZM128.373 15.224C127.72 15.224 127.132 15.0747 126.609 14.776C126.096 14.468 125.69 14.0387 125.391 13.488C125.092 12.928 124.943 12.27 124.943 11.514C124.943 10.8607 125.088 10.2493 125.377 9.68C125.676 9.11067 126.091 8.65333 126.623 8.308C127.155 7.95333 127.771 7.776 128.471 7.776C128.863 7.776 129.232 7.83667 129.577 7.958C129.932 8.07933 130.244 8.27067 130.515 8.532C130.795 8.784 131.014 9.11533 131.173 9.526C131.332 9.92733 131.411 10.4173 131.411 10.996L126.595 11.08C126.595 11.7147 126.665 12.2793 126.805 12.774C126.954 13.2687 127.192 13.6513 127.519 13.922C127.846 14.1927 128.27 14.328 128.793 14.328C129.045 14.328 129.311 14.286 129.591 14.202C129.88 14.1087 130.151 13.978 130.403 13.81C130.664 13.642 130.884 13.4413 131.061 13.208L131.495 13.586C131.215 14.006 130.893 14.3373 130.529 14.58C130.165 14.8133 129.792 14.9767 129.409 15.07C129.036 15.1727 128.69 15.224 128.373 15.224ZM126.651 10.352H129.885C129.885 9.99733 129.834 9.68 129.731 9.4C129.638 9.11067 129.488 8.882 129.283 8.714C129.078 8.546 128.816 8.462 128.499 8.462C128.004 8.462 127.598 8.62067 127.281 8.938C126.964 9.246 126.754 9.71733 126.651 10.352ZM139.639 15.224C139.014 15.224 138.44 15.084 137.917 14.804C137.394 14.5147 136.974 14.104 136.657 13.572C136.349 13.04 136.195 12.396 136.195 11.64C136.195 11.136 136.284 10.6553 136.461 10.198C136.638 9.73133 136.886 9.316 137.203 8.952C137.53 8.588 137.912 8.30333 138.351 8.098C138.799 7.88333 139.294 7.776 139.835 7.776C140.386 7.776 140.857 7.86 141.249 8.028C141.641 8.196 141.94 8.41533 142.145 8.686C142.36 8.95667 142.467 9.25067 142.467 9.568C142.467 9.792 142.402 9.988 142.271 10.156C142.14 10.324 141.954 10.408 141.711 10.408C141.44 10.4173 141.249 10.338 141.137 10.17C141.025 9.99267 140.969 9.82933 140.969 9.68C140.969 9.596 140.983 9.50267 141.011 9.4C141.039 9.288 141.09 9.19 141.165 9.106C141.09 8.91 140.969 8.76533 140.801 8.672C140.633 8.57867 140.46 8.518 140.283 8.49C140.106 8.462 139.956 8.448 139.835 8.448C139.266 8.45733 138.785 8.70467 138.393 9.19C138.01 9.666 137.819 10.3567 137.819 11.262C137.819 11.8407 137.903 12.3587 138.071 12.816C138.248 13.2733 138.505 13.6373 138.841 13.908C139.177 14.1787 139.578 14.3187 140.045 14.328C140.465 14.328 140.871 14.2207 141.263 14.006C141.655 13.782 141.972 13.502 142.215 13.166L142.663 13.558C142.392 13.978 142.08 14.3093 141.725 14.552C141.38 14.7947 141.025 14.9673 140.661 15.07C140.306 15.1727 139.966 15.224 139.639 15.224ZM147.065 15.224C146.402 15.224 145.805 15.0747 145.273 14.776C144.741 14.4773 144.316 14.062 143.999 13.53C143.691 12.9887 143.537 12.368 143.537 11.668C143.537 10.912 143.691 10.2447 143.999 9.666C144.316 9.078 144.741 8.616 145.273 8.28C145.805 7.944 146.398 7.776 147.051 7.776C147.714 7.776 148.311 7.93 148.843 8.238C149.375 8.53667 149.795 8.95667 150.103 9.498C150.42 10.03 150.579 10.646 150.579 11.346C150.579 12.0833 150.425 12.746 150.117 13.334C149.809 13.922 149.389 14.384 148.857 14.72C148.334 15.056 147.737 15.224 147.065 15.224ZM147.163 14.524C147.611 14.5147 147.961 14.3747 148.213 14.104C148.474 13.8333 148.661 13.488 148.773 13.068C148.885 12.6387 148.941 12.1953 148.941 11.738C148.941 11.3367 148.904 10.9447 148.829 10.562C148.764 10.17 148.656 9.81533 148.507 9.498C148.358 9.18067 148.162 8.92867 147.919 8.742C147.676 8.546 147.382 8.45267 147.037 8.462C146.598 8.462 146.239 8.59733 145.959 8.868C145.688 9.13867 145.488 9.48867 145.357 9.918C145.236 10.338 145.175 10.786 145.175 11.262C145.175 11.8127 145.245 12.3353 145.385 12.83C145.525 13.3247 145.74 13.7307 146.029 14.048C146.328 14.3653 146.706 14.524 147.163 14.524ZM151.714 15V14.412C151.994 14.412 152.19 14.3467 152.302 14.216C152.414 14.0853 152.48 13.9033 152.498 13.67C152.526 13.4367 152.54 13.166 152.54 12.858L152.554 9.946C152.554 9.79667 152.554 9.638 152.554 9.47C152.564 9.29267 152.582 9.12 152.61 8.952C152.442 8.96133 152.27 8.97067 152.092 8.98C151.924 8.98 151.766 8.98467 151.616 8.994V8.252C152.036 8.252 152.363 8.23333 152.596 8.196C152.839 8.14933 153.021 8.098 153.142 8.042C153.273 7.986 153.371 7.92533 153.436 7.86H153.94C153.95 7.944 153.954 8.02333 153.954 8.098C153.964 8.17267 153.968 8.252 153.968 8.336C153.978 8.42 153.987 8.52733 153.996 8.658C154.202 8.49 154.426 8.34067 154.668 8.21C154.911 8.07933 155.163 7.97667 155.424 7.902C155.695 7.818 155.952 7.776 156.194 7.776C157.025 7.776 157.622 8.028 157.986 8.532C158.36 9.036 158.546 9.82467 158.546 10.898V13.264C158.546 13.432 158.542 13.6047 158.532 13.782C158.523 13.95 158.509 14.1227 158.49 14.3C158.64 14.2907 158.789 14.286 158.938 14.286C159.097 14.2767 159.242 14.2673 159.372 14.258V15H156.25V14.412C156.53 14.412 156.726 14.3467 156.838 14.216C156.95 14.0853 157.016 13.9033 157.034 13.67C157.062 13.4367 157.076 13.166 157.076 12.858V10.898C157.067 10.1607 156.946 9.60533 156.712 9.232C156.488 8.85867 156.124 8.67667 155.62 8.686C155.322 8.686 155.028 8.76067 154.738 8.91C154.449 9.05933 154.206 9.24133 154.01 9.456C154.01 9.54933 154.01 9.652 154.01 9.764C154.01 9.86667 154.01 9.974 154.01 10.086V13.264C154.01 13.432 154.006 13.6047 153.996 13.782C153.987 13.95 153.973 14.1227 153.954 14.3C154.104 14.2907 154.253 14.286 154.402 14.286C154.561 14.2767 154.706 14.2673 154.836 14.258V15H151.714ZM162.92 15.224C162.686 15.224 162.453 15.1913 162.22 15.126C161.986 15.07 161.767 14.9533 161.562 14.776C161.366 14.5893 161.212 14.3233 161.1 13.978C160.988 13.6327 160.932 13.1753 160.932 12.606L160.96 8.784H159.924V8C160.176 7.99067 160.432 7.89733 160.694 7.72C160.955 7.54267 161.184 7.30467 161.38 7.006C161.576 6.70733 161.711 6.38533 161.786 6.04H162.444V8H164.6V8.728L162.444 8.756L162.416 12.494C162.416 12.8487 162.444 13.1613 162.5 13.432C162.565 13.6933 162.668 13.8987 162.808 14.048C162.957 14.188 163.158 14.258 163.41 14.258C163.624 14.258 163.844 14.1927 164.068 14.062C164.301 13.9313 164.52 13.7167 164.726 13.418L165.202 13.838C164.978 14.1647 164.754 14.4213 164.53 14.608C164.306 14.7947 164.091 14.93 163.886 15.014C163.68 15.1073 163.494 15.1633 163.326 15.182C163.158 15.21 163.022 15.224 162.92 15.224ZM169.156 15.224C168.503 15.224 167.915 15.0747 167.392 14.776C166.879 14.468 166.473 14.0387 166.174 13.488C165.876 12.928 165.726 12.27 165.726 11.514C165.726 10.8607 165.871 10.2493 166.16 9.68C166.459 9.11067 166.874 8.65333 167.406 8.308C167.938 7.95333 168.554 7.776 169.254 7.776C169.646 7.776 170.015 7.83667 170.36 7.958C170.715 8.07933 171.028 8.27067 171.298 8.532C171.578 8.784 171.798 9.11533 171.956 9.526C172.115 9.92733 172.194 10.4173 172.194 10.996L167.378 11.08C167.378 11.7147 167.448 12.2793 167.588 12.774C167.738 13.2687 167.976 13.6513 168.302 13.922C168.629 14.1927 169.054 14.328 169.576 14.328C169.828 14.328 170.094 14.286 170.374 14.202C170.664 14.1087 170.934 13.978 171.186 13.81C171.448 13.642 171.667 13.4413 171.844 13.208L172.278 13.586C171.998 14.006 171.676 14.3373 171.312 14.58C170.948 14.8133 170.575 14.9767 170.192 15.07C169.819 15.1727 169.474 15.224 169.156 15.224ZM167.434 10.352H170.668C170.668 9.99733 170.617 9.68 170.514 9.4C170.421 9.11067 170.272 8.882 170.066 8.714C169.861 8.546 169.6 8.462 169.282 8.462C168.788 8.462 168.382 8.62067 168.064 8.938C167.747 9.246 167.537 9.71733 167.434 10.352ZM173.371 15V14.412C173.651 14.412 173.847 14.3467 173.959 14.216C174.071 14.0853 174.136 13.9033 174.155 13.67C174.183 13.4367 174.197 13.166 174.197 12.858L174.211 9.946C174.211 9.79667 174.211 9.638 174.211 9.47C174.22 9.29267 174.239 9.12 174.267 8.952C174.099 8.96133 173.926 8.97067 173.749 8.98C173.581 8.98 173.422 8.98467 173.273 8.994V8.252C173.693 8.252 174.019 8.23333 174.253 8.196C174.495 8.14933 174.677 8.098 174.799 8.042C174.929 7.986 175.027 7.92533 175.093 7.86H175.597C175.606 7.944 175.611 8.02333 175.611 8.098C175.62 8.17267 175.625 8.252 175.625 8.336C175.634 8.42 175.643 8.52733 175.653 8.658C175.858 8.49 176.082 8.34067 176.325 8.21C176.567 8.07933 176.819 7.97667 177.081 7.902C177.351 7.818 177.608 7.776 177.851 7.776C178.681 7.776 179.279 8.028 179.643 8.532C180.016 9.036 180.203 9.82467 180.203 10.898V13.264C180.203 13.432 180.198 13.6047 180.189 13.782C180.179 13.95 180.165 14.1227 180.147 14.3C180.296 14.2907 180.445 14.286 180.595 14.286C180.753 14.2767 180.898 14.2673 181.029 14.258V15H177.907V14.412C178.187 14.412 178.383 14.3467 178.495 14.216C178.607 14.0853 178.672 13.9033 178.691 13.67C178.719 13.4367 178.733 13.166 178.733 12.858V10.898C178.723 10.1607 178.602 9.60533 178.369 9.232C178.145 8.85867 177.781 8.67667 177.277 8.686C176.978 8.686 176.684 8.76067 176.395 8.91C176.105 9.05933 175.863 9.24133 175.667 9.456C175.667 9.54933 175.667 9.652 175.667 9.764C175.667 9.86667 175.667 9.974 175.667 10.086V13.264C175.667 13.432 175.662 13.6047 175.653 13.782C175.643 13.95 175.629 14.1227 175.611 14.3C175.76 14.2907 175.909 14.286 176.059 14.286C176.217 14.2767 176.362 14.2673 176.493 14.258V15H173.371ZM184.576 15.224C184.342 15.224 184.109 15.1913 183.876 15.126C183.642 15.07 183.423 14.9533 183.218 14.776C183.022 14.5893 182.868 14.3233 182.756 13.978C182.644 13.6327 182.588 13.1753 182.588 12.606L182.616 8.784H181.58V8C181.832 7.99067 182.088 7.89733 182.35 7.72C182.611 7.54267 182.84 7.30467 183.036 7.006C183.232 6.70733 183.367 6.38533 183.442 6.04H184.1V8H186.256V8.728L184.1 8.756L184.072 12.494C184.072 12.8487 184.1 13.1613 184.156 13.432C184.221 13.6933 184.324 13.8987 184.464 14.048C184.613 14.188 184.814 14.258 185.066 14.258C185.28 14.258 185.5 14.1927 185.724 14.062C185.957 13.9313 186.176 13.7167 186.382 13.418L186.858 13.838C186.634 14.1647 186.41 14.4213 186.186 14.608C185.962 14.7947 185.747 14.93 185.542 15.014C185.336 15.1073 185.15 15.1633 184.982 15.182C184.814 15.21 184.678 15.224 184.576 15.224Z" fill="black"/>
<path d="M326.231 4.23485C326.304 4.1604 326.391 4.10134 326.486 4.06104C326.581 4.02074 326.684 4 326.787 4C326.89 4 326.992 4.02074 327.087 4.06104C327.183 4.10134 327.269 4.1604 327.342 4.23485L332.556 9.54907C332.615 9.60823 332.661 9.6785 332.692 9.75587C332.724 9.83323 332.74 9.91616 332.74 9.99991C332.74 10.0837 332.724 10.1666 332.692 10.244C332.661 10.3213 332.615 10.3916 332.556 10.4508L327.342 15.765C327.035 16.0783 326.539 16.0783 326.231 15.765C325.924 15.4516 325.924 14.9464 326.231 14.6331L330.774 9.99672L326.225 5.36036C325.924 5.0534 325.924 4.5418 326.231 4.23485Z" fill="black"/>
</svg>
