<svg width="228" height="220" viewBox="0 0 228 220" fill="none" xmlns="http://www.w3.org/2000/svg">
<g clip-path="url(#clip0_1_4787)">
<path d="M24.8287 14.7825C15.4703 18.5958 10.974 29.2769 14.8047 38.5926L26.1852 66.2614L31.2912 64.1777L19.9107 36.5089C17.2332 29.9951 20.373 22.5304 26.9168 19.8652C33.4606 17.2 40.9595 20.3254 43.637 26.8393L48.743 24.7557C44.9122 15.44 34.182 10.9642 24.8236 14.7775L24.8287 14.7825Z" fill="#F68040"/>
<g opacity="0.3">
<path d="M24.8287 14.7825C15.4703 18.5958 10.974 29.2769 14.8047 38.5926L26.1852 66.2614L31.2912 64.1777L19.9107 36.5089C17.2332 29.9951 20.373 22.5304 26.9168 19.8652C33.4606 17.2 40.9595 20.3254 43.637 26.8393L48.743 24.7557C44.9122 15.44 34.182 10.9642 24.8236 14.7775L24.8287 14.7825Z" fill="black"/>
</g>
<path d="M58.2407 38.8264L17.9621 55.2458C16.4535 55.8608 15.7313 57.5768 16.3491 59.0785L26.1301 82.8535C26.7479 84.3553 28.4718 85.0741 29.9804 84.4591L70.259 68.0397C71.7677 67.4247 72.4898 65.7087 71.872 64.207L62.091 40.432C61.4732 38.9302 59.7494 38.2114 58.2407 38.8264Z" fill="#F68040"/>
<g opacity="0.5">
<path d="M46.3603 56.2782C45.4966 54.1743 43.0834 53.1679 40.9699 54.0327C38.8563 54.8925 37.8453 57.2947 38.7141 59.3986C39.4304 61.1383 41.2036 62.1093 42.9919 61.9121L45.3341 67.6016L47.4222 66.752L45.08 61.0624C46.4924 59.9549 47.0767 58.023 46.3603 56.2832V56.2782Z" fill="black"/>
</g>
<path d="M28.5427 81.8077C28.4361 81.8482 26.3479 77.0133 23.8788 71.0052C21.4045 64.9971 19.4892 60.0914 19.5908 60.0459C19.6975 60.0054 21.7856 64.8403 24.2547 70.8484C26.7239 76.8566 28.6444 81.7622 28.5427 81.8077Z" fill="#FAFAFA"/>
<path d="M41.5541 63.935C41.5541 63.935 41.3508 63.9501 41.0003 63.8642C40.6497 63.7832 40.1569 63.6012 39.6031 63.2674C38.5057 62.6251 37.1594 61.204 36.8342 59.2013C36.5294 57.1986 37.3727 55.4285 38.2161 54.4878C38.6378 54.0023 39.0544 53.6786 39.3592 53.4915C39.6641 53.3044 39.8521 53.2336 39.8622 53.2538C39.9079 53.3196 39.1967 53.6888 38.4397 54.6699C37.6877 55.6156 36.9561 57.2896 37.2356 59.1406C37.5353 60.9865 38.7547 62.352 39.7606 63.0246C40.7818 63.7225 41.5744 63.8591 41.549 63.935H41.5541Z" fill="#FAFAFA"/>
<path d="M9.12476 68.9215L9.37371 68.2034L9.8462 68.7951C10.2272 69.2705 10.7353 69.6295 11.3094 69.8268L12.0308 70.0746L11.4364 70.5449C10.9588 70.9242 10.5981 71.43 10.4 72.0014L10.151 72.7196L9.67854 72.1279C9.2975 71.6525 8.78944 71.2934 8.21534 71.0962L7.4939 70.8484L8.08832 70.378C8.5659 69.9987 8.92662 69.493 9.12476 68.9215Z" fill="#F68040"/>
<path d="M33.2372 40.7065L33.3795 40.2917L33.6538 40.6356C33.8723 40.9138 34.167 41.1212 34.5023 41.2324L34.9189 41.374L34.5734 41.6471C34.294 41.8646 34.0857 42.1579 33.9739 42.4917L33.8316 42.9064L33.5573 42.5625C33.3388 42.2843 33.0442 42.077 32.7088 41.9657L32.2922 41.8241L32.6377 41.551C32.9171 41.3336 33.1254 41.0402 33.2372 40.7065Z" fill="#F68040"/>
<path d="M4.24234 44.2215L4.65894 43.0178L5.45151 44.0141C6.08658 44.8132 6.94012 45.415 7.91051 45.7437L9.11969 46.1584L8.11881 46.9474C7.31608 47.5796 6.71149 48.4292 6.38126 49.3951L5.96465 50.5988L5.17208 49.6025C4.53701 48.8034 3.68347 48.2016 2.71308 47.8729L1.50391 47.4582L2.50478 46.6692C3.30751 46.0371 3.9121 45.1874 4.24234 44.2215Z" fill="#F68040"/>
<path d="M144.329 219.727L69.3346 219.681C60.3166 219.681 53.0056 212.394 53.0056 203.417L53.0412 16.2594C53.0463 7.27753 60.3623 0 69.3905 0L144.385 0.0455162C153.403 0.0505736 160.714 7.33317 160.714 16.31L160.678 203.468C160.678 212.449 153.357 219.732 144.334 219.727H144.329Z" fill="#263238"/>
<path d="M144.309 6.66563L129.768 6.65552C127.817 6.65552 126.237 8.29916 126.237 10.3272V12.9519C126.237 14.9799 124.657 16.6236 122.706 16.6236L94.3614 16.6084C92.4105 16.6084 90.8304 14.9597 90.8304 12.9317V10.3069C90.8304 8.27893 89.2504 6.63023 87.2994 6.63023H82.1833L69.4565 6.62012C63.1362 6.62012 58.0099 11.7129 58.0099 18.0093L57.9744 200.691C57.9744 206.982 63.0905 212.08 69.4107 212.085L144.258 212.131C150.578 212.131 155.704 207.038 155.704 200.747L155.74 18.0649C155.74 11.7786 150.624 6.67575 144.303 6.67575L144.309 6.66563Z" fill="white"/>
<path d="M98.875 78.192C98.115 78.192 97.467 78.064 96.931 77.808C96.395 77.552 95.959 77.212 95.623 76.788C95.295 76.356 95.055 75.88 94.903 75.36C94.751 74.84 94.675 74.32 94.675 73.8C94.675 73.296 94.759 72.788 94.927 72.276C95.095 71.756 95.351 71.28 95.695 70.848C96.047 70.416 96.487 70.068 97.015 69.804C97.543 69.54 98.163 69.408 98.875 69.408C99.603 69.408 100.231 69.54 100.759 69.804C101.295 70.068 101.731 70.42 102.067 70.86C102.411 71.292 102.663 71.764 102.823 72.276C102.991 72.788 103.075 73.296 103.075 73.8C103.075 74.296 102.991 74.8 102.823 75.312C102.655 75.824 102.395 76.3 102.043 76.74C101.699 77.172 101.263 77.524 100.735 77.796C100.207 78.06 99.587 78.192 98.875 78.192ZM98.971 77.448C99.419 77.448 99.795 77.344 100.099 77.136C100.411 76.928 100.663 76.656 100.855 76.32C101.047 75.984 101.187 75.616 101.275 75.216C101.371 74.808 101.419 74.408 101.419 74.016C101.419 73.48 101.363 72.98 101.251 72.516C101.139 72.044 100.971 71.632 100.747 71.28C100.531 70.928 100.255 70.652 99.919 70.452C99.583 70.244 99.195 70.144 98.755 70.152C98.315 70.16 97.939 70.272 97.627 70.488C97.323 70.696 97.071 70.972 96.871 71.316C96.679 71.652 96.539 72.024 96.451 72.432C96.363 72.84 96.319 73.24 96.319 73.632C96.319 74.032 96.367 74.452 96.463 74.892C96.559 75.332 96.711 75.748 96.919 76.14C97.127 76.532 97.399 76.848 97.735 77.088C98.079 77.328 98.491 77.448 98.971 77.448ZM110.34 72.252C110.34 71.804 110.284 71.436 110.172 71.148C110.06 70.852 109.892 70.632 109.668 70.488C109.452 70.344 109.176 70.276 108.84 70.284H108.108V76.212C108.108 76.428 108.104 76.628 108.096 76.812C108.088 76.996 108.076 77.14 108.06 77.244C108.212 77.236 108.384 77.228 108.576 77.22C108.776 77.212 108.928 77.208 109.032 77.208V78H105.756V77.34C105.98 77.332 106.152 77.292 106.272 77.22C106.392 77.148 106.476 77.028 106.524 76.86C106.572 76.692 106.596 76.456 106.596 76.152L106.608 70.296H105.828C105.356 70.304 104.996 70.464 104.748 70.776C104.5 71.088 104.376 71.58 104.376 72.252H103.704L103.764 69.6H110.952L111.024 72.252H110.34ZM111.882 77.34C112.106 77.332 112.278 77.296 112.398 77.232C112.518 77.16 112.602 77.04 112.65 76.872C112.698 76.696 112.722 76.456 112.722 76.152V71.364C112.722 71.164 112.726 70.972 112.734 70.788C112.75 70.604 112.762 70.46 112.77 70.356C112.634 70.364 112.478 70.372 112.302 70.38C112.126 70.38 111.986 70.384 111.882 70.392V69.6C112.402 69.592 112.926 69.588 113.454 69.588C113.982 69.588 114.51 69.584 115.038 69.576C115.766 69.568 116.394 69.66 116.922 69.852C117.45 70.036 117.854 70.32 118.134 70.704C118.414 71.08 118.554 71.568 118.554 72.168C118.554 72.488 118.486 72.808 118.35 73.128C118.222 73.44 118.014 73.732 117.726 74.004C117.446 74.268 117.074 74.484 116.61 74.652C116.154 74.82 115.602 74.912 114.954 74.928C114.826 74.928 114.702 74.928 114.582 74.928C114.462 74.928 114.346 74.924 114.234 74.916V76.2C114.234 76.424 114.23 76.628 114.222 76.812C114.214 76.996 114.202 77.14 114.186 77.244C114.29 77.236 114.406 77.232 114.534 77.232C114.662 77.224 114.79 77.22 114.918 77.22C115.054 77.212 115.158 77.208 115.23 77.208V78H111.882V77.34ZM114.234 74.16C114.338 74.168 114.438 74.176 114.534 74.184C114.63 74.192 114.734 74.196 114.846 74.196C115.294 74.196 115.67 74.116 115.974 73.956C116.286 73.796 116.522 73.568 116.682 73.272C116.842 72.968 116.922 72.6 116.922 72.168C116.922 71.776 116.866 71.456 116.754 71.208C116.642 70.96 116.494 70.772 116.31 70.644C116.126 70.508 115.922 70.416 115.698 70.368C115.474 70.32 115.25 70.296 115.026 70.296C114.818 70.296 114.654 70.328 114.534 70.392C114.422 70.456 114.342 70.572 114.294 70.74C114.254 70.9 114.234 71.12 114.234 71.4V74.16Z" fill="black"/>
<path d="M99.9094 198.162C99.9144 198.951 99.2794 199.599 98.4868 199.604C97.6942 199.609 97.0439 198.977 97.0388 198.188C97.0338 197.399 97.6688 196.751 98.4614 196.746C99.254 196.741 99.9043 197.373 99.9094 198.162Z" fill="#263238"/>
<path d="M107.957 198.097C107.962 198.885 107.327 199.533 106.534 199.538C105.742 199.543 105.092 198.911 105.086 198.122C105.081 197.333 105.716 196.686 106.509 196.68C107.302 196.675 107.952 197.308 107.957 198.097Z" fill="#263238"/>
<path d="M116.01 198.031C116.015 198.82 115.38 199.467 114.587 199.472C113.795 199.477 113.144 198.845 113.139 198.056C113.134 197.267 113.769 196.62 114.562 196.615C115.354 196.61 116.005 197.242 116.01 198.031Z" fill="#263238"/>
<path d="M144.746 25.11C144.746 25.1558 142.856 25.2066 140.524 25.2269C138.192 25.2472 136.302 25.2269 136.297 25.1812C136.297 25.1354 138.187 25.0846 140.519 25.0694C142.851 25.0491 144.741 25.0694 144.741 25.1151L144.746 25.11Z" fill="#263238"/>
<path d="M144.761 27.2594C144.761 27.3051 142.871 27.3559 140.539 27.3712C138.207 27.3915 136.317 27.3712 136.312 27.3255C136.307 27.2797 138.202 27.2289 140.534 27.2137C142.866 27.1934 144.756 27.2137 144.756 27.2594H144.761Z" fill="#263238"/>
<path d="M144.781 29.4138C144.781 29.4595 142.891 29.5103 140.559 29.5306C138.227 29.5509 136.337 29.5306 136.332 29.4849C136.332 29.4392 138.222 29.3884 140.554 29.3731C142.886 29.3528 144.776 29.3731 144.776 29.4188L144.781 29.4138Z" fill="#263238"/>
<path d="M67.912 31.8663C67.912 31.8663 67.973 31.8612 68.0847 31.8562C68.2219 31.8562 68.3794 31.8461 68.5725 31.841C69.0247 31.8309 69.6292 31.8157 70.3761 31.8006L70.3304 31.8461C70.3253 31.4465 70.3151 31.0116 70.31 30.5463C70.31 30.3036 70.2897 30.076 70.31 29.7978C70.3558 29.5197 70.6047 29.2769 70.9095 29.2516C71.1991 29.2466 71.4582 29.2314 71.7682 29.2516C72.0882 29.2921 72.3626 29.6006 72.3524 29.9394C72.3575 30.5463 72.3677 31.1785 72.3727 31.836L72.2965 31.7652C73.0281 31.7601 73.7851 31.75 74.5726 31.7449L74.4964 31.8208C74.4863 30.9105 74.4812 29.9647 74.471 28.9988C74.471 28.756 74.471 28.5183 74.4659 28.2806C74.4659 28.1744 74.4304 28.0733 74.3745 27.9823C74.3237 27.8963 74.2272 27.8204 74.1459 27.7344C73.8106 27.4057 73.4752 27.077 73.1501 26.7584C72.8249 26.4398 72.5048 26.1262 72.1898 25.8177C72.0323 25.666 71.8799 25.5092 71.7224 25.3625C71.5649 25.2108 71.4379 25.049 71.2499 25.0085C71.067 24.958 70.8689 24.9984 70.7216 25.1097C70.5793 25.226 70.437 25.3878 70.2948 25.5244C70.0154 25.8076 69.741 26.0807 69.4768 26.3437C68.9637 26.8747 68.4302 27.3602 68.039 27.8204C67.8764 28.0783 67.9374 28.3868 67.9222 28.67C67.9222 28.9533 67.9222 29.2162 67.9222 29.4691C67.9222 29.9597 67.9222 30.3896 67.9171 30.7537C67.9171 31.0875 67.912 31.3555 67.912 31.573C67.912 31.7601 67.9018 31.8663 67.9018 31.8663C67.9018 31.8663 67.8917 31.7753 67.8866 31.5932C67.8815 31.3808 67.8764 31.1128 67.8663 30.784C67.8561 30.4148 67.851 29.985 67.8409 29.4893C67.8409 29.2314 67.8307 28.9634 67.8256 28.6751C67.8256 28.5284 67.8256 28.3818 67.8206 28.2301C67.8206 28.0682 67.8612 27.9064 67.9476 27.7597C68.3642 27.2489 68.8722 26.7938 69.3905 26.2476C69.6546 25.9795 69.9239 25.7064 70.2033 25.4232C70.3507 25.2816 70.4675 25.14 70.6403 24.9934C70.8181 24.8568 71.067 24.8062 71.2906 24.8669C71.5294 24.9175 71.6869 25.1147 71.8342 25.2513C71.9866 25.403 72.1441 25.5547 72.3016 25.7064C72.6166 26.0149 72.9367 26.3285 73.2618 26.6471C73.587 26.9657 73.9223 27.2894 74.2576 27.6232C74.3389 27.7092 74.4355 27.78 74.5117 27.8963C74.5828 28.0075 74.6234 28.139 74.6285 28.2756C74.6285 28.5133 74.6285 28.756 74.6336 28.9988C74.6387 29.9647 74.6488 30.9105 74.6539 31.8208V31.8966H74.5777C73.7953 31.9017 73.0332 31.9068 72.3016 31.9118H72.2254V31.841C72.2254 31.1836 72.2203 30.5514 72.2152 29.9445C72.2254 29.6663 72.0069 29.4236 71.7478 29.3882C71.4836 29.373 71.1788 29.3882 70.9197 29.3882C70.6708 29.4084 70.4675 29.6057 70.4218 29.8332C70.4015 30.0659 70.4218 30.3289 70.4116 30.5564C70.4116 31.0268 70.4116 31.4617 70.4116 31.8562V31.9017H70.3659C69.6089 31.9017 68.9942 31.8966 68.5318 31.8916C68.3439 31.8916 68.1864 31.8916 68.0543 31.8865C67.9476 31.8865 67.8917 31.8865 67.8968 31.8764L67.912 31.8663Z" fill="#263238"/>
<path d="M149.389 86.7538C149.389 86.8246 130.576 86.8853 107.373 86.8853C84.1698 86.8853 65.3564 86.8246 65.3564 86.7538C65.3564 86.683 84.1647 86.6223 107.373 86.6223C130.581 86.6223 149.389 86.683 149.389 86.7538Z" fill="#E0E0E0"/>
<path d="M147.423 163.762C147.423 163.833 128.61 163.894 105.407 163.894C82.2037 163.894 63.3904 163.833 63.3904 163.762C63.3904 163.691 82.1987 163.631 105.407 163.631C128.615 163.631 147.423 163.691 147.423 163.762Z" fill="#E0E0E0"/>
<path d="M128.417 169.543C128.417 169.614 117.966 169.674 105.076 169.674C92.1871 169.674 81.7363 169.614 81.7363 169.543C81.7363 169.472 92.1871 169.411 105.076 169.411C117.966 169.411 128.417 169.472 128.417 169.543Z" fill="#E0E0E0"/>
<path d="M72.9165 109.173L74.5067 110.033L73.7903 111.226L72.1849 110.281L72.2153 112.041H70.8436L70.8588 110.265L69.2534 111.226L68.5522 110.033L70.1425 109.173L68.5522 108.303L69.2534 107.11L70.8588 108.071L70.8436 106.295H72.2153L72.1849 108.071L73.7903 107.11L74.5067 108.303L72.9165 109.173Z" fill="#EF692C"/>
<path d="M91.1657 109.173L92.7559 110.033L92.0396 111.226L90.4341 110.281L90.4646 112.041H89.0928L89.1081 110.265L87.5026 111.226L86.8015 110.033L88.3917 109.173L86.8015 108.303L87.5026 107.11L89.1081 108.071L89.0928 106.295H90.4646L90.4341 108.071L92.0396 107.11L92.7559 108.303L91.1657 109.173Z" fill="#EF692C"/>
<path d="M108.927 109.173L110.518 110.033L109.801 111.226L108.196 110.281L108.226 112.041H106.855L106.87 110.265L105.264 111.226L104.563 110.033L106.153 109.173L104.563 108.303L105.264 107.11L106.87 108.071L106.855 106.295H108.226L108.196 108.071L109.801 107.11L110.518 108.303L108.927 109.173Z" fill="#EF692C"/>
<path d="M126.135 109.173L127.726 110.033L127.009 111.226L125.404 110.281L125.434 112.041H124.063L124.078 110.265L122.472 111.226L121.771 110.033L123.361 109.173L121.771 108.303L122.472 107.11L124.078 108.071L124.063 106.295H125.434L125.404 108.071L127.009 107.11L127.726 108.303L126.135 109.173Z" fill="#EF692C"/>
<path d="M143.206 109.173L144.796 110.033L144.08 111.226L142.475 110.281L142.505 112.041H141.133L141.149 110.265L139.543 111.226L138.842 110.033L140.432 109.173L138.842 108.303L139.543 107.11L141.149 108.071L141.133 106.295H142.505L142.475 108.071L144.08 107.11L144.796 108.303L143.206 109.173Z" fill="#EF692C"/>
<path d="M75.7514 120.188H68.0492C66.0678 120.188 64.4573 118.585 64.4573 116.612V103.008C64.4573 101.036 66.0678 99.4326 68.0492 99.4326H75.7514C77.7328 99.4326 79.3434 101.036 79.3434 103.008V116.612C79.3434 118.585 77.7328 120.188 75.7514 120.188ZM68.0492 99.6905C66.2101 99.6905 64.7113 101.182 64.7113 103.013V116.618C64.7113 118.448 66.2101 119.94 68.0492 119.94H75.7514C77.5906 119.94 79.0893 118.448 79.0893 116.618V103.013C79.0893 101.182 77.5906 99.6905 75.7514 99.6905H68.0492Z" fill="#263238"/>
<path d="M93.6249 120.188H85.9228C83.9413 120.188 82.3308 118.585 82.3308 116.612V103.008C82.3308 101.036 83.9413 99.4326 85.9228 99.4326H93.6249C95.6063 99.4326 97.2169 101.036 97.2169 103.008V116.612C97.2169 118.585 95.6063 120.188 93.6249 120.188ZM85.9228 99.6905C84.0836 99.6905 82.5848 101.182 82.5848 103.013V116.618C82.5848 118.448 84.0836 119.94 85.9228 119.94H93.6249C95.4641 119.94 96.9629 118.448 96.9629 116.618V103.013C96.9629 101.182 95.4641 99.6905 93.6249 99.6905H85.9228Z" fill="#263238"/>
<path d="M111.016 120.188H103.314C101.332 120.188 99.7217 118.585 99.7217 116.612V103.008C99.7217 101.036 101.332 99.4326 103.314 99.4326H111.016C112.997 99.4326 114.608 101.036 114.608 103.008V116.612C114.608 118.585 112.997 120.188 111.016 120.188ZM103.314 99.6905C101.474 99.6905 99.9757 101.182 99.9757 103.013V116.618C99.9757 118.448 101.474 119.94 103.314 119.94H111.016C112.855 119.94 114.354 118.448 114.354 116.618V103.013C114.354 101.182 112.855 99.6905 111.016 99.6905H103.314Z" fill="#263238"/>
<path d="M128.6 120.188H120.897C118.916 120.188 117.305 118.585 117.305 116.612V103.008C117.305 101.036 118.916 99.4326 120.897 99.4326H128.6C130.581 99.4326 132.192 101.036 132.192 103.008V116.612C132.192 118.585 130.581 120.188 128.6 120.188ZM120.897 99.6905C119.058 99.6905 117.559 101.182 117.559 103.013V116.618C117.559 118.448 119.058 119.94 120.897 119.94H128.6C130.439 119.94 131.937 118.448 131.937 116.618V103.013C131.937 101.182 130.439 99.6905 128.6 99.6905H120.897Z" fill="#263238"/>
<path d="M145.67 120.188H137.968C135.987 120.188 134.376 118.585 134.376 116.612V103.008C134.376 101.036 135.987 99.4326 137.968 99.4326H145.67C147.652 99.4326 149.262 101.036 149.262 103.008V116.612C149.262 118.585 147.652 120.188 145.67 120.188ZM137.968 99.6905C136.129 99.6905 134.63 101.182 134.63 103.013V116.618C134.63 118.448 136.129 119.94 137.968 119.94H145.67C147.51 119.94 149.008 118.448 149.008 116.618V103.013C149.008 101.182 147.51 99.6905 145.67 99.6905H137.968Z" fill="#263238"/>
<path d="M145.106 136.614H70.3151C67.1472 136.614 64.5791 139.171 64.5791 142.324V145.945C64.5791 149.098 67.1472 151.655 70.3151 151.655H145.106C148.274 151.655 150.842 149.098 150.842 145.945V142.324C150.842 139.171 148.274 136.614 145.106 136.614Z" fill="url(#paint0_linear_1_4787)"/>
<path d="M96.8203 141.115H99.1421C100.814 141.115 101.962 142.117 101.962 143.659C101.962 145.202 100.814 146.203 99.1421 146.203H96.8203V141.115ZM99.0862 145.237C100.102 145.237 100.768 144.635 100.768 143.659C100.768 142.683 100.102 142.081 99.0862 142.081H98.0041V145.237H99.0862Z" fill="white"/>
<path d="M102.48 144.246C102.48 143.067 103.394 142.233 104.639 142.233C105.884 142.233 106.793 143.067 106.793 144.246C106.793 145.424 105.889 146.259 104.639 146.259C103.389 146.259 102.48 145.424 102.48 144.246ZM105.64 144.246C105.64 143.568 105.208 143.163 104.639 143.163C104.07 143.163 103.633 143.568 103.633 144.246C103.633 144.923 104.07 145.328 104.639 145.328C105.208 145.328 105.64 144.923 105.64 144.246Z" fill="white"/>
<path d="M111.574 143.963V146.203H110.436V144.14C110.436 143.507 110.141 143.214 109.638 143.214C109.09 143.214 108.699 143.548 108.699 144.266V146.198H107.561V142.289H108.648V142.749C108.953 142.415 109.415 142.233 109.948 142.233C110.878 142.233 111.579 142.769 111.579 143.963H111.574Z" fill="white"/>
<path d="M116.477 144.564H113.505C113.617 145.05 114.033 145.348 114.628 145.348C115.044 145.348 115.344 145.227 115.613 144.969L116.218 145.621C115.852 146.036 115.303 146.253 114.597 146.253C113.241 146.253 112.357 145.404 112.357 144.241C112.357 143.077 113.256 142.228 114.45 142.228C115.644 142.228 116.492 142.996 116.492 144.256C116.492 144.342 116.477 144.468 116.472 144.559L116.477 144.564ZM113.49 143.902H115.425C115.344 143.406 114.973 143.088 114.46 143.088C113.947 143.088 113.571 143.401 113.49 143.902Z" fill="white"/>
<path d="M106.86 64.8049C115.291 64.8049 122.127 58.0008 122.127 49.6075C122.127 41.2142 115.291 34.4102 106.86 34.4102C98.4279 34.4102 91.5925 41.2142 91.5925 49.6075C91.5925 58.0008 98.4279 64.8049 106.86 64.8049Z" fill="url(#paint1_linear_1_4787)"/>
<path d="M104.172 46.8462H103.918V45.425C103.918 43.7915 105.254 42.4614 106.895 42.4614C108.536 42.4614 109.872 43.7915 109.872 45.425V46.5832H109.618V45.425C109.618 43.9281 108.394 42.7143 106.895 42.7143C105.396 42.7143 104.172 43.9331 104.172 45.425V46.8462Z" fill="white"/>
<path d="M110.645 56.7535H103.075C102.384 56.7535 101.82 56.1922 101.82 55.5044V47.9689C101.82 47.2811 102.384 46.7197 103.075 46.7197H110.645C111.336 46.7197 111.9 47.2811 111.9 47.9689V55.5044C111.9 56.1922 111.336 56.7535 110.645 56.7535ZM103.075 46.9726C102.521 46.9726 102.074 47.4176 102.074 47.9689V55.5044C102.074 56.0556 102.521 56.5007 103.075 56.5007H110.645C111.199 56.5007 111.646 56.0556 111.646 55.5044V47.9689C111.646 47.4176 111.199 46.9726 110.645 46.9726H103.075Z" fill="white"/>
<path d="M106.895 51.9845C106.24 51.9845 105.707 51.4535 105.707 50.8011C105.707 50.1487 106.24 49.6177 106.895 49.6177C107.551 49.6177 108.084 50.1487 108.084 50.8011C108.084 51.4535 107.551 51.9845 106.895 51.9845ZM106.895 49.8705C106.382 49.8705 105.961 50.2852 105.961 50.8011C105.961 51.3169 106.377 51.7317 106.895 51.7317C107.414 51.7317 107.83 51.3169 107.83 50.8011C107.83 50.2852 107.409 49.8705 106.895 49.8705Z" fill="white"/>
<path d="M106.987 51.8025H106.733V53.9367H106.987V51.8025Z" fill="white"/>
<path d="M209.517 219.869C209.517 219.939 160.149 220 99.2637 220C38.3781 220 -11 219.939 -11 219.869C-11 219.798 38.3578 219.737 99.2637 219.737C160.17 219.737 209.517 219.798 209.517 219.869Z" fill="#263238"/>
<path d="M28.7966 150.218C33.6333 142.855 33.4453 132.093 27.6687 125.437C25.8753 123.369 23.3706 121.574 20.6372 121.806C17.8378 122.044 15.5871 124.431 14.7336 127.096C13.8801 129.761 14.1798 132.644 14.6777 135.395C15.3788 139.249 16.5524 143.189 19.235 146.046C21.9175 148.909 25.3418 152.09 28.7966 150.213" fill="#F4594F"/>
<path d="M26.6425 185.413C28.4613 181.185 27.1404 175.829 23.5636 172.921C22.451 172.016 20.998 171.318 19.611 171.687C18.1935 172.061 17.2485 173.498 17.0504 174.944C16.8522 176.39 17.2688 177.852 17.7769 179.227C18.4882 181.149 19.4535 183.071 21.0945 184.305C22.7355 185.539 25.037 186.697 26.6425 185.418" fill="#F4594F"/>
<path d="M38.3023 182.884C36.9711 176.355 40.4259 169.153 46.3651 166.083C48.2094 165.128 50.4753 164.566 52.3297 165.492C54.2299 166.437 55.1444 168.749 54.9919 170.858C54.8395 172.966 53.8234 174.919 52.6955 176.714C51.1205 179.227 49.1848 181.675 46.4921 182.935C43.7994 184.199 40.1973 185.165 38.2972 182.884" fill="#F4594F"/>
<path d="M37.4641 165.234C35.1474 157.799 39.0747 148.782 45.6185 144.514C47.6507 143.189 50.2215 142.268 52.4874 143.128C54.8092 144.008 56.1454 146.587 56.2165 149.06C56.2877 151.533 55.3325 153.92 54.2351 156.136C52.6957 159.246 50.7346 162.316 47.7523 164.096C44.77 165.881 39.9384 167.661 37.4641 165.229" fill="#F4594F"/>
<path d="M32.8153 201.586C32.8153 201.586 32.8509 201.465 32.8915 201.227C32.9322 200.954 32.983 200.615 33.049 200.19C33.0795 199.963 33.1151 199.71 33.1557 199.442C33.2065 199.169 33.2675 198.87 33.3284 198.557C33.4504 197.925 33.5774 197.196 33.7857 196.412C33.8822 196.018 33.9838 195.603 34.0854 195.173C34.2125 194.749 34.3395 194.303 34.4767 193.848C34.7256 192.923 35.0965 191.972 35.4369 190.955C36.204 188.948 37.1541 186.778 38.3226 184.588C39.5115 182.409 40.802 180.421 42.0569 178.676C42.7173 177.827 43.3118 176.992 43.9468 176.279C44.2568 175.915 44.5565 175.561 44.841 175.222C45.1459 174.898 45.4355 174.585 45.7149 174.286C46.2585 173.68 46.797 173.174 47.2594 172.724C47.488 172.501 47.7065 172.289 47.9046 172.092C48.1078 171.909 48.3009 171.743 48.4736 171.591C48.7937 171.303 49.0528 171.07 49.256 170.888C49.4339 170.726 49.5202 170.635 49.5151 170.625C49.5101 170.615 49.4034 170.691 49.2154 170.837C49.002 171.009 48.7277 171.227 48.3923 171.495C48.2145 171.641 48.0164 171.803 47.803 171.975C47.5947 172.167 47.3762 172.37 47.1374 172.587C46.6599 173.027 46.1112 173.523 45.5523 174.125C45.2678 174.418 44.968 174.731 44.6632 175.05C44.3685 175.389 44.0637 175.738 43.7487 176.102C43.1035 176.815 42.4938 177.65 41.8232 178.499C40.5429 180.244 39.2422 182.242 38.0432 184.437C36.8696 186.642 35.9195 188.826 35.1625 190.849C34.8221 191.876 34.4614 192.837 34.2226 193.772C34.0956 194.233 33.9686 194.683 33.8467 195.113C33.7501 195.548 33.6536 195.962 33.5621 196.362C33.364 197.156 33.2573 197.889 33.1506 198.526C33.0998 198.845 33.049 199.143 33.0033 199.416C32.9728 199.69 32.9474 199.942 32.9271 200.175C32.8864 200.6 32.856 200.949 32.8305 201.222C32.8102 201.46 32.8051 201.586 32.8204 201.586H32.8153Z" fill="#263238"/>
<path d="M32.9829 202.921C32.9829 202.921 32.988 202.871 32.9829 202.774C32.9727 202.658 32.9626 202.517 32.9524 202.345C32.9169 201.94 32.866 201.389 32.8 200.691C32.7644 200.332 32.7238 199.932 32.6832 199.497C32.6476 199.062 32.6374 198.582 32.612 198.076C32.5714 197.055 32.4748 195.891 32.5104 194.607C32.5104 193.965 32.5155 193.287 32.5206 192.589C32.5257 191.886 32.5968 191.158 32.6323 190.404C32.6832 188.892 32.8915 187.289 33.0744 185.595C33.5367 182.226 34.2632 178.55 35.3657 174.782C36.5037 171.019 37.9111 167.545 39.3692 164.47C40.1414 162.953 40.8476 161.496 41.6351 160.202C42.0162 159.549 42.3616 158.902 42.7427 158.31C43.1237 157.718 43.4895 157.152 43.8401 156.611C44.5158 155.513 45.2322 154.593 45.8266 153.754C46.1263 153.339 46.4007 152.949 46.6649 152.6C46.9392 152.262 47.1882 151.948 47.4168 151.665C47.8537 151.114 48.1992 150.679 48.4482 150.365C48.5549 150.229 48.6412 150.112 48.7124 150.021C48.7682 149.94 48.7987 149.9 48.7936 149.895C48.7936 149.895 48.753 149.925 48.687 149.996C48.6107 150.082 48.5142 150.188 48.4024 150.32C48.1383 150.628 47.7775 151.053 47.3203 151.584C47.0866 151.862 46.8275 152.171 46.543 152.504C46.2686 152.848 45.9892 153.238 45.6793 153.647C45.0747 154.477 44.338 155.392 43.6521 156.485C43.2965 157.026 42.9205 157.592 42.5344 158.179C42.1483 158.77 41.7977 159.418 41.4116 160.07C40.6139 161.365 39.8976 162.826 39.1101 164.344C37.6316 167.429 36.2141 170.913 35.0659 174.691C33.9584 178.479 33.2369 182.171 32.7898 185.559C32.612 187.259 32.419 188.872 32.3783 190.389C32.3478 191.148 32.2869 191.881 32.2869 192.584C32.2869 193.287 32.2919 193.965 32.297 194.612C32.2767 195.902 32.3885 197.07 32.4444 198.091C32.4799 198.602 32.5003 199.078 32.5409 199.518C32.5917 199.952 32.6425 200.347 32.6882 200.711C32.7797 201.404 32.8508 201.955 32.9016 202.36C32.927 202.532 32.9473 202.673 32.9626 202.785C32.9778 202.881 32.988 202.931 32.9931 202.926L32.9829 202.921Z" fill="#263238"/>
<path d="M20.3933 130.697C20.3933 130.697 20.4085 130.748 20.4542 130.834C20.5101 130.935 20.5762 131.066 20.6625 131.218C20.8658 131.577 21.1401 132.068 21.4907 132.685C21.6685 133.003 21.8819 133.352 22.0851 133.747C22.2832 134.146 22.5017 134.576 22.7303 135.041C22.964 135.507 23.213 136.002 23.4772 136.528C23.7312 137.059 23.97 137.636 24.2342 138.232C24.4933 138.834 24.7829 139.451 25.0521 140.114C25.3113 140.781 25.5754 141.469 25.8549 142.187C25.9921 142.546 26.1343 142.911 26.2766 143.28C26.4036 143.654 26.5357 144.038 26.6678 144.423C26.932 145.196 27.2012 145.996 27.4756 146.815C28.5019 150.112 29.4722 153.789 30.2902 157.688C31.0828 161.597 31.6417 165.355 32.0532 168.784C32.4037 172.218 32.6679 175.323 32.7391 177.938C32.8051 179.243 32.8203 180.426 32.8254 181.463C32.8407 182.5 32.8457 183.395 32.8254 184.128C32.8153 184.841 32.8051 185.402 32.8 185.812C32.8 185.989 32.8 186.131 32.8 186.252C32.8 186.353 32.8051 186.404 32.8102 186.404C32.8153 186.404 32.8203 186.353 32.8305 186.257C32.8407 186.141 32.8457 185.994 32.861 185.822C32.8813 185.413 32.9067 184.851 32.9423 184.138C32.988 183.405 32.9982 182.51 32.9982 181.473C33.0083 180.431 33.0134 179.248 32.9626 177.943C32.922 175.323 32.6832 172.213 32.3428 168.769C31.9465 165.33 31.3978 161.557 30.6001 157.638C29.7771 153.723 28.7965 150.041 27.7499 146.739C27.4654 145.92 27.1911 145.121 26.9269 144.347C26.7948 143.957 26.6576 143.578 26.5306 143.199C26.3833 142.83 26.241 142.465 26.0987 142.106C25.8142 141.388 25.5399 140.7 25.2757 140.033C25.0013 139.37 24.7016 138.753 24.4374 138.157C24.163 137.56 23.9141 136.988 23.655 136.457C23.3806 135.936 23.1266 135.441 22.8827 134.976C22.644 134.515 22.4204 134.085 22.2121 133.691C21.9987 133.302 21.7752 132.958 21.5923 132.639C21.2214 132.032 20.9267 131.552 20.7133 131.198C20.6168 131.046 20.5406 130.925 20.4796 130.829C20.4237 130.748 20.3933 130.707 20.3882 130.707L20.3933 130.697Z" fill="#263238"/>
<path d="M22.0393 175.875C22.0393 175.875 22.207 176.208 22.5524 176.775C22.9081 177.336 23.3907 178.171 23.9598 179.207C24.5339 180.244 25.1588 181.513 25.7938 182.95C26.4137 184.391 27.0284 185.999 27.5721 187.724C28.1004 189.454 28.5069 191.133 28.8117 192.665C29.1013 194.202 29.3045 195.603 29.4214 196.782C29.5433 197.96 29.6094 198.921 29.6398 199.583C29.6754 200.246 29.7008 200.615 29.7262 200.615C29.7465 200.615 29.7618 200.246 29.7669 199.583C29.777 198.916 29.7415 197.955 29.65 196.766C29.5636 195.578 29.3807 194.167 29.1064 192.614C28.8117 191.067 28.4154 189.373 27.882 187.633C27.3383 185.893 26.7033 184.275 26.0682 182.833C25.4179 181.397 24.7676 180.133 24.163 179.101C23.5635 178.069 23.0503 177.25 22.6642 176.709C22.2832 176.163 22.0647 175.864 22.0444 175.875H22.0393Z" fill="#263238"/>
<path d="M42.311 198.268H21.0691L23.6399 219.868H39.664L42.311 198.268Z" fill="#455A64"/>
<path d="M41.5336 217.537L39.73 219.868H23.6398L21.7854 217.608L41.5336 217.537Z" fill="#263238"/>
<path d="M21.8972 204.62C21.8972 204.706 26.3072 204.777 31.7434 204.777C37.1796 204.777 41.5895 204.706 41.5895 204.62C41.5895 204.534 37.1847 204.464 31.7434 204.464C26.3021 204.464 21.8972 204.534 21.8972 204.62Z" fill="#FAFAFA"/>
<path d="M21.8972 206.062C21.8972 206.148 26.3072 206.219 31.7434 206.219C37.1796 206.219 41.5895 206.148 41.5895 206.062C41.5895 205.976 37.1847 205.905 31.7434 205.905C26.3021 205.905 21.8972 205.976 21.8972 206.062Z" fill="#FAFAFA"/>
<path d="M22.1614 207.453C22.1614 207.539 26.4138 207.609 31.662 207.609C36.9103 207.609 41.1627 207.539 41.1627 207.453C41.1627 207.367 36.9103 207.296 31.662 207.296C26.4138 207.296 22.1614 207.367 22.1614 207.453Z" fill="#FAFAFA"/>
<path d="M39.0645 151.731C39.0645 151.731 39.0594 151.801 39.0645 151.938C39.0798 152.095 39.095 152.292 39.1153 152.525C39.1712 153.066 39.2423 153.794 39.3338 154.674C39.5268 156.49 39.8114 158.998 40.1365 161.764C40.1467 161.871 40.1619 161.977 40.1721 162.073L40.1822 162.164H40.2788C43.007 162.209 45.461 162.235 47.2392 162.24C48.1029 162.24 48.8091 162.24 49.3374 162.24C49.5661 162.24 49.754 162.23 49.9065 162.23C50.0386 162.23 50.1046 162.22 50.1046 162.209C50.1046 162.204 50.0386 162.194 49.9065 162.184C49.754 162.174 49.5661 162.169 49.3374 162.154C48.8091 162.139 48.1029 162.113 47.2392 162.088C45.466 162.043 43.0121 161.992 40.2839 161.946L40.3905 162.043C40.3804 161.946 40.3651 161.84 40.355 161.734C40.0298 158.968 39.725 156.464 39.4913 154.654C39.3744 153.774 39.2779 153.051 39.2068 152.509C39.1712 152.277 39.1407 152.085 39.1204 151.928C39.1001 151.796 39.0848 151.726 39.0747 151.726L39.0645 151.731Z" fill="#263238"/>
<path d="M43.8961 145.272C43.8961 145.272 43.8808 145.343 43.8808 145.485C43.8808 145.647 43.8808 145.849 43.8757 146.092C43.8757 146.648 43.8859 147.402 43.8961 148.322C43.9215 150.203 43.9723 152.803 44.0434 155.67C44.0434 155.787 44.0485 155.903 44.0536 156.009V156.12L44.1704 156.11C46.9647 155.893 49.4898 155.893 51.3137 155.949C52.2231 155.979 52.9598 156.014 53.4679 156.04C53.7016 156.05 53.8946 156.06 54.0521 156.065C54.1842 156.065 54.2553 156.065 54.2553 156.065C54.2553 156.06 54.1842 156.045 54.0521 156.024C53.92 156.009 53.7219 155.984 53.4679 155.959C52.9598 155.908 52.2282 155.847 51.3137 155.802C49.4898 155.706 46.9546 155.681 44.1501 155.898L44.2669 156.004C44.2669 155.898 44.2619 155.782 44.2568 155.665C44.1856 152.798 44.1094 150.198 44.0434 148.317C44.0078 147.402 43.9773 146.648 43.957 146.092C43.9418 145.849 43.9316 145.652 43.9215 145.485C43.9113 145.348 43.9011 145.272 43.8961 145.272Z" fill="#263238"/>
<path d="M49.5456 143.073C49.5456 143.073 49.4846 143.29 49.4135 143.695C49.3322 144.135 49.2255 144.706 49.0985 145.394C48.8242 146.83 48.3923 148.808 47.7877 150.972L47.7217 151.2L47.9351 151.099C48.0164 151.058 48.1027 151.018 48.1891 150.977C50.2772 149.971 52.345 149.511 53.8488 149.328C54.6008 149.237 55.2155 149.202 55.6423 149.187C56.0691 149.172 56.3028 149.167 56.3028 149.151C56.3028 149.146 56.2418 149.136 56.13 149.126C56.0183 149.121 55.8506 149.106 55.6372 149.101C55.2104 149.091 54.5906 149.101 53.8285 149.177C52.3094 149.318 50.2061 149.763 48.0926 150.785C48.0062 150.825 47.9147 150.871 47.8335 150.906L47.9859 151.033C48.5955 148.858 49.002 146.866 49.2408 145.424C49.3627 144.701 49.444 144.114 49.4897 143.71C49.5354 143.305 49.5558 143.078 49.5405 143.078L49.5456 143.073Z" fill="#263238"/>
<path d="M19.5552 182.439C19.5552 182.469 20.1699 182.409 21.1606 182.368C22.1513 182.333 23.5231 182.333 25.0219 182.495C25.3267 182.525 25.6265 182.565 25.911 182.601L26.0126 182.616L26.0329 182.515C26.2615 181.235 26.4546 180.108 26.5816 179.298C26.7086 178.489 26.7747 177.999 26.7493 177.994C26.7239 177.994 26.6121 178.469 26.4444 179.273C26.2768 180.077 26.0583 181.2 25.8246 182.474L25.9465 182.388C25.6569 182.348 25.3572 182.308 25.0524 182.277C23.5383 182.115 22.1513 182.136 21.1606 182.211C20.6627 182.252 20.2614 182.303 19.987 182.343C19.7127 182.388 19.5603 182.419 19.5603 182.434L19.5552 182.439Z" fill="#263238"/>
<path d="M17.5482 178.474C17.5584 178.509 18.1427 178.373 19.1029 178.251C20.0631 178.135 21.4044 178.059 22.8727 178.216C23.1013 178.241 23.3248 178.267 23.5382 178.297L23.65 178.312L23.6602 178.201C23.7923 176.886 23.904 175.723 23.9701 174.883C24.0361 174.049 24.0666 173.538 24.0412 173.533C24.0158 173.533 23.9345 174.034 23.8278 174.868C23.7211 175.703 23.589 176.866 23.4468 178.176L23.5687 178.08C23.3553 178.049 23.1267 178.019 22.893 177.994C21.4044 177.837 20.0428 177.938 19.0826 178.095C18.5999 178.171 18.2138 178.262 17.9496 178.332C17.6854 178.403 17.5431 178.454 17.5482 178.469V178.474Z" fill="#263238"/>
<path d="M16.1054 140.878C16.1054 140.878 16.1766 140.923 16.3137 140.989C16.4763 141.06 16.6846 141.151 16.9336 141.262C17.5026 141.505 18.2799 141.833 19.23 142.238C21.2012 143.052 23.8787 144.155 26.8407 145.374C26.9829 145.429 27.1201 145.49 27.2522 145.54L27.3487 145.581L27.3894 145.485C28.6443 142.663 29.7722 140.124 30.6054 138.258C30.9966 137.353 31.3167 136.614 31.5504 136.073C31.652 135.83 31.7333 135.633 31.7993 135.476C31.8552 135.34 31.8806 135.264 31.8704 135.264C31.8654 135.264 31.8247 135.33 31.7587 135.461C31.6825 135.613 31.591 135.805 31.4742 136.043C31.2252 136.579 30.8848 137.307 30.4682 138.202C29.6248 140.058 28.4715 142.587 27.1912 145.404L27.3284 145.348C27.1963 145.298 27.0591 145.237 26.9169 145.181C23.9498 143.983 21.2622 142.901 19.2859 142.101C18.3256 141.727 17.5381 141.419 16.964 141.191C16.7049 141.095 16.4966 141.014 16.329 140.953C16.1816 140.903 16.1054 140.878 16.1003 140.883L16.1054 140.878Z" fill="#263238"/>
<path d="M14.2458 131.744C14.2458 131.744 14.3068 131.8 14.4338 131.881C14.5812 131.977 14.7641 132.093 14.9927 132.24C15.5058 132.558 16.207 132.993 17.0656 133.524C18.8539 134.607 21.2824 136.083 23.9853 137.722L24.0971 137.788L24.1428 137.666C24.1834 137.56 24.2241 137.449 24.2698 137.333C25.3977 134.303 26.4189 131.562 27.1708 129.544C27.5265 128.563 27.8161 127.764 28.0244 127.177C28.1158 126.914 28.1869 126.702 28.2479 126.53C28.2987 126.383 28.319 126.302 28.314 126.297C28.3089 126.297 28.2733 126.368 28.2073 126.515C28.1412 126.682 28.0548 126.889 27.9482 127.147C27.7195 127.729 27.4096 128.523 27.0286 129.494C26.2614 131.506 25.2199 134.237 24.0717 137.262C24.031 137.378 23.9853 137.489 23.9447 137.595L24.1022 137.54C21.3891 135.922 18.9454 134.465 17.1519 133.398C16.2781 132.887 15.5668 132.472 15.0435 132.169C14.8098 132.037 14.6167 131.931 14.4643 131.845C14.3322 131.774 14.2611 131.739 14.256 131.744H14.2458Z" fill="#263238"/>
<path d="M14.8554 126.874C14.8554 126.874 15.0129 126.98 15.3127 127.142C15.6124 127.304 16.0443 127.546 16.5676 127.87C17.6142 128.512 19.0266 129.514 20.4186 130.869L20.6828 131.127L20.5914 130.763C20.4999 130.384 20.4136 129.984 20.3475 129.574C19.9919 127.374 20.2713 125.341 20.6473 123.941C20.8353 123.238 21.0436 122.681 21.1909 122.302C21.3484 121.923 21.4297 121.715 21.4195 121.705C21.4094 121.7 21.2976 121.897 21.1147 122.267C20.9419 122.641 20.7133 123.192 20.4999 123.9C20.0783 125.306 19.7734 127.374 20.1341 129.61C20.2002 130.025 20.2866 130.434 20.3831 130.819L20.5609 130.717C19.1485 129.352 17.7107 128.366 16.6336 127.749C16.0951 127.44 15.6531 127.218 15.3432 127.071C15.0332 126.929 14.8554 126.859 14.8503 126.869L14.8554 126.874Z" fill="#263238"/>
<path d="M39.095 174.281C39.095 174.281 39.1204 174.479 39.1915 174.828C39.2677 175.177 39.3693 175.682 39.4862 176.315C39.7199 177.574 39.9739 179.339 40.0552 181.321V181.417L40.1568 181.422C40.3092 181.433 40.4718 181.443 40.6344 181.453C42.7428 181.579 44.648 181.68 46.03 181.746C46.6904 181.771 47.2391 181.792 47.6659 181.812C48.052 181.822 48.2654 181.822 48.2654 181.807C48.2654 181.792 48.052 181.766 47.671 181.731C47.2442 181.696 46.6955 181.65 46.0401 181.599C44.6633 181.498 42.7581 181.372 40.6496 181.245C40.4871 181.235 40.3245 181.225 40.1721 181.215L40.2737 181.316C40.1873 179.319 39.9079 177.549 39.6335 176.289C39.4963 175.662 39.3693 175.156 39.2728 174.813C39.1763 174.469 39.1102 174.281 39.095 174.287V174.281Z" fill="#263238"/>
<path d="M43.2661 168.324C43.2661 168.324 43.2661 168.521 43.3017 168.875C43.3474 169.265 43.4033 169.77 43.4744 170.377C43.6268 171.652 43.8555 173.417 44.1247 175.394L44.1349 175.48H44.2213C44.4397 175.5 44.6683 175.516 44.9071 175.531C47.0664 175.677 49.0122 175.9 50.4196 176.082C51.0902 176.173 51.6541 176.249 52.086 176.304C52.4772 176.355 52.6957 176.38 52.7007 176.365C52.7007 176.35 52.4874 176.299 52.1012 176.224C51.71 176.148 51.1461 176.042 50.445 175.935C49.0427 175.713 47.0918 175.47 44.9275 175.323C44.6938 175.308 44.46 175.293 44.2416 175.278L44.3432 175.369C44.0688 173.391 43.8148 171.626 43.6268 170.357C43.5303 169.755 43.449 169.255 43.388 168.865C43.3271 168.516 43.2864 168.324 43.2763 168.324H43.2661Z" fill="#263238"/>
<path d="M48.1789 165.76C48.1484 165.765 48.2754 166.341 48.4279 167.282C48.5803 168.223 48.7378 169.543 48.7683 171.024V171.141L48.8902 171.126C49.002 171.11 49.1239 171.095 49.2458 171.08C50.8056 170.888 52.2281 170.842 53.2595 170.842C53.7371 170.847 54.1435 170.852 54.4788 170.858C54.7684 170.863 54.9259 170.858 54.931 170.847C54.931 170.832 54.7735 170.807 54.4839 170.777C54.1943 170.746 53.7777 170.716 53.2595 170.696C52.223 170.655 50.7903 170.68 49.2204 170.873C49.0985 170.888 48.9766 170.903 48.8597 170.918L48.9816 171.019C48.9461 169.527 48.7632 168.197 48.5701 167.257C48.4736 166.786 48.3821 166.407 48.311 166.149C48.2399 165.891 48.1891 165.755 48.1738 165.755L48.1789 165.76Z" fill="#263238"/>
<path d="M20.1953 171.717C20.1394 171.748 20.6017 172.688 21.1453 173.862C21.689 175.035 22.1106 175.996 22.1665 175.976C22.2224 175.955 21.8871 174.954 21.3384 173.776C20.7948 172.597 20.2461 171.692 20.1953 171.722V171.717Z" fill="#263238"/>
<path d="M17.5278 174.529C17.5278 174.595 18.6455 174.61 19.9411 175.015C21.2417 175.409 22.1714 176.031 22.207 175.971C22.2426 175.935 21.3433 175.217 20.002 174.807C18.6658 174.388 17.5176 174.474 17.5227 174.524L17.5278 174.529Z" fill="#263238"/>
</g>
<defs>
<linearGradient id="paint0_linear_1_4787" x1="107.711" y1="136.614" x2="107.711" y2="151.655" gradientUnits="userSpaceOnUse">
<stop stop-color="#F9231D"/>
<stop offset="1" stop-color="#EF6A2C"/>
</linearGradient>
<linearGradient id="paint1_linear_1_4787" x1="106.86" y1="34.4102" x2="106.86" y2="64.8049" gradientUnits="userSpaceOnUse">
<stop stop-color="#F9231D"/>
<stop offset="1" stop-color="#EF6A2C"/>
</linearGradient>
<clipPath id="clip0_1_4787">
<rect width="227.056" height="220" fill="white"/>
</clipPath>
</defs>
</svg>
