<svg width="130" height="52" viewBox="0 0 130 52" fill="none" xmlns="http://www.w3.org/2000/svg">
<circle cx="104" cy="26" r="26" fill="white"/>
<circle cx="104" cy="26" r="25.5" stroke="black" stroke-opacity="0.1"/>
<path d="M101.398 37.235H106.199V25.6162H109.401L109.825 21.6128H106.199L106.204 19.6085C106.204 18.5645 106.304 18.0047 107.802 18.0047H109.803V14H106.6C102.752 14 101.398 15.943 101.398 19.2092V21.6128H99V25.6175H101.398V37.235Z" fill="#1777F2"/>
<circle cx="26" cy="26" r="26" fill="white"/>
<circle cx="26" cy="26" r="25.5" stroke="black" stroke-opacity="0.1"/>
<g clip-path="url(#clip0_1_4454)">
<path d="M20.6097 28.5697L19.8857 31.2726L17.2394 31.3286C16.4486 29.8617 16 28.1835 16 26.4001C16 24.6755 16.4194 23.0492 17.1629 21.6172H17.1634L19.5193 22.0491L20.5514 24.3909C20.3354 25.0206 20.2176 25.6966 20.2176 26.4001C20.2177 27.1635 20.356 27.8949 20.6097 28.5697Z" fill="#FBBB00"/>
<path d="M36.6186 24.457C36.738 25.0862 36.8003 25.7359 36.8003 26.3999C36.8003 27.1445 36.722 27.8708 36.5729 28.5713C36.0666 30.9553 34.7437 33.037 32.9112 34.5102L32.9106 34.5096L29.9432 34.3582L29.5232 31.7365C30.7392 31.0233 31.6895 29.9073 32.1901 28.5713H26.6289V24.457H32.2712H36.6186Z" fill="#518EF8"/>
<path d="M32.9101 34.5098L32.9107 34.5104C31.1284 35.9429 28.8644 36.8001 26.3998 36.8001C22.4393 36.8001 18.9958 34.5864 17.2393 31.3287L20.6095 28.5698C21.4878 30.9138 23.749 32.5824 26.3998 32.5824C27.5392 32.5824 28.6067 32.2744 29.5227 31.7367L32.9101 34.5098Z" fill="#28B446"/>
<path d="M33.0385 18.3943L29.6694 21.1526C28.7214 20.56 27.6008 20.2177 26.4002 20.2177C23.6894 20.2177 21.3859 21.9628 20.5517 24.3909L17.1637 21.6171H17.1631C18.894 18.28 22.3808 16 26.4002 16C28.9237 16 31.2374 16.8989 33.0385 18.3943Z" fill="#F14336"/>
</g>
<defs>
<clipPath id="clip0_1_4454">
<rect width="20.8" height="20.8" fill="white" transform="translate(16 16)"/>
</clipPath>
</defs>
</svg>
