<svg width="393" height="402" viewBox="0 0 393 402" fill="none" xmlns="http://www.w3.org/2000/svg">
<ellipse cx="192.216" cy="361.202" rx="112.493" ry="7.12981" fill="black" fill-opacity="0.2"/>
<g style="mix-blend-mode:color-burn" opacity="0.6">
<path d="M301.158 33.6936C245.89 2.93383 196.375 57.6803 196.375 57.6803C196.375 57.6803 196.359 57.6643 196.351 57.6562C195.445 56.6611 146.348 3.21471 91.5851 33.6936C23.8061 72.2778 113.429 196.352 196.351 227.65C196.351 227.65 196.367 227.65 196.375 227.658C279.298 196.376 368.945 72.2778 301.158 33.6856V33.6936Z" fill="#929497"/>
</g>
<mask id="mask0_1_3706" style="mask-type:luminance" maskUnits="userSpaceOnUse" x="-5" y="0" width="402" height="402">
<path d="M396.999 0.750488H-4.25V402H396.999V0.750488Z" fill="white"/>
</mask>
<g mask="url(#mask0_1_3706)">
<g style="mix-blend-mode:multiply" opacity="0.5">
<path d="M355.984 144.879C356.778 145.441 357.444 146.155 358.247 146.709C358.632 146.966 359.073 147.215 359.483 147.504C359.82 145.939 360.277 144.398 360.839 142.905C359.747 142.665 358.768 142.263 357.886 141.565C357.051 140.899 355.976 139.663 356.321 138.524C356.521 137.85 357.131 137.593 357.789 137.689C358.608 137.817 359.29 138.845 359.884 139.39C360.454 139.92 361.064 140.361 361.762 140.698C362.195 139.735 362.693 138.7 363.262 137.657C363.254 137.657 363.238 137.657 363.23 137.657C362.195 137.504 360.847 136.373 360.221 135.57C359.475 134.624 358.825 133.002 359.731 131.983C359.98 131.702 360.397 131.63 360.743 131.718C361.698 131.943 362.211 133.139 362.661 133.925C362.877 134.303 362.998 134.72 363.27 135.065C363.559 135.434 363.912 135.723 364.177 136.108C364.755 135.185 365.381 134.286 366.055 133.476C364.314 132.056 363.399 129.399 364.562 127.305C365.164 126.229 366.809 126.494 367.138 127.642C367.379 128.484 367.323 129.463 367.411 130.346C367.467 130.908 367.435 131.486 367.395 132.072C367.965 131.55 368.559 131.093 369.185 130.739C369.241 130.643 369.313 130.555 369.426 130.483C369.979 130.162 370.429 129.391 370.958 128.998C371.608 128.525 372.371 128.236 373.157 128.059C374.538 127.738 376.552 127.176 377.579 128.436C377.956 128.902 378.093 129.479 377.78 130.025C377.041 131.341 375.444 131.261 374.12 131.566C373.486 131.71 372.82 131.895 372.162 131.927C371.616 131.951 370.854 131.726 370.252 131.799C369.755 132.569 369.137 133.275 368.495 133.973C368.872 133.885 369.225 133.821 369.538 133.789C371.095 133.612 373.021 133.492 374.257 134.567C374.77 135.009 374.626 135.956 374.04 136.261C372.796 136.911 371.119 136.662 369.739 136.726C368.719 136.766 367.259 136.943 366.24 136.55C366.151 136.67 366.055 136.782 365.967 136.911C365.365 137.769 364.819 138.652 364.306 139.567C364.899 139.455 365.509 139.479 366.127 139.447C367.171 139.406 368.166 139.005 369.193 139.021C370.573 139.037 371.167 140.971 369.915 141.677C368.262 142.6 364.948 142.568 363.471 141.14C363.126 141.83 362.797 142.536 362.508 143.25C362.283 143.796 362.091 144.334 361.898 144.887C362.283 144.807 362.685 144.815 363.126 144.775C364.009 144.695 364.843 144.39 365.702 144.221C367.684 143.844 368.439 146.557 366.537 147.247C365.493 147.624 364.378 147.584 363.295 147.415C362.628 147.311 361.842 147.191 361.312 146.757C360.341 150.296 360.004 153.916 360.012 157.655C360.012 158.153 359.202 158.297 359.113 157.776C358.68 155.063 358.696 152.295 359.089 149.566C358.327 149.646 357.452 149.422 356.842 149.165C355.719 148.691 354.579 147.969 353.977 146.87C353.335 145.698 354.708 144.021 355.944 144.904L355.984 144.879Z" fill="#BCBEC0"/>
<path d="M356.745 143.996C355.951 144.558 355.285 145.272 354.474 145.826C354.089 146.083 353.648 146.331 353.239 146.62C352.902 145.055 352.444 143.515 351.882 142.022C352.974 141.781 353.953 141.38 354.836 140.682C355.67 140.016 356.745 138.78 356.4 137.64C356.2 136.966 355.59 136.709 354.932 136.806C354.113 136.934 353.431 137.961 352.837 138.507C352.268 139.037 351.658 139.478 350.959 139.815C350.526 138.852 350.029 137.817 349.459 136.774C349.467 136.774 349.483 136.774 349.491 136.774C350.526 136.621 351.874 135.49 352.5 134.687C353.247 133.74 353.897 132.119 352.99 131.1C352.741 130.819 352.324 130.747 351.979 130.835C351.024 131.06 350.51 132.256 350.061 133.042C349.844 133.419 349.724 133.837 349.451 134.182C349.162 134.551 348.809 134.84 348.544 135.225C347.966 134.302 347.34 133.403 346.666 132.593C348.408 131.172 349.322 128.516 348.159 126.421C347.557 125.346 345.912 125.611 345.583 126.758C345.342 127.601 345.398 128.58 345.31 129.463C345.254 130.025 345.286 130.602 345.326 131.188C344.756 130.667 344.162 130.209 343.536 129.856C343.48 129.76 343.408 129.672 343.296 129.599C342.742 129.278 342.292 128.508 341.763 128.115C341.113 127.641 340.35 127.352 339.564 127.176C338.184 126.855 336.169 126.293 335.142 127.553C334.765 128.018 334.629 128.596 334.934 129.142C335.672 130.458 337.269 130.378 338.593 130.683C339.227 130.827 339.893 131.012 340.551 131.044C341.097 131.068 341.859 130.843 342.461 130.915C342.959 131.686 343.576 132.392 344.218 133.09C343.841 133.002 343.488 132.938 343.175 132.906C341.618 132.729 339.692 132.609 338.457 133.684C337.943 134.125 338.087 135.072 338.673 135.377C339.917 136.027 341.594 135.779 342.975 135.843C343.994 135.883 345.454 136.059 346.474 135.666C346.562 135.787 346.658 135.899 346.746 136.027C347.348 136.886 347.894 137.769 348.408 138.684C347.814 138.571 347.204 138.595 346.586 138.563C345.543 138.523 344.548 138.122 343.52 138.138C342.14 138.154 341.546 140.088 342.798 140.794C344.451 141.717 347.766 141.685 349.242 140.256C349.587 140.947 349.908 141.653 350.205 142.367C350.43 142.913 350.622 143.45 350.815 144.004C350.43 143.924 350.029 143.932 349.587 143.892C348.704 143.812 347.87 143.507 347.011 143.338C345.029 142.961 344.275 145.673 346.177 146.364C347.22 146.741 348.335 146.701 349.419 146.532C350.085 146.428 350.871 146.307 351.401 145.874C352.372 149.413 352.709 153.032 352.701 156.772C352.701 157.269 353.511 157.414 353.592 156.892C354.025 154.18 354.009 151.411 353.616 148.683C354.378 148.763 355.253 148.538 355.863 148.281C356.986 147.808 358.126 147.086 358.728 145.986C359.37 144.815 357.997 143.137 356.762 144.02L356.745 143.996Z" fill="#BCBEC0"/>
<path d="M362.492 146.436C361.521 146.525 360.59 146.814 359.611 146.886C359.153 146.918 358.64 146.91 358.15 146.958C358.64 145.433 359.017 143.868 359.274 142.295C360.341 142.632 361.384 142.777 362.5 142.608C363.559 142.448 365.108 141.918 365.373 140.763C365.533 140.081 365.132 139.551 364.514 139.31C363.736 139.005 362.636 139.559 361.85 139.743C361.095 139.92 360.341 139.992 359.571 139.936C359.675 138.885 359.763 137.737 359.787 136.55C359.795 136.55 359.803 136.566 359.819 136.566C360.79 136.951 362.524 136.638 363.471 136.261C364.594 135.811 365.967 134.736 365.686 133.404C365.605 133.035 365.284 132.77 364.939 132.665C364 132.377 362.957 133.163 362.179 133.62C361.802 133.845 361.489 134.142 361.079 134.303C360.646 134.479 360.197 134.559 359.771 134.752C359.731 133.661 359.643 132.569 359.458 131.526C361.673 131.165 363.8 129.319 363.832 126.928C363.848 125.7 362.291 125.106 361.432 125.932C360.798 126.542 360.365 127.417 359.843 128.139C359.514 128.597 359.25 129.118 359.001 129.64C358.768 128.902 358.479 128.212 358.118 127.594C358.118 127.481 358.102 127.369 358.038 127.249C357.717 126.695 357.717 125.804 357.452 125.194C357.123 124.456 356.609 123.83 356.016 123.276C354.98 122.313 353.512 120.813 351.995 121.39C351.433 121.607 351.032 122.032 351.024 122.658C351.008 124.175 352.428 124.897 353.423 125.82C353.905 126.262 354.387 126.759 354.94 127.112C355.398 127.409 356.176 127.594 356.658 127.955C356.698 128.87 356.882 129.792 357.091 130.715C356.81 130.451 356.529 130.218 356.28 130.033C355.02 129.102 353.415 128.035 351.802 128.348C351.136 128.476 350.791 129.367 351.144 129.921C351.899 131.109 353.472 131.727 354.643 132.473C355.502 133.019 356.682 133.901 357.765 134.07C357.781 134.214 357.805 134.367 357.821 134.511C357.909 135.554 357.942 136.598 357.934 137.641C357.476 137.248 356.938 136.959 356.409 136.63C355.526 136.068 354.86 135.233 353.961 134.728C352.749 134.054 351.273 135.434 352.011 136.67C352.982 138.299 355.871 139.928 357.861 139.431C357.813 140.201 357.741 140.971 357.637 141.742C357.556 142.32 357.46 142.897 357.348 143.459C357.059 143.202 356.706 143.002 356.337 142.745C355.614 142.231 355.045 141.549 354.378 140.979C352.846 139.663 350.839 141.637 352.148 143.178C352.862 144.029 353.849 144.55 354.868 144.952C355.494 145.2 356.24 145.489 356.914 145.369C355.983 148.916 354.467 152.23 352.597 155.456C352.348 155.882 352.982 156.419 353.311 156.01C355.045 153.884 356.417 151.468 357.436 148.916C358.062 149.365 358.929 149.614 359.579 149.694C360.79 149.839 362.139 149.791 363.206 149.141C364.346 148.443 364 146.308 362.484 146.452L362.492 146.436Z" fill="#E6E7E8"/>
<path d="M353.375 142.6C352.806 143.395 352.412 144.286 351.827 145.072C351.554 145.441 351.209 145.818 350.92 146.22C350.093 144.847 349.162 143.539 348.135 142.311C349.09 141.734 349.884 141.027 350.486 140.08C351.064 139.182 351.674 137.657 350.976 136.694C350.567 136.124 349.901 136.076 349.315 136.381C348.576 136.766 348.271 137.962 347.894 138.676C347.525 139.358 347.092 139.984 346.546 140.53C345.824 139.759 345.013 138.941 344.131 138.146C344.139 138.146 344.155 138.146 344.163 138.13C345.086 137.649 345.992 136.14 346.329 135.177C346.731 134.038 346.819 132.296 345.623 131.63C345.294 131.446 344.885 131.518 344.58 131.71C343.745 132.232 343.657 133.532 343.489 134.423C343.408 134.848 343.424 135.29 343.288 135.699C343.135 136.148 342.903 136.533 342.766 136.983C341.924 136.293 341.041 135.651 340.134 135.105C341.314 133.195 341.322 130.386 339.532 128.789C338.617 127.971 337.141 128.757 337.205 129.945C337.253 130.82 337.622 131.726 337.823 132.593C337.951 133.139 338.168 133.685 338.401 134.214C337.695 133.909 336.98 133.668 336.274 133.54C336.186 133.468 336.09 133.404 335.961 133.38C335.335 133.251 334.661 132.673 334.027 132.473C333.257 132.232 332.446 132.216 331.644 132.296C330.239 132.441 328.145 132.569 327.583 134.094C327.374 134.656 327.439 135.241 327.904 135.659C329.036 136.662 330.512 136.068 331.868 135.923C332.518 135.851 333.201 135.811 333.834 135.627C334.356 135.474 335.006 135.009 335.6 134.888C336.314 135.458 337.133 135.923 337.967 136.373C337.582 136.405 337.221 136.469 336.924 136.533C335.391 136.87 333.538 137.384 332.711 138.804C332.366 139.39 332.815 140.233 333.465 140.337C334.854 140.546 336.354 139.767 337.686 139.374C338.666 139.085 340.102 138.772 340.937 138.066C341.057 138.146 341.185 138.227 341.306 138.315C342.148 138.933 342.959 139.591 343.737 140.281C343.143 140.369 342.574 140.586 341.972 140.763C340.969 141.059 339.901 141.011 338.93 141.356C337.63 141.822 337.695 143.844 339.115 144.101C340.977 144.438 344.107 143.323 345.037 141.493C345.591 142.039 346.129 142.592 346.634 143.178C347.02 143.619 347.389 144.069 347.742 144.526C347.357 144.574 346.979 144.711 346.538 144.815C345.679 145.024 344.789 145.008 343.922 145.136C341.924 145.425 342.092 148.234 344.115 148.266C345.222 148.282 346.265 147.881 347.236 147.375C347.83 147.062 348.536 146.693 348.889 146.107C350.96 149.133 352.461 152.455 353.664 155.986C353.825 156.459 354.643 156.331 354.547 155.809C354.074 153.105 353.159 150.489 351.899 148.041C352.645 147.865 353.399 147.375 353.889 146.934C354.796 146.115 355.638 145.064 355.847 143.828C356.072 142.512 354.234 141.372 353.343 142.608L353.375 142.6Z" fill="#E6E7E8"/>
<path d="M343.023 147.985L343.473 150.409L343.778 152.022L344.332 155.039L344.636 156.652L345.198 159.67L345.495 161.283L346.249 165.327H364.233L364.98 161.283L365.285 159.67L365.838 156.652L366.135 155.039L366.705 152.022L366.994 150.409L367.452 147.985H343.023Z" fill="#939598"/>
<path d="M343.472 150.409L343.777 152.022H366.705L366.994 150.409H343.472Z" fill="#BCBEC0"/>
<path d="M344.332 155.039L344.636 156.652H365.839L366.135 155.039H344.332Z" fill="#BCBEC0"/>
<path d="M345.198 159.669L345.495 161.282H364.98L365.285 159.669H345.198Z" fill="#BCBEC0"/>
<path d="M461.199 165.528H216.582V245.81H461.199V165.528Z" fill="#BCBEC0"/>
<path d="M461.199 176.811H216.582V181.072H461.199V176.811Z" fill="#E6E7E8"/>
<path d="M461.199 193.366H216.582V197.627H461.199V193.366Z" fill="#E6E7E8"/>
<path d="M461.199 209.922H216.582V214.183H461.199V209.922Z" fill="#E6E7E8"/>
<path d="M461.199 226.47H216.582V230.731H461.199V226.47Z" fill="#E6E7E8"/>
<path d="M260.847 245.811H241.378V257.992H260.847V245.811Z" fill="#939598"/>
<path d="M395.579 141.999H380.46V162.438H395.579V141.999Z" fill="#E6E7E8"/>
<path d="M377.37 138.9V165.527H398.669V138.9H377.37ZM395.579 162.43H380.46V141.99H395.579V162.43Z" fill="#939598"/>
</g>
<g style="mix-blend-mode:multiply" opacity="0.5">
<path d="M20.5391 147.736H8.03613V164.636H20.5391V147.736Z" fill="#E6E7E8"/>
<path d="M5.47656 145.176V167.197H23.0914V145.176H5.47656ZM20.5395 164.637H8.03652V147.736H20.5395V164.637Z" fill="#BCBEC0"/>
<path d="M46.2515 147.736H33.7485V164.636H46.2515V147.736Z" fill="#E6E7E8"/>
<path d="M31.1968 145.176V167.197H48.8116V145.176H31.1968ZM46.2597 164.637H33.7568V147.736H46.2597V164.637Z" fill="#BCBEC0"/>
<path d="M124.945 174.21H-95.895V246.692H124.945V174.21Z" fill="#BCBEC0"/>
<path d="M16.0456 174.21H12.9961V246.845H16.0456V174.21Z" fill="#E6E7E8"/>
<path d="M73.9616 174.21H70.9121V246.845H73.9616V174.21Z" fill="#E6E7E8"/>
<path d="M9.22402 209.048C9.22402 210.083 8.3814 210.917 7.3542 210.917C6.327 210.917 5.48438 210.075 5.48438 209.048C5.48438 208.02 6.327 207.178 7.3542 207.178C8.3814 207.178 9.22402 208.012 9.22402 209.048Z" fill="#E6E7E8"/>
<path d="M67.0199 209.048C67.0199 210.083 66.1853 210.917 65.1501 210.917C64.1149 210.917 63.2803 210.075 63.2803 209.048C63.2803 208.02 64.1149 207.178 65.1501 207.178C66.1853 207.178 67.0199 208.012 67.0199 209.048Z" fill="#E6E7E8"/>
<path d="M121.052 209.048C121.052 210.083 120.218 210.917 119.182 210.917C118.147 210.917 117.312 210.075 117.312 209.048C117.312 208.02 118.147 207.178 119.182 207.178C120.218 207.178 121.052 208.012 121.052 209.048Z" fill="#E6E7E8"/>
<path d="M102.555 246.692H84.98V257.687H102.555V246.692Z" fill="#939598"/>
<path d="M131.678 167.229H-102.628V174.227H131.678V167.229Z" fill="#939598"/>
<path d="M73.4238 167.229H94.1684C96.3994 167.229 98.205 165.424 98.205 163.193C98.205 160.962 96.3994 159.156 94.1684 159.156H73.4238V167.237V167.229Z" fill="#BCBEC0"/>
<path d="M73.5603 166.034H93.7511C95.316 166.034 96.592 164.766 96.592 163.193C96.592 161.628 95.324 160.352 93.7511 160.352H73.5603C73.488 160.352 73.4238 160.416 73.4238 160.488V165.897C73.4238 165.97 73.488 166.034 73.5603 166.034Z" fill="white"/>
<path d="M76.9546 159.156H97.6992C99.9301 159.156 101.736 157.351 101.736 155.12C101.736 152.889 99.9301 151.083 97.6992 151.083H76.9546V159.164V159.156Z" fill="#939598"/>
<path d="M77.091 157.952H97.2819C98.8468 157.952 100.123 156.684 100.123 155.111C100.123 153.546 98.8548 152.271 97.2819 152.271H77.091C77.0188 152.271 76.9546 152.335 76.9546 152.407V157.808C76.9546 157.88 77.0188 157.944 77.091 157.944V157.952Z" fill="white"/>
<path d="M74.3301 151.075H95.0747C97.3056 151.075 99.1112 149.269 99.1112 147.039C99.1112 144.808 97.3056 143.002 95.0747 143.002H74.3301V151.083V151.075Z" fill="#BCBEC0"/>
<path d="M74.4665 149.879H94.6574C96.2222 149.879 97.4982 148.611 97.4982 147.039C97.4982 145.474 96.2303 144.198 94.6574 144.198H74.4665C74.3943 144.198 74.3301 144.262 74.3301 144.334V149.735C74.3301 149.807 74.3943 149.871 74.4665 149.871V149.879Z" fill="white"/>
<path d="M177.204 183.351C182.605 176.594 183.487 169.588 178.038 165.215C172.589 160.841 178.014 141.942 167.694 139.976C157.23 140.987 160.905 160.303 155.079 164.163C149.253 168.015 149.485 175.077 154.244 182.3C159.003 189.522 147.335 193.527 148.322 204.497C149.309 215.467 164.075 218.91 164.075 218.91C164.075 218.91 179.09 216.839 181.08 206.006C183.07 195.172 171.811 190.108 177.212 183.359L177.204 183.351Z" fill="#BCBEC0"/>
<path d="M166.884 150.65C167.245 158.715 167.277 166.788 167.173 174.853C167.06 182.926 166.731 190.991 166.258 199.048C165.672 207.097 165.014 215.154 163.955 223.163C162.863 231.164 161.531 239.141 159.549 246.974L160.6 241.019C160.985 239.045 161.202 237.031 161.507 235.04L161.956 232.055L162.325 229.054C162.558 227.056 162.839 225.057 163.032 223.051C163.898 215.042 164.564 207.009 165.054 198.968C165.624 190.927 165.937 182.878 166.242 174.821C166.402 170.792 166.523 166.764 166.611 162.735C166.747 158.707 166.795 154.67 166.876 150.642L166.884 150.65Z" fill="#939598"/>
<path d="M158.041 167.14C158.867 167.758 159.629 168.432 160.424 169.074C161.202 169.74 161.965 170.415 162.719 171.105C164.22 172.485 165.688 173.897 167.125 175.342L166.378 175.27C169.308 173.352 172.285 171.514 175.447 169.941C172.774 172.244 169.934 174.291 167.037 176.257L166.643 176.53L166.29 176.185C164.838 174.756 163.417 173.296 162.029 171.795C161.339 171.04 160.657 170.286 159.991 169.508C159.341 168.721 158.666 167.951 158.041 167.132V167.14Z" fill="#939598"/>
<path d="M155.865 195.717C156.748 196.423 157.575 197.178 158.425 197.916C159.26 198.67 160.087 199.433 160.897 200.203C162.518 201.752 164.107 203.333 165.664 204.946L164.886 204.882C166.515 203.694 168.152 202.514 169.829 201.391C170.664 200.821 171.506 200.275 172.365 199.73C173.232 199.208 174.074 198.654 174.957 198.157C174.227 198.863 173.448 199.505 172.694 200.179C171.923 200.837 171.153 201.487 170.367 202.121C168.802 203.397 167.205 204.625 165.592 205.837L165.174 206.15L164.805 205.773C163.24 204.176 161.7 202.539 160.199 200.877C159.453 200.043 158.714 199.2 157.984 198.341C157.278 197.467 156.54 196.624 155.857 195.717H155.865Z" fill="#939598"/>
<path d="M161.33 187.732C165.11 181.048 164.893 174.772 159.492 171.707C154.099 168.641 156.178 151.299 146.845 151.034C137.817 153.402 143.763 169.821 139.205 174.026C134.639 178.231 135.843 184.386 141.043 190.052C146.243 195.717 136.573 200.877 138.988 210.355C141.404 219.832 154.838 220.763 154.838 220.763C154.838 220.763 167.718 216.823 167.926 207.041C168.135 197.258 157.55 194.409 161.33 187.724V187.732Z" fill="#E6E7E8"/>
<path d="M147.656 160.504C149.116 167.526 150.28 174.596 151.339 181.69C152.382 188.784 153.233 195.902 153.963 203.044C154.589 210.187 155.151 217.345 155.36 224.519C155.536 231.694 155.496 238.876 154.87 246.018L154.95 240.641C155.007 238.852 154.91 237.062 154.902 235.273L154.878 232.592L154.774 229.912C154.694 228.122 154.662 226.333 154.541 224.551C154.164 217.409 153.61 210.267 152.904 203.149C152.262 196.023 151.403 188.912 150.529 181.802C150.103 178.247 149.63 174.7 149.14 171.153C148.683 167.598 148.161 164.059 147.656 160.512V160.504Z" fill="#BCBEC0"/>
<path d="M142.231 176.225C143.041 176.65 143.812 177.132 144.598 177.589C145.377 178.063 146.139 178.552 146.893 179.05C148.41 180.045 149.895 181.08 151.355 182.148L150.689 182.188C152.984 180.093 155.344 178.063 157.888 176.233C155.873 178.633 153.667 180.823 151.412 182.958L151.099 183.247L150.745 182.998C149.269 181.955 147.816 180.872 146.388 179.748C145.674 179.186 144.967 178.617 144.277 178.031C143.595 177.429 142.897 176.851 142.231 176.225Z" fill="#BCBEC0"/>
<path d="M144.365 201.592C145.239 202.082 146.066 202.635 146.925 203.157C147.759 203.695 148.594 204.248 149.412 204.81C151.058 205.934 152.671 207.097 154.26 208.293L153.569 208.349C154.829 207.073 156.097 205.813 157.413 204.593C158.063 203.975 158.729 203.374 159.396 202.78C160.078 202.194 160.744 201.592 161.45 201.03C160.904 201.753 160.318 202.427 159.757 203.125C159.179 203.807 158.593 204.489 157.991 205.155C156.803 206.495 155.576 207.795 154.332 209.087L154.011 209.416L153.634 209.144C152.037 207.964 150.456 206.752 148.907 205.5C148.128 204.874 147.366 204.24 146.604 203.59C145.857 202.924 145.095 202.282 144.373 201.592H144.365Z" fill="#BCBEC0"/>
<path d="M171.723 229.334H144.807L148.739 256.924H167.799L171.723 229.334Z" fill="#939598"/>
</g>
</g>
<path d="M330.986 308.702L320.594 311.679C320.594 311.679 319.149 305.837 319.936 304.938C320.722 304.039 325.345 298.952 325.345 298.952H332.27L330.986 308.702Z" fill="#231F20"/>
<path d="M349.468 118.959L348.987 114.553L337.495 110.917L335.617 116.142C335.617 116.142 346.25 122.433 346.619 122.674C346.989 122.915 349.46 118.967 349.46 118.967L349.468 118.959Z" fill="#231F20"/>
<path d="M291.985 119.842L345.359 113.967C350.881 113.358 354.837 119.079 354.139 126.679L338.466 297.675C337.768 305.275 332.8 310.186 327.424 308.581L275.486 293.125C270.109 291.528 266.217 284.916 266.843 278.44L280.814 132.714C281.432 126.238 286.464 120.444 291.985 119.834V119.842Z" fill="#231F20"/>
<path d="M279.161 116.648L334.381 110.573C340.095 109.947 344.18 115.861 343.466 123.726L327.255 300.621C326.533 308.485 321.397 313.565 315.836 311.904L262.108 295.918C256.547 294.265 252.526 287.427 253.168 280.727L267.621 129.977C268.263 123.276 273.464 117.282 279.177 116.656L279.161 116.648Z" fill="#404041"/>
<path d="M259.388 274.692L322.568 290.541L337.495 128.107L272.926 132.93L259.388 274.692Z" fill="white"/>
<path d="M298.63 124.994L313.324 123.71C314.038 123.646 314.688 122.835 314.776 121.912C314.865 120.981 314.351 120.283 313.637 120.347L298.935 121.736C298.221 121.8 297.571 122.586 297.483 123.485C297.402 124.376 297.916 125.058 298.63 124.994Z" fill="#333333"/>
<path d="M321.236 180.815L295.123 180.029C290.822 179.901 287.716 175.39 288.221 170.014L289.867 152.608L323.941 151.612C328.258 151.484 331.356 156.187 330.81 162.053L330.048 170.375C329.51 176.241 325.546 180.944 321.244 180.807L321.236 180.815Z" fill="#ED6F73"/>
<path d="M301.053 152.286L285.557 152.736L290.805 160.809L299.36 156.62L301.053 152.286Z" fill="#ED6F73"/>
<path d="M282.909 153.475C282.684 155.882 280.91 157.856 278.944 157.896C276.978 157.937 275.574 156.043 275.806 153.675C276.039 151.308 277.805 149.326 279.771 149.253C281.737 149.181 283.141 151.075 282.909 153.475Z" fill="#ED6F73"/>
<path d="M323.844 159.012L296.463 159.397C296.23 159.397 296.053 159.156 296.086 158.859C296.11 158.562 296.326 158.313 296.567 158.305L323.956 157.856C324.189 157.856 324.366 158.105 324.334 158.426C324.301 158.747 324.085 159.004 323.852 159.012H323.844Z" fill="white"/>
<path d="M323.362 164.196L295.997 164.3C295.764 164.3 295.588 164.059 295.62 163.754C295.644 163.457 295.861 163.209 296.101 163.209L323.475 163.04C323.707 163.04 323.884 163.297 323.852 163.618C323.82 163.939 323.603 164.196 323.37 164.196H323.362Z" fill="white"/>
<path d="M322.889 169.388L295.54 169.203C295.307 169.203 295.131 168.954 295.163 168.658C295.187 168.361 295.403 168.112 295.644 168.112L322.993 168.232C323.226 168.232 323.403 168.497 323.371 168.81C323.338 169.131 323.122 169.388 322.889 169.388Z" fill="white"/>
<path d="M322.408 174.572L295.083 174.098C294.85 174.098 294.673 173.849 294.705 173.545C294.73 173.248 294.946 173.007 295.187 173.007L322.52 173.416C322.753 173.416 322.921 173.681 322.897 174.002C322.865 174.323 322.648 174.572 322.416 174.572H322.408Z" fill="white"/>
<path d="M305.074 264.797L287.499 261.169C283.246 260.295 280.181 255.175 280.686 249.79L282.331 232.384L307.738 236.091C312.008 236.717 315.065 241.95 314.528 247.72L313.773 255.897C313.236 261.667 309.319 265.671 305.074 264.797Z" fill="#ED6F73"/>
<path d="M293.398 233.997L278.078 231.766L283.262 240.883L291.721 238.114L293.398 233.997Z" fill="#ED6F73"/>
<path d="M275.462 232.055C275.237 234.463 273.48 236.164 271.537 235.859C269.603 235.554 268.215 233.387 268.44 231.02C268.665 228.653 270.422 226.951 272.364 227.216C274.306 227.481 275.694 229.648 275.462 232.055Z" fill="#ED6F73"/>
<path d="M277.58 217.698L303.549 220.683C307.826 221.173 311.758 216.912 312.288 211.206L313.997 192.74L280.116 190.879C275.823 190.646 271.898 194.715 271.401 199.931L270.695 207.322C270.197 212.538 273.295 217.209 277.572 217.698H277.58Z" fill="#ED6F73"/>
<path d="M302.867 192.123L318.283 192.973L311.478 201.327L303.742 196.568L302.867 192.123Z" fill="#ED6F73"/>
<path d="M320.778 193.832C320.537 196.456 321.918 198.695 323.868 198.824C325.818 198.952 327.599 196.898 327.84 194.234C328.081 191.569 326.701 189.33 324.751 189.242C322.801 189.154 321.019 191.208 320.778 193.832Z" fill="#ED6F73"/>
<path d="M278.88 197.628L306.109 199.538C306.342 199.554 306.558 199.313 306.59 199.008C306.623 198.703 306.454 198.438 306.213 198.422L278.976 196.576C278.744 196.56 278.527 196.785 278.495 197.074C278.471 197.363 278.639 197.612 278.872 197.628H278.88Z" fill="white"/>
<path d="M278.431 202.387L305.644 204.586C305.876 204.602 306.093 204.369 306.125 204.056C306.157 203.751 305.989 203.478 305.748 203.462L278.535 201.327C278.303 201.311 278.086 201.528 278.062 201.825C278.038 202.114 278.206 202.371 278.439 202.387H278.431Z" fill="white"/>
<path d="M277.982 207.137L305.171 209.625C305.403 209.649 305.62 209.408 305.652 209.103C305.684 208.798 305.516 208.526 305.275 208.501L278.078 206.078C277.846 206.054 277.629 206.279 277.605 206.567C277.581 206.856 277.749 207.113 277.982 207.137Z" fill="white"/>
<path d="M277.532 211.896L304.705 214.665C304.937 214.689 305.154 214.456 305.186 214.151C305.218 213.846 305.05 213.573 304.809 213.549L277.636 210.837C277.404 210.813 277.187 211.029 277.163 211.318C277.139 211.607 277.307 211.864 277.54 211.888L277.532 211.896Z" fill="white"/>
<path d="M292.459 239.759C296.471 237.633 299.376 243.025 299.376 243.025C299.376 243.025 303.196 238.668 306.695 242.022C310.972 246.276 303.846 256.443 297.964 258.161C292.603 254.309 287.531 242.383 292.459 239.759Z" fill="#EF4438"/>
<path d="M284.265 291.48C283.88 295.573 286.135 299.625 289.296 300.548C292.458 301.471 295.339 298.815 295.732 294.618C296.126 290.429 293.871 286.368 290.701 285.55C287.531 284.731 284.65 287.387 284.265 291.48Z" fill="#333333"/>
<path d="M272.091 141.662L336.58 138.115L337.494 128.107L272.925 132.93L272.091 141.662Z" fill="#ED6F73"/>
<path d="M259.388 274.691L322.568 290.541L323.973 275.261L260.656 261.362L259.388 274.691Z" fill="#ED6F73"/>
<path d="M309.391 136.212C308.902 136.244 308.581 135.763 308.669 134.88C308.749 133.997 309.166 133.468 309.656 133.436C310.145 133.403 310.466 133.885 310.386 134.768C310.306 135.65 309.889 136.18 309.399 136.212H309.391ZM309.423 135.867C309.752 135.843 310.017 135.482 310.081 134.792C310.146 134.102 309.953 133.765 309.616 133.789C309.287 133.813 309.03 134.174 308.966 134.864C308.902 135.554 309.094 135.891 309.423 135.867Z" fill="white"/>
<path d="M307.818 133.556C308.236 133.524 308.533 133.837 308.476 134.358C308.428 134.856 308.099 135.201 307.682 135.225C307.417 135.241 307.208 135.137 307.104 134.912V135.008C307.032 135.683 307.273 136.012 307.698 135.98C307.85 135.971 307.995 135.923 308.115 135.827L308.204 136.124C308.059 136.244 307.866 136.301 307.666 136.317C307.08 136.357 306.719 135.883 306.807 134.96C306.887 134.102 307.249 133.596 307.818 133.556ZM307.666 134.92C307.963 134.904 308.163 134.687 308.195 134.366C308.228 134.045 308.059 133.853 307.778 133.869C307.449 133.893 307.257 134.15 307.224 134.423C307.2 134.72 307.377 134.936 307.658 134.92H307.666Z" fill="white"/>
<path d="M306.342 134.848C306.237 134.848 306.157 134.751 306.165 134.599C306.181 134.447 306.277 134.334 306.39 134.326C306.502 134.326 306.582 134.422 306.566 134.575C306.55 134.727 306.446 134.848 306.334 134.856L306.342 134.848ZM306.197 136.405C306.093 136.405 306.013 136.308 306.021 136.156C306.037 136.003 306.133 135.891 306.245 135.883C306.358 135.883 306.438 135.979 306.422 136.132C306.406 136.284 306.301 136.405 306.197 136.413V136.405Z" fill="white"/>
<path d="M304.849 136.493C304.359 136.525 304.038 136.044 304.119 135.177C304.199 134.302 304.616 133.781 305.106 133.749C305.595 133.717 305.916 134.19 305.836 135.065C305.756 135.939 305.339 136.469 304.849 136.493ZM304.881 136.148C305.21 136.124 305.475 135.771 305.539 135.081C305.603 134.391 305.411 134.062 305.074 134.086C304.745 134.11 304.488 134.471 304.424 135.153C304.359 135.843 304.552 136.172 304.881 136.148Z" fill="white"/>
<path d="M302.843 136.614C302.353 136.646 302.032 136.173 302.113 135.298C302.193 134.431 302.61 133.91 303.1 133.878C303.589 133.845 303.91 134.319 303.83 135.194C303.75 136.068 303.332 136.59 302.843 136.622V136.614ZM302.875 136.269C303.204 136.245 303.469 135.892 303.533 135.202C303.597 134.52 303.405 134.19 303.068 134.207C302.739 134.231 302.482 134.584 302.418 135.274C302.353 135.956 302.546 136.285 302.875 136.269Z" fill="white"/>
<path d="M322.745 134.326L323.146 134.302L323.202 133.692L323.483 133.676L323.427 134.286L324.237 134.238L323.371 132.545L323.692 132.521L324.598 134.278L324.574 134.559L323.403 134.631L323.339 135.321L323.05 135.337L323.114 134.655L322.713 134.679L322.745 134.334V134.326Z" fill="white"/>
<path d="M320.851 134.968C320.988 135.088 321.148 135.128 321.325 135.112C321.806 135.08 322.199 134.607 322.255 133.989C322.312 133.371 322.007 132.945 321.517 132.978C321.276 132.994 321.076 133.106 320.875 133.339L320.715 133.106C320.931 132.809 321.228 132.648 321.565 132.624C322.215 132.576 322.633 133.146 322.56 133.973C322.48 134.799 321.951 135.425 321.309 135.465C321.012 135.481 320.731 135.385 320.546 135.16L320.642 134.077L320.931 134.061L320.851 134.968Z" fill="white"/>
<path d="M286.046 135.972L286.713 135.932L286.552 137.601L285.886 137.641L286.046 135.972Z" fill="white"/>
<path d="M284.682 134.969L285.356 134.929L285.091 137.689L284.425 137.729L284.682 134.969Z" fill="white"/>
<path d="M283.342 133.773L284.016 133.725L283.631 137.785L282.957 137.825L283.342 133.773Z" fill="white"/>
<path d="M275.205 137.496L275.646 137.464L275.742 136.477L275.301 136.509L275.205 137.496Z" fill="white"/>
<path d="M275.726 135.755L275.485 138.283L280.373 137.978L280.613 135.418L275.726 135.747V135.755ZM275.951 136.012L280.357 135.715L280.172 137.689L275.766 137.97L275.951 136.012Z" fill="white"/>
<path d="M278.479 137.85L280.228 137.737L280.421 135.675L277.564 135.867L278.479 137.85Z" fill="white"/>
<path d="M333.578 133.331C333.53 133.861 333.803 134.27 334.196 134.246C334.589 134.222 334.943 133.773 334.991 133.243C335.039 132.713 334.766 132.304 334.373 132.328C333.979 132.352 333.626 132.802 333.578 133.331Z" fill="white"/>
<path d="M331.219 133.492C331.171 134.022 331.444 134.423 331.837 134.399C332.231 134.375 332.584 133.925 332.632 133.396C332.68 132.866 332.407 132.465 332.014 132.489C331.621 132.513 331.268 132.962 331.219 133.492Z" fill="white"/>
<path d="M328.86 133.644C328.812 134.166 329.085 134.575 329.478 134.551C329.871 134.527 330.224 134.077 330.273 133.556C330.321 133.034 330.048 132.625 329.655 132.649C329.261 132.673 328.908 133.122 328.86 133.644Z" fill="white"/>
<path d="M326.396 133.805C326.452 133.203 326.862 132.689 327.311 132.665C327.761 132.633 328.082 133.098 328.025 133.7C327.969 134.302 327.56 134.816 327.111 134.84C326.661 134.872 326.34 134.407 326.396 133.805ZM326.613 133.789C326.573 134.23 326.806 134.575 327.135 134.551C327.464 134.527 327.769 134.15 327.809 133.708C327.849 133.267 327.616 132.922 327.287 132.946C326.958 132.97 326.653 133.347 326.613 133.789Z" fill="white"/>
<path d="M230.192 199.962C230.891 199.553 239.574 209.279 239.574 209.279C239.541 207.209 240.24 205.13 241.524 203.501C241.54 203.485 241.548 203.469 241.564 203.453C241.684 203.309 241.845 203.18 242.021 203.212C242.109 203.229 242.182 203.277 242.246 203.333C242.808 203.814 243.016 204.601 243.008 205.339C243.008 206.077 242.816 206.8 242.727 207.53C242.551 208.934 242.92 210.315 243.281 211.679C243.891 213.99 241.002 217.2 241.002 217.2C241.002 217.2 241.187 217.497 241.427 217.906L236.059 221.726L234.397 219.351L232.656 218.741C231.468 218.139 224.117 208.052 224.623 207.385C224.759 207.209 224.928 207.024 225.097 206.856C225.361 206.591 225.626 206.366 225.803 206.214C225.939 206.101 226.019 206.045 226.019 206.045C226.019 206.045 226.172 205.604 226.413 205.122C226.549 204.834 226.718 204.529 226.902 204.296C227.095 204.039 227.319 203.854 227.528 203.854C227.745 203.854 228.395 204.304 229.205 204.946C231.22 206.527 234.261 209.239 234.301 208.934C234.349 208.517 229.334 201.046 229.334 201.046C229.334 201.046 229.39 200.773 229.607 200.468C229.735 200.291 229.92 200.099 230.176 199.946L230.192 199.962Z" fill="#FFA07F"/>
<path d="M226.413 205.147C226.565 205.323 226.726 205.5 226.894 205.677C227.865 206.696 228.868 207.506 229.623 208.044C230.329 208.549 230.818 208.838 230.874 208.87C230.834 208.814 230.497 208.365 229.952 207.699C229.366 206.985 228.547 206.022 227.584 205.018C227.352 204.778 227.127 204.545 226.902 204.32C226.718 204.561 226.549 204.858 226.413 205.147Z" fill="#CF4A57"/>
<path d="M225.096 206.88C226.613 208.533 228.114 209.593 228.21 209.665C228.154 209.561 227.271 207.948 225.795 206.238C225.618 206.391 225.353 206.615 225.088 206.88H225.096Z" fill="#CF4A57"/>
<path d="M240.136 218.837C240.136 218.837 240.087 218.765 240.071 218.733C239.967 218.565 239.863 218.388 239.774 218.195C239.718 218.043 239.67 217.882 239.662 217.722C239.63 217.281 239.871 216.863 240.111 216.494C240.882 215.274 241.789 214.079 242.062 212.666C242.383 210.997 241.773 209.288 241.781 207.578C241.781 206.343 242.11 205.059 241.724 203.887C241.676 203.75 241.62 203.606 241.564 203.454C241.684 203.317 241.845 203.181 242.021 203.213C242.11 203.229 242.182 203.285 242.246 203.341C242.808 203.823 243.017 204.609 243.009 205.347C243.009 206.086 242.816 206.808 242.728 207.538C242.551 208.943 242.92 210.323 243.281 211.687C243.899 213.998 241.01 217.216 241.01 217.216C241.01 217.216 241.227 217.473 241.5 217.754C241.524 217.77 241.54 217.794 241.564 217.818L241.765 218.035L240.136 218.837Z" fill="#FFBF90"/>
<path d="M236.732 217.594C236.732 217.594 236.676 217.521 236.572 217.385C236.468 217.249 236.339 217.048 236.211 216.767C235.954 216.221 235.737 215.363 235.866 214.432C236.002 213.493 236.444 212.731 236.845 212.281C237.045 212.056 237.222 211.888 237.358 211.792C237.495 211.695 237.567 211.639 237.567 211.639C237.567 211.639 237.535 211.727 237.471 211.88C237.407 212.024 237.326 212.249 237.238 212.514C237.053 213.044 236.885 213.766 236.765 214.56C236.652 215.355 236.62 216.101 236.644 216.663C236.66 216.944 236.676 217.176 236.692 217.337C236.708 217.497 236.716 217.594 236.716 217.594H236.732Z" fill="#FF7D6F"/>
<path d="M244.709 217.537C244.709 217.537 243.369 216.422 242.101 216.542C240.833 216.655 235.778 220.057 234.967 220.956C234.157 221.855 235.441 224.118 235.441 224.118L244.717 217.537H244.709Z" fill="#F2F4F3"/>
<path d="M235.272 227.705L244.677 238.459H281.624L280.774 208.485L263.681 200.837C263.681 200.837 262.092 204.32 261.41 207.747C260.912 210.227 258.167 231.998 258.167 231.998L248.939 219.03C248.939 219.03 246.29 217.561 245.247 217.192C244.204 216.823 234.357 222.722 234.662 224.174C234.967 225.627 235.272 227.697 235.272 227.697V227.705Z" fill="#E94E21"/>
<path d="M230.689 344.725C230.77 344.107 231.043 343.385 231.813 343.016C234.06 341.94 242.334 338.57 244.557 336.708C246.282 335.264 247.751 332.182 248.32 330.874L263.873 331.267C264.868 335.288 265.646 343.056 265.807 344.685L230.689 344.717V344.725Z" fill="#D54F70"/>
<path d="M230.682 348.264L265.799 348.232L265.807 344.693L230.69 344.725L230.682 348.264Z" fill="white"/>
<path d="M247.51 337.704C247.534 337.744 247.559 337.784 247.583 337.824C247.751 338.137 247.863 338.611 247.454 338.795C247.246 338.892 247.005 338.859 246.78 338.819C246.01 338.667 245.295 338.338 244.613 337.953C243.883 337.535 243.105 337.086 242.631 336.372C242.142 335.625 242.816 334.935 243.65 335.104C245.095 335.401 246.732 336.412 247.51 337.704Z" fill="white"/>
<path d="M244.87 339.597C244.894 339.638 244.918 339.678 244.942 339.718C245.111 340.031 245.223 340.504 244.814 340.689C244.605 340.785 244.365 340.753 244.14 340.713C243.37 340.56 242.655 340.231 241.973 339.846C241.243 339.429 240.465 338.979 239.991 338.265C239.502 337.519 240.176 336.829 241.01 336.997C242.455 337.294 244.092 338.305 244.87 339.597Z" fill="white"/>
<path d="M241.612 340.849C241.636 340.889 241.661 340.93 241.685 340.97C241.853 341.283 241.966 341.756 241.556 341.941C241.348 342.037 241.107 342.005 240.882 341.965C240.112 341.812 239.398 341.483 238.715 341.098C237.985 340.681 237.207 340.231 236.733 339.517C236.244 338.771 236.918 338.081 237.752 338.249C239.197 338.546 240.834 339.557 241.612 340.849Z" fill="white"/>
<path d="M299.897 253.778L285.043 252.606C285.043 252.606 252.967 264.443 249.669 268.039C246.37 271.634 242.855 330.184 242.855 330.184L265.855 333.466L269.153 283.936L306.325 265.936L308.468 259.283L299.897 253.778Z" fill="#254F79"/>
<path d="M216.558 355.76C216.638 355.142 216.911 354.42 217.681 354.051C219.928 352.975 228.202 349.605 230.425 347.743C232.15 346.298 233.619 343.217 234.189 341.909L249.741 342.302C250.736 346.322 251.514 354.091 251.675 355.72L216.558 355.752V355.76Z" fill="#D54F70"/>
<path d="M216.55 359.29L251.667 359.258L251.675 355.727L216.558 355.759L216.55 359.29Z" fill="white"/>
<path d="M233.379 348.738C233.403 348.778 233.427 348.818 233.451 348.858C233.619 349.171 233.732 349.644 233.322 349.829C233.114 349.925 232.873 349.893 232.648 349.853C231.878 349.701 231.164 349.371 230.482 348.986C229.751 348.569 228.973 348.12 228.499 347.405C228.01 346.659 228.684 345.969 229.519 346.137C230.963 346.434 232.6 347.446 233.379 348.738Z" fill="white"/>
<path d="M230.738 350.631C230.762 350.671 230.786 350.711 230.81 350.751C230.979 351.064 231.091 351.538 230.682 351.722C230.473 351.819 230.233 351.787 230.008 351.747C229.238 351.594 228.523 351.265 227.849 350.88C227.119 350.463 226.34 350.013 225.867 349.299C225.377 348.553 226.052 347.862 226.886 348.031C228.331 348.328 229.968 349.339 230.746 350.631H230.738Z" fill="white"/>
<path d="M227.488 351.884C227.512 351.924 227.536 351.964 227.56 352.004C227.729 352.317 227.841 352.79 227.432 352.975C227.223 353.071 226.983 353.039 226.758 352.999C225.988 352.847 225.273 352.517 224.599 352.132C223.869 351.715 223.09 351.266 222.617 350.551C222.127 349.805 222.802 349.115 223.636 349.283C225.081 349.58 226.718 350.591 227.496 351.884H227.488Z" fill="white"/>
<path d="M230.682 342.856L243.401 345.552L244.918 345.873L252.622 347.502L265.983 298.245L287.836 289.024C296.085 288.406 308.018 287.251 310.514 285.718C314.414 283.318 320.12 266.771 320.12 266.771L315.674 263.914L314.198 262.967L299.889 253.778C299.889 253.778 256.522 278.937 250.696 283.463C244.87 287.997 230.666 342.856 230.666 342.856H230.682Z" fill="#456997"/>
<path d="M244.919 345.881L252.623 347.51L265.984 298.253L287.836 289.032C296.086 288.414 308.019 287.259 310.515 285.726C314.415 283.326 320.121 266.779 320.121 266.779L315.675 263.922C312.762 270.238 307.313 280.814 303.317 281.232C297.627 281.834 286.833 283.944 286.833 283.944L265.254 293.173C265.254 293.173 264.355 286.328 262.261 287.226C260.158 288.125 261.057 293.927 261.057 293.927C261.057 293.927 256.563 291.937 255.664 293.927C254.765 295.917 260.76 299.144 260.76 299.144L244.911 345.881H244.919Z" fill="#254F79"/>
<path d="M320.65 264.444C320.136 263.441 308.332 202.323 306.462 197.668C306.462 197.668 311.108 191.24 308.468 186.69C305.82 182.14 294.713 182.011 294.713 182.011C294.713 182.011 297.345 175.88 286.391 175.375C275.445 174.869 266.433 193.608 266.433 193.608C266.433 193.608 263.544 200.493 263.52 201.897C263.488 203.294 270.02 220.315 270.02 220.315L270.55 232.031L271.328 249.445C271.328 249.445 269.467 254.854 269.772 255.857C270.069 256.869 271.072 257.984 271.072 257.984L279.466 255.175L315.955 266.442C322.865 269.965 321.26 265.624 320.65 264.436V264.444Z" fill="#FF8035"/>
<path d="M285.26 188.519L267.766 196.753L268.344 196.897C268.047 196.897 267.79 196.873 267.589 196.841C267.244 196.785 267.027 196.697 266.971 196.56C266.891 196.368 266.851 196.175 266.843 195.975C266.763 194.37 268.624 192.395 268.624 192.395L276.746 186.016L279.426 183.913C279.426 183.913 282.419 181.971 284.482 182.236C286.536 182.501 287.363 187.532 287.363 187.532L285.268 188.519H285.26Z" fill="#E94E21"/>
<path d="M285.26 188.519L267.766 196.753L268.271 193.936L268.536 192.459L276.746 186.015L279.554 185.654C279.554 185.654 279.875 185.799 280.405 186.048C281.464 186.545 283.374 187.468 285.26 188.519Z" fill="#FFA07F"/>
<path d="M279.595 187.797C279.346 188.054 268.368 196.56 268.368 196.56C268.368 196.56 268.512 191.472 268.576 188.816C268.592 187.997 268.608 187.404 268.6 187.275C268.576 186.216 267.573 181.65 267.573 181.65L278.72 176.257C278.72 176.257 278.945 178.576 279.177 181.136C279.45 184.226 279.723 187.66 279.587 187.805L279.595 187.797Z" fill="#FFA07F"/>
<path d="M279.185 181.128C276.112 183.471 269.331 188.591 268.641 188.8C268.617 188.8 268.6 188.808 268.576 188.816C268.592 187.997 268.608 187.404 268.6 187.275C268.576 186.216 267.573 181.65 267.573 181.65L278.72 176.257C278.72 176.257 278.945 178.576 279.177 181.136L279.185 181.128Z" fill="#FF7D6F"/>
<path d="M280.277 176.61C280.277 176.61 280.012 177.429 278.776 178.568C278.527 178.801 278.23 179.05 277.893 179.307C276.593 180.286 264.347 185.855 262.429 185.638C260.511 185.422 258.577 178.921 258.465 178.231C257.759 174.018 255.792 161.002 255.792 161.002C260.182 146.677 277.107 153.675 279.041 155.031C280.975 156.387 280.277 176.61 280.277 176.61Z" fill="#FFA07F"/>
<path d="M248.842 155.031C249.043 156.572 250.351 158.361 251.82 159.934C253.882 162.133 256.249 163.899 256.249 163.899C257.87 163.096 261.193 158.121 261.193 158.121C264.306 158.714 278.117 158.121 278.117 158.121L279.987 169.492L282.507 166.314L283.936 167.381C283.936 167.381 284.481 164.468 284.915 161.403C285.332 158.385 285.629 155.215 285.163 154.533C284.2 153.145 279.819 152.19 279.819 152.19C278.912 150.882 274.29 147.576 272.083 147.552C269.876 147.536 259.556 148.627 259.556 148.627L253.97 147.335L255.15 151.203L250.832 150.665C251.017 153.009 251.418 154.999 251.418 154.999L248.842 155.039V155.031Z" fill="#161818"/>
<path d="M248.843 155.031C248.891 155.352 248.971 155.689 249.099 156.026C249.597 157.31 250.648 158.69 251.82 159.934C252.165 159.204 252.526 158.474 252.871 157.735C253.561 158.241 254.308 158.65 255.11 158.955L256.049 154.999C256.819 155.352 258.015 155.545 258.777 155.898C264.218 154.196 270.566 154.036 275.903 156.034C278.126 156.869 280.589 157.013 282.893 156.443C282.764 158.209 282.403 159.966 281.825 161.644C282.852 161.571 283.88 161.483 284.907 161.403C285.324 158.385 285.621 155.216 285.156 154.533C284.931 154.204 284.506 153.899 284 153.627C282.363 152.744 279.811 152.19 279.811 152.19C278.904 150.882 274.282 147.576 272.075 147.552C269.868 147.536 259.548 148.627 259.548 148.627L253.962 147.335L255.142 151.203L250.825 150.665C251.009 153.009 251.411 154.999 251.411 154.999L248.834 155.039L248.843 155.031Z" fill="#424242"/>
<path d="M248.843 155.031C248.891 155.352 248.971 155.689 249.099 156.026C250.199 156.275 251.435 156.195 252.574 156.066C253.28 154.831 253.97 153.603 254.677 152.383C255.487 152.584 256.306 152.8 257.116 153.001C257.678 152.279 258.248 151.556 258.81 150.826C260.182 152.576 262.766 152.519 264.949 152.263C269.033 151.781 273.367 151.179 277.098 152.913C278.174 153.41 279.177 154.092 280.341 154.293C281.584 154.526 282.828 154.156 284 153.635C282.363 152.752 279.811 152.198 279.811 152.198C278.904 150.89 274.282 147.584 272.075 147.56C269.868 147.544 259.548 148.635 259.548 148.635L253.962 147.343L255.142 151.211L250.825 150.674C251.009 153.017 251.411 155.007 251.411 155.007L248.834 155.047L248.843 155.031Z" fill="#595959"/>
<path d="M272.404 174.764C270.422 177.124 267.204 178.4 264.139 178.023C265.679 178.592 267.268 178.721 268.809 178.167C270.35 177.621 271.562 176.169 272.404 174.756V174.764Z" fill="#FC5B68"/>
<path d="M270.984 177.564C270.213 178.76 268.753 179.474 267.333 179.354C268.063 179.651 268.962 179.739 269.668 179.386C270.374 179.033 270.775 178.327 270.984 177.564Z" fill="#FC5B68"/>
<path d="M263.232 174.507C263.352 174.082 263.48 173.665 263.601 173.239C264.604 172.999 265.567 172.381 266.209 171.578C266.353 171.891 266.49 172.204 266.546 172.541C266.602 172.878 266.57 173.239 266.377 173.528C266.209 173.793 265.92 173.97 265.639 174.106C264.845 174.491 264.106 174.571 263.224 174.499L263.232 174.507Z" fill="#FF7D6F"/>
<path d="M266.546 173.456C266.546 173.456 266.449 173.585 266.233 173.785C266.016 173.978 265.671 174.243 265.173 174.459C264.925 174.564 264.644 174.66 264.331 174.724C263.994 174.78 263.769 174.82 263.047 174.756H262.926C262.926 174.756 262.878 174.748 262.87 174.74L262.886 174.692L262.959 174.483C263.007 174.339 263.055 174.203 263.111 174.058C263.143 173.97 263.159 173.93 263.167 173.89L263.199 173.761L263.271 173.504C263.352 173.159 263.44 172.79 263.488 172.413C263.713 170.904 263.552 169.5 263.304 168.513C263.183 168.015 263.047 167.622 262.942 167.357C262.838 167.092 262.774 166.94 262.774 166.94C262.774 166.94 262.87 167.076 263.031 167.317C263.183 167.566 263.4 167.935 263.6 168.425C264.01 169.388 264.347 170.88 264.106 172.509C264.05 172.919 263.954 173.304 263.849 173.673C263.793 173.841 263.729 174.002 263.673 174.162C263.665 174.195 263.601 174.275 263.625 174.283C263.568 174.299 264.01 174.323 264.275 174.299C264.564 174.283 264.828 174.227 265.069 174.162C265.551 174.034 265.928 173.849 266.169 173.705C266.417 173.553 266.546 173.456 266.546 173.456Z" fill="#FC5B68"/>
<path d="M278.776 178.568C278.527 178.801 278.23 179.05 277.893 179.306C276.593 180.285 264.347 185.855 262.429 185.638C260.511 185.421 258.577 178.921 258.465 178.231C259.717 181.08 261.145 185.028 262.485 184.868C264.516 184.635 277.291 179.387 278.776 178.56V178.568Z" fill="#FFBF90"/>
<path d="M258.168 165.239C258.168 165.239 260.07 161.941 261.475 162.984C262.879 164.027 262.325 164.228 262.325 164.228L258.168 165.239Z" fill="#424242"/>
<path d="M274.908 162.59C274.908 162.59 269.861 158.642 268.496 160.656C267.702 161.836 268.52 162.374 268.52 162.374L274.908 162.59Z" fill="#424242"/>
<path d="M258.995 168.818C259.019 169.805 259.533 170.599 260.151 170.583C260.769 170.567 261.25 169.756 261.226 168.761C261.202 167.774 260.688 166.98 260.07 166.996C259.452 167.012 258.971 167.822 258.995 168.818Z" fill="#161818"/>
<path d="M273.801 167.236C273.038 166.33 271.77 165.896 270.615 166.145C269.459 166.394 268.48 167.317 268.167 168.456C269.684 167.244 271.883 166.94 273.801 167.236Z" fill="#161818"/>
<path d="M258.016 167.967C258.016 167.967 258.417 168.488 259.067 168.729C259.717 168.978 260.359 168.849 260.359 168.849C260.359 168.849 259.958 168.328 259.308 168.087C258.658 167.846 258.016 167.967 258.016 167.967Z" fill="white"/>
<path d="M260.215 174.291C260.03 174.812 258.907 174.901 257.703 174.483C256.499 174.066 255.673 173.296 255.857 172.774C256.042 172.252 257.165 172.164 258.369 172.582C259.573 172.999 260.399 173.769 260.215 174.291Z" fill="#FF7D6F"/>
<path d="M275.164 171.53C275.381 172.309 274.113 173.352 272.323 173.857C270.534 174.363 268.905 174.138 268.688 173.36C268.471 172.581 269.739 171.538 271.529 171.033C273.319 170.527 274.948 170.752 275.164 171.53Z" fill="#FF7D6F"/>
<path d="M278.471 177.156C281.015 176.899 282.837 175.35 283.8 174.058C284.016 173.769 284.193 173.489 284.321 173.248C285.02 171.916 285.132 167.333 283.23 166.314C281.898 165.6 280.967 166.699 280.534 167.422C280.349 167.735 280.253 167.975 280.253 167.975L278.479 177.156H278.471Z" fill="#FFBF90"/>
<path d="M278.471 177.156C281.015 176.899 282.837 175.35 283.8 174.058C283.88 173.93 283.952 173.801 284.016 173.681C284.715 172.349 284.827 167.766 282.925 166.747C281.85 166.169 281.031 166.779 280.526 167.413C280.341 167.726 280.245 167.967 280.245 167.967L278.471 177.148V177.156Z" fill="#FFA07F"/>
<path d="M283.896 169.933C284 170.294 283.944 170.68 283.832 171.041C283.35 172.589 281.85 173.793 280.405 174.909C280.83 174.154 280.975 173.312 280.87 172.493C280.83 172.212 280.766 171.923 280.758 171.643C280.718 170.495 283.302 167.774 283.904 169.925L283.896 169.933Z" fill="#FF7D6F"/>
<path d="M279.675 175.366C279.675 175.366 279.707 175.35 279.755 175.318C279.811 175.286 279.892 175.238 279.988 175.173C280.181 175.037 280.445 174.82 280.694 174.507C280.943 174.194 281.168 173.769 281.264 173.28C281.352 172.79 281.32 172.212 281.047 171.675C281.015 171.602 280.975 171.538 280.935 171.474L280.903 171.426C280.903 171.426 280.903 171.426 280.903 171.418L280.927 171.37L280.975 171.281C281.007 171.225 281.039 171.161 281.071 171.105C281.208 170.88 281.352 170.663 281.497 170.463C281.649 170.262 281.802 170.078 281.954 169.909C282.107 169.74 282.259 169.588 282.412 169.468C282.564 169.347 282.725 169.275 282.885 169.251C283.038 169.227 283.19 169.259 283.294 169.307C283.399 169.355 283.455 169.419 283.479 169.468C283.503 169.516 283.503 169.548 283.503 169.548C283.503 169.548 283.503 169.524 283.503 169.468C283.495 169.411 283.447 169.331 283.35 169.259C283.246 169.187 283.094 169.123 282.885 169.123C282.676 169.123 282.46 169.203 282.259 169.315C282.058 169.436 281.882 169.58 281.697 169.74C281.513 169.901 281.328 170.086 281.144 170.286C280.967 170.487 280.791 170.703 280.638 170.944C280.598 171 280.558 171.065 280.526 171.129L280.47 171.225L280.397 171.354L280.349 171.45C280.349 171.45 280.381 171.506 280.405 171.538L280.486 171.666C280.518 171.723 280.558 171.779 280.582 171.843C280.823 172.317 280.887 172.814 280.847 173.263C280.807 173.713 280.662 174.114 280.486 174.435C280.309 174.756 280.1 174.997 279.948 175.157C279.868 175.238 279.803 175.294 279.755 175.334C279.707 175.374 279.691 175.398 279.691 175.398L279.675 175.366Z" fill="#CF4A57"/>
<path d="M285.26 188.519L267.766 196.753L267.966 193.936C275.71 190.862 280.405 184.723 280.405 184.723C281.464 185.221 283.374 187.468 285.26 188.519Z" fill="#F2F4F3"/>
<path d="M268.343 196.897C268.046 196.897 267.789 196.873 267.589 196.841L267.765 196.753L268.343 196.897Z" fill="#FFA07F"/>
<path d="M228.812 237.528L228.852 238.378C228.852 238.378 227.15 239.678 224.326 240.441C222.745 240.866 220.626 240.609 220.626 240.609L220.345 239.999C220.899 239.309 223.652 237.841 223.652 237.841C223.652 237.841 223.154 235.505 222.231 233.018C221.677 231.517 220.434 228.845 219.535 226.959C218.941 225.723 218.5 224.824 218.5 224.824L221.974 223.885C221.974 223.885 222.095 224.784 222.279 226.012C222.56 227.842 222.977 230.41 223.347 231.798C223.66 232.962 224.96 237.391 224.96 237.391C225.722 237.439 228.804 237.52 228.804 237.52L228.812 237.528Z" fill="#DAE2E0"/>
<path d="M221.982 223.893C221.982 223.893 222.103 224.792 222.287 226.02C221.886 226.453 221.42 226.879 221.051 227.031C220.674 227.192 220.088 227.103 219.543 226.959C218.949 225.723 218.507 224.824 218.507 224.824L221.982 223.885V223.893Z" fill="#B9CBC4"/>
<path d="M228.812 237.528L228.852 238.378C228.852 238.378 227.15 239.679 224.326 240.441C222.745 240.866 220.626 240.609 220.626 240.609L220.345 240C220.345 240 224.478 240.248 228.804 237.528H228.812Z" fill="#B9CBC4"/>
<path d="M228.026 237.752C228.026 237.752 226.894 238.29 226.372 238.458L224.976 237.84V237.632L228.026 237.752Z" fill="#F2F4F3"/>
<path d="M222.384 203.662C222.384 203.662 226.902 222.184 221.044 225.554C221.044 225.554 214.784 229.398 207.241 207.322C207.241 207.322 214.126 199.545 222.384 203.662Z" fill="#DAE2E0"/>
<path d="M221.79 204.264C221.79 204.264 225.706 221.036 220.659 223.941C220.659 223.941 214.76 226.509 208.268 207.506C208.268 207.506 214.68 200.724 221.782 204.264H221.79Z" fill="#F2F4F3"/>
<path d="M222.36 204.569C217.152 210.395 207.683 208.036 207.683 208.036C207.683 208.036 214.287 200.38 222.36 204.569Z" fill="#DAE2E0"/>
<path d="M222.384 203.662C216.951 209.585 207.241 207.322 207.241 207.322C207.241 207.322 214.126 199.545 222.384 203.662Z" fill="#F2F4F3"/>
<path d="M209.921 211.936C209.921 211.936 215.178 207.153 222.569 208.413C222.569 208.413 215.475 213.878 209.921 211.936Z" fill="#FFC800"/>
<path d="M222.569 208.413C223.38 213.573 224.086 221.967 220.659 223.941C220.659 223.941 220.579 223.974 220.434 224.006C220.194 224.054 219.752 224.102 219.166 223.974C217.273 223.564 213.798 221.373 209.93 211.936C210.668 212.193 211.438 212.321 212.217 212.345C213.404 212.385 214.6 212.185 215.748 211.864C219.463 210.813 222.577 208.413 222.577 208.413H222.569Z" fill="#FFA000"/>
<path d="M215.426 210.773C215.491 211.046 215.595 211.415 215.731 211.856C216.775 215.122 219.752 222.369 220.426 223.998C220.185 224.046 219.744 224.094 219.158 223.966C216.462 221.47 213.163 214.448 212.208 212.338C212.032 211.952 211.936 211.728 211.936 211.728L215.426 210.765V210.773Z" fill="#FFC800"/>
<path d="M217.834 212.369C217.272 212.61 217.641 213.477 218.203 213.244C218.765 213.003 218.396 212.137 217.834 212.369Z" fill="#FFC800"/>
<path d="M221.518 213.228C220.956 213.469 221.326 214.335 221.887 214.102C222.449 213.862 222.08 212.995 221.518 213.228Z" fill="#FFC800"/>
<path d="M221.269 218.132C220.707 218.372 221.076 219.239 221.638 219.006C222.2 218.766 221.83 217.899 221.269 218.132Z" fill="#FFC800"/>
<path d="M219.864 212.281C219.583 212.402 219.768 212.835 220.049 212.715C220.33 212.594 220.145 212.161 219.864 212.281Z" fill="#FFC800"/>
<path d="M220.795 220.531C220.514 220.651 220.699 221.084 220.98 220.964C221.26 220.844 221.076 220.41 220.795 220.531Z" fill="#FFC800"/>
<path d="M219.768 217.506C219.487 217.626 219.671 218.06 219.952 217.939C220.233 217.819 220.048 217.385 219.768 217.506Z" fill="#FFC800"/>
<path d="M221.333 215.748C221.052 215.868 221.237 216.302 221.518 216.181C221.799 216.061 221.614 215.628 221.333 215.748Z" fill="#FFC800"/>
<path d="M221.694 210.627C221.414 210.748 221.598 211.181 221.879 211.061C222.16 210.94 221.975 210.507 221.694 210.627Z" fill="#FFC800"/>
<path d="M218.886 214.857C218.011 215.226 218.581 216.591 219.464 216.221C220.338 215.852 219.769 214.488 218.886 214.857Z" fill="#FFC800"/>
<path d="M232.48 238.707C231.742 239.221 225.049 240.802 224.696 240.794C224.158 240.794 222.184 239.839 220.571 238.988C219.287 238.322 218.228 237.728 218.228 237.728L213.982 239.437C213.806 239.325 213.629 239.125 213.469 238.828C213.316 238.587 213.172 238.258 213.019 237.905C213.003 237.832 212.971 237.776 212.955 237.712C212.955 237.712 212.955 237.696 212.955 237.688C212.69 236.966 212.442 236.107 212.249 235.297C212.233 235.208 212.209 235.12 212.185 235.032C212.169 234.952 212.137 234.855 212.121 234.775C211.824 233.403 211.623 232.279 211.623 232.279L216.462 228.965L220.467 228.572L219.496 226.076C219.496 226.076 209.898 226.172 210.058 224.792C210.195 223.412 215.355 223.275 218.749 223.211C218.99 223.211 219.247 223.235 219.528 223.291C219.792 223.355 220.073 223.428 220.378 223.524C220.378 223.524 220.394 223.54 220.41 223.548C221.807 224.038 223.412 225.033 224.808 226.052C225.201 226.325 225.595 226.622 225.948 226.886V226.902C226.678 227.472 227.312 227.986 227.785 228.387L230.755 231.541L231.068 231.87L232.055 232.921L232.448 233.33L232.48 237.536L232.496 238.723L232.48 238.707Z" fill="#FFA07F"/>
<path d="M212.939 237.688C212.963 237.76 212.987 237.833 213.011 237.897C213.18 237.8 213.396 237.68 213.653 237.528C214.247 237.191 215.058 236.757 215.94 236.3C216.831 235.85 217.658 235.497 218.308 235.305C218.476 235.256 218.621 235.216 218.757 235.176C218.893 235.152 219.006 235.128 219.11 235.112C219.303 235.072 219.415 235.048 219.415 235.048C219.415 235.048 219.303 235.016 219.094 234.976C218.99 234.952 218.861 234.927 218.717 234.903C218.572 234.895 218.404 234.879 218.211 234.871C217.465 234.847 216.414 235.024 215.435 235.513C214.464 236.011 213.757 236.669 213.316 237.191C213.156 237.383 213.027 237.552 212.923 237.696L212.939 237.688Z" fill="#CF4A57"/>
<path d="M212.112 234.775C212.152 234.944 212.192 235.12 212.232 235.297C212.265 235.281 212.305 235.257 212.337 235.241C212.931 234.904 213.741 234.47 214.624 234.013C215.515 233.563 216.341 233.21 216.999 233.018C217.168 232.97 217.312 232.929 217.441 232.889C217.577 232.865 217.697 232.841 217.794 232.817C217.994 232.777 218.099 232.753 218.099 232.753C218.099 232.753 217.994 232.721 217.786 232.681C217.681 232.657 217.553 232.633 217.409 232.608C217.264 232.592 217.088 232.584 216.903 232.576C216.149 232.552 215.105 232.729 214.126 233.218C213.227 233.684 212.553 234.286 212.104 234.775H212.112Z" fill="#CF4A57"/>
<path d="M232.479 238.708C231.741 239.221 225.048 240.802 224.695 240.794C224.157 240.794 222.183 239.839 220.57 238.989L224.31 240.032C224.31 240.032 230.265 238.387 231.219 238.042C231.308 238.01 231.597 237.897 232.022 237.713C232.15 237.656 232.303 237.592 232.463 237.52L232.479 238.708Z" fill="#FFBF90"/>
<path d="M233.458 228.186C233.458 228.186 231.283 228.186 230.336 229.478C229.397 230.77 229.044 238.073 230.336 239.718C231.628 241.363 236.267 241.532 236.267 241.532V234.069L233.458 228.178V228.186Z" fill="#F2F4F3"/>
<path d="M287.362 200.837C287.362 200.837 282.595 202.25 280.404 207.899C278.214 213.549 273.391 223.677 273.391 223.677C273.391 223.677 240.657 221.855 236.773 223.677C232.889 225.498 232.359 227.97 232.359 227.97C232.359 227.97 232.535 239.598 235.89 241.38C239.244 243.161 266.256 244.044 271.031 242.632C275.806 241.219 284.81 239.63 286.576 236.805C288.341 233.981 298.934 216.671 296.816 212.257C294.697 207.843 287.362 200.837 287.362 200.837Z" fill="#FF8035"/>
<path d="M291.374 219.873C290.042 223.532 286.993 225.779 284.569 224.897C282.146 224.014 281.255 220.33 282.587 216.671C283.919 213.012 286.969 210.765 289.392 211.647C291.816 212.53 292.707 216.214 291.374 219.873Z" fill="#F2F4F3"/>
<path d="M277.387 251.941C278.783 251.002 285.147 248.972 291.511 253.249C291.511 253.249 292.498 254.164 289.689 253.249C286.881 252.334 284.81 251.195 282.868 251.395C280.926 251.596 276.384 252.607 277.387 251.933V251.941Z" fill="#E94E21"/>
<path d="M298.068 209.641C297.683 208.526 295.901 209.015 296.294 210.131C298.926 217.546 294.834 224.576 291.19 230.843C289.328 234.053 287.218 237.159 283.88 238.981C280.75 240.69 277.147 241.091 273.704 241.741C273.182 241.837 273.295 242.704 273.832 242.664C277.5 242.399 281.271 241.853 284.57 240.136C287.98 238.363 290.267 235.321 292.242 232.119C296.382 225.426 300.844 217.682 298.068 209.633V209.641Z" fill="#E94E21"/>
<path d="M289.577 201.616C285.38 200.942 282.885 205.524 280.838 208.485C277.524 213.276 275.028 218.348 272.966 223.781C272.877 224.005 273.247 224.166 273.359 223.949C275.173 220.322 277.259 216.759 279.458 213.348C281.255 210.555 285.292 202.603 289.152 203.164C290.155 203.309 290.605 201.784 289.577 201.616Z" fill="#E94E21"/>
<path d="M291.062 186.577C287.258 185.791 282.17 188.471 278.727 189.964C274.233 191.906 269.691 194.409 266.305 197.989C266.192 198.109 266.329 198.269 266.473 198.205C270.574 196.263 274.394 193.84 278.551 191.986C280.822 190.975 283.125 190.068 285.5 189.306C287.434 188.688 289.521 188.471 291.15 187.227C291.367 187.059 291.399 186.641 291.062 186.569V186.577Z" fill="#E94E21"/>
<path d="M242.584 183.536C239.117 181.129 237.375 186.289 237.375 186.289C237.375 186.289 232.905 183.4 231.646 186.947C230.386 190.494 237.054 193.688 240.513 194.651C240.513 194.651 246.05 185.944 242.584 183.536Z" fill="#D94562"/>
<path d="M251.082 171.956C250.801 168.505 246.62 170.094 246.62 170.094C246.62 170.094 246.114 165.753 243.209 166.804C240.304 167.855 241.765 173.753 242.96 176.45C242.96 176.45 251.371 175.407 251.082 171.956Z" fill="#D94562"/>
<path d="M235.81 161.483C234.317 159.541 232.448 162.085 232.448 162.085C232.448 162.085 230.481 159.694 229.157 161.443C227.833 163.184 230.963 166.122 232.712 167.269C232.712 167.269 237.311 163.425 235.818 161.483H235.81Z" fill="#D94562"/>
<path d="M62.7747 308.702L73.1671 311.679C73.1671 311.679 74.6116 305.837 73.8251 304.938C73.0387 304.039 68.4163 298.952 68.4163 298.952H61.4907L62.7747 308.702Z" fill="#231F20"/>
<path d="M44.293 118.959L44.7745 114.553L56.2663 110.917L58.1441 116.142C58.1441 116.142 47.511 122.433 47.1418 122.674C46.7727 122.915 44.301 118.967 44.301 118.967L44.293 118.959Z" fill="#231F20"/>
<path d="M101.776 119.842L48.4022 113.967C42.881 113.358 38.9247 119.079 39.6229 126.679L55.2957 297.675C55.9938 305.275 60.9613 310.186 66.3381 308.581L118.276 293.125C123.653 291.528 127.545 284.916 126.919 278.44L112.947 132.714C112.329 126.238 107.298 120.444 101.776 119.834V119.842Z" fill="#231F20"/>
<path d="M114.6 116.648L59.3802 110.573C53.6664 109.947 49.5817 115.861 50.2959 123.726L66.5064 300.621C67.2286 308.485 72.3647 313.565 77.926 311.904L131.653 295.918C137.215 294.265 141.235 287.427 140.593 280.727L126.14 129.977C125.498 123.276 120.298 117.282 114.584 116.656L114.6 116.648Z" fill="#404041"/>
<path d="M134.382 274.692L71.2011 290.541L56.2666 128.107L120.844 132.93L134.382 274.692Z" fill="white"/>
<path d="M95.1312 124.994L80.4375 123.71C79.7233 123.646 79.0732 122.835 78.985 121.912C78.8967 120.981 79.4103 120.283 80.1245 120.347L94.8263 121.736C95.5405 121.8 96.1905 122.586 96.2788 123.485C96.3591 124.376 95.8455 125.058 95.1312 124.994Z" fill="#333333"/>
<path d="M72.5332 180.815L98.6465 180.029C102.948 179.901 106.054 175.39 105.548 170.014L103.903 152.608L69.8287 151.612C65.5113 151.484 62.4136 156.187 62.9593 162.053L63.7217 170.375C64.2594 176.241 68.2237 180.944 72.5251 180.807L72.5332 180.815Z" fill="#47BDBC"/>
<path d="M92.7085 152.286L108.213 152.736L102.956 160.809L94.4098 156.62L92.7085 152.286Z" fill="#47BDBC"/>
<path d="M110.853 153.475C111.078 155.882 112.852 157.856 114.818 157.896C116.784 157.937 118.188 156.043 117.955 153.675C117.731 151.308 115.957 149.326 113.991 149.253C112.025 149.181 110.621 151.075 110.853 153.475Z" fill="#47BDBC"/>
<path d="M69.9171 159.012L97.2984 159.397C97.5311 159.397 97.7077 159.156 97.6756 158.859C97.6435 158.562 97.4348 158.313 97.1941 158.305L69.8048 157.856C69.5721 157.856 69.3955 158.105 69.4276 158.426C69.4597 158.747 69.6764 159.004 69.9091 159.012H69.9171Z" fill="white"/>
<path d="M70.3996 164.196L97.7648 164.3C97.9975 164.3 98.174 164.059 98.1419 163.754C98.1098 163.457 97.9012 163.209 97.6604 163.209L70.2872 163.04C70.0545 163.04 69.8779 163.297 69.91 163.618C69.9421 163.939 70.1588 164.196 70.3915 164.196H70.3996Z" fill="white"/>
<path d="M70.8798 169.388L98.229 169.203C98.4617 169.203 98.6382 168.954 98.6061 168.658C98.574 168.361 98.3654 168.112 98.1246 168.112L70.7755 168.232C70.5428 168.232 70.3662 168.497 70.3983 168.81C70.4304 169.131 70.6471 169.388 70.8798 169.388Z" fill="white"/>
<path d="M71.3615 174.572L98.6866 174.098C98.9193 174.098 99.0958 173.849 99.0637 173.545C99.0316 173.248 98.823 173.007 98.5822 173.007L71.2491 173.416C71.0164 173.416 70.8398 173.681 70.8719 174.002C70.904 174.323 71.1207 174.572 71.3534 174.572H71.3615Z" fill="white"/>
<path d="M88.6871 264.797L106.262 261.169C110.515 260.295 113.581 255.175 113.075 249.79L111.43 232.384L86.0229 236.091C81.7536 236.717 78.696 241.95 79.2337 247.72L79.9881 255.897C80.5257 261.667 84.4419 265.671 88.6871 264.797Z" fill="#47BDBC"/>
<path d="M100.364 233.997L115.684 231.766L110.508 240.883L102.05 238.114L100.364 233.997Z" fill="#47BDBC"/>
<path d="M118.299 232.055C118.524 234.463 120.282 236.164 122.224 235.859C124.158 235.554 125.546 233.387 125.321 231.02C125.097 228.653 123.339 226.951 121.397 227.216C119.455 227.481 118.067 229.648 118.299 232.055Z" fill="#47BDBC"/>
<path d="M116.189 217.698L90.2205 220.683C85.9432 221.173 82.0109 216.912 81.4813 211.206L79.772 192.74L113.653 190.879C117.947 190.646 121.871 194.715 122.369 199.931L123.075 207.322C123.572 212.538 120.475 217.209 116.197 217.698H116.189Z" fill="#47BDBC"/>
<path d="M90.8948 192.123L75.4868 192.973L82.284 201.327L90.0201 196.568L90.8948 192.123Z" fill="#47BDBC"/>
<path d="M72.9834 193.832C73.2242 196.456 71.8439 198.695 69.8938 198.824C67.9437 198.952 66.1622 196.898 65.9214 194.234C65.6726 191.569 67.061 189.33 69.011 189.242C70.9611 189.154 72.7427 191.208 72.9834 193.832Z" fill="#47BDBC"/>
<path d="M114.881 197.628L87.6524 199.538C87.4197 199.554 87.203 199.313 87.1709 199.008C87.1388 198.703 87.3073 198.438 87.5481 198.422L114.785 196.576C115.018 196.56 115.234 196.785 115.266 197.074C115.29 197.363 115.122 197.612 114.889 197.628H114.881Z" fill="white"/>
<path d="M115.339 202.387L88.1265 204.586C87.8938 204.602 87.6771 204.369 87.645 204.056C87.6129 203.751 87.7815 203.478 88.0222 203.462L115.235 201.327C115.468 201.311 115.684 201.528 115.708 201.825C115.732 202.114 115.564 202.371 115.331 202.387H115.339Z" fill="white"/>
<path d="M115.788 207.137L88.5997 209.625C88.3669 209.649 88.1503 209.408 88.1182 209.103C88.0861 208.798 88.2546 208.526 88.4954 208.501L115.692 206.078C115.925 206.054 116.141 206.279 116.166 206.567C116.19 206.856 116.021 207.113 115.788 207.137Z" fill="white"/>
<path d="M116.238 211.896L89.065 214.665C88.8323 214.689 88.6156 214.456 88.5835 214.151C88.5514 213.846 88.7199 213.573 88.9607 213.549L116.133 210.837C116.366 210.813 116.583 211.029 116.607 211.318C116.631 211.607 116.462 211.864 116.23 211.888L116.238 211.896Z" fill="white"/>
<path d="M104.401 239.253C100.389 237.127 97.4834 242.52 97.4834 242.52C97.4834 242.52 93.6636 238.162 90.1647 241.516C85.8873 245.77 93.0135 255.937 98.8958 257.655C104.257 253.803 109.328 241.878 104.401 239.253Z" fill="white"/>
<path d="M109.504 291.48C109.889 295.573 107.634 299.625 104.472 300.548C101.31 301.463 98.4295 298.815 98.0362 294.618C97.643 290.429 99.898 286.368 103.068 285.55C106.238 284.731 109.119 287.387 109.504 291.48Z" fill="#333333"/>
<path d="M121.678 141.662L57.1895 138.115L56.2666 128.107L120.844 132.93L121.678 141.662Z" fill="#47BDBC"/>
<path d="M134.382 274.691L71.2017 290.541L69.7974 275.261L133.107 261.362L134.382 274.691Z" fill="#47BDBC"/>
<path d="M83.3831 134.768C83.3029 133.885 83.6158 133.403 84.1134 133.436C84.6029 133.468 85.0122 133.997 85.1005 134.88C85.1807 135.763 84.8597 136.244 84.3782 136.212C83.8887 136.18 83.4714 135.65 83.3912 134.768H83.3831ZM84.7955 134.856C84.7313 134.166 84.4665 133.797 84.1455 133.781C83.8165 133.757 83.6159 134.094 83.6801 134.784C83.7443 135.482 84.0091 135.843 84.3381 135.859C84.6671 135.883 84.8597 135.546 84.7955 134.856Z" fill="white"/>
<path d="M86.9537 134.96C87.042 135.883 86.6809 136.349 86.0951 136.317C85.8944 136.3 85.7018 136.244 85.5574 136.124L85.6457 135.827C85.766 135.923 85.9105 135.971 86.063 135.98C86.4883 136.004 86.729 135.683 86.6648 135.008V134.912C86.5525 135.137 86.3438 135.241 86.079 135.225C85.6617 135.201 85.3327 134.856 85.2845 134.358C85.2364 133.837 85.5253 133.524 85.9426 133.556C86.5043 133.596 86.8735 134.102 86.9537 134.96ZM86.5364 134.423C86.5124 134.142 86.3117 133.893 85.9827 133.869C85.7099 133.853 85.5413 134.045 85.5734 134.366C85.6055 134.679 85.8061 134.904 86.1031 134.92C86.392 134.936 86.5685 134.728 86.5364 134.423Z" fill="white"/>
<path d="M87.195 134.567C87.179 134.415 87.2673 134.31 87.3716 134.318C87.4759 134.318 87.5802 134.439 87.5963 134.591C87.6123 134.744 87.5321 134.848 87.4197 134.84C87.3074 134.84 87.2031 134.712 87.187 134.559L87.195 134.567ZM87.3395 136.124C87.3234 135.971 87.4117 135.867 87.516 135.875C87.6284 135.875 87.7247 135.996 87.7407 136.148C87.7568 136.3 87.6765 136.405 87.5642 136.397C87.4518 136.397 87.3475 136.276 87.3395 136.116V136.124Z" fill="white"/>
<path d="M87.9249 135.065C87.8446 134.19 88.1656 133.717 88.6552 133.749C89.1447 133.781 89.554 134.302 89.6422 135.177C89.7305 136.052 89.4015 136.525 88.9119 136.493C88.4224 136.461 88.0051 135.939 87.9249 135.065ZM89.3373 135.153C89.2731 134.463 89.0082 134.11 88.6873 134.086C88.3582 134.062 88.1576 134.391 88.2218 135.081C88.286 135.771 88.5428 136.132 88.8799 136.148C89.2089 136.172 89.4015 135.835 89.3373 135.153Z" fill="white"/>
<path d="M89.9312 135.194C89.851 134.319 90.172 133.845 90.6615 133.878C91.151 133.91 91.5603 134.431 91.6486 135.298C91.7368 136.165 91.4078 136.646 90.9183 136.614C90.4288 136.582 90.0115 136.06 89.9312 135.186V135.194ZM91.3436 135.282C91.2794 134.6 91.0226 134.239 90.6936 134.215C90.3646 134.19 90.164 134.52 90.2282 135.21C90.2924 135.892 90.5492 136.253 90.8862 136.277C91.2152 136.301 91.4078 135.972 91.3436 135.282Z" fill="white"/>
<path d="M71.0563 134.671L70.655 134.647L70.7192 135.329L70.4303 135.313L70.3661 134.623L69.1945 134.551L69.1704 134.27L70.0772 132.512L70.3982 132.536L69.5315 134.23L70.3421 134.278L70.2859 133.668L70.5668 133.684L70.6229 134.294L71.0242 134.318L71.0563 134.663V134.671Z" fill="white"/>
<path d="M72.8295 134.061L73.1184 134.077L73.2227 135.161C73.0381 135.386 72.7573 135.482 72.4603 135.466C71.8183 135.426 71.2807 134.792 71.2084 133.973C71.1282 133.147 71.5535 132.577 72.2035 132.625C72.5406 132.649 72.8295 132.817 73.0542 133.106L72.8937 133.339C72.7011 133.106 72.4924 132.994 72.2517 132.978C71.7622 132.946 71.4572 133.371 71.5134 133.989C71.5696 134.599 71.9628 135.081 72.4443 135.113C72.6208 135.121 72.7813 135.081 72.9178 134.968L72.8375 134.061H72.8295Z" fill="white"/>
<path d="M107.723 135.972L107.057 135.932L107.209 137.601L107.883 137.641L107.723 135.972Z" fill="white"/>
<path d="M109.078 134.969L108.412 134.929L108.677 137.689L109.343 137.729L109.078 134.969Z" fill="white"/>
<path d="M110.419 133.773L109.752 133.725L110.138 137.785L110.804 137.825L110.419 133.773Z" fill="white"/>
<path d="M118.557 137.497L118.123 137.465L118.027 136.478L118.468 136.51L118.557 137.497Z" fill="white"/>
<path d="M113.147 135.426L113.388 137.986L118.275 138.291L118.035 135.763L113.147 135.434V135.426ZM117.995 137.97L113.589 137.689L113.404 135.715L117.81 136.012L117.995 137.97Z" fill="white"/>
<path d="M115.282 137.85L113.532 137.737L113.34 135.675L116.205 135.867L115.282 137.85Z" fill="white"/>
<path d="M60.1904 133.331C60.2385 133.861 59.9657 134.27 59.5724 134.246C59.1792 134.222 58.8261 133.773 58.778 133.243C58.7298 132.713 59.0027 132.304 59.3959 132.328C59.7891 132.352 60.1422 132.802 60.1904 133.331Z" fill="white"/>
<path d="M62.5419 133.492C62.5901 134.022 62.3172 134.423 61.924 134.399C61.5308 134.375 61.1777 133.925 61.1295 133.396C61.0814 132.866 61.3542 132.465 61.7475 132.489C62.1407 132.513 62.4938 132.962 62.5419 133.492Z" fill="white"/>
<path d="M64.9008 133.644C64.949 134.166 64.6761 134.575 64.2829 134.551C63.8897 134.527 63.5366 134.077 63.4884 133.556C63.4403 133.034 63.7131 132.625 64.1063 132.649C64.4996 132.673 64.8527 133.122 64.9008 133.644Z" fill="white"/>
<path d="M66.659 134.84C66.2096 134.808 65.8003 134.302 65.7442 133.7C65.688 133.098 66.009 132.633 66.4584 132.665C66.9078 132.697 67.3171 133.211 67.3732 133.805C67.4294 134.407 67.1084 134.872 66.659 134.84ZM66.4825 132.946C66.1534 132.922 65.9207 133.267 65.9609 133.708C66.001 134.15 66.3059 134.527 66.6349 134.551C66.964 134.575 67.1967 134.23 67.1566 133.789C67.1165 133.347 66.8115 132.97 66.4825 132.946Z" fill="white"/>
<path d="M136.508 180.51C135.874 182.404 133.763 183.728 133.627 185.71C133.523 187.171 134.542 188.495 134.662 189.947C134.895 192.812 131.709 194.947 131.26 197.788C130.578 202.065 136.211 205.524 135.505 209.801C135.224 211.494 133.948 212.915 132.415 213.798C130.891 214.672 129.125 215.09 127.384 215.435C116.63 217.585 105.331 217.65 94.762 214.809C91.2712 213.87 87.7241 212.522 85.3246 209.914C83.511 207.947 82.564 205.091 83.1097 202.595C83.2943 201.776 83.6314 200.99 84.161 200.292C85.5253 198.486 87.9328 197.371 88.6149 195.244C89.2729 193.181 88.0291 190.975 88.2859 188.832C88.5186 186.89 89.939 185.277 91.4798 183.993C92.1058 183.479 93.1651 183.118 93.4861 182.308C93.8793 181.329 93.0206 179.932 92.836 178.929C92.3305 176.249 92.6354 173.416 93.775 170.928C94.8744 168.513 96.6318 166.555 98.5097 164.717C98.5739 164.003 98.6622 163.296 98.8146 162.59C99.2881 160.327 100.347 158.193 101.816 156.371C107.586 149.196 118.187 147.768 126.661 150.785C130.369 152.11 133.755 154.83 135.2 158.281C135.585 159.204 135.834 160.183 135.914 161.202C136.219 165.142 134.004 169.082 134.871 172.95C135.449 175.51 137.343 178.014 136.508 180.51Z" fill="#3F0727"/>
<path d="M159.195 242.616C152.871 239.502 138.659 236.035 138.659 236.035C138.659 236.035 138.619 212.578 137.56 210.973C136.5 209.368 133.266 206.511 133.266 206.511L123.131 221.382L130.546 241.227L153.112 246.131L159.195 242.616Z" fill="#D94562"/>
<path d="M181.641 329.294L174.17 331.011L172.035 331.5L168.914 320.522L172.485 319.126L179.924 316.213L181.641 329.294Z" fill="#FFA07F"/>
<path d="M174.17 331.011L172.035 331.5L168.914 320.522L172.485 319.126L174.17 331.011Z" fill="#FF7D6F"/>
<path d="M135.16 263.264C135.16 263.264 166.835 262.574 169.162 264.275C171.49 265.968 183.848 319.511 183.848 319.511L165.872 321.79L158.593 286.93L125.53 274.892L118.701 263.24L135.168 263.264H135.16Z" fill="#313044"/>
<path d="M157.181 341.853L149.493 341.709L147.294 341.661L147.021 330.193L150.841 329.703L158.794 328.676L157.181 341.853Z" fill="#FFA07F"/>
<path d="M149.493 341.708L147.294 341.66L147.021 330.192L150.841 329.703L149.493 341.708Z" fill="#FF7D6F"/>
<path d="M159.861 333.298L150.721 333.972L144.549 334.422L141.484 285.999C141.484 285.999 101.816 287.331 97.4426 280.735C94.4894 276.273 95.8537 258.618 95.8537 258.618L98.2291 259.083L124.872 264.331C124.872 264.331 155.664 269.564 160.712 275.221C165.767 280.879 159.853 333.29 159.853 333.29L159.861 333.298Z" fill="#414156"/>
<path d="M151.082 279.724C151.347 281.425 152.358 282.918 153.457 284.25C154.284 285.253 155.367 286.272 156.659 286.184C157.582 286.12 158.401 285.47 158.842 284.651C159.284 283.832 159.388 282.869 159.34 281.947C159.268 280.301 158.738 278.648 157.703 277.372C156.78 276.233 154.653 274.684 153.072 275.23C151.427 275.799 150.849 278.231 151.082 279.732V279.724Z" fill="#5E5E73"/>
<path d="M150.713 333.965L144.541 334.414L141.476 285.991C141.476 285.991 101.808 287.323 97.4348 280.727C94.4816 276.265 95.8459 258.61 95.8459 258.61L98.2213 259.075C98.3657 262.558 99.1441 277.589 101.792 278.279C104.786 279.066 145.617 282.195 145.617 282.195L150.705 333.956L150.713 333.965Z" fill="#313044"/>
<path d="M200.692 336.749C200.54 336.228 200.211 335.642 199.488 335.425C197.378 334.791 189.682 332.961 187.499 331.645C185.806 330.626 184.121 328.162 183.446 327.119L169.836 329.462C169.467 333.05 169.78 339.831 169.844 341.251L200.684 336.749H200.692Z" fill="#424242"/>
<path d="M201.15 339.791L170.309 344.293L169.852 341.251L200.692 336.749L201.15 339.791Z" fill="white"/>
<path d="M185.027 332.881C185.027 332.881 184.995 332.961 184.979 332.993C184.867 333.282 184.835 333.708 185.212 333.812C185.404 333.868 185.613 333.812 185.806 333.748C186.464 333.523 187.05 333.146 187.595 332.721C188.181 332.271 188.807 331.782 189.136 331.099C189.473 330.393 188.791 329.888 188.077 330.145C186.849 330.586 185.541 331.661 185.019 332.873L185.027 332.881Z" fill="white"/>
<path d="M187.588 334.165C187.588 334.165 187.556 334.245 187.54 334.277C187.427 334.566 187.395 334.991 187.772 335.096C187.965 335.152 188.174 335.096 188.366 335.031C189.024 334.807 189.61 334.43 190.156 334.004C190.742 333.555 191.368 333.065 191.697 332.383C192.034 331.677 191.352 331.171 190.637 331.428C189.41 331.87 188.101 332.945 187.58 334.157L187.588 334.165Z" fill="white"/>
<path d="M190.604 334.823C190.604 334.823 190.572 334.903 190.556 334.935C190.444 335.224 190.412 335.65 190.789 335.754C190.982 335.81 191.19 335.754 191.383 335.69C192.041 335.465 192.627 335.088 193.172 334.662C193.758 334.213 194.384 333.723 194.713 333.041C195.05 332.335 194.368 331.83 193.654 332.086C192.426 332.528 191.118 333.603 190.596 334.815L190.604 334.823Z" fill="white"/>
<path d="M174.017 354.677C174.001 354.139 173.833 353.489 173.183 353.096C171.297 351.948 164.323 348.225 162.542 346.403C161.161 344.991 160.15 342.182 159.773 340.994L146.018 339.814C144.758 343.193 143.338 349.83 143.041 351.218L174.017 354.669V354.677Z" fill="#424242"/>
<path d="M173.688 357.726L142.711 354.275L143.04 351.218L174.017 354.677L173.688 357.726Z" fill="white"/>
<path d="M159.845 346.965C159.845 346.965 159.797 347.029 159.773 347.061C159.596 347.31 159.452 347.711 159.797 347.912C159.974 348.016 160.19 348.016 160.391 348C161.089 347.944 161.747 347.727 162.381 347.463C163.063 347.174 163.794 346.861 164.283 346.291C164.789 345.697 164.251 345.031 163.505 345.095C162.205 345.215 160.664 345.922 159.853 346.965H159.845Z" fill="white"/>
<path d="M161.995 348.858C161.995 348.858 161.947 348.923 161.923 348.955C161.746 349.204 161.602 349.605 161.947 349.805C162.124 349.91 162.34 349.91 162.541 349.894C163.239 349.838 163.897 349.621 164.531 349.356C165.213 349.067 165.943 348.754 166.433 348.184C166.939 347.591 166.401 346.924 165.655 346.989C164.354 347.109 162.814 347.815 162.003 348.858H161.995Z" fill="white"/>
<path d="M164.749 350.255C164.749 350.255 164.7 350.319 164.676 350.351C164.5 350.6 164.355 351.001 164.7 351.202C164.877 351.306 165.094 351.306 165.294 351.29C165.992 351.234 166.65 351.017 167.284 350.753C167.967 350.464 168.697 350.151 169.186 349.581C169.692 348.987 169.154 348.321 168.408 348.385C167.108 348.506 165.567 349.212 164.757 350.255H164.749Z" fill="white"/>
<path d="M94.4651 263.849C94.4651 263.849 91.552 274.619 94.112 275.108C96.672 275.598 109.833 274.892 113.894 273.214C117.954 271.537 132.439 266.329 132.969 263.857C133.499 261.386 94.4731 263.857 94.4731 263.857L94.4651 263.849Z" fill="#FDE4D9"/>
<path d="M139.389 263.192C118.002 269.114 93.5823 265.382 93.5181 265.366C93.6063 264.524 101.744 226.068 100.139 219.528C99.4646 216.783 96.2064 203.333 96.2064 203.333C96.2064 203.333 101.439 199.136 103.517 198.109C104.296 197.724 104.986 197.419 105.475 197.25C107.49 196.568 109.295 196.191 109.295 196.191L118.195 196.335C118.195 196.335 118.813 196.255 120.017 196.576C121.373 196.953 123.475 197.844 126.284 199.963C126.91 200.436 127.568 200.974 128.274 201.576C129.077 202.274 133.266 206.503 133.266 206.503C133.266 206.503 130.658 226.646 130.152 228.869C129.831 230.265 139.22 262.405 139.389 263.184V263.192Z" fill="#D94562"/>
<path d="M126.814 200.163C125.979 202.916 123.516 208.349 117.096 208.036C110.9 207.739 105.467 201.857 102.916 198.607C103.726 198.189 104.44 197.86 104.954 197.676C105.155 197.603 105.355 197.539 105.548 197.475C107.393 196.849 108.942 196.496 108.942 196.496H118.275C118.275 196.496 118.925 196.4 120.193 196.721C121.437 197.042 123.275 197.764 125.682 199.369C126.044 199.618 126.421 199.883 126.814 200.163Z" fill="#FFA07F"/>
<path d="M117.304 205.188L108.934 196.496C108.95 195.108 109.062 194.579 109.191 191.136C109.327 187.308 109.464 183.721 109.464 183.721L120.265 187.99C119.062 190.694 118.516 193.768 118.331 196.705C117.954 202.892 117.296 205.188 117.296 205.188H117.304Z" fill="#FFA07F"/>
<path d="M120.273 187.998C119.07 190.702 118.524 193.776 118.339 196.713C117.994 196.857 117.665 196.986 117.352 197.098C116.1 197.531 112.064 193.96 109.191 191.144C109.327 187.316 109.464 183.729 109.464 183.729L120.265 187.998H120.273Z" fill="#FF7D6F"/>
<path d="M131.605 175.157C131.388 176.16 131.107 177.204 130.762 178.303C130.762 178.303 131.244 183.712 130.682 184.924C130.112 186.136 126.469 193.695 122.649 193.23C119.455 192.844 111.655 188.166 108.942 185.381C108.396 184.827 108.059 184.346 107.995 183.993C107.626 181.842 106.342 172.373 106.222 171.586C105.901 169.436 104.994 153.177 124.655 157.703C128.194 158.522 130.987 161.266 131.789 164.805C132.367 167.365 132.56 170.8 131.605 175.157Z" fill="#FFA07F"/>
<path d="M127.095 185.51C127.095 185.51 126.967 185.582 126.742 185.718C126.517 185.855 126.172 186.023 125.723 186.192C124.84 186.537 123.516 186.842 122.039 186.722C120.892 186.633 119.865 186.32 119.094 185.951C118.316 185.59 117.794 185.181 117.513 184.972L117.553 184.9C117.754 185.028 117.858 185.093 117.858 185.093C117.858 185.093 117.746 185.052 117.521 184.972L117.561 184.9C118.187 185.189 119.945 185.903 122.095 186.039C123.468 186.152 124.728 186.039 125.634 185.863C126.084 185.783 126.453 185.694 126.702 185.614C126.951 185.542 127.095 185.51 127.095 185.51Z" fill="#FC5B68"/>
<path d="M123.636 188.029C123.636 188.029 123.443 188.238 123.034 188.463C122.633 188.687 121.983 188.896 121.261 188.832C120.113 188.736 119.367 188.021 119.166 187.765L119.214 187.692C119.294 187.773 119.343 187.813 119.343 187.813C119.343 187.813 119.278 187.797 119.174 187.773L119.222 187.7C119.543 187.813 120.378 188.086 121.325 188.158C121.935 188.214 122.504 188.198 122.938 188.15C123.363 188.102 123.644 188.037 123.644 188.037L123.636 188.029Z" fill="#FC5B68"/>
<path d="M130.762 178.304C130.762 178.304 131.244 183.712 130.682 184.924C130.112 186.136 126.469 193.695 122.649 193.23C119.455 192.845 111.655 188.166 108.942 185.382C112.265 187.685 121.124 193.575 123.724 192.668C126.942 191.545 130.586 184.427 130.514 183.72C130.441 183.014 130.233 178.4 130.233 178.4C130.233 178.4 130.883 176.939 131.613 175.158C131.396 176.161 131.115 177.204 130.77 178.304H130.762Z" fill="#FFBF90"/>
<path d="M133.651 159.734C133.378 169.284 116.823 172.237 116.309 172.325C118.171 171.755 118.725 168.04 118.725 168.04C116.486 173.264 106.671 174.34 106.671 174.34C104.32 172.43 102.691 176.041 102.691 176.041C101.896 174.572 101.238 173.24 100.717 172.004C100.58 171.683 100.452 171.37 100.339 171.057C98.3814 165.857 99.1357 162.302 102.924 156.901C105.114 153.771 108.292 151.813 111.783 150.802C111.791 150.802 111.799 150.802 111.807 150.802C118.949 148.74 127.392 150.626 131.372 154.574C132.094 155.288 132.672 156.075 133.065 156.917C133.138 157.078 133.21 157.246 133.266 157.415C133.539 158.145 133.675 158.924 133.651 159.726V159.734Z" fill="#3F0727"/>
<path d="M125.057 163.746C126.124 161.707 126.253 159.196 125.386 157.061C120.009 162.622 113.268 166.851 105.925 169.275C103.863 169.957 101.712 170.511 99.8826 171.691C98.0529 172.862 96.5602 174.828 96.6244 177.003C96.7127 179.772 99.2326 182.492 98.0368 184.988C97.0417 187.066 93.9762 187.548 93.0934 189.675C92.3792 191.416 93.4786 193.382 93.286 195.252C92.9731 198.39 89.6106 199.77 87.0667 200.733C85.558 201.311 84.274 201.881 83.1104 202.595C83.2949 201.776 83.632 200.99 84.1616 200.292C85.5259 198.486 87.9334 197.371 88.6155 195.244C89.2735 193.181 88.0297 190.975 88.2865 188.832C88.5192 186.89 89.9396 185.277 91.4804 183.993C92.1064 183.479 93.1657 183.118 93.4867 182.308C93.8799 181.329 93.0212 179.932 92.8366 178.929C92.3311 176.249 92.636 173.416 93.7756 170.928C93.9521 170.543 94.1447 170.166 94.3534 169.805C95.4367 167.887 96.9294 166.258 98.5103 164.717C98.5745 164.003 98.6628 163.296 98.8153 162.59C99.2887 160.327 100.348 158.193 101.817 156.371C107.587 149.196 118.188 147.768 126.662 150.785C128.989 151.62 131.196 153 132.865 154.774C133.86 155.817 134.663 156.997 135.201 158.281C132.625 160.937 128.692 162.526 125.057 163.746Z" fill="#55062C"/>
<path d="M132.865 154.774C131.806 155.801 130.498 156.563 129.086 156.965C128.636 155.255 127.737 153.161 125.972 153.169C125.362 153.169 124.8 153.442 124.255 153.707C119.929 155.801 115.612 157.904 111.294 160.006C112.321 158.425 112.939 156.579 113.06 154.702C107.089 156.539 102.274 161.732 100.886 167.831C98.5747 167.847 96.3116 168.569 94.3535 169.805C95.4369 167.887 96.9295 166.258 98.5105 164.717C98.5747 164.003 98.6629 163.296 98.8154 162.59C99.2889 160.327 100.348 158.193 101.817 156.371C107.587 149.196 118.188 147.768 126.662 150.785C128.989 151.62 131.196 153 132.865 154.774Z" fill="#6F0A32"/>
<path d="M108.87 183.72C106.399 183.528 104.609 182.059 103.646 180.839C103.429 180.566 103.253 180.301 103.124 180.061C102.418 178.785 102.218 174.347 104.031 173.32C105.299 172.597 106.23 173.649 106.671 174.339C106.856 174.636 106.96 174.869 106.96 174.869L108.878 183.728L108.87 183.72Z" fill="#FFBF90"/>
<path d="M108.87 183.719C106.398 183.527 104.608 182.058 103.645 180.839C103.565 180.71 103.493 180.598 103.429 180.477C102.722 179.201 102.522 174.764 104.335 173.736C105.363 173.151 106.165 173.728 106.671 174.338C106.855 174.635 106.96 174.868 106.96 174.868L108.878 183.727L108.87 183.719Z" fill="#FFA07F"/>
<path d="M103.461 176.843C103.373 177.196 103.429 177.565 103.542 177.918C104.039 179.403 105.524 180.542 106.944 181.594C106.519 180.871 106.358 180.061 106.447 179.266C106.479 178.993 106.535 178.713 106.543 178.44C106.551 177.324 103.999 174.748 103.461 176.843Z" fill="#FF7D6F"/>
<path d="M107.666 182.019C107.666 182.019 107.642 182.003 107.586 181.971C107.537 181.939 107.449 181.899 107.353 181.835C107.16 181.706 106.895 181.506 106.655 181.201C106.406 180.896 106.181 180.494 106.077 180.021C105.981 179.547 106.005 178.994 106.253 178.456C106.277 178.392 106.318 178.328 106.358 178.263L106.39 178.215L106.366 178.175L106.318 178.087C106.286 178.031 106.253 177.975 106.221 177.918C106.085 177.702 105.94 177.493 105.796 177.308C105.644 177.116 105.491 176.939 105.339 176.787C105.186 176.626 105.034 176.482 104.889 176.37C104.745 176.257 104.584 176.185 104.432 176.169C104.279 176.153 104.135 176.185 104.039 176.233C103.942 176.281 103.886 176.345 103.862 176.394C103.838 176.442 103.838 176.466 103.838 176.466C103.838 176.466 103.838 176.442 103.838 176.386C103.846 176.337 103.886 176.257 103.982 176.185C104.079 176.113 104.231 176.049 104.432 176.041C104.632 176.041 104.849 176.105 105.042 176.217C105.234 176.329 105.411 176.466 105.595 176.61C105.78 176.763 105.965 176.931 106.141 177.124C106.318 177.317 106.494 177.525 106.647 177.75C106.687 177.806 106.727 177.862 106.759 177.926L106.815 178.015L106.887 178.143L106.936 178.231C106.936 178.231 106.903 178.288 106.887 178.32L106.815 178.448C106.783 178.504 106.751 178.56 106.727 178.617C106.502 179.082 106.454 179.564 106.494 179.997C106.542 180.43 106.695 180.815 106.871 181.128C107.048 181.433 107.257 181.666 107.409 181.81C107.481 181.883 107.553 181.939 107.594 181.979C107.634 182.019 107.658 182.035 107.658 182.035L107.666 182.019Z" fill="#CF4A57"/>
<path d="M133.387 171.265C133.387 171.265 130.875 167.903 129.479 169.235C128.083 170.567 128.709 170.704 128.709 170.704L133.387 171.265Z" fill="#55062C"/>
<path d="M113.525 171.779C113.525 171.779 118.155 166.442 120.049 168.344C121.157 169.451 120.386 170.206 120.386 170.206L113.525 171.787V171.779Z" fill="#55062C"/>
<path d="M119.729 172.325C119.504 172.894 118.758 173.344 118.236 173.601C117.971 173.296 117.642 173.111 117.289 173.111C116.39 173.111 115.66 174.283 115.66 175.735C115.66 177.188 116.39 178.36 117.289 178.36C118.188 178.36 118.918 177.188 118.918 175.735C118.918 175.286 118.846 174.869 118.726 174.499C119.416 173.898 119.721 172.333 119.721 172.333L119.729 172.325Z" fill="#161818"/>
<path d="M114.095 174.274C114.095 174.274 114.673 175.173 115.668 175.575C116.663 175.976 117.698 175.727 117.698 175.727C117.698 175.727 117.12 174.828 116.125 174.427C115.13 174.026 114.095 174.274 114.095 174.274Z" fill="#FFF0E7"/>
<path d="M130.771 173.721C130.618 174.114 130.113 174.419 129.751 174.603C129.567 174.419 129.35 174.315 129.117 174.315C128.435 174.315 127.89 175.197 127.89 176.289C127.89 177.38 128.443 178.263 129.117 178.263C129.792 178.263 130.345 177.38 130.345 176.289C130.345 175.879 130.265 175.494 130.129 175.173C130.57 174.724 130.771 173.721 130.771 173.721Z" fill="#161818"/>
<path d="M131.397 175.334C131.397 175.334 130.964 175.92 130.257 176.201C129.551 176.49 128.837 176.369 128.837 176.369C128.837 176.369 129.27 175.783 129.976 175.502C130.683 175.214 131.397 175.334 131.397 175.334Z" fill="#FFF0E7"/>
<path d="M123.548 181.778C123.147 181.633 122.746 181.409 122.32 181.457C122.746 182.428 123.564 183.214 124.551 183.608C124.623 183.64 124.704 183.664 124.792 183.664C124.888 183.664 124.985 183.608 125.073 183.559C125.619 183.238 126.1 182.813 126.477 182.307C126.558 182.203 126.63 182.099 126.662 181.97C126.758 181.561 126.477 181.649 126.228 181.746C125.948 181.858 125.643 181.93 125.338 181.97C124.736 182.051 124.118 181.986 123.556 181.778H123.548Z" fill="#FF7D6F"/>
<path d="M124.631 183.367C124.88 183.143 125.169 182.95 125.426 182.733C125.747 182.461 126.044 182.164 126.3 181.843C124.96 180.92 124.976 179.515 125.041 177.926C125.073 177.212 125.273 176.506 125.618 175.88C125.803 175.551 126.028 175.246 126.284 174.973C126.413 174.837 126.557 174.7 126.702 174.58C126.846 174.46 126.991 174.395 127.167 174.323C127.087 174.42 127.031 174.524 126.95 174.628C126.758 174.885 126.549 175.118 126.381 175.391C126.212 175.663 126.068 175.952 125.947 176.249C125.707 176.843 125.57 177.485 125.546 178.127C125.522 178.761 125.618 179.395 125.851 179.989C126.116 180.663 126.581 181.329 127.191 181.722C127.191 181.722 126.276 182.79 126.188 182.878C125.955 183.103 125.699 183.303 125.426 183.48C125.161 183.648 124.848 183.849 124.519 183.841C124.415 183.841 124.31 183.817 124.23 183.753C124.286 183.712 124.342 183.672 124.39 183.624C124.415 183.6 124.431 183.584 124.455 183.56C124.511 183.496 124.575 183.44 124.639 183.383L124.631 183.367Z" fill="#FC5B68"/>
<path d="M128.604 182.339C128.82 182.917 130.056 182.981 131.372 182.484C132.688 181.994 133.579 181.127 133.363 180.55C133.146 179.972 131.91 179.908 130.594 180.405C129.278 180.895 128.387 181.761 128.604 182.331V182.339Z" fill="#FF7D6F"/>
<path d="M112.064 179.66C111.84 180.526 113.268 181.642 115.25 182.155C117.232 182.669 119.022 182.38 119.247 181.522C119.471 180.655 118.043 179.539 116.061 179.026C114.079 178.512 112.289 178.801 112.064 179.66Z" fill="#FF7D6F"/>
<path d="M108.934 195.557C108.934 195.557 104.151 195.75 102.907 198.607C101.663 201.464 114.086 214.303 114.086 214.303L118.299 208.052L124.487 213.1C124.487 213.1 126.934 201.544 126.806 200.163C126.677 198.783 121.967 196.328 118.267 196.496L117.826 204.24L108.934 195.565V195.557Z" fill="#FDE4D9"/>
<path d="M101.207 165.11C100.155 165.904 98.9035 166.442 97.6034 166.659C96.8651 166.779 96.0385 166.771 95.4688 166.282C95.0033 165.88 94.8268 165.238 94.7626 164.628C94.6342 163.312 94.9471 161.964 95.6453 160.841C96.0626 160.175 96.7207 159.541 97.5071 159.597C98.1812 159.637 98.7109 160.175 99.1603 160.688C99.8905 161.539 100.573 162.43 101.199 163.352C102.017 163.232 102.804 162.751 103.526 162.341C104.248 161.932 105.179 161.667 105.885 162.101C106.407 162.414 106.664 163.031 106.784 163.625C107.017 164.797 106.832 166.049 106.262 167.108C106.07 167.469 105.797 167.83 105.404 167.919C105.002 168.015 104.601 167.798 104.248 167.582C103.117 166.867 102.073 166.129 101.215 165.11H101.207Z" fill="#FFB15F"/>
<path d="M142.327 234.856L142.287 235.707C142.287 235.707 143.988 237.007 146.813 237.769C148.394 238.194 150.512 237.937 150.512 237.937L150.793 237.328C150.239 236.637 147.487 235.169 147.487 235.169C147.487 235.169 147.984 232.834 148.907 230.346C149.461 228.845 150.705 226.173 151.604 224.287C152.197 223.051 152.639 222.152 152.639 222.152L149.164 221.213C149.164 221.213 149.044 222.112 148.859 223.34C148.578 225.17 148.161 227.738 147.792 229.126C147.479 230.29 146.179 234.719 146.179 234.719C145.424 234.768 142.335 234.848 142.335 234.848L142.327 234.856Z" fill="#DAE2E0"/>
<path d="M149.156 221.221C149.156 221.221 149.036 222.12 148.851 223.348C149.252 223.781 149.718 224.207 150.087 224.359C150.464 224.52 151.05 224.431 151.596 224.287C152.189 223.051 152.631 222.152 152.631 222.152L149.156 221.213V221.221Z" fill="#B9CBC4"/>
<path d="M142.327 234.855L142.287 235.706C142.287 235.706 143.988 237.006 146.813 237.769C148.394 238.194 150.512 237.937 150.512 237.937L150.793 237.327C150.793 237.327 146.66 237.576 142.335 234.855H142.327Z" fill="#B9CBC4"/>
<path d="M143.105 235.08C143.105 235.08 144.237 235.618 144.758 235.786L146.154 235.168V234.959L143.105 235.08Z" fill="#F2F4F3"/>
<path d="M148.746 200.99C148.746 200.99 144.228 219.512 150.086 222.882C150.086 222.882 156.346 226.726 163.889 204.649C163.889 204.649 157.004 196.873 148.746 200.99Z" fill="#DAE2E0"/>
<path d="M149.349 201.592C149.349 201.592 145.432 218.364 150.48 221.269C150.48 221.269 156.378 223.837 162.871 204.834C162.871 204.834 156.459 198.053 149.357 201.592H149.349Z" fill="#F2F4F3"/>
<path d="M148.77 201.897C153.978 207.723 163.448 205.364 163.448 205.364C163.448 205.364 156.843 197.708 148.77 201.897Z" fill="#DAE2E0"/>
<path d="M148.746 200.99C154.179 206.912 163.889 204.649 163.889 204.649C163.889 204.649 157.004 196.873 148.746 200.99Z" fill="#F2F4F3"/>
<path d="M161.217 209.264C161.217 209.264 155.961 204.481 148.57 205.741C148.57 205.741 155.672 211.206 161.217 209.264Z" fill="#FFC800"/>
<path d="M148.562 205.741C147.751 210.901 147.045 219.295 150.472 221.269C150.472 221.269 150.552 221.301 150.696 221.333C150.937 221.381 151.378 221.43 151.964 221.301C153.858 220.892 157.333 218.701 161.201 209.264C160.463 209.52 159.692 209.649 158.914 209.673C157.726 209.713 156.531 209.512 155.383 209.191C151.667 208.14 148.554 205.741 148.554 205.741H148.562Z" fill="#FFA000"/>
<path d="M155.704 208.1C155.639 208.373 155.535 208.742 155.399 209.183C154.355 212.449 151.378 219.696 150.704 221.325C150.945 221.373 151.386 221.421 151.972 221.293C154.668 218.797 157.967 211.775 158.922 209.665C159.098 209.279 159.195 209.055 159.195 209.055L155.704 208.092V208.1Z" fill="#FFC800"/>
<path d="M153.296 209.697C153.858 209.937 153.489 210.804 152.927 210.571C152.366 210.33 152.735 209.464 153.296 209.697Z" fill="#FFC800"/>
<path d="M149.621 210.555C150.182 210.796 149.813 211.663 149.252 211.43C148.69 211.189 149.059 210.323 149.621 210.555Z" fill="#FFC800"/>
<path d="M149.87 215.459C150.431 215.699 150.062 216.566 149.501 216.333C148.939 216.093 149.308 215.226 149.87 215.459Z" fill="#FFC800"/>
<path d="M151.266 209.608C151.547 209.729 151.362 210.162 151.082 210.042C150.801 209.921 150.985 209.488 151.266 209.608Z" fill="#FFC800"/>
<path d="M150.343 217.858C150.624 217.979 150.44 218.412 150.159 218.292C149.878 218.171 150.062 217.738 150.343 217.858Z" fill="#FFC800"/>
<path d="M151.37 214.832C151.651 214.953 151.466 215.386 151.186 215.266C150.905 215.145 151.089 214.712 151.37 214.832Z" fill="#FFC800"/>
<path d="M149.798 213.076C150.079 213.196 149.894 213.629 149.613 213.509C149.332 213.389 149.517 212.955 149.798 213.076Z" fill="#FFC800"/>
<path d="M149.445 207.955C149.726 208.075 149.541 208.509 149.26 208.388C148.979 208.268 149.164 207.835 149.445 207.955Z" fill="#FFC800"/>
<path d="M152.246 212.184C153.121 212.553 152.551 213.918 151.668 213.549C150.793 213.179 151.363 211.815 152.246 212.184Z" fill="#FFC800"/>
<path d="M138.659 236.034C139.397 236.548 146.09 238.129 146.443 238.121C146.981 238.121 148.955 237.166 150.568 236.315C151.852 235.649 152.911 235.055 152.911 235.055L157.157 236.765C157.333 236.652 157.51 236.452 157.67 236.155C157.823 235.914 157.967 235.585 158.12 235.232C158.136 235.16 158.168 235.103 158.184 235.039C158.184 235.039 158.184 235.023 158.184 235.015C158.449 234.293 158.698 233.434 158.89 232.624C158.906 232.535 158.93 232.447 158.954 232.359C158.97 232.279 159.002 232.19 159.019 232.102C159.315 230.73 159.516 229.606 159.516 229.606L154.677 226.292L150.673 225.899L151.644 223.403C151.644 223.403 161.241 223.499 161.081 222.119C160.945 220.739 155.784 220.602 152.39 220.538C152.149 220.538 151.892 220.562 151.611 220.618C151.347 220.683 151.066 220.755 150.761 220.851C150.761 220.851 150.745 220.867 150.729 220.875C149.332 221.365 147.727 222.36 146.331 223.379C145.938 223.652 145.545 223.949 145.191 224.214V224.23C144.461 224.799 143.827 225.313 143.354 225.714L140.384 228.868L140.072 229.197L139.084 230.248L138.691 230.658L138.659 234.863L138.643 236.05L138.659 236.034Z" fill="#FFA07F"/>
<path d="M158.192 235.016C158.168 235.088 158.144 235.16 158.12 235.224C157.952 235.128 157.735 235.008 157.478 234.855C156.884 234.518 156.074 234.085 155.191 233.627C154.3 233.178 153.474 232.825 152.824 232.632C152.655 232.584 152.511 232.544 152.374 232.504C152.238 232.48 152.126 232.456 152.021 232.44C151.829 232.4 151.716 232.375 151.716 232.375C151.716 232.375 151.829 232.343 152.037 232.303C152.142 232.279 152.27 232.255 152.414 232.231C152.559 232.223 152.727 232.207 152.92 232.199C153.666 232.175 154.718 232.351 155.697 232.841C156.668 233.338 157.374 233.997 157.815 234.518C157.976 234.711 158.104 234.879 158.209 235.024L158.192 235.016Z" fill="#CF4A57"/>
<path d="M159.019 232.103C158.979 232.272 158.939 232.448 158.899 232.625C158.866 232.609 158.826 232.585 158.794 232.569C158.2 232.232 157.39 231.798 156.507 231.341C155.616 230.892 154.79 230.538 154.132 230.346C153.963 230.298 153.819 230.258 153.69 230.217C153.554 230.193 153.433 230.169 153.337 230.145C153.137 230.105 153.032 230.081 153.032 230.081C153.032 230.081 153.137 230.049 153.345 230.009C153.45 229.985 153.578 229.961 153.722 229.937C153.867 229.921 154.043 229.913 154.228 229.904C154.982 229.88 156.026 230.057 157.005 230.555C157.903 231.02 158.577 231.614 159.027 232.111L159.019 232.103Z" fill="#CF4A57"/>
<path d="M138.659 236.035C139.397 236.548 146.09 238.129 146.443 238.121C146.981 238.121 148.955 237.166 150.568 236.316L146.829 237.359C146.829 237.359 140.874 235.714 139.919 235.369C139.831 235.337 139.542 235.224 139.117 235.04C138.988 234.984 138.836 234.919 138.675 234.847L138.659 236.035Z" fill="#FFBF90"/>
<path d="M141.853 238.121C139.55 240.007 99.1763 251.186 96.199 251.547C95.8299 251.587 95.4045 251.547 94.9311 251.459C91.6248 250.72 86.2882 246.555 85.0523 242.952C84.8356 242.318 84.8035 241.114 84.9159 239.517C85.5097 230.73 90.3167 210.09 91.5205 208.1C92.9328 205.748 96.199 203.341 96.199 203.341C96.199 203.341 100.95 218.235 101.415 220.466C101.889 222.705 100.364 231.372 100.364 231.372L139.109 225.658L141.853 238.129V238.121Z" fill="#D94562"/>
<path d="M142.182 238.218C141.355 234.221 140.456 230.233 139.694 226.228C139.63 225.867 139.213 225.57 138.852 225.587C136.332 225.699 133.772 225.899 131.188 226.196C132.528 220.707 133.17 215.186 132.696 209.52C132.672 209.207 132.215 209.199 132.199 209.52C131.918 215.226 131.268 220.836 129.823 226.365C120.378 227.569 110.756 230.064 102.298 234.053C104.914 225.948 103.116 216.494 98.0525 209.745C97.8759 209.512 97.5148 209.705 97.6512 209.978C101.856 218.035 102.579 226.14 100.548 234.912C100.171 235.104 99.7859 235.289 99.4087 235.489C98.8871 235.77 99.2402 236.653 99.818 236.46C107.715 233.82 115.354 231.035 123.556 229.39C127.633 228.572 132.078 227.553 136.243 227.577C139.004 227.593 138.675 229.599 139.205 232.006C139.646 233.997 140.095 235.979 140.545 237.961C127.56 243.249 114.175 247.182 100.444 250.007C99.497 250.199 99.9062 251.612 100.837 251.443C114.849 248.867 128.499 244.662 141.644 239.173C142.045 239.004 142.278 238.675 142.182 238.226V238.218Z" fill="#AA2B48"/>
<path d="M147.631 174.363C151.098 171.955 152.839 177.115 152.839 177.115C152.839 177.115 157.309 174.226 158.569 177.773C159.829 181.32 153.16 184.514 149.701 185.477C149.701 185.477 144.164 176.77 147.631 174.363Z" fill="#D94562"/>
<path d="M152.615 165.488C152.896 162.037 157.077 163.626 157.077 163.626C157.077 163.626 157.582 159.284 160.487 160.336C163.392 161.387 161.932 167.285 160.736 169.982C160.736 169.982 152.326 168.938 152.615 165.488Z" fill="#D94562"/>
<path d="M140.666 157.101C142.158 155.159 144.028 157.703 144.028 157.703C144.028 157.703 145.994 155.312 147.318 157.061C148.642 158.803 145.513 161.74 143.763 162.887C143.763 162.887 139.165 159.043 140.657 157.101H140.666Z" fill="#D94562"/>
<path d="M132.616 253.618L260.133 253.618V242.792L132.616 242.792V253.618Z" fill="#603813"/>
<path d="M139.872 253.618L145.056 361.321H151.644L155.416 264.451H237.335L241.099 361.321H247.695L252.879 253.618H139.872Z" fill="#8A5D3B"/>
<path d="M196.246 0.750488H195.444V52.8648H196.246V0.750488Z" fill="#58595B"/>
<path d="M195.845 88.2229C192.9 88.2229 190.5 85.8154 190.5 82.8783V75.7441C190.5 72.7989 192.908 70.3994 195.845 70.3994C198.79 70.3994 201.19 72.8069 201.19 75.7441V82.8783C201.19 85.8234 198.782 88.2229 195.845 88.2229Z" fill="#F8F080"/>
<path d="M232.287 84.363H159.412L164.203 78.7295L183.198 56.436H208.5L232.287 84.363Z" fill="#553328"/>
<path d="M232.287 84.363H159.404L164.203 78.7375C206.447 81.4258 208.501 56.436 208.501 56.436L232.287 84.363Z" fill="#633C32"/>
<path d="M201.391 49.3018H190.292L188.511 56.436H203.172L201.391 49.3018Z" fill="#472921"/>
</svg>
