<svg width="233" height="200" viewBox="0 0 233 200" fill="none" xmlns="http://www.w3.org/2000/svg">
<path d="M27.6303 106.594C27.6377 106.585 27.6418 106.574 27.6418 106.562C27.6418 106.551 27.6377 106.54 27.6303 106.531C27.6194 106.528 27.6076 106.528 27.597 106.533C27.5864 106.537 27.5777 106.545 27.5725 106.555C26.225 109.761 25.1607 113.077 24.3916 116.467C23.6052 119.856 23.0108 123.286 22.611 126.741L22.3656 129.339C22.3271 129.774 22.279 130.205 22.2453 130.64L22.1779 131.941C22.1394 132.812 22.0865 133.677 22.0576 134.548L22.0817 137.155L22.1106 138.461C22.1346 138.896 22.1635 139.331 22.1924 139.762C22.2597 140.632 22.3127 141.498 22.3945 142.364C22.5581 144.091 22.8228 145.813 23.0923 147.525C23.0922 147.531 23.0934 147.536 23.0956 147.541C23.0978 147.546 23.1011 147.551 23.1052 147.554C23.1093 147.558 23.1141 147.561 23.1194 147.562C23.1246 147.564 23.1301 147.564 23.1356 147.564C23.1476 147.564 23.1591 147.559 23.168 147.551C23.1769 147.543 23.1825 147.532 23.1837 147.521C23.1837 146.65 23.1404 145.784 23.1211 144.923C23.1019 144.062 23.0201 143.196 23.0345 142.331C23.049 141.465 23.0345 140.604 23.0056 139.743L22.9816 138.446V137.155V134.567L23.0538 131.984L23.0778 130.693C23.0778 130.262 23.126 129.831 23.15 129.401L23.3088 126.818C23.6073 123.378 24.0989 119.957 24.7814 116.572C25.4395 113.17 26.3927 109.832 27.6303 106.594Z" fill="#263238"/>
<path d="M28.0154 120.116C28.0177 120.105 28.0161 120.093 28.0108 120.083C28.0056 120.072 27.9971 120.064 27.9866 120.059C27.9809 120.057 27.9748 120.056 27.9687 120.056C27.9627 120.056 27.9567 120.058 27.9512 120.06C27.9458 120.063 27.941 120.067 27.9371 120.072C27.9333 120.076 27.9304 120.082 27.9288 120.088C26.4406 124.399 25.4524 128.866 24.9837 133.4C24.7527 135.663 24.5024 137.93 24.464 140.202C24.4087 142.479 24.4907 144.756 24.7094 147.023C24.7102 147.034 24.7144 147.043 24.7214 147.051C24.7283 147.059 24.7376 147.064 24.7479 147.066C24.7542 147.067 24.7606 147.066 24.7667 147.064C24.7728 147.063 24.7785 147.06 24.7834 147.056C24.7883 147.052 24.7924 147.047 24.7954 147.041C24.7984 147.036 24.8002 147.029 24.8008 147.023C25.0655 144.761 25.2243 142.498 25.3831 140.24C25.5419 137.982 25.566 135.72 25.7152 133.462C25.8538 131.209 26.1205 128.965 26.514 126.741C26.8916 124.507 27.3928 122.296 28.0154 120.116Z" fill="#263238"/>
<path d="M35.5467 124.871C35.5377 124.862 35.5256 124.857 35.513 124.857C35.5004 124.857 35.4883 124.862 35.4793 124.871C33.5887 126.069 31.8847 127.535 30.4216 129.224C29.6874 130.076 29.0274 130.988 28.4485 131.951L28.0443 132.711L27.7267 133.5C27.6201 133.762 27.5269 134.028 27.4476 134.299C27.3658 134.567 27.2791 134.84 27.2021 135.108C26.6271 137.27 26.2787 139.485 26.1627 141.718C26.0485 143.941 26.1323 146.169 26.4129 148.377C26.4138 148.387 26.418 148.397 26.4249 148.405C26.4319 148.413 26.4412 148.418 26.4514 148.42C26.4639 148.42 26.4761 148.416 26.4858 148.408C26.4955 148.4 26.5021 148.389 26.5044 148.377L27.077 141.785C27.2358 139.605 27.517 137.434 27.9192 135.285C27.9769 135.022 28.0539 134.758 28.1213 134.5C28.183 134.236 28.2601 133.976 28.3523 133.72L28.641 132.96L28.9875 132.242C29.5104 131.283 30.1158 130.371 30.797 129.516C32.1397 127.766 33.7335 126.222 35.5275 124.933C35.5372 124.927 35.5444 124.917 35.5479 124.906C35.5514 124.894 35.551 124.882 35.5467 124.871Z" fill="#263238"/>
<path d="M31.8942 133.338C30.9153 134.05 30.1285 134.991 29.6036 136.079C29.0499 137.143 28.6189 138.266 28.3187 139.427C28.2286 139.713 28.1531 140.004 28.0925 140.298L27.8856 141.173C27.7757 141.761 27.7018 142.355 27.6642 142.952C27.6642 143.55 27.6353 144.148 27.6642 144.741C27.7066 145.339 27.7853 145.933 27.9 146.521C27.9023 146.53 27.9071 146.539 27.9139 146.545C27.9207 146.552 27.9292 146.557 27.9385 146.559C27.9445 146.561 27.9508 146.561 27.9569 146.559C27.963 146.558 27.9687 146.556 27.9738 146.552C27.9788 146.548 27.983 146.544 27.986 146.538C27.9891 146.533 27.9909 146.527 27.9914 146.521C28.1299 145.944 28.2359 145.359 28.3091 144.77C28.4005 144.191 28.4919 143.613 28.5641 143.039C28.6363 142.464 28.7229 141.89 28.771 141.312C28.8192 140.733 28.8913 140.154 29.0213 139.59C29.2157 138.449 29.5385 137.334 29.9837 136.265C30.3863 135.17 31.0463 134.186 31.9087 133.395C31.9128 133.392 31.9161 133.387 31.9183 133.382C31.9205 133.377 31.9217 133.372 31.9217 133.366C31.9217 133.361 31.9205 133.356 31.9183 133.351C31.9161 133.346 31.9128 133.341 31.9087 133.338C31.9039 133.337 31.899 133.337 31.8942 133.338Z" fill="#263238"/>
<path d="M21.3217 139.939C21.0715 137.016 20.5854 134.117 20.1283 131.224C19.6711 128.33 19.1658 125.44 18.6268 122.556C18.0878 119.672 17.5007 116.816 16.8751 113.946C16.872 113.936 16.8658 113.928 16.8576 113.922C16.8494 113.916 16.8395 113.913 16.8294 113.913C16.8193 113.913 16.8094 113.916 16.8012 113.922C16.793 113.928 16.7869 113.936 16.7837 113.946C17.289 116.816 17.7462 119.724 18.1745 122.618C18.6028 125.512 19.031 128.411 19.4016 131.31C19.7721 134.208 20.0416 137.126 20.4074 140.02L21.4853 148.745C21.4853 148.757 21.4899 148.768 21.498 148.776C21.5061 148.784 21.5172 148.788 21.5286 148.788C21.5403 148.787 21.5514 148.783 21.5601 148.775C21.5688 148.767 21.5747 148.757 21.5768 148.745C21.6105 148.009 21.6105 147.277 21.6297 146.54C21.649 145.803 21.596 145.072 21.5864 144.34C21.5575 142.866 21.4324 141.407 21.3217 139.939Z" fill="#263238"/>
<path d="M19.5553 139.901C19.3965 138.738 19.1848 137.585 18.9586 136.437L18.5496 134.73C18.41 134.16 18.2849 133.591 18.1164 133.027C17.5297 130.757 16.777 128.533 15.8643 126.373L15.5033 125.569L15.1087 124.78C14.8633 124.249 14.5601 123.747 14.2714 123.235C13.6965 122.208 12.9824 121.265 12.1492 120.432C12.1451 120.428 12.1403 120.424 12.1349 120.422C12.1295 120.42 12.1237 120.419 12.1179 120.419C12.112 120.419 12.1062 120.42 12.1009 120.422C12.0955 120.424 12.0906 120.428 12.0866 120.432C12.0824 120.436 12.079 120.441 12.0767 120.446C12.0744 120.452 12.0732 120.457 12.0732 120.463C12.0732 120.469 12.0744 120.475 12.0767 120.48C12.079 120.485 12.0824 120.49 12.0866 120.494C12.8566 121.359 13.5042 122.325 14.0115 123.364C14.2714 123.881 14.5409 124.393 14.7574 124.933L15.1039 125.727L15.4119 126.54C16.2261 128.71 16.8807 130.935 17.3705 133.199C17.64 134.323 17.8181 135.471 18.0394 136.605L18.3137 138.322C18.4148 138.891 18.5351 139.456 18.6169 140.03C18.7998 141.173 19.0115 142.316 19.2137 143.459C19.4158 144.603 19.6034 145.755 19.8441 146.899C19.8463 146.91 19.8524 146.92 19.8612 146.927C19.8699 146.934 19.8809 146.937 19.8922 146.937C19.9037 146.937 19.9147 146.932 19.9228 146.924C19.9309 146.916 19.9355 146.905 19.9355 146.894C19.9355 145.724 19.9082 144.555 19.8537 143.388C19.8344 142.225 19.6756 141.063 19.5553 139.901Z" fill="#263238"/>
<path d="M17.1208 140.049C16.5722 138.514 15.9418 137.012 15.2537 135.538C14.5602 134.067 13.7775 132.639 12.9101 131.262C12.901 131.255 12.89 131.252 12.8788 131.252C12.8675 131.252 12.8566 131.255 12.8475 131.262C12.84 131.271 12.8359 131.282 12.8359 131.293C12.8359 131.304 12.84 131.315 12.8475 131.324C13.6026 132.753 14.2711 134.226 14.8494 135.734C15.4461 137.227 15.9851 138.748 16.4327 140.288C16.8802 141.828 17.2267 143.402 17.6358 144.952C18.0448 146.502 18.4202 148.061 18.9014 149.625C18.9043 149.635 18.91 149.643 18.9178 149.649C18.9255 149.655 18.9349 149.658 18.9447 149.659C18.9567 149.659 18.9682 149.655 18.9771 149.647C18.986 149.639 18.9916 149.628 18.9928 149.616C19.0117 147.981 18.8585 146.349 18.5357 144.746C18.1905 143.146 17.7174 141.575 17.1208 140.049Z" fill="#263238"/>
<path d="M17.0196 145.162C16.7189 144.204 16.2813 143.294 15.7202 142.46C15.1993 141.604 14.5648 140.822 13.8338 140.135C13.455 139.799 13.0476 139.497 12.6163 139.231C12.1959 138.96 11.7368 138.753 11.2544 138.619C11.2436 138.617 11.2325 138.619 11.2228 138.624C11.2132 138.629 11.2057 138.637 11.2015 138.647C11.1944 138.655 11.1904 138.665 11.1904 138.676C11.1904 138.687 11.1944 138.697 11.2015 138.705C12.0711 139.117 12.8409 139.711 13.4584 140.446C14.0881 141.161 14.6175 141.957 15.0321 142.814C15.4796 143.656 15.7106 144.584 16.1004 145.449C16.2688 145.894 16.4421 146.339 16.6394 146.784C16.8073 147.246 17.005 147.696 17.2313 148.133C17.2352 148.14 17.2408 148.146 17.2475 148.15C17.2543 148.154 17.2619 148.156 17.2698 148.157C17.2823 148.157 17.2945 148.153 17.3042 148.145C17.3139 148.137 17.3205 148.126 17.3227 148.114C17.3372 147.614 17.3179 147.114 17.265 146.617C17.2409 146.133 17.1351 145.646 17.0196 145.162Z" fill="#263238"/>
<path d="M17.1975 118.131C15.7277 117.724 14.398 116.925 13.3521 115.82C12.3063 114.716 11.5842 113.348 11.2639 111.865C10.1474 106.699 13.7374 108.914 10.5228 100.796C7.30813 92.6787 8.04923 90.8418 9.16087 88.5027C10.2725 86.1636 10.8933 86.9051 11.8798 89.9808C12.8664 93.0566 16.466 97.8496 17.8182 106.823C19.1705 115.797 17.1975 118.131 17.1975 118.131Z" fill="#F4594F"/>
<path d="M26.7258 109.406C26.7258 109.406 23.5064 108.296 23.3861 102.274C23.2658 96.2518 25.7345 97.4907 26.1051 89.9807C26.4756 82.4707 26.9713 77.1946 28.3332 77.0654C29.695 76.9363 33.2802 80.7535 34.517 89.1149C35.7538 97.4764 32.9097 102.987 30.4361 105.465C27.9626 107.943 26.7258 109.406 26.7258 109.406Z" fill="#F4594F"/>
<path d="M15.4698 125.388C15.4698 125.388 14.7239 120.963 13.2417 118.873C11.7595 116.782 8.54008 114.936 6.43709 110.88C4.33411 106.823 1.98569 104.857 2.106 110.636C2.22631 116.414 4.82496 119.361 8.04441 121.331C11.2639 123.302 15.4698 125.388 15.4698 125.388Z" fill="#F4594F"/>
<path d="M14.108 133.008C14.108 133.008 11.1388 127.354 6.81247 123.173C2.48619 118.992 -0.983495 116.902 0.253273 118.992C1.49004 121.083 2.97705 120.963 5.0656 124.651C7.15415 128.339 6.5478 131.042 9.517 133.132C12.4862 135.222 14.108 133.008 14.108 133.008Z" fill="#F4594F"/>
<path d="M13.7373 140.264C13.6122 139.896 13.4871 137.189 9.28593 135.002C5.08477 132.816 1.10498 133.649 1.61508 134.754C2.12519 135.859 4.70941 137.705 7.30325 138.81C9.89709 139.915 13.7373 140.264 13.7373 140.264Z" fill="#F4594F"/>
<path d="M26.4757 125.632C26.4757 125.632 24.647 123.297 25.6095 118.38C26.5719 113.463 28.8241 114.692 31.3025 112.109C33.7808 109.526 33.2803 109.157 35.7539 106.455C38.2274 103.752 40.4507 102.274 41.442 103.379C42.4334 104.484 40.9608 107.928 39.4642 109.894C37.9675 111.86 35.6143 112.846 34.5171 115.304C33.4199 117.763 33.8963 121.7 31.0522 123.541C28.2081 125.383 26.4757 125.632 26.4757 125.632Z" fill="#F4594F"/>
<path d="M32.6592 126.985C32.6592 126.985 37.1154 121.958 40.33 118.256C43.5447 114.553 44.7814 111.741 44.9065 114.199C45.0317 116.658 46.0182 118.624 43.4195 121.819C40.8209 125.015 32.6592 126.985 32.6592 126.985Z" fill="#F4594F"/>
<path d="M30.3112 135.098C30.3112 135.098 30.1861 133.132 37.2361 128.583C44.2862 124.034 47.2554 123.173 46.5143 125.019C45.7732 126.866 42.6644 128.707 39.3391 132.027C36.0138 135.347 30.3112 135.098 30.3112 135.098Z" fill="#F4594F"/>
<path d="M17.4959 117.849C17.4392 117.849 17.3842 117.829 17.3403 117.794C17.2965 117.758 17.2664 117.708 17.2553 117.653C17.2553 117.567 15.5854 108.77 13.8867 102.585C12.1879 96.4001 11.0522 92.5398 11.0426 92.5063C11.0331 92.4762 11.0298 92.4444 11.0329 92.413C11.036 92.3816 11.0455 92.3511 11.0608 92.3234C11.0761 92.2957 11.0968 92.2713 11.1218 92.2518C11.1468 92.2323 11.1755 92.218 11.2062 92.2098C11.2675 92.192 11.3333 92.1992 11.3893 92.2297C11.4452 92.2602 11.4867 92.3115 11.5046 92.3724C11.5046 92.4107 12.6355 96.2566 14.3486 102.456C16.0618 108.655 17.7173 117.476 17.7413 117.567C17.7526 117.629 17.7387 117.693 17.7026 117.745C17.6665 117.797 17.6113 117.833 17.5488 117.844L17.4959 117.849Z" fill="#263238"/>
<path d="M26.4372 109.736H26.365C26.3044 109.717 26.2542 109.674 26.2253 109.617C26.1964 109.561 26.1913 109.495 26.211 109.435C26.2399 109.339 29.2236 99.8251 30.1956 94.128C31.0811 88.9762 30.2775 85.0107 29.7481 82.3894C29.6855 82.0928 29.6278 81.8106 29.5797 81.5523C29.5737 81.5209 29.5739 81.4886 29.5805 81.4573C29.587 81.426 29.5997 81.3963 29.6178 81.3699C29.6359 81.3435 29.6591 81.3208 29.686 81.3033C29.7129 81.2858 29.743 81.2737 29.7746 81.2677C29.8062 81.2617 29.8386 81.262 29.8701 81.2685C29.9016 81.275 29.9315 81.2876 29.9581 81.3056C29.9847 81.3236 30.0074 81.3466 30.0251 81.3734C30.0427 81.4001 30.0549 81.43 30.0609 81.4614C30.1138 81.7197 30.1668 81.9972 30.2293 82.2938C30.7635 84.9533 31.5768 88.9906 30.6817 94.2093C29.7192 99.9494 26.7067 109.483 26.6778 109.578C26.6603 109.627 26.6273 109.669 26.5839 109.697C26.5406 109.726 26.4891 109.739 26.4372 109.736Z" fill="#263238"/>
<path d="M15.08 125.44C15.0372 125.441 14.995 125.43 14.9578 125.409C14.9206 125.388 14.8897 125.358 14.8683 125.321C13.5416 123.058 12.0252 120.911 10.3351 118.901C9.64211 118.083 8.99726 117.375 8.37166 116.691C6.58629 114.725 5.17146 113.171 4.23787 110.846C4.22547 110.817 4.21914 110.786 4.21924 110.754C4.21934 110.722 4.22589 110.691 4.23848 110.662C4.25107 110.633 4.26944 110.607 4.29249 110.585C4.31555 110.563 4.3428 110.546 4.37262 110.535C4.402 110.523 4.43341 110.518 4.46504 110.518C4.49667 110.519 4.52791 110.525 4.55696 110.538C4.58601 110.55 4.61231 110.568 4.63436 110.591C4.6564 110.613 4.67375 110.64 4.68542 110.669C5.58532 112.912 6.97609 114.438 8.73258 116.371C9.35819 117.06 10.003 117.768 10.7056 118.59C12.4138 120.624 13.9463 122.797 15.287 125.086C15.3181 125.142 15.326 125.207 15.3089 125.268C15.2917 125.329 15.251 125.38 15.1955 125.412C15.1599 125.43 15.1203 125.44 15.08 125.44Z" fill="#263238"/>
<path d="M26.4757 125.871H26.4372C26.4061 125.866 26.3762 125.855 26.3493 125.839C26.3224 125.823 26.2991 125.801 26.2807 125.776C26.2623 125.75 26.2492 125.722 26.2422 125.691C26.2352 125.661 26.2344 125.629 26.2399 125.598C26.2784 125.354 27.265 119.605 29.6086 116.51C30.5229 115.314 31.7789 113.874 33.1071 112.353C35.2053 109.961 37.3757 107.455 38.5017 105.589C38.5153 105.558 38.5355 105.53 38.5609 105.507C38.5863 105.484 38.6163 105.467 38.6489 105.456C38.6816 105.446 38.7161 105.442 38.7501 105.446C38.7842 105.45 38.817 105.461 38.8464 105.479C38.8758 105.496 38.9011 105.52 38.9206 105.548C38.94 105.576 38.9533 105.608 38.9594 105.641C38.9655 105.675 38.9643 105.709 38.9559 105.742C38.9475 105.776 38.9322 105.806 38.9108 105.833C37.7655 107.746 35.5807 110.243 33.4681 112.664C32.1447 114.18 30.8983 115.615 29.9936 116.797C27.7077 119.786 26.7115 125.608 26.6971 125.665C26.6904 125.72 26.6645 125.77 26.6241 125.808C26.5836 125.846 26.5311 125.868 26.4757 125.871Z" fill="#263238"/>
<path d="M13.4438 140.369C13.3979 140.368 13.3532 140.355 13.3139 140.331C13.2754 140.302 9.13196 137.624 6.20606 136.174C6.15029 136.145 6.10814 136.095 6.08842 136.035C6.0687 135.975 6.07291 135.91 6.10019 135.854C6.11405 135.825 6.1334 135.8 6.15712 135.779C6.18084 135.758 6.20847 135.742 6.23842 135.732C6.26838 135.722 6.30007 135.718 6.33168 135.72C6.36329 135.722 6.39419 135.73 6.42262 135.744C9.36776 137.212 13.5352 139.901 13.5785 139.929C13.6313 139.964 13.668 140.019 13.6806 140.08C13.6932 140.142 13.6807 140.207 13.6459 140.259C13.6249 140.294 13.5951 140.322 13.5596 140.341C13.5242 140.36 13.4842 140.37 13.4438 140.369Z" fill="#263238"/>
<path d="M37.2791 164.908C37 157.451 28.6602 152.471 28.6602 152.471H15.8787C15.8787 152.471 7.53891 157.446 7.2598 164.908C6.98068 172.371 16.7112 199.722 16.7112 199.722H27.8277C27.8277 199.722 37.5534 172.371 37.2791 164.908Z" fill="#666666"/>
<path d="M27.8281 199.961H16.7116C16.6622 199.961 16.6139 199.946 16.5735 199.918C16.533 199.89 16.5023 199.85 16.4854 199.804C16.086 198.684 6.74529 172.323 7.0196 164.884C7.29871 157.384 15.6818 152.304 15.754 152.256C15.7916 152.233 15.835 152.222 15.8791 152.223H28.6606C28.7047 152.222 28.7481 152.233 28.7857 152.256C28.8676 152.304 37.2362 157.384 37.5153 164.884C37.7944 172.308 28.4489 198.67 28.0543 199.804C28.0375 199.85 28.0067 199.89 27.9663 199.918C27.9258 199.946 27.8775 199.961 27.8281 199.961ZM16.8849 199.483H27.6548C28.4537 197.23 37.2795 171.954 37.0389 164.918C36.779 157.992 29.3392 153.165 28.5933 152.715H15.9465C15.2246 153.165 7.76551 157.977 7.50083 164.918C7.24096 171.954 16.086 197.23 16.8849 199.483Z" fill="#263238"/>
<path d="M30.306 145.138H13.9971L15.8787 152.476H28.4244L30.306 145.138Z" fill="#666666"/>
<path d="M28.4249 152.716H15.8791C15.8252 152.715 15.7729 152.697 15.7302 152.664C15.6876 152.632 15.6571 152.586 15.6433 152.534L13.7617 145.201C13.754 145.165 13.7539 145.129 13.7614 145.093C13.7688 145.058 13.7837 145.024 13.805 144.995C13.8272 144.965 13.8562 144.941 13.8896 144.924C13.9231 144.908 13.9601 144.899 13.9975 144.899H30.3065C30.343 144.901 30.3788 144.91 30.4112 144.926C30.4437 144.943 30.4721 144.967 30.4942 144.995C30.5163 145.024 30.5317 145.058 30.5392 145.093C30.5467 145.129 30.5461 145.166 30.5375 145.201L28.6559 152.534C28.6438 152.586 28.6144 152.632 28.5724 152.665C28.5305 152.698 28.4784 152.716 28.4249 152.716ZM16.0668 152.237H28.2372L29.9937 145.397H14.3055L16.0668 152.237Z" fill="#263238"/>
<path d="M226.048 199.962H2.4286C2.36479 199.962 2.30359 199.937 2.25846 199.892C2.21334 199.847 2.18799 199.786 2.18799 199.723C2.18799 199.659 2.21334 199.598 2.25846 199.553C2.30359 199.509 2.36479 199.483 2.4286 199.483H226.048C226.112 199.483 226.173 199.509 226.218 199.553C226.263 199.598 226.288 199.659 226.288 199.723C226.288 199.786 226.263 199.847 226.218 199.892C226.173 199.937 226.112 199.962 226.048 199.962Z" fill="#263238"/>
<path d="M159.228 16.9957V181.364C159.228 183.531 158.362 185.609 156.821 187.141C155.279 188.673 153.189 189.534 151.009 189.534H79.5554C77.3755 189.534 75.2848 188.673 73.7434 187.141C72.2019 185.609 71.3359 183.531 71.3359 181.364V16.9909C71.3359 14.8253 72.2014 12.7484 73.7419 11.2172C75.2825 9.68586 77.3719 8.82559 79.5506 8.82559H110.22L110.248 8.91647C111.018 11.6526 112.77 13.4273 114.724 13.4273H115.831C117.785 13.4273 119.541 11.6478 120.306 8.91169L120.34 8.8208H151.009C152.089 8.8208 153.158 9.03229 154.155 9.44317C155.153 9.85406 156.059 10.4563 156.823 11.2155C157.586 11.9746 158.191 12.8759 158.604 13.8677C159.017 14.8595 159.229 15.9224 159.228 16.9957Z" fill="white"/>
<path d="M151.009 189.773H79.5555C78.4432 189.775 77.3416 189.558 76.3135 189.136C75.2855 188.714 74.3511 188.095 73.5637 187.314C72.7763 186.534 72.1514 185.606 71.7246 184.585C71.2978 183.564 71.0774 182.47 71.0762 181.364V16.9909C71.0787 14.7627 71.9704 12.6264 73.5555 11.0508C75.1406 9.47524 77.2897 8.58896 79.5314 8.58643H110.383L110.46 8.8543C111.197 11.49 112.866 13.1929 114.705 13.1929H115.831C117.674 13.1929 119.339 11.49 120.075 8.8543L120.162 8.58643H151.009C153.252 8.58896 155.402 9.47575 156.988 11.0522C158.574 12.6287 159.466 14.7662 159.469 16.9957V181.364C159.466 183.594 158.574 185.731 156.988 187.308C155.402 188.884 153.252 189.771 151.009 189.773ZM79.5507 9.06477C78.5023 9.06351 77.4638 9.26753 76.4947 9.66518C75.5256 10.0628 74.6448 10.6463 73.9026 11.3823C73.1603 12.1183 72.5712 12.9925 72.1688 13.9548C71.7664 14.9171 71.5587 15.9488 71.5574 16.9909V181.364C71.56 183.467 72.4014 185.483 73.8972 186.969C75.3929 188.456 77.4209 189.293 79.5362 189.295H151.009C153.124 189.293 155.152 188.456 156.648 186.969C158.144 185.483 158.985 183.467 158.988 181.364V16.9957C158.985 14.8931 158.144 12.8773 156.648 11.3905C155.152 9.90369 153.124 9.0673 151.009 9.06477H120.528C119.719 11.8631 117.886 13.6712 115.84 13.6712H114.724C112.679 13.6712 110.845 11.8631 110.037 9.06477H79.5507Z" fill="#263238"/>
<path d="M71.3359 138.399V181.364C71.3359 183.531 72.2019 185.609 73.7434 187.141C75.2848 188.673 77.3755 189.534 79.5554 189.534H151.009C153.189 189.534 155.279 188.673 156.821 187.141C158.362 185.609 159.228 183.531 159.228 181.364V138.399H71.3359Z" fill="#DBDBDB"/>
<path d="M151.009 189.773H79.5555C78.4432 189.775 77.3416 189.558 76.3135 189.136C75.2855 188.714 74.3511 188.095 73.5637 187.314C72.7763 186.534 72.1514 185.606 71.7246 184.585C71.2978 183.564 71.0774 182.47 71.0762 181.364V138.399C71.0762 138.336 71.1015 138.275 71.1466 138.23C71.1918 138.185 71.253 138.16 71.3168 138.16H159.228C159.292 138.16 159.353 138.185 159.398 138.23C159.444 138.275 159.469 138.336 159.469 138.399V181.364C159.466 183.594 158.574 185.731 156.988 187.308C155.402 188.884 153.252 189.771 151.009 189.773ZM71.5574 138.638V181.364C71.56 183.467 72.4014 185.483 73.8972 186.969C75.3929 188.456 77.4209 189.293 79.5362 189.295H151.009C153.124 189.293 155.152 188.456 156.648 186.969C158.144 185.483 158.985 183.467 158.988 181.364V138.638H71.5574Z" fill="#263238"/>
<path d="M98.1025 143.584H76.192C75.5887 143.584 75.0996 144.071 75.0996 144.67V150.544C75.0996 151.144 75.5887 151.63 76.192 151.63H98.1025C98.7058 151.63 99.1949 151.144 99.1949 150.544V144.67C99.1949 144.071 98.7058 143.584 98.1025 143.584Z" fill="white"/>
<path d="M125.07 143.584H103.16C102.556 143.584 102.067 144.071 102.067 144.67V150.544C102.067 151.144 102.556 151.63 103.16 151.63H125.07C125.674 151.63 126.163 151.144 126.163 150.544V144.67C126.163 144.071 125.674 143.584 125.07 143.584Z" fill="white"/>
<path d="M152.034 143.584H130.124C129.52 143.584 129.031 144.071 129.031 144.67V150.544C129.031 151.144 129.52 151.63 130.124 151.63H152.034C152.637 151.63 153.127 151.144 153.127 150.544V144.67C153.127 144.071 152.637 143.584 152.034 143.584Z" fill="white"/>
<path d="M98.1025 153.869H76.192C75.5887 153.869 75.0996 154.355 75.0996 154.955V160.829C75.0996 161.428 75.5887 161.915 76.192 161.915H98.1025C98.7058 161.915 99.1949 161.428 99.1949 160.829V154.955C99.1949 154.355 98.7058 153.869 98.1025 153.869Z" fill="white"/>
<path d="M125.07 153.869H103.16C102.556 153.869 102.067 154.355 102.067 154.955V160.829C102.067 161.428 102.556 161.915 103.16 161.915H125.07C125.674 161.915 126.163 161.428 126.163 160.829V154.955C126.163 154.355 125.674 153.869 125.07 153.869Z" fill="white"/>
<path d="M152.034 153.869H130.124C129.52 153.869 129.031 154.355 129.031 154.955V160.829C129.031 161.428 129.52 161.915 130.124 161.915H152.034C152.637 161.915 153.127 161.428 153.127 160.829V154.955C153.127 154.355 152.637 153.869 152.034 153.869Z" fill="white"/>
<path d="M98.1025 164.148H76.192C75.5887 164.148 75.0996 164.635 75.0996 165.234V171.108C75.0996 171.708 75.5887 172.194 76.192 172.194H98.1025C98.7058 172.194 99.1949 171.708 99.1949 171.108V165.234C99.1949 164.635 98.7058 164.148 98.1025 164.148Z" fill="white"/>
<path d="M125.07 164.148H103.16C102.556 164.148 102.067 164.635 102.067 165.234V171.108C102.067 171.708 102.556 172.194 103.16 172.194H125.07C125.674 172.194 126.163 171.708 126.163 171.108V165.234C126.163 164.635 125.674 164.148 125.07 164.148Z" fill="white"/>
<path d="M152.034 164.148H130.124C129.52 164.148 129.031 164.635 129.031 165.234V171.108C129.031 171.708 129.52 172.194 130.124 172.194H152.034C152.637 172.194 153.127 171.708 153.127 171.108V165.234C153.127 164.635 152.637 164.148 152.034 164.148Z" fill="white"/>
<path d="M125.07 174.433H103.16C102.556 174.433 102.067 174.919 102.067 175.519V181.393C102.067 181.992 102.556 182.479 103.16 182.479H125.07C125.674 182.479 126.163 181.992 126.163 181.393V175.519C126.163 174.919 125.674 174.433 125.07 174.433Z" fill="white"/>
<path d="M150.22 182.479H135.186L131.942 178.733L135.186 174.433H150.22V182.479Z" fill="white"/>
<path d="M116.245 46.0503L116.028 45.8877L115.811 46.0503C115.811 46.0503 104.743 52.3118 99.7383 54.6892C99.7383 54.6892 102.144 68.0828 103.862 74.1195C105.58 80.1562 112.337 83.4042 116.028 85.5615C119.724 83.4042 126.456 80.1658 128.194 74.1195C129.931 68.0733 132.323 54.6892 132.323 54.6892C127.323 52.3118 116.245 46.0503 116.245 46.0503Z" fill="#EF692C"/>
<path d="M114.892 71.9334L107.549 65.6767C107.38 65.5338 107.242 65.3594 107.142 65.1634C107.042 64.9674 106.981 64.7537 106.964 64.5345C106.929 64.0918 107.073 63.6535 107.363 63.3161C107.654 62.9786 108.067 62.7696 108.512 62.7351C108.958 62.7006 109.399 62.8433 109.738 63.1319L114.551 67.2361L122.799 57.9132C123.094 57.5795 123.51 57.376 123.956 57.3473C124.401 57.3185 124.84 57.4671 125.176 57.7601C125.512 58.0532 125.717 58.4668 125.745 58.9099C125.774 59.3531 125.625 59.7895 125.33 60.1231L114.892 71.9334Z" fill="white"/>
<path d="M87.3517 93.0378H77.3613V102.968H87.3517V93.0378Z" fill="white"/>
<path d="M87.597 103.208H77.1206V92.7988H87.597V103.208ZM77.6018 102.729H87.1158V93.2772H77.6018V102.729Z" fill="#263238"/>
<path d="M100.821 93.0378H90.8311V102.968H100.821V93.0378Z" fill="white"/>
<path d="M101.062 103.208H90.5903V92.7988H101.062V103.208ZM91.0716 102.729H100.581V93.2772H91.0716V102.729Z" fill="#263238"/>
<path d="M114.291 93.0378H104.301V102.968H114.291V93.0378Z" fill="white"/>
<path d="M114.532 103.208H104.06V92.7988H114.532V103.208ZM104.541 102.729H114.05V93.2772H104.541V102.729Z" fill="#263238"/>
<path d="M127.756 93.0378H117.766V102.968H127.756V93.0378Z" fill="white"/>
<path d="M128.001 103.208H117.525V92.7988H128.001V103.208ZM118.006 102.729H127.52V93.2772H118.006V102.729Z" fill="#263238"/>
<path d="M141.226 93.0378H131.235V102.968H141.226V93.0378Z" fill="white"/>
<path d="M141.466 103.208H130.995V92.7988H141.466V103.208ZM131.476 102.729H140.985V93.2772H131.476V102.729Z" fill="#263238"/>
<path d="M154.695 93.0378H144.705V102.968H154.695V93.0378Z" fill="white"/>
<path d="M154.935 103.208H144.464V92.7988H154.935V103.208ZM144.945 102.729H154.454V93.2772H144.945V102.729Z" fill="#263238"/>
<path d="M159.228 24.6396V16.9861C159.226 14.8209 158.359 12.7453 156.817 11.2152C155.276 9.68505 153.187 8.82558 151.009 8.82559H120.345L120.316 8.91647C119.551 11.6526 117.794 13.4273 115.831 13.4273H114.724C112.77 13.4273 111.009 11.6478 110.248 8.91169L110.22 8.8208H79.5506C77.3719 8.8208 75.2825 9.68107 73.7419 11.2124C72.2014 12.7437 71.3359 14.8205 71.3359 16.9861V24.6396H159.228Z" fill="#DBDBDB"/>
<path d="M159.224 24.8787H71.3363C71.2725 24.8787 71.2113 24.8535 71.1662 24.8087C71.1211 24.7638 71.0957 24.703 71.0957 24.6396V16.9861C71.0983 14.7578 71.9899 12.6216 73.575 11.046C75.1601 9.47037 77.3093 8.58409 79.551 8.58155H110.22C110.273 8.58103 110.324 8.59819 110.366 8.63029C110.408 8.66239 110.438 8.70756 110.451 8.75854L110.48 8.84943C111.216 11.4851 112.886 13.188 114.724 13.188H115.831C117.674 13.188 119.339 11.4851 120.076 8.84943L120.109 8.74898C120.124 8.70057 120.154 8.65812 120.194 8.62795C120.235 8.59779 120.285 8.58151 120.335 8.58155H151.009C153.252 8.58409 155.402 9.47103 156.987 11.0477C158.572 12.6243 159.463 14.7618 159.464 16.9908V24.6443C159.463 24.7069 159.437 24.7665 159.392 24.8104C159.347 24.8542 159.287 24.8787 159.224 24.8787ZM71.5577 24.4004H158.983V16.9956C158.982 14.8934 158.142 12.8776 156.647 11.3907C155.152 9.90376 153.124 9.06722 151.009 9.06468H120.528C119.719 11.863 117.886 13.6711 115.841 13.6711H114.724C112.679 13.6711 110.846 11.863 110.037 9.06468H79.551C78.5025 9.06343 77.4641 9.26744 76.495 9.66509C75.5259 10.0627 74.6451 10.6462 73.9028 11.3822C73.1606 12.1182 72.5715 12.9924 72.1691 13.9547C71.7667 14.917 71.5589 15.9487 71.5577 16.9908V24.4004Z" fill="#263238"/>
<path d="M164.816 56.2534V39.8366H163.319V18.8182C163.32 17.1167 162.983 15.4318 162.328 13.8596C161.674 12.2875 160.714 10.8589 159.504 9.65557C158.294 8.45221 156.857 7.49763 155.275 6.84636C153.694 6.19508 151.999 5.85987 150.287 5.85987H80.2776C78.5644 5.85799 76.8676 6.19177 75.2843 6.84214C73.7009 7.49252 72.2621 8.44672 71.05 9.6502C69.8379 10.8537 68.8763 12.2828 68.2203 13.8559C67.5642 15.4291 67.2266 17.1153 67.2266 18.8182V185.832C67.2266 187.533 67.5638 189.218 68.219 190.79C68.8742 192.362 69.8346 193.79 71.0452 194.993C72.2558 196.196 73.693 197.15 75.2746 197.801C76.8563 198.451 78.5514 198.786 80.2632 198.785H150.287C151.999 198.786 153.694 198.451 155.275 197.801C156.856 197.15 158.293 196.196 159.504 194.993C160.714 193.79 161.674 192.362 162.328 190.79C162.983 189.218 163.32 187.533 163.319 185.832V70.2449H164.816V60.5441H163.319V56.239L164.816 56.2534ZM159.229 176.576C159.229 180.013 157.855 183.309 155.41 185.739C152.965 188.169 149.65 189.534 146.192 189.534H84.3729C80.9154 189.534 77.5995 188.169 75.1546 185.739C72.7098 183.309 71.3363 180.013 71.3363 176.576V21.7791C71.3376 18.3432 72.7116 15.0484 75.1563 12.6193C77.601 10.1902 80.9162 8.8256 84.3729 8.8256H110.22L110.249 8.91649C111.019 11.6526 112.77 13.4273 114.724 13.4273H115.831C117.785 13.4273 119.541 11.6478 120.307 8.9117L120.34 8.82082H146.182C149.639 8.82082 152.954 10.1854 155.399 12.6145C157.844 15.0437 159.218 18.3384 159.219 21.7744L159.229 176.576Z" fill="#263238"/>
<path d="M150.287 199.025H80.2772C76.7579 199.021 73.3837 197.63 70.8947 195.157C68.4057 192.683 67.0051 189.33 67 185.832V18.8181C67.0051 15.3195 68.4056 11.9656 70.8944 9.49165C73.3833 7.01774 76.7574 5.62567 80.2772 5.62061H150.287C153.806 5.62567 157.18 7.0179 159.668 9.49195C162.156 11.966 163.555 15.3199 163.559 18.8181V39.5974H164.815C164.879 39.5974 164.94 39.6226 164.985 39.6674C165.031 39.7123 165.056 39.7731 165.056 39.8365V56.2533C165.056 56.3167 165.031 56.3776 164.985 56.4224C164.94 56.4673 164.879 56.4925 164.815 56.4925H163.559V60.3192H164.815C164.879 60.3192 164.94 60.3444 164.985 60.3893C165.031 60.4341 165.056 60.4949 165.056 60.5584V70.2592C165.056 70.3226 165.031 70.3835 164.985 70.4283C164.94 70.4732 164.879 70.4984 164.815 70.4984H163.559V185.832C163.555 189.33 162.156 192.683 159.668 195.156C157.179 197.63 153.806 199.021 150.287 199.025ZM80.2772 6.09895C76.8847 6.10275 73.6322 7.44402 71.2333 9.8285C68.8344 12.213 67.4851 15.4459 67.4812 18.8181V185.832C67.4851 189.204 68.8346 192.436 71.2336 194.82C73.6326 197.203 76.8851 198.544 80.2772 198.546H150.287C153.678 198.542 156.929 197.202 159.327 194.818C161.725 192.434 163.074 189.203 163.078 185.832V70.2448C163.078 70.1814 163.103 70.1206 163.149 70.0757C163.194 70.0309 163.255 70.0057 163.319 70.0057H164.575V60.7832H163.319C163.255 60.782 163.195 60.7564 163.15 60.7118C163.105 60.6672 163.079 60.6071 163.078 60.544V56.2389C163.078 56.1755 163.103 56.1147 163.149 56.0698C163.194 56.025 163.255 55.9998 163.319 55.9998H164.575V40.0757H163.319C163.255 40.0745 163.195 40.0489 163.15 40.0043C163.105 39.9597 163.079 39.8996 163.078 39.8365V18.8181C163.076 15.4464 161.727 12.2134 159.329 9.82879C156.931 7.44417 153.679 6.10275 150.287 6.09895H80.2772ZM146.206 189.783H84.3725C80.8477 189.783 77.4672 188.392 74.9739 185.915C72.4806 183.439 71.0786 180.079 71.076 176.576V21.7791C71.0811 18.2809 72.4818 14.9275 74.9708 12.4543C77.4598 9.98114 80.8339 8.59013 84.3532 8.58634H110.2C110.253 8.58494 110.305 8.60177 110.347 8.63401C110.389 8.66625 110.419 8.71192 110.431 8.76332L110.46 8.85421C111.196 11.4899 112.866 13.1928 114.705 13.1928H115.831C117.674 13.1928 119.339 11.4899 120.075 8.85421L120.109 8.75376C120.123 8.70535 120.153 8.6629 120.194 8.63273C120.235 8.60257 120.284 8.58629 120.335 8.58634H146.182C149.701 8.59013 153.076 9.98114 155.564 12.4543C158.053 14.9275 159.454 18.2809 159.459 21.7791V176.576C159.454 180.073 158.055 183.425 155.568 185.899C153.081 188.373 149.71 189.766 146.192 189.773L146.206 189.783ZM84.3725 9.06468C80.9771 9.06214 77.7196 10.4001 75.3164 12.7844C72.9133 15.1687 71.5611 18.404 71.5573 21.7791V176.576C71.5611 179.948 72.9105 183.181 75.3093 185.565C77.7082 187.95 80.9607 189.291 84.3532 189.295H146.192C149.584 189.291 152.837 187.95 155.236 185.565C157.634 183.181 158.984 179.948 158.988 176.576V21.7791C158.984 18.4073 157.634 15.1749 155.235 12.7911C152.836 10.4074 149.584 9.06721 146.192 9.06468H120.527C119.719 11.863 117.886 13.6711 115.84 13.6711H114.724C112.679 13.6711 110.845 11.863 110.037 9.06468H84.3725Z" fill="#263238"/>
<path d="M149.243 7.64404H81.3217C77.9909 7.64531 74.7967 8.96011 72.4401 11.2999C70.0835 13.6396 68.7571 16.8132 68.752 20.124V184.507C68.752 187.821 70.0763 190.999 72.4336 193.342C74.7909 195.685 77.988 197.001 81.3217 197.001H149.243C152.577 197.001 155.774 195.685 158.131 193.342C160.488 190.999 161.813 187.821 161.813 184.507V20.124C161.808 16.8132 160.481 13.6396 158.125 11.2999C155.768 8.96011 152.574 7.64531 149.243 7.64404ZM159.228 177.021C159.227 180.335 157.902 183.513 155.544 185.856C153.186 188.199 149.988 189.515 146.654 189.515H83.9108C80.5766 189.515 77.379 188.199 75.0209 185.856C72.6628 183.513 71.3374 180.335 71.3362 177.021V21.3151C71.3362 19.6746 71.6613 18.0501 72.2931 16.5345C72.9248 15.0188 73.8508 13.6418 75.0181 12.482C76.1853 11.3221 77.5711 10.4023 79.0961 9.77489C80.6211 9.14751 82.2555 8.82492 83.906 8.82555H110.22L110.249 8.91644C111.019 11.6526 112.77 13.4272 114.724 13.4272H115.831C117.785 13.4272 119.541 11.6478 120.306 8.91165L120.34 8.82077H146.644C148.297 8.81888 149.933 9.14082 151.46 9.76818C152.987 10.3955 154.375 11.316 155.543 12.4769C156.712 13.6378 157.639 15.0164 158.272 16.5337C158.904 18.0511 159.229 19.6775 159.228 21.3199V177.021Z" fill="#263238"/>
<path d="M149.243 197.24H81.3221C77.9258 197.236 74.6696 195.894 72.268 193.506C69.8664 191.119 68.5155 187.883 68.5117 184.507V20.1239C68.5155 16.7479 69.8664 13.5113 72.268 11.1241C74.6696 8.73696 77.9258 7.39418 81.3221 7.39038H149.243C152.64 7.39418 155.896 8.73696 158.297 11.1241C160.699 13.5113 162.05 16.7479 162.054 20.1239V184.507C162.05 187.883 160.699 191.119 158.297 193.506C155.896 195.894 152.64 197.236 149.243 197.24ZM81.3221 7.88786C78.0567 7.89164 74.9259 9.1814 72.6151 11.4747C70.3043 13.7681 69.0019 16.8781 68.993 20.1239V184.507C68.9968 187.756 70.297 190.871 72.6083 193.168C74.9196 195.466 78.0534 196.758 81.3221 196.762H149.243C152.512 196.758 155.646 195.466 157.957 193.168C160.268 190.871 161.569 187.756 161.572 184.507V20.1239C161.569 16.8748 160.268 13.7598 157.957 11.4624C155.646 9.16491 152.512 7.87252 149.243 7.86872L81.3221 7.88786ZM146.654 189.773H83.9112C82.2259 189.774 80.5571 189.444 79 188.804C77.4429 188.163 76.028 187.224 74.8361 186.04C73.6443 184.856 72.6988 183.449 72.0537 181.902C71.4087 180.354 71.0767 178.696 71.0767 177.021V21.315C71.0818 17.9398 72.4332 14.7044 74.8347 12.3183C77.2361 9.93216 80.4916 8.59004 83.8871 8.58624H110.201C110.254 8.58484 110.306 8.60168 110.348 8.63391C110.39 8.66615 110.42 8.71182 110.432 8.76323L110.461 8.85411C111.197 11.4898 112.867 13.1927 114.705 13.1927H115.831C117.674 13.1927 119.34 11.4898 120.076 8.85411L120.109 8.75366C120.124 8.70525 120.154 8.66281 120.195 8.63264C120.235 8.60247 120.285 8.5862 120.336 8.58624H146.645C150.043 8.5875 153.302 9.92901 155.707 12.3163C158.111 14.7036 159.464 17.9417 159.469 21.3197V177.021C159.469 180.4 158.12 183.642 155.717 186.033C153.314 188.424 150.054 189.769 146.654 189.773ZM83.9064 9.06458C80.6347 9.06204 77.496 10.3511 75.1804 12.6484C72.8647 14.9456 71.5617 18.063 71.5579 21.315V177.021C71.563 180.27 72.8643 183.385 75.1764 185.682C77.4885 187.98 80.6227 189.272 83.8919 189.276H146.654C149.923 189.272 153.058 187.98 155.37 185.682C157.682 183.385 158.983 180.27 158.988 177.021V21.3197C158.984 18.0698 157.684 14.9541 155.371 12.6565C153.059 10.3589 149.924 9.06712 146.654 9.06458H120.528C119.72 11.8629 117.886 13.671 115.841 13.671H114.724C112.679 13.671 110.846 11.8629 110.037 9.06458H83.9064Z" fill="#263238"/>
<path d="M116.235 9.44263C116.234 9.20253 116.162 8.9681 116.027 8.76893C115.892 8.56975 115.701 8.41477 115.477 8.32354C115.254 8.23231 115.008 8.20893 114.771 8.25635C114.535 8.30377 114.317 8.41987 114.147 8.58998C113.976 8.76009 113.86 8.97658 113.814 9.21214C113.767 9.44769 113.791 9.69174 113.884 9.91347C113.977 10.1352 114.133 10.3247 114.334 10.458C114.535 10.5913 114.771 10.6624 115.013 10.6624C115.174 10.6624 115.333 10.6308 115.482 10.5695C115.63 10.5081 115.765 10.4182 115.879 10.3049C115.992 10.1915 116.082 10.057 116.144 9.90906C116.205 9.7611 116.236 9.60259 116.235 9.44263Z" fill="white"/>
<path d="M79.1516 14.1064C79.1516 15.3357 77.7609 15.7806 77.7513 16.7181V16.7755H79.1035V17.1917H77.3037V16.8425C77.3037 15.5223 78.6945 15.2687 78.6945 14.1159C78.6945 13.6998 78.5501 13.475 78.2132 13.475C77.8764 13.475 77.732 13.7141 77.732 14.0777V14.4364H77.3037V14.1064C77.3037 13.4797 77.5876 13.0684 78.2229 13.0684C78.8581 13.0684 79.1516 13.4797 79.1516 14.1064Z" fill="#263238"/>
<path d="M81.3985 14.0969V14.2021C81.4189 14.3751 81.3832 14.55 81.2967 14.7015C81.2101 14.8529 81.0772 14.9729 80.9173 15.044C81.0785 15.1148 81.2125 15.2354 81.2992 15.388C81.386 15.5405 81.4208 15.7169 81.3985 15.8907V16.2064C81.3985 16.8282 81.105 17.2348 80.4697 17.2348C79.8345 17.2348 79.5506 16.8282 79.5506 16.2064V15.9242H79.9789V16.2351C79.9789 16.5986 80.128 16.8235 80.4601 16.8235C80.7921 16.8235 80.9413 16.6082 80.9413 16.192V15.8763C80.9413 15.4745 80.7681 15.2832 80.4216 15.2736H80.1762V14.8622H80.4457C80.5164 14.8633 80.5864 14.8488 80.6509 14.8198C80.7153 14.7909 80.7726 14.7482 80.8185 14.6947C80.8644 14.6413 80.898 14.5785 80.9167 14.5107C80.9354 14.4429 80.9389 14.3719 80.9269 14.3026V14.116C80.9269 13.6951 80.7777 13.4798 80.4457 13.4798C80.1136 13.4798 79.9644 13.7094 79.9644 14.0778V14.2835H79.5361V14.0969C79.5361 13.4751 79.8297 13.0732 80.4553 13.0732C81.0809 13.0732 81.3985 13.4751 81.3985 14.0969Z" fill="#263238"/>
<path d="M82.2845 14.4077V14.9722H81.8418V14.4077H82.2845ZM82.2845 16.632V17.1965H81.8418V16.632H82.2845Z" fill="#263238"/>
<path d="M83.2128 14.7762C83.2715 14.6686 83.3595 14.5797 83.4667 14.5196C83.574 14.4596 83.6961 14.4308 83.8191 14.4366C84.3485 14.4366 84.5843 14.824 84.5843 15.3933V16.1921C84.5843 16.814 84.2859 17.2205 83.6555 17.2205C83.0251 17.2205 82.7363 16.814 82.7363 16.1921V15.9147H83.1646V16.2208C83.1646 16.5843 83.3186 16.8092 83.6459 16.8092C83.9731 16.8092 84.1271 16.5843 84.1271 16.2208V15.4411C84.1271 15.0728 83.9731 14.8527 83.6459 14.8527C83.585 14.8475 83.5236 14.8548 83.4657 14.8742C83.4078 14.8936 83.3546 14.9248 83.3094 14.9657C83.2642 15.0066 83.228 15.0563 83.2031 15.1118C83.1781 15.1673 83.1651 15.2273 83.1646 15.288V15.3837H82.7411L82.8518 13.1116H84.4688V13.5229H83.2609L83.2128 14.7762Z" fill="#263238"/>
<path d="M86.8654 14.0921V14.1686H86.4371V14.0634C86.4371 13.6951 86.288 13.4798 85.9559 13.4798C85.6239 13.4798 85.4747 13.7047 85.4747 14.14V15.0536C85.5239 14.9199 85.615 14.8055 85.7345 14.7272C85.8541 14.6488 85.9958 14.6106 86.1388 14.6183C86.6681 14.6183 86.9039 14.9962 86.9039 15.575V16.1968C86.9039 16.8187 86.5911 17.2253 85.9415 17.2253C85.2918 17.2253 84.979 16.8187 84.979 16.1968V14.1208C84.979 13.4751 85.2726 13.0732 85.9415 13.0732C86.6104 13.0732 86.8654 13.4703 86.8654 14.0921ZM85.4506 15.6228V16.2351C85.4506 16.5986 85.6046 16.8235 85.9318 16.8235C86.2591 16.8235 86.4131 16.5986 86.4131 16.2351V15.6228C86.4131 15.2545 86.2543 15.0345 85.9318 15.0345C85.6094 15.0345 85.4506 15.2545 85.4506 15.6228Z" fill="#263238"/>
<path d="M131.702 14.2739H130.542V17.1536H131.702V14.2739Z" fill="#263238"/>
<path d="M133.247 13.6951H132.087V17.1535H133.247V13.6951Z" fill="#263238"/>
<path d="M134.792 13.2837H133.632V17.1535H134.792V13.2837Z" fill="#263238"/>
<path d="M136.341 12.571H135.181V17.1536H136.341V12.571Z" fill="#263238"/>
<path d="M150.686 17.0769H143.742V12.8484H150.696L150.686 17.0769ZM144.118 16.6895H150.301V13.2311H144.118V16.6895Z" fill="#263238"/>
<path d="M148.367 13.6521H144.695V16.2734H148.367V13.6521Z" fill="#263238"/>
<path d="M151.322 14.4651H150.446V15.46H151.322V14.4651Z" fill="#263238"/>
<path d="M141.182 16.1538C141.135 16.1548 141.088 16.1432 141.047 16.1203C139.633 15.2832 138.694 16.0581 138.641 16.0916C138.593 16.1395 138.527 16.1664 138.458 16.1664C138.39 16.1664 138.324 16.1395 138.275 16.0916C138.232 16.0396 138.209 15.9728 138.214 15.905C138.218 15.8373 138.249 15.7739 138.3 15.7281C138.348 15.685 139.546 14.6662 141.298 15.6994C141.327 15.7166 141.353 15.7395 141.373 15.7666C141.394 15.7938 141.409 15.8247 141.417 15.8575C141.426 15.8904 141.427 15.9246 141.423 15.9582C141.418 15.9918 141.406 16.0241 141.389 16.0533C141.365 16.0851 141.334 16.1107 141.298 16.1281C141.262 16.1456 141.222 16.1544 141.182 16.1538Z" fill="#263238"/>
<path d="M141.702 15.2879C141.656 15.2893 141.61 15.2759 141.572 15.2497C139.522 14.0395 138.146 15.2114 138.131 15.221C138.083 15.2689 138.017 15.2957 137.949 15.2957C137.88 15.2957 137.814 15.2689 137.766 15.221C137.721 15.1682 137.699 15.1006 137.704 15.032C137.708 14.9635 137.739 14.8993 137.79 14.8526C137.79 14.8526 139.469 13.4176 141.837 14.8526C141.885 14.882 141.922 14.9262 141.943 14.9785C141.963 15.0308 141.966 15.0883 141.951 15.1423C141.936 15.1964 141.903 15.244 141.858 15.2781C141.813 15.3121 141.759 15.3307 141.702 15.331V15.2879Z" fill="#263238"/>
<path d="M142.178 14.2835C142.132 14.2826 142.088 14.2694 142.049 14.2452C139.455 12.7145 137.717 14.1543 137.66 14.2165C137.636 14.2409 137.607 14.2603 137.575 14.2736C137.543 14.2868 137.509 14.2937 137.474 14.2937C137.44 14.2937 137.406 14.2868 137.374 14.2736C137.342 14.2603 137.313 14.2409 137.289 14.2165C137.245 14.1645 137.223 14.0977 137.228 14.0299C137.232 13.9621 137.263 13.8987 137.313 13.8529C137.337 13.8529 139.383 12.0926 142.313 13.8242C142.372 13.86 142.414 13.9168 142.431 13.9829C142.448 14.0489 142.439 14.1189 142.405 14.1782C142.378 14.2126 142.344 14.2401 142.305 14.2584C142.265 14.2768 142.222 14.2854 142.178 14.2835Z" fill="#263238"/>
<path d="M140.398 16.589C140.398 16.7179 140.359 16.8439 140.287 16.951C140.215 17.058 140.113 17.1414 139.993 17.1905C139.873 17.2396 139.741 17.2522 139.614 17.2267C139.487 17.2012 139.37 17.1388 139.279 17.0473C139.188 16.9559 139.126 16.8395 139.101 16.713C139.076 16.5865 139.09 16.4555 139.14 16.3368C139.19 16.218 139.275 16.1167 139.383 16.0458C139.492 15.9749 139.619 15.9375 139.748 15.9385C139.834 15.9385 139.919 15.9554 139.998 15.9881C140.077 16.0209 140.149 16.0688 140.209 16.1293C140.27 16.1898 140.317 16.2615 140.35 16.3404C140.382 16.4193 140.398 16.5038 140.398 16.589Z" fill="#263238"/>
<path d="M143.391 178.647L145.735 176.318C145.862 176.182 145.932 176.002 145.928 175.816C145.925 175.63 145.849 175.453 145.717 175.321C145.585 175.19 145.406 175.114 145.219 175.111C145.032 175.108 144.851 175.177 144.715 175.304L142.371 177.633L140.027 175.304C139.892 175.168 139.708 175.092 139.517 175.092C139.325 175.091 139.141 175.167 139.005 175.301C138.869 175.436 138.792 175.618 138.792 175.809C138.791 175.999 138.867 176.182 139.002 176.318L141.336 178.647L138.988 180.977C138.854 181.112 138.779 181.294 138.779 181.484C138.779 181.673 138.854 181.856 138.988 181.991C139.124 182.125 139.308 182.201 139.5 182.201C139.693 182.201 139.877 182.125 140.013 181.991L142.357 179.661L144.7 181.991C144.767 182.058 144.846 182.111 144.934 182.148C145.021 182.184 145.115 182.202 145.21 182.201C145.305 182.202 145.399 182.184 145.487 182.148C145.575 182.112 145.654 182.059 145.72 181.991C145.788 181.924 145.842 181.846 145.878 181.758C145.915 181.671 145.934 181.578 145.934 181.484C145.934 181.389 145.915 181.296 145.878 181.209C145.842 181.122 145.788 181.043 145.72 180.977L143.391 178.647Z" fill="#263238"/>
<path d="M85.8887 150.368V145.656L85.7202 145.723L85.4411 145.804L85.162 145.881C85.1026 145.895 85.0446 145.914 84.9888 145.938V145.197L85.239 145.096L85.5614 144.948C85.6715 144.895 85.7776 144.834 85.879 144.766C85.9675 144.706 86.0483 144.635 86.1197 144.556H86.8848V150.368H85.8887Z" fill="#263238"/>
<path d="M112.847 150.367V149.669L114.291 147.45C114.397 147.287 114.498 147.134 114.589 146.971C114.686 146.822 114.763 146.661 114.82 146.493C114.883 146.323 114.914 146.143 114.912 145.962C114.919 145.795 114.879 145.629 114.796 145.484C114.756 145.426 114.702 145.38 114.639 145.35C114.575 145.32 114.505 145.306 114.435 145.311C114.369 145.307 114.303 145.316 114.241 145.339C114.179 145.361 114.122 145.396 114.074 145.441C113.984 145.533 113.923 145.649 113.896 145.775C113.863 145.933 113.847 146.093 113.848 146.254V146.502H112.886V146.244C112.879 145.934 112.933 145.625 113.044 145.335C113.136 145.085 113.304 144.869 113.526 144.718C113.786 144.566 114.085 144.488 114.387 144.493C114.593 144.476 114.8 144.504 114.994 144.573C115.188 144.642 115.365 144.752 115.513 144.895C115.779 145.206 115.913 145.607 115.889 146.015C115.891 146.235 115.857 146.455 115.787 146.665C115.718 146.859 115.628 147.045 115.518 147.22C115.409 147.399 115.289 147.58 115.157 147.765L113.959 149.573H115.735V150.367H112.847Z" fill="#263238"/>
<path d="M141.009 150.454C140.701 150.467 140.395 150.398 140.123 150.253C139.903 150.115 139.734 149.911 139.642 149.669C139.536 149.39 139.486 149.092 139.493 148.794V148.593H140.455V148.76C140.457 148.921 140.475 149.081 140.508 149.239C140.529 149.351 140.585 149.455 140.667 149.535C140.762 149.607 140.88 149.642 140.999 149.636C141.059 149.64 141.119 149.633 141.176 149.614C141.233 149.595 141.286 149.565 141.331 149.526C141.414 149.439 141.468 149.328 141.485 149.21C141.511 149.052 141.524 148.892 141.524 148.732C141.534 148.491 141.486 148.252 141.384 148.033C141.326 147.943 141.246 147.871 141.15 147.823C141.054 147.775 140.947 147.753 140.84 147.761H140.672V146.933H140.855C140.956 146.942 141.059 146.928 141.154 146.891C141.249 146.855 141.334 146.797 141.403 146.723C141.519 146.522 141.571 146.292 141.553 146.062C141.561 145.865 141.523 145.669 141.442 145.488C141.398 145.417 141.334 145.36 141.258 145.324C141.182 145.287 141.097 145.273 141.014 145.283C140.929 145.274 140.843 145.291 140.768 145.332C140.693 145.373 140.633 145.436 140.595 145.512C140.519 145.701 140.482 145.902 140.484 146.105V146.321H139.522V146.043C139.513 145.753 139.572 145.465 139.695 145.201C139.808 144.975 139.99 144.789 140.215 144.67C140.469 144.541 140.752 144.479 141.038 144.489C141.327 144.478 141.615 144.539 141.875 144.666C142.097 144.782 142.277 144.964 142.39 145.187C142.515 145.447 142.576 145.732 142.568 146.019C142.569 146.328 142.475 146.63 142.298 146.885C142.174 147.094 141.974 147.248 141.74 147.316C141.894 147.364 142.033 147.449 142.144 147.564C142.27 147.701 142.362 147.865 142.414 148.043C142.486 148.265 142.521 148.498 142.515 148.732C142.519 149.044 142.469 149.355 142.366 149.65C142.277 149.904 142.109 150.122 141.885 150.272C141.616 150.415 141.312 150.479 141.009 150.454Z" fill="#263238"/>
<path d="M86.3748 160.671V159.236H84.6279V158.389L86.1486 154.85H87.3132V158.447H87.9196V159.236H87.3228V160.671H86.3748ZM85.4653 158.456H86.3748V155.931L85.4653 158.456Z" fill="#263238"/>
<path d="M114.387 160.757C114.071 160.776 113.756 160.701 113.483 160.542C113.267 160.398 113.11 160.183 113.04 159.934C112.95 159.633 112.908 159.32 112.915 159.006H113.877C113.874 159.181 113.887 159.355 113.916 159.528C113.931 159.658 113.986 159.78 114.075 159.877C114.119 159.922 114.174 159.956 114.234 159.976C114.294 159.997 114.358 160.004 114.421 159.997C114.49 160.003 114.56 159.992 114.624 159.964C114.687 159.935 114.742 159.89 114.782 159.834C114.859 159.696 114.903 159.542 114.912 159.384C114.912 159.188 114.941 158.963 114.941 158.705C114.944 158.508 114.932 158.311 114.902 158.117C114.887 157.975 114.834 157.839 114.748 157.724C114.702 157.676 114.646 157.638 114.584 157.614C114.521 157.59 114.454 157.58 114.387 157.586C114.323 157.585 114.26 157.596 114.2 157.62C114.141 157.644 114.086 157.679 114.041 157.724C113.944 157.83 113.874 157.959 113.839 158.098H112.977L113.035 154.859H115.663V155.749H113.877L113.82 157.15C113.903 157.053 114.011 156.98 114.132 156.94C114.287 156.883 114.449 156.853 114.614 156.849C114.879 156.823 115.145 156.89 115.364 157.04C115.567 157.201 115.715 157.42 115.788 157.667C115.884 157.977 115.932 158.299 115.927 158.624C115.93 158.907 115.909 159.19 115.865 159.47C115.833 159.706 115.756 159.933 115.639 160.14C115.524 160.33 115.357 160.483 115.157 160.58C114.919 160.701 114.655 160.761 114.387 160.757Z" fill="#263238"/>
<path d="M141.043 160.757C140.729 160.77 140.42 160.681 140.162 160.503C139.937 160.328 139.769 160.09 139.681 159.819C139.577 159.511 139.525 159.188 139.527 158.863V156.825C139.522 156.479 139.566 156.135 139.657 155.801C139.734 155.515 139.903 155.262 140.138 155.079C140.408 154.888 140.736 154.795 141.067 154.816C141.355 154.803 141.643 154.861 141.904 154.983C142.113 155.085 142.283 155.253 142.385 155.462C142.493 155.712 142.543 155.983 142.534 156.256C142.534 156.256 142.534 156.284 142.534 156.304C142.537 156.319 142.537 156.336 142.534 156.351H141.572C141.582 156.153 141.551 155.954 141.48 155.768C141.44 155.699 141.38 155.645 141.308 155.611C141.236 155.576 141.155 155.565 141.076 155.576C141.02 155.574 140.965 155.583 140.913 155.603C140.861 155.622 140.813 155.653 140.773 155.691C140.681 155.797 140.623 155.926 140.605 156.064C140.561 156.296 140.542 156.532 140.547 156.768V157.461C140.623 157.346 140.729 157.255 140.855 157.198C141.055 157.119 141.271 157.088 141.485 157.108C141.699 157.128 141.905 157.198 142.087 157.313C142.276 157.466 142.414 157.673 142.481 157.906C142.562 158.189 142.601 158.482 142.597 158.777C142.601 159.12 142.553 159.462 142.453 159.791C142.368 160.07 142.2 160.317 141.971 160.499C141.701 160.688 141.373 160.779 141.043 160.757ZM141.043 159.987C141.102 159.991 141.161 159.981 141.216 159.959C141.271 159.936 141.321 159.902 141.36 159.858C141.441 159.753 141.494 159.63 141.514 159.499C141.545 159.322 141.56 159.143 141.557 158.963C141.557 158.753 141.557 158.561 141.533 158.399C141.524 158.257 141.477 158.12 141.399 158.002C141.354 157.951 141.299 157.911 141.236 157.886C141.173 157.861 141.105 157.852 141.038 157.858C140.96 157.857 140.883 157.872 140.812 157.901C140.745 157.931 140.683 157.972 140.629 158.021C140.583 158.064 140.543 158.112 140.508 158.164V159.078C140.509 159.229 140.525 159.38 140.557 159.528C140.582 159.652 140.64 159.768 140.725 159.862C140.767 159.904 140.818 159.936 140.873 159.957C140.929 159.977 140.988 159.986 141.047 159.982L141.043 159.987Z" fill="#263238"/>
<path d="M85.292 170.974L86.4758 165.923H84.8926V165.163H87.4383V165.77L86.2593 170.974H85.292Z" fill="#263238"/>
<path d="M114.344 171.051C114.03 171.066 113.719 170.99 113.449 170.831C113.223 170.683 113.054 170.464 112.968 170.209C112.866 169.912 112.817 169.6 112.823 169.286C112.821 169.125 112.835 168.965 112.867 168.808C112.895 168.673 112.942 168.542 113.006 168.42C113.063 168.308 113.138 168.207 113.227 168.119C113.312 168.03 113.411 167.955 113.521 167.899C113.341 167.774 113.191 167.61 113.083 167.42C112.957 167.175 112.895 166.902 112.9 166.626C112.894 166.346 112.947 166.067 113.054 165.808C113.151 165.583 113.32 165.396 113.535 165.277C113.784 165.145 114.063 165.081 114.344 165.091C114.625 165.08 114.905 165.144 115.152 165.277C115.366 165.398 115.535 165.584 115.634 165.808C115.744 166.067 115.795 166.346 115.783 166.626C115.79 166.903 115.729 167.177 115.605 167.425C115.502 167.616 115.355 167.78 115.176 167.903C115.288 167.96 115.388 168.034 115.475 168.124C115.563 168.212 115.636 168.313 115.691 168.425C115.755 168.547 115.802 168.678 115.831 168.812C115.864 168.97 115.88 169.13 115.879 169.291C115.89 169.605 115.841 169.918 115.735 170.214C115.647 170.468 115.478 170.686 115.253 170.836C114.978 170.995 114.662 171.07 114.344 171.051ZM114.344 170.3C114.41 170.305 114.477 170.295 114.539 170.27C114.601 170.245 114.656 170.206 114.7 170.156C114.786 170.052 114.841 169.926 114.859 169.793C114.882 169.644 114.894 169.494 114.893 169.343C114.899 169.183 114.888 169.023 114.859 168.865C114.835 168.731 114.779 168.604 114.695 168.497C114.651 168.448 114.597 168.409 114.536 168.385C114.475 168.36 114.41 168.349 114.344 168.353C114.28 168.349 114.215 168.36 114.156 168.385C114.097 168.41 114.044 168.448 114.002 168.497C113.917 168.602 113.859 168.727 113.834 168.86C113.804 169.018 113.789 169.178 113.791 169.339C113.789 169.491 113.802 169.643 113.829 169.793C113.848 169.927 113.905 170.053 113.993 170.156C114.035 170.209 114.088 170.251 114.149 170.28C114.21 170.309 114.276 170.324 114.344 170.324V170.3ZM114.344 167.521C114.398 167.522 114.451 167.512 114.5 167.49C114.549 167.469 114.593 167.437 114.628 167.396C114.707 167.304 114.758 167.191 114.777 167.071C114.808 166.914 114.822 166.753 114.82 166.593C114.828 166.407 114.792 166.222 114.714 166.052C114.68 165.986 114.626 165.931 114.56 165.894C114.494 165.858 114.419 165.841 114.344 165.847C114.269 165.842 114.194 165.858 114.128 165.895C114.062 165.931 114.009 165.986 113.973 166.052C113.886 166.215 113.845 166.399 113.853 166.583C113.85 166.744 113.867 166.905 113.901 167.062C113.921 167.184 113.974 167.298 114.055 167.392C114.091 167.432 114.136 167.465 114.186 167.487C114.235 167.509 114.289 167.521 114.344 167.521Z" fill="#263238"/>
<path d="M114.344 181.149C114.047 181.162 113.752 181.089 113.497 180.938C113.272 180.793 113.096 180.585 112.991 180.34C112.873 180.064 112.815 179.765 112.823 179.465V176.887C112.816 176.582 112.872 176.279 112.987 175.997C113.08 175.752 113.248 175.543 113.468 175.399C113.733 175.258 114.029 175.184 114.329 175.184C114.63 175.184 114.926 175.258 115.191 175.399C115.409 175.545 115.577 175.753 115.672 175.997C115.784 176.28 115.84 176.582 115.835 176.887V179.465C115.841 179.766 115.782 180.064 115.662 180.34C115.557 180.585 115.382 180.793 115.157 180.938C114.911 181.083 114.629 181.156 114.344 181.149ZM114.344 180.297C114.406 180.301 114.468 180.292 114.525 180.268C114.583 180.245 114.634 180.209 114.676 180.163C114.75 180.065 114.8 179.95 114.82 179.828C114.845 179.704 114.858 179.577 114.859 179.451V176.901C114.857 176.768 114.845 176.635 114.825 176.504C114.806 176.383 114.758 176.268 114.685 176.169C114.643 176.122 114.59 176.085 114.53 176.062C114.471 176.039 114.407 176.03 114.344 176.035C114.281 176.03 114.218 176.039 114.159 176.062C114.1 176.085 114.048 176.122 114.007 176.169C113.932 176.268 113.883 176.382 113.862 176.504C113.843 176.636 113.834 176.768 113.834 176.901V179.451C113.832 179.578 113.845 179.704 113.872 179.828C113.894 179.95 113.945 180.065 114.021 180.163C114.061 180.209 114.111 180.244 114.167 180.268C114.223 180.291 114.283 180.301 114.344 180.297Z" fill="#263238"/>
<path d="M140.941 171.051C140.654 171.062 140.368 171.003 140.109 170.879C139.896 170.77 139.726 170.593 139.628 170.376C139.52 170.122 139.469 169.848 139.478 169.573V169.496H140.441C140.431 169.694 140.464 169.891 140.537 170.075C140.579 170.144 140.641 170.2 140.715 170.234C140.788 170.269 140.87 170.282 140.951 170.271C141.007 170.275 141.063 170.266 141.115 170.246C141.167 170.226 141.215 170.196 141.254 170.156C141.341 170.046 141.396 169.913 141.413 169.774C141.452 169.545 141.469 169.312 141.466 169.08V168.382C141.393 168.496 141.288 168.586 141.163 168.64C141.011 168.706 140.847 168.74 140.681 168.741C140.415 168.759 140.151 168.682 139.936 168.525C139.745 168.363 139.608 168.148 139.541 167.908C139.456 167.624 139.416 167.329 139.421 167.033C139.413 166.692 139.464 166.353 139.57 166.028C139.656 165.757 139.824 165.518 140.051 165.344C140.314 165.169 140.625 165.082 140.941 165.096C141.254 165.08 141.563 165.166 141.822 165.34C142.047 165.505 142.215 165.736 142.303 166C142.409 166.308 142.461 166.631 142.457 166.956V169.013C142.462 169.361 142.417 169.707 142.322 170.042C142.245 170.329 142.076 170.584 141.841 170.769C141.583 170.963 141.265 171.062 140.941 171.051ZM140.941 167.99C141.057 167.996 141.172 167.96 141.264 167.889C141.339 167.828 141.404 167.756 141.456 167.674V166.77C141.458 166.617 141.443 166.465 141.413 166.315C141.391 166.194 141.338 166.08 141.259 165.985C141.218 165.942 141.168 165.907 141.112 165.885C141.056 165.863 140.996 165.853 140.936 165.856C140.878 165.853 140.819 165.862 140.765 165.885C140.711 165.907 140.662 165.941 140.624 165.985C140.539 166.088 140.484 166.212 140.465 166.344C140.434 166.523 140.419 166.703 140.422 166.885C140.421 167.072 140.43 167.258 140.45 167.444C140.456 167.586 140.501 167.723 140.58 167.841C140.624 167.894 140.68 167.936 140.744 167.962C140.808 167.987 140.878 167.997 140.946 167.99H140.941Z" fill="#263238"/>
<path d="M206.202 22.0038C206.138 22.0038 206.077 21.9786 206.031 21.9338C205.986 21.8889 205.961 21.8281 205.961 21.7646V19.3729C205.961 19.3095 205.986 19.2487 206.031 19.2038C206.077 19.1589 206.138 19.1337 206.202 19.1337C206.265 19.1337 206.327 19.1589 206.372 19.2038C206.417 19.2487 206.442 19.3095 206.442 19.3729V21.7646C206.442 21.8281 206.417 21.8889 206.372 21.9338C206.327 21.9786 206.265 22.0038 206.202 22.0038ZM206.202 17.2204C206.138 17.2204 206.077 17.1952 206.031 17.1503C205.986 17.1055 205.961 17.0446 205.961 16.9812V14.5895C205.961 14.526 205.986 14.4652 206.031 14.4204C206.077 14.3755 206.138 14.3503 206.202 14.3503C206.265 14.3503 206.327 14.3755 206.372 14.4204C206.417 14.4652 206.442 14.526 206.442 14.5895V16.9812C206.442 17.0446 206.417 17.1055 206.372 17.1503C206.327 17.1952 206.265 17.2204 206.202 17.2204ZM206.202 12.4369C206.138 12.4369 206.077 12.4117 206.031 12.3669C205.986 12.322 205.961 12.2612 205.961 12.1978V9.80605C205.961 9.74261 205.986 9.68178 206.031 9.63692C206.077 9.59207 206.138 9.56687 206.202 9.56687C206.265 9.56687 206.327 9.59207 206.372 9.63692C206.417 9.68178 206.442 9.74261 206.442 9.80605V12.1978C206.442 12.2612 206.417 12.322 206.372 12.3669C206.327 12.4117 206.265 12.4369 206.202 12.4369ZM206.202 7.6535C206.138 7.6535 206.077 7.6283 206.031 7.58345C205.986 7.53859 205.961 7.47776 205.961 7.41433V5.02261C205.961 4.95918 205.986 4.89834 206.031 4.85349C206.077 4.80863 206.138 4.78344 206.202 4.78344C206.265 4.78344 206.327 4.80863 206.372 4.85349C206.417 4.89834 206.442 4.95918 206.442 5.02261V7.41433C206.442 7.47776 206.417 7.53859 206.372 7.58345C206.327 7.6283 206.265 7.6535 206.202 7.6535ZM206.202 2.87006C206.138 2.87006 206.077 2.84486 206.031 2.80001C205.986 2.75516 205.961 2.69432 205.961 2.63089V0.239172C205.961 0.17574 205.986 0.114905 206.031 0.0700516C206.077 0.0251982 206.138 0 206.202 0C206.265 0 206.327 0.0251982 206.372 0.0700516C206.417 0.114905 206.442 0.17574 206.442 0.239172V2.63089C206.442 2.69432 206.417 2.75516 206.372 2.80001C206.327 2.84486 206.265 2.87006 206.202 2.87006Z" fill="#263238"/>
<path d="M194.272 95.9174H192.092C192.028 95.9174 191.967 95.8922 191.922 95.8473C191.877 95.8025 191.852 95.7416 191.852 95.6782C191.853 95.6152 191.879 95.555 191.923 95.5104C191.968 95.4659 192.029 95.4403 192.092 95.439H194.498C194.562 95.439 194.623 95.4642 194.668 95.5091C194.714 95.554 194.739 95.6148 194.739 95.6782C194.739 95.7416 194.714 95.8025 194.668 95.8473C194.623 95.8922 194.562 95.9174 194.498 95.9174H194.272ZM189.686 95.9174H187.28C187.216 95.9174 187.155 95.8922 187.11 95.8473C187.065 95.8025 187.039 95.7416 187.039 95.6782C187.04 95.6152 187.066 95.555 187.111 95.5104C187.156 95.4659 187.216 95.4403 187.28 95.439H189.686C189.75 95.439 189.811 95.4642 189.856 95.5091C189.901 95.554 189.927 95.6148 189.927 95.6782C189.927 95.7109 189.92 95.7432 189.907 95.7732C189.894 95.8032 189.875 95.8302 189.851 95.8526C189.827 95.875 189.799 95.8923 189.768 95.9035C189.737 95.9146 189.704 95.9193 189.672 95.9174H189.686ZM184.874 95.9174H182.468C182.404 95.9174 182.343 95.8922 182.297 95.8473C182.252 95.8025 182.227 95.7416 182.227 95.6782C182.228 95.6152 182.254 95.555 182.299 95.5104C182.344 95.4659 182.404 95.4403 182.468 95.439H184.874C184.938 95.439 184.999 95.4642 185.044 95.5091C185.089 95.554 185.114 95.6148 185.114 95.6782C185.114 95.7109 185.108 95.7432 185.095 95.7732C185.082 95.8032 185.063 95.8302 185.039 95.8526C185.015 95.875 184.987 95.8923 184.956 95.9035C184.925 95.9146 184.892 95.9193 184.859 95.9174H184.874ZM180.061 95.9174H177.655C177.591 95.9174 177.53 95.8922 177.485 95.8473C177.44 95.8025 177.415 95.7416 177.415 95.6782C177.416 95.6152 177.442 95.555 177.486 95.5104C177.531 95.4659 177.592 95.4403 177.655 95.439H180.061C180.125 95.439 180.186 95.4642 180.232 95.5091C180.277 95.554 180.302 95.6148 180.302 95.6782C180.302 95.7109 180.295 95.7432 180.282 95.7732C180.269 95.8032 180.25 95.8302 180.226 95.8526C180.203 95.875 180.174 95.8923 180.143 95.9035C180.113 95.9146 180.08 95.9193 180.047 95.9174H180.061ZM175.249 95.9174H172.843C172.779 95.9174 172.718 95.8922 172.673 95.8473C172.628 95.8025 172.602 95.7416 172.602 95.6782C172.603 95.6152 172.629 95.555 172.674 95.5104C172.719 95.4659 172.779 95.4403 172.843 95.439H175.249C175.313 95.439 175.374 95.4642 175.419 95.5091C175.464 95.554 175.49 95.6148 175.49 95.6782C175.49 95.7109 175.483 95.7432 175.47 95.7732C175.457 95.8032 175.438 95.8302 175.414 95.8526C175.39 95.875 175.362 95.8923 175.331 95.9035C175.3 95.9146 175.267 95.9193 175.235 95.9174H175.249ZM170.437 95.9174H169.157C169.093 95.9174 169.032 95.8922 168.986 95.8473C168.941 95.8025 168.916 95.7416 168.916 95.6782C168.917 95.6152 168.943 95.555 168.988 95.5104C169.033 95.4659 169.093 95.4403 169.157 95.439H170.437C170.501 95.439 170.562 95.4642 170.607 95.5091C170.652 95.554 170.677 95.6148 170.677 95.6782C170.677 95.7109 170.671 95.7432 170.658 95.7732C170.645 95.8032 170.626 95.8302 170.602 95.8526C170.578 95.875 170.55 95.8923 170.519 95.9035C170.488 95.9146 170.455 95.9193 170.422 95.9174H170.437ZM196.905 95.6352C196.841 95.6421 196.777 95.6236 196.727 95.5837C196.677 95.5438 196.644 95.4857 196.637 95.4223C196.63 95.3589 196.649 95.2953 196.689 95.2455C196.729 95.1957 196.788 95.1638 196.852 95.1568C197.619 94.988 198.368 94.7412 199.084 94.4202C199.113 94.4067 199.144 94.3991 199.176 94.3978C199.208 94.3966 199.239 94.4017 199.269 94.4128C199.299 94.424 199.326 94.441 199.348 94.4628C199.371 94.4846 199.39 94.5108 199.402 94.5398C199.428 94.5975 199.43 94.6631 199.408 94.7223C199.385 94.7815 199.34 94.8294 199.282 94.8555C198.535 95.1897 197.756 95.4478 196.957 95.6256L196.905 95.6352ZM201.264 93.6883C201.214 93.6883 201.165 93.6725 201.124 93.6432C201.083 93.6138 201.052 93.5724 201.036 93.5248C201.02 93.4771 201.02 93.4257 201.035 93.3778C201.05 93.3299 201.08 93.2879 201.12 93.2578C201.758 92.7994 202.35 92.2804 202.886 91.708C202.931 91.671 202.988 91.6514 203.046 91.6529C203.104 91.6543 203.16 91.6767 203.203 91.7158C203.245 91.7549 203.273 91.8081 203.279 91.8656C203.285 91.9231 203.271 91.981 203.238 92.0285C202.682 92.6268 202.068 93.1684 201.404 93.6453C201.354 93.6803 201.292 93.6956 201.231 93.6883H201.264ZM204.508 90.2012C204.464 90.2021 204.421 90.1905 204.383 90.1677C204.329 90.1341 204.29 90.0808 204.275 90.0192C204.259 89.9575 204.269 89.8924 204.301 89.8376C204.71 89.17 205.05 88.4633 205.316 87.7281C205.327 87.6982 205.343 87.6707 205.364 87.6471C205.385 87.6236 205.411 87.6046 205.44 87.5912C205.468 87.5778 205.5 87.5703 205.531 87.5692C205.563 87.568 205.595 87.5733 205.624 87.5846C205.684 87.6062 205.733 87.6506 205.76 87.708C205.787 87.7654 205.79 87.8312 205.769 87.8908C205.492 88.6558 205.139 89.3914 204.715 90.0864C204.691 90.127 204.655 90.1595 204.612 90.18C204.569 90.2004 204.521 90.2078 204.474 90.2012H204.508ZM206.12 85.7287H206.082C206.019 85.7181 205.963 85.6837 205.925 85.6329C205.887 85.582 205.871 85.5186 205.879 85.456C205.956 84.9092 205.995 84.3578 205.995 83.8057V83.1073C205.995 83.0439 206.02 82.9831 206.065 82.9382C206.111 82.8934 206.172 82.8682 206.236 82.8682C206.299 82.8682 206.361 82.8934 206.406 82.9382C206.451 82.9831 206.476 83.0439 206.476 83.1073V83.8057C206.477 84.3803 206.437 84.9541 206.356 85.523C206.348 85.5857 206.314 85.6426 206.264 85.6812C206.213 85.7197 206.15 85.7368 206.086 85.7287H206.12ZM206.236 80.9452C206.172 80.944 206.112 80.9184 206.067 80.8738C206.022 80.8292 205.996 80.7691 205.995 80.7061V78.3143C205.995 78.2509 206.02 78.1901 206.065 78.1452C206.111 78.1004 206.172 78.0752 206.236 78.0752C206.299 78.0752 206.361 78.1004 206.406 78.1452C206.451 78.1901 206.476 78.2509 206.476 78.3143V80.7061C206.478 80.7413 206.472 80.7765 206.458 80.8091C206.445 80.8417 206.424 80.8709 206.398 80.8947C206.372 80.9185 206.341 80.9362 206.307 80.9466C206.273 80.957 206.237 80.9598 206.202 80.9548L206.236 80.9452ZM206.236 76.1618C206.172 76.1606 206.112 76.135 206.067 76.0904C206.022 76.0458 205.996 75.9857 205.995 75.9226V73.5309C205.995 73.4675 206.02 73.4066 206.065 73.3618C206.111 73.3169 206.172 73.2917 206.236 73.2917C206.299 73.2917 206.361 73.3169 206.406 73.3618C206.451 73.4066 206.476 73.4675 206.476 73.5309V75.9226C206.478 75.9578 206.472 75.993 206.458 76.0257C206.445 76.0583 206.424 76.0875 206.398 76.1113C206.372 76.1351 206.341 76.1528 206.307 76.1632C206.273 76.1735 206.237 76.1763 206.202 76.1714L206.236 76.1618ZM206.236 71.3784C206.172 71.3771 206.112 71.3515 206.067 71.3069C206.022 71.2624 205.996 71.2022 205.995 71.1392V68.7475C205.995 68.684 206.02 68.6232 206.065 68.5783C206.111 68.5335 206.172 68.5083 206.236 68.5083C206.299 68.5083 206.361 68.5335 206.406 68.5783C206.451 68.6232 206.476 68.684 206.476 68.7475V71.1392C206.478 71.1744 206.472 71.2096 206.458 71.2422C206.445 71.2748 206.424 71.3041 206.398 71.3278C206.372 71.3516 206.341 71.3693 206.307 71.3797C206.273 71.3901 206.237 71.3929 206.202 71.3879L206.236 71.3784ZM206.236 66.5949C206.172 66.5937 206.112 66.5681 206.067 66.5235C206.022 66.4789 205.996 66.4188 205.995 66.3557V63.964C205.995 63.9006 206.02 63.8398 206.065 63.7949C206.111 63.7501 206.172 63.7249 206.236 63.7249C206.299 63.7249 206.361 63.7501 206.406 63.7949C206.451 63.8398 206.476 63.9006 206.476 63.964V66.3557C206.478 66.391 206.472 66.4262 206.458 66.4588C206.445 66.4914 206.424 66.5206 206.398 66.5444C206.372 66.5682 206.341 66.5859 206.307 66.5963C206.273 66.6067 206.237 66.6095 206.202 66.6045L206.236 66.5949Z" fill="#263238"/>
<path d="M170.023 92.6982L164.825 95.6783L170.023 98.6632V92.6982Z" fill="#263238"/>
<path d="M232.835 34.3361L190.131 25.5996L183.839 55.988L226.543 64.7246L232.835 34.3361Z" fill="#EF692C"/>
<path d="M224.522 62.1703L181.346 53.3401L181.394 53.1057L187.736 22.4917L230.913 31.3171L230.865 31.5515L224.522 62.1703ZM181.914 52.967L224.147 61.6059L230.364 31.6903L188.107 23.0514L181.914 52.967Z" fill="#263238"/>
</svg>
