<svg width="240" height="303" viewBox="0 0 240 303" fill="none" xmlns="http://www.w3.org/2000/svg">
<g clip-path="url(#clip0_1_4159)">
<path fill-rule="evenodd" clip-rule="evenodd" d="M225.147 26.3438C235.464 41.9151 248.13 73.3129 228.378 86.7437C225.766 88.521 222.396 53.754 223.316 44.5812L225.147 26.3438Z" fill="#3D2020"/>
<ellipse cx="115.5" cy="302.5" rx="124.5" ry="3.5" fill="black" fill-opacity="0.3"/>
<path fill-rule="evenodd" clip-rule="evenodd" d="M96.0326 170.211C96.0326 170.211 98.4204 200.511 94.997 209.723C91.5814 218.934 89.4099 216.438 88.6371 217.226C87.8643 218.015 79.2325 221.5 80.7548 217.605C82.2772 213.71 84.271 172.019 84.271 172.019L96.0403 170.211H96.0326Z" fill="#A08750"/>
<path fill-rule="evenodd" clip-rule="evenodd" d="M96.8285 116.047C94.317 119.401 96.5735 121.094 97.8563 122.562C95.1979 123.149 91.6509 121.781 89.8735 117.879C90.3913 117.693 92.416 117.709 96.7667 116.071L96.8285 116.047Z" fill="#A45750"/>
<path fill-rule="evenodd" clip-rule="evenodd" d="M97.377 123.721C97.346 123.597 97.7402 121.295 97.2456 120.916C96.751 120.537 89.5951 122.438 89.6724 122.647C89.742 122.848 88.5673 124.849 90.4606 125.012C92.3539 125.174 97.377 123.721 97.377 123.721Z" fill="white"/>
<path fill-rule="evenodd" clip-rule="evenodd" d="M96.7665 115.692C96.7974 115.823 97.4929 117.693 97.207 118.196C96.9211 118.698 89.7961 120.05 89.7729 119.834C89.742 119.625 87.6478 117.284 89.3247 116.565C91.0016 115.846 96.7665 115.692 96.7665 115.692Z" fill="white"/>
<path fill-rule="evenodd" clip-rule="evenodd" d="M127.592 143.705C129.061 142.252 131.008 140.374 131.008 139.833C131.008 139.145 130.235 132.237 130.367 131.209C130.444 130.606 136.162 124.548 137.685 124.045C138.203 123.875 143.457 122.222 144.825 122.222C145.853 122.222 144.848 124.092 144.748 124.169C144.145 124.633 141.093 125.181 138.89 126.858C138.89 126.858 137.669 128.844 137.028 129.733C136.054 131.101 135.707 132.368 136.464 133.52C136.634 133.782 140.111 131.078 141.224 131.116C142.337 131.163 142.94 132.19 142.77 132.577C142.6 132.963 135.305 145.536 135.305 145.536L132.445 145.297C129.254 150.041 115.591 170.118 112.562 170.721C109.131 171.409 85.2754 159.392 85.7854 158.194C86.3032 156.996 91.8362 144.022 91.8362 144.022C94.5796 143.852 109.185 159.407 110.893 161.023C112.809 158.009 123.072 148.048 127.6 143.697L127.592 143.705Z" fill="#F7C5A8"/>
<path fill-rule="evenodd" clip-rule="evenodd" d="M198.502 65.9868C196.563 66.2882 188.904 68.9465 188.557 69.5184C188.209 70.098 188.804 73.9696 189.121 74.3946C189.438 74.8196 191.053 76.0097 191.053 76.0097C191.053 76.0097 189.329 93.088 188.788 97.3768C188.247 101.666 187.606 104.633 190.218 105.947C192.83 107.261 197.428 106.441 199.53 104.741C201.632 103.034 203.958 92.8561 203.803 88.4127C203.657 83.9692 198.502 65.9868 198.502 65.9868Z" fill="#E18693"/>
<path fill-rule="evenodd" clip-rule="evenodd" d="M212.59 268.863C212.59 268.863 212.512 274.442 211.485 277.943C210.457 281.444 206.817 284.921 206.817 284.921C206.817 284.921 215.696 290.64 218.71 291.443C221.724 292.247 227.041 290.392 227.041 290.392L226.693 267.812L212.59 268.863Z" fill="#F9D3BD"/>
<path fill-rule="evenodd" clip-rule="evenodd" d="M218.555 287.209C217.705 286.235 210.781 280.926 209.019 280.996C207.265 281.065 206.57 283.631 202.242 286.923C197.915 290.207 187.992 290.617 185.883 290.849C183.773 291.08 181.516 293.02 182.521 295.037C187.907 305.825 216.546 300.431 225.673 297.78L223.362 288.43L218.548 287.209H218.555Z" fill="#1F2A2E"/>
<path fill-rule="evenodd" clip-rule="evenodd" d="M193.379 289.457C193.564 289.411 193.742 289.519 193.788 289.705L194.36 292.193C194.399 292.379 194.29 292.564 194.105 292.61C193.919 292.657 193.742 292.549 193.695 292.363L193.124 289.875C193.085 289.689 193.193 289.504 193.379 289.457Z" fill="#D4E9D7"/>
<path fill-rule="evenodd" clip-rule="evenodd" d="M195.28 289.187C195.465 289.141 195.643 289.249 195.689 289.434L196.261 291.923C196.3 292.108 196.192 292.294 196.006 292.34C195.821 292.386 195.643 292.278 195.596 292.093L195.025 289.604C194.986 289.419 195.094 289.233 195.28 289.187Z" fill="#D4E9D7"/>
<path fill-rule="evenodd" clip-rule="evenodd" d="M197.196 288.654C197.382 288.607 197.559 288.716 197.606 288.901L198.178 291.389C198.216 291.575 198.108 291.76 197.923 291.807C197.737 291.853 197.559 291.745 197.513 291.559L196.941 289.071C196.903 288.886 197.011 288.7 197.196 288.654Z" fill="#D4E9D7"/>
<path fill-rule="evenodd" clip-rule="evenodd" d="M198.935 288.151C199.113 288.097 199.298 288.198 199.352 288.383L200.009 290.841C200.055 291.026 199.947 291.219 199.769 291.273C199.592 291.327 199.399 291.227 199.352 291.041L198.695 288.584C198.649 288.399 198.757 288.205 198.935 288.151Z" fill="#D4E9D7"/>
<path fill-rule="evenodd" clip-rule="evenodd" d="M200.805 287.386C200.983 287.317 201.176 287.41 201.238 287.587L202.096 289.975C202.157 290.153 202.065 290.354 201.895 290.423C201.717 290.493 201.524 290.4 201.462 290.223L200.604 287.835C200.542 287.657 200.635 287.456 200.805 287.386Z" fill="#D4E9D7"/>
<path fill-rule="evenodd" clip-rule="evenodd" d="M202.497 286.359C202.675 286.297 202.868 286.397 202.922 286.575L203.664 289.009C203.718 289.187 203.618 289.388 203.44 289.45C203.262 289.512 203.069 289.411 203.015 289.233L202.273 286.799C202.219 286.621 202.32 286.42 202.497 286.359Z" fill="#D4E9D7"/>
<path fill-rule="evenodd" clip-rule="evenodd" d="M223.679 297.008C211.353 297.873 192.977 297.147 184.337 294.767C183.526 294.542 182.799 294.303 182.174 294.048C182.15 294.388 182.174 294.736 182.259 295.091C182.398 295.694 182.691 296.312 183.178 296.892C184.144 298.043 186.849 298.947 190.512 299.612C191.81 299.851 193.224 300.052 194.716 300.23C208.085 301.822 228.161 301.173 230.139 298.939C230.317 298.746 230.41 297.664 230.449 296.25C229.969 296.328 229.467 296.405 228.942 296.474C227.373 296.691 225.596 296.861 223.671 297L223.679 297.008Z" fill="#E9A482"/>
<path fill-rule="evenodd" clip-rule="evenodd" d="M199.769 140.181C198.332 165.922 201.485 183.395 204.236 203.131C205.132 209.553 203.842 215.07 205.418 221.013C206.67 225.758 208.301 228.192 208.355 229.645C208.401 231.098 211.315 265.223 211.168 267.526C211.021 269.837 210.743 271.692 210.944 271.97C211.145 272.248 221.886 272.997 221.886 272.997L227.504 272.472C227.504 272.472 230.765 240.657 227.257 227.01C221.268 203.757 224.869 172.854 223.942 148.427L199.785 140.173L199.769 140.181Z" fill="#3B4248"/>
<path fill-rule="evenodd" clip-rule="evenodd" d="M215.495 268.987C215.495 268.987 215.65 274.96 214.29 278.422C212.93 281.884 210.874 284.241 210.874 284.241C210.874 284.241 201.933 290.663 196.818 291.521C191.702 292.371 186.64 292.873 185.836 293.831C185.033 294.782 184.832 294.28 186.138 295.539C187.444 296.791 199.94 299.403 204.306 300.052C208.672 300.701 228.439 300.431 229.444 298.723C230.449 297.015 230.294 293.252 229.243 289.689C228.123 285.895 228.609 270.177 228.138 269.868C227.837 269.667 215.495 268.987 215.495 268.987Z" fill="#F9D3BD"/>
<path fill-rule="evenodd" clip-rule="evenodd" d="M230.727 287.835C230.642 287.41 230.364 285.957 229.761 286.003C229.158 286.05 224.382 291.134 221.67 291.134C218.958 291.134 214.87 285.887 213.641 284.357C212.412 282.835 210.078 281.629 208.826 282.333C207.575 283.036 206.014 287.657 199.445 289.759C192.869 291.861 185.442 291.737 184.19 292.889C182.939 294.04 182.637 296.157 184.144 297.958C188.495 303.159 228.277 303.205 231.113 300.014C231.662 299.388 231.415 289.89 231.237 288.971C231.059 288.051 230.735 287.835 230.735 287.835H230.727Z" fill="#2F393D"/>
<path fill-rule="evenodd" clip-rule="evenodd" d="M202.25 127.082L196.23 133.102C196.686 138.558 200.14 152.12 203.556 155.984C203.556 155.984 205.465 195.024 205.866 201.547C206.268 208.069 205.565 208.27 206.067 214.692C206.57 221.113 211.886 227.435 212.288 233.261C212.69 239.08 213.903 271.684 215.402 272.387C216.909 273.09 228.285 272.943 228.354 272.611C233.292 247.782 230.093 229.645 229.243 223.13C228.037 213.849 227.489 200.797 228.339 196.184C229.189 191.57 228.887 178.317 230.193 169.492C231.499 160.659 232.303 158.248 232.303 158.248C237.465 151.796 241.244 133.589 229.822 123.659C229.22 123.358 202.25 127.082 202.25 127.082Z" fill="#485157"/>
<path fill-rule="evenodd" clip-rule="evenodd" d="M205.472 64.2867C204.661 64.2249 187.003 69.1011 187.003 69.1011L189.182 77.8025L207.327 72.1613L205.472 64.2867Z" fill="#9ED8F5"/>
<path fill-rule="evenodd" clip-rule="evenodd" d="M204.731 65.3611C203.919 65.2993 186.261 68.9777 186.261 68.9777L188.441 78.8846L206.585 73.2434L204.731 65.3688V65.3611Z" fill="#D36C7B"/>
<path fill-rule="evenodd" clip-rule="evenodd" d="M192.08 126.403C194.491 125.437 205.163 124.138 201.956 115.143C201.454 113.737 198.85 86.6279 197.915 87.1843C196.98 87.7407 191.995 83.5986 191.995 83.5986C191.926 89.5258 190.844 126.889 192.08 126.395V126.403Z" fill="#95676E"/>
<path fill-rule="evenodd" clip-rule="evenodd" d="M181.787 17.1865C170.319 23.4923 182.05 33.1675 186.802 37.2554C193.363 42.9044 198.239 54.1173 198.239 54.1173L209.877 36.3513L181.779 17.1865H181.787Z" fill="#3D2020"/>
<path fill-rule="evenodd" clip-rule="evenodd" d="M147.29 126.117C148.187 126.117 148.905 126.843 148.905 127.732C148.905 128.62 148.179 129.347 147.29 129.347C146.402 129.347 145.675 128.62 145.675 127.732C145.675 126.843 146.402 126.117 147.29 126.117ZM147.29 126.557C146.641 126.557 146.116 127.083 146.116 127.732C146.116 128.381 146.641 128.906 147.29 128.906C147.94 128.906 148.465 128.381 148.465 127.732C148.465 127.083 147.94 126.557 147.29 126.557Z" fill="#EF8200"/>
<path fill-rule="evenodd" clip-rule="evenodd" d="M148.635 127.732C148.635 126.99 148.032 126.395 147.298 126.395C146.564 126.395 145.961 126.998 145.961 127.732C145.961 128.466 146.564 129.069 147.298 129.069C148.032 129.069 148.635 128.466 148.635 127.732ZM147.298 126.557C147.947 126.557 148.473 127.083 148.473 127.732C148.473 128.381 147.947 128.907 147.298 128.907C146.649 128.907 146.124 128.381 146.124 127.732C146.124 127.083 146.649 126.557 147.298 126.557Z" fill="#DE7F03"/>
<path fill-rule="evenodd" clip-rule="evenodd" d="M150.946 128.852C151.007 128.59 151.162 127.84 151.162 127.84C151.162 127.84 150.853 127.747 148.681 128.219C146.51 128.69 144.454 129.617 144.454 129.617C144.454 129.617 145.165 130.475 145.25 130.498C145.335 130.521 150.946 128.845 150.946 128.845V128.852Z" fill="#FFF8B0"/>
<path fill-rule="evenodd" clip-rule="evenodd" d="M140.22 127.608C139.887 125.792 141.533 123.93 143.233 123.953C143.233 123.953 145.065 129.872 145.065 129.749C145.065 129.625 151.293 127.902 151.293 127.902C151.293 127.902 152.283 129.378 151.657 130.676C150.837 132.376 143.805 134.424 143.156 133.821C141.866 132.631 140.567 129.555 140.212 127.6L140.22 127.608Z" fill="#A33F43"/>
<path fill-rule="evenodd" clip-rule="evenodd" d="M140.22 127.608C139.887 125.792 141.533 123.93 143.233 123.953C140.552 126.194 142.283 130.545 143.04 130.63C143.288 130.653 149.539 130.065 151.865 129.803C151.858 130.089 151.796 130.39 151.657 130.676C150.837 132.376 143.805 134.424 143.156 133.821C141.866 132.631 140.567 129.555 140.212 127.6L140.22 127.608Z" fill="#983038"/>
<path fill-rule="evenodd" clip-rule="evenodd" d="M103.196 151.958C103.196 151.958 92.7327 142.167 88.4825 141.271C69.9282 137.384 73.6994 159.083 82.8644 166.417C86.2955 169.16 97.5935 174.16 97.9644 173.279C98.3353 172.398 103.196 151.95 103.196 151.95V151.958Z" fill="#AB9362"/>
<path fill-rule="evenodd" clip-rule="evenodd" d="M104.664 152.499C104.749 153.102 100.252 174.469 98.6599 174.036C97.0603 173.611 92.9646 173.016 93.5983 171.548C94.2242 170.08 99.1777 148.89 100.553 149.153C101.929 149.408 104.672 152.499 104.672 152.499H104.664Z" fill="#C3A872"/>
<path fill-rule="evenodd" clip-rule="evenodd" d="M103.853 286.034C102.354 288.824 101.28 291.528 101.318 294.658C101.365 297.788 101.705 298.174 101.573 298.561C101.442 298.947 101.272 300.709 101.705 301.134C102.137 301.567 114.965 301.652 115.004 301.18C115.05 300.709 115.05 299.38 115.05 299.38C115.05 299.38 119.123 301.18 125.475 301.095C131.827 301.01 145.428 296.721 145.428 295.686C145.428 294.65 144.439 293.669 143.929 293.584C143.411 293.499 136.379 294.658 130.884 292.726C125.39 290.794 121.619 287.232 119.811 285.903C118.01 284.573 117.709 284.187 117.067 284.187C116.426 284.187 103.853 286.034 103.853 286.034Z" fill="#2A231E"/>
<path fill-rule="evenodd" clip-rule="evenodd" d="M80.8477 237.149C90.4609 238.648 112.184 234.699 113.559 234.359C109.641 246.762 99.0155 288.638 102.3 289.365C104.618 289.883 122.616 288.824 121.503 287.24C116.944 280.756 129.787 242.535 132.082 235.518C135.174 226.075 137.747 220.928 132.6 216.469C127.454 212.01 84.2556 210.271 84.2556 210.271L80.8554 237.156L80.8477 237.149Z" fill="#302623"/>
<path fill-rule="evenodd" clip-rule="evenodd" d="M19.6208 265.903C18.9794 265.262 14.3041 263.075 11.4294 262.472C8.55468 261.869 8.46968 261.954 6.75412 261.954C5.03857 261.954 3.53939 261.182 3.02163 262.341C2.50387 263.5 0.486938 273.538 0.91969 273.971C1.35244 274.404 3.49302 275.385 3.49302 275.385C3.49302 275.385 0.185556 281.521 0.0155463 286.753C-0.154464 291.984 1.56109 295.848 6.28273 298.422C11.0044 300.995 18.3844 302.711 17.5266 299.797C16.6688 296.876 9.80658 292.247 10.7494 290.184C11.6921 288.121 16.9315 282.549 16.9315 282.549L19.6362 265.903H19.6208Z" fill="#2A231E"/>
<path fill-rule="evenodd" clip-rule="evenodd" d="M57.1696 216.345C55.624 218.231 52.7107 226.469 52.8807 230.935C53.0507 235.394 61.9762 246.723 62.1462 250.332C62.3162 253.956 66.1105 277.958 67.2929 281.737C67.2929 281.737 46.3507 272.897 37.1702 270.493C27.9897 268.09 20.1769 265.347 18.9791 265.262C17.7813 265.177 16.6608 265.695 16.3208 266.552C15.9808 267.41 14.698 283.082 16.1508 283.283C29.0252 285.06 35.7792 285.702 66.806 300.137C72.3314 302.71 83.297 301.258 86.5581 296.629C89.8192 291.992 90.4606 238.663 90.4606 238.663C90.4606 238.663 89.2628 210.341 86.8595 210.001C84.4562 209.661 57.1696 216.353 57.1696 216.353V216.345Z" fill="#362E2C"/>
<path fill-rule="evenodd" clip-rule="evenodd" d="M55.0369 220.735C53.8391 223.988 52.765 228.177 52.8732 230.928C53.0432 235.387 61.9687 246.715 62.1387 250.324C62.3087 253.949 66.103 277.951 67.2854 281.73C67.2854 281.73 46.3433 272.889 37.1627 270.486C27.9822 268.083 20.1694 265.339 18.9716 265.254C17.7738 265.169 16.6533 265.687 16.3133 266.545C16.1897 266.862 15.9346 269.172 15.7415 271.977C23.701 273.886 63.692 283.507 64.8898 284.28C66.219 285.138 72.3934 290.74 72.8648 291.304C73.3362 291.876 71.5356 287.603 72.6716 287.031C73.8076 286.459 68.1123 250.185 68.1123 250.185C68.1123 250.185 65.8326 243.539 65.6394 239.359C65.4462 235.178 72.2852 220.557 72.2852 220.557C72.2852 220.557 63.8852 220.65 55.0215 220.743L55.0369 220.735Z" fill="#332927"/>
<path fill-rule="evenodd" clip-rule="evenodd" d="M71.837 120.313C71.3656 120.599 68.259 120.297 68.259 120.297C68.259 120.297 71.5665 129.177 71.211 133.094C70.8555 137.012 71.4119 139.671 71.4119 139.671C74.6421 140.683 91.9368 145.088 90.2521 143.148C88.5289 141.162 87.6788 138.736 87.8334 135.073C87.9416 132.569 89.8735 130.011 93.15 129.524C94.0928 129.385 71.837 120.305 71.837 120.305V120.313Z" fill="#F5BE9D"/>
<path fill-rule="evenodd" clip-rule="evenodd" d="M90.4531 164.546C90.6231 166.61 92.9105 170.304 92.9105 170.304C92.5782 184.051 89.4098 194.314 92.47 210.696C93.1191 214.174 77.5168 225.41 67.8031 223.934C63.8542 223.331 59.7354 222.388 60.1681 220.155C61.1032 215.302 78.1505 167.313 80.7393 166.262L90.4608 164.546H90.4531Z" fill="white"/>
<path fill-rule="evenodd" clip-rule="evenodd" d="M67.5249 136.046C66.8526 136.023 66.9376 130.676 68.8231 129.362C69.9282 128.597 88.7838 136.502 90.6849 139.277C90.6849 139.277 91.0558 148.658 90.453 148.009C89.8503 147.368 68.854 135.923 67.5171 136.046H67.5249Z" fill="#C5AB71"/>
<path fill-rule="evenodd" clip-rule="evenodd" d="M87.4624 142.631C84.4254 139.818 68.9467 134.455 67.6794 135.877C54.9905 150.119 57.131 162.769 57.5097 176.957C57.6797 183.194 59.8667 192.807 57.9347 198.409C57.1929 200.573 46.5673 228.718 48.3292 229.39C72.3083 238.578 67.0612 233.091 76.8754 228.323C79.8274 226.886 95.6847 198.695 95.4374 178.58C95.1901 158.465 93.5518 156.1 92.5163 151.804C91.4885 147.515 87.4546 142.623 87.4546 142.623L87.4624 142.631Z" fill="#D7BE87"/>
<path fill-rule="evenodd" clip-rule="evenodd" d="M78.5368 142.492C73.0655 145.227 70.3145 157.978 79.0081 165.149C82.4393 167.978 108.953 178.673 111.465 178.14C115.8 177.22 137.283 149.091 137.283 147.337C138.581 146.61 141.819 144.408 142.94 143.906C144.052 143.403 146.889 140.985 146.974 140.73C147.059 140.475 149.933 134.934 149.933 134.934C149.933 134.934 150.15 130.684 149.292 130.382C148.434 130.081 148.001 133.473 147.916 133.945C147.831 134.416 143.882 136.433 143.326 136.773C142.77 137.113 144.91 134.455 145.343 133.945C145.776 133.427 147.576 130.73 147.53 130.081C147.484 129.439 146.587 128.62 145.173 129.177C143.759 129.733 142.731 131.966 141.865 132.778C141.008 133.597 137.577 135.096 135.946 136.34C134.694 137.299 132.909 141.618 132.074 143.96C128.628 149.323 116.866 156.208 111.086 163.866C104.123 158.488 85.7854 140.791 78.5368 142.476V142.492Z" fill="#F9D3BD"/>
<path fill-rule="evenodd" clip-rule="evenodd" d="M99.2086 152.144C99.2086 152.144 88.5598 142.994 84.4873 141.456C67.7568 135.127 59.5422 154.81 78.8692 166.602C82.6249 168.89 93.5983 174.345 93.9692 173.464C94.3401 172.583 99.2009 152.136 99.2009 152.136L99.2086 152.144Z" fill="#D7BE87"/>
<path fill-rule="evenodd" clip-rule="evenodd" d="M98.8763 151.858C91.6122 145.938 74.5262 132.399 65.4539 138.543C74.1012 144.841 100.646 161.579 98.3199 157.53C97.7171 156.487 98.2503 151.896 98.8763 151.85V151.858Z" fill="#DAC698"/>
<path fill-rule="evenodd" clip-rule="evenodd" d="M102.709 154.632C102.794 155.235 98.5208 177.143 96.9598 176.687C95.3988 176.231 91.1718 175.072 91.8054 173.604C92.4314 172.135 97.2148 151.031 98.5904 151.286C99.9659 151.541 102.709 154.632 102.709 154.632Z" fill="#CFB581"/>
<path fill-rule="evenodd" clip-rule="evenodd" d="M78.6837 90.7622C86.3264 89.7962 90.793 93.8146 92.9182 101.566C93.1114 102.261 92.9568 104.548 93.1036 105.275C93.8146 109.27 99.3322 107.253 100.043 109.007C100.808 110.885 97.7789 113.01 97.9489 113.698C97.9644 114.054 98.343 115.321 98.3817 115.846L98.3199 115.87C93.9691 117.508 91.9445 117.492 91.4267 117.678C92.2304 119.447 92.6632 121.016 93.7914 121.727C95.1438 122.569 96.6507 121.828 98.1035 121.503C98.258 121.503 98.5285 121.719 98.5208 122.183C98.5208 122.755 98.0107 123.025 98.0107 123.025C97.9026 124.432 98.0648 127.701 97.5007 127.994C85.0436 134.462 75.1058 127.763 71.4505 121.039C68.174 115.02 62.185 123.837 61.0877 115.53C59.5112 103.312 67.3935 92.2227 78.6837 90.7622Z" fill="#F9D3BD"/>
<path fill-rule="evenodd" clip-rule="evenodd" d="M69.9514 109.007C70.4383 109.494 75.0672 114.339 75.0672 114.115C75.0672 113.891 75.7009 108.574 75.0672 105.329C74.4335 102.083 74.7272 101.349 74.7272 101.349C74.7272 101.349 76.7364 101.086 81.8831 99.0153C87.0297 96.9442 87.2384 95.3678 87.2384 95.3678L86.4501 94.9891C86.4501 94.9891 87.3466 94.6491 88.5289 93.4668C88.5289 93.4668 83.0886 86.6896 76.9991 89.487C73.3903 91.1407 63.7229 97.9566 63.7229 97.9566L69.9514 109.007Z" fill="#F2C5A9"/>
<path fill-rule="evenodd" clip-rule="evenodd" d="M70.817 111.836C72.4012 112.833 73.3363 115.244 74.1709 115.522C75.9405 116.125 74.6809 108.474 74.5341 107.864C73.7149 104.325 72.5403 102.161 73.7304 99.9893C74.8741 99.7961 76.3114 99.4484 78.112 98.8379C84.0778 96.8209 86.0947 95.3681 85.6311 95.5227C85.1751 95.6772 82.03 95.7931 82.9959 95.5227C83.9696 95.2522 85.2215 95.77 88.1581 92.7252C91.0946 89.6882 86.8984 81.6591 86.8289 81.86C86.7593 82.061 87.0453 83.2742 86.9525 83.7224C86.9525 83.421 87.1612 82.3933 84.9742 81.1646C82.7796 79.9358 82.1072 79.9049 82.2695 80.0286C83.39 80.8941 71.4353 89.6651 72.0689 88.3823C72.2235 88.0731 72.2235 86.6358 72.2235 86.6358C65.5313 92.6711 61.9765 92.1688 59.5036 96.7977C58.5145 98.6447 57.394 103.405 57.4017 105.576C48.9167 112.199 65.1758 125.429 70.3302 127.23C71.8371 124.703 64.828 108.072 70.8016 111.82L70.817 111.836Z" fill="#57210B"/>
<path fill-rule="evenodd" clip-rule="evenodd" d="M66.8216 110.398C69.364 110.074 72.2001 112.338 73.1583 115.46C74.1243 118.582 74.2402 121.124 72.0687 120.923C63.0813 120.12 60.9098 111.155 66.8138 110.39L66.8216 110.398Z" fill="#F9D3BD"/>
<path fill-rule="evenodd" clip-rule="evenodd" d="M204.02 33.1754C205.04 31.5989 209.058 27.0396 209.058 27.0396L219.375 41.0036C219.375 41.0036 203.765 56.7527 204.244 54.7357C204.723 52.7188 206.129 49.535 205.024 43.1132C203.919 36.6915 204.02 33.1754 204.02 33.1754Z" fill="#E4B092"/>
<path fill-rule="evenodd" clip-rule="evenodd" d="M182.537 30.3314C184.02 33.3143 186.942 34.2571 187.019 34.8985C187.096 35.5399 186.323 39.3883 186.053 40.6942C185.775 42.0002 189.669 41.0729 189.669 41.0729C193.827 45.385 200.272 49.5734 206.33 46.0418C209.228 44.3495 211.469 37.8427 209.081 32.3251C207.513 28.7085 210.194 26.282 209.646 24.2187C207.644 16.7306 201.616 12.6812 194.291 12.3799C183.031 11.9162 177.645 20.4553 182.552 30.3468L182.537 30.3314Z" fill="#F9D3BD"/>
<path fill-rule="evenodd" clip-rule="evenodd" d="M191.339 34.0406C191.199 34.1797 189.662 35.3234 189.221 35.4547C188.773 35.5938 188.441 35.1843 188.441 35.1843C188.441 35.1843 188.008 34.1797 188.054 34.1797C188.101 34.1797 189.02 33.9246 191.818 33.376L191.346 34.0328L191.339 34.0406Z" fill="#F6BE9C"/>
<path fill-rule="evenodd" clip-rule="evenodd" d="M192.853 45.7868C194.151 45.2613 194.36 45.045 196.307 43.4917C196.307 43.4917 196.632 44.164 196.122 45.8487C195.612 47.541 193.904 47.3556 193.904 47.3556L192.845 45.7868H192.853Z" fill="#A45750"/>
<path fill-rule="evenodd" clip-rule="evenodd" d="M188.433 35.1845C188.448 35.2618 188.394 35.5709 188.07 36.2123C187.745 36.8537 187.567 37.0006 187.652 36.9542C187.737 36.9078 189.399 36.4673 190.589 35.1227C191.779 33.7781 191.833 33.3067 191.802 33.3762C191.779 33.4535 191.138 34.2263 190.11 34.8059C189.082 35.3855 188.425 35.1845 188.425 35.1845H188.433Z" fill="#3E3A39"/>
<path fill-rule="evenodd" clip-rule="evenodd" d="M193.471 63.5839C193.278 62.8652 187.227 51.4746 185.496 49.4576C183.765 47.4407 182.011 45.6401 182.707 44.5351C183.41 43.4223 186.864 47.6339 187.274 47.9507C187.683 48.2598 187.66 48.1207 187.66 48.1207L188.935 49.2258C188.935 49.2258 185.257 43.1209 184.445 41.6835C183.626 40.2385 184.105 39.0638 184.662 39.1334C185.218 39.2029 185.674 39.3729 185.674 39.3729C185.674 39.3729 185.388 38.0051 186.107 37.4719C186.825 36.9464 187.66 37.7115 187.66 37.7115L188.719 37.9047L199.143 58.275L199.484 60.006L193.479 63.5839H193.471Z" fill="#F6BE9D"/>
<path fill-rule="evenodd" clip-rule="evenodd" d="M195.063 90.7621C193.827 106.589 194.669 113.876 196.308 133.852C196.308 133.852 218.077 124.71 234.042 127.523C234.173 127.546 225.418 118.412 224.815 89.1548C224.769 87.0064 195.063 90.7621 195.063 90.7621Z" fill="#84A3AE"/>
<path fill-rule="evenodd" clip-rule="evenodd" d="M199.043 65.8713C199.445 63.1589 201.616 49.6817 203.888 47.0388C206.168 44.3959 215.495 38.376 217.404 38.6774C219.313 38.9788 229.444 48.8085 231.754 52.7264C234.065 56.6444 232.056 82.6327 232.458 91.566C232.859 100.499 234.065 109.332 234.768 109.935C235.471 110.538 237.581 115.553 236.777 116.055C233.825 117.894 199.947 126.488 199.545 124.888C195.496 108.706 193.804 99.9196 195.735 82.9418L199.051 65.879L199.043 65.8713Z" fill="#F59EAB"/>
<path fill-rule="evenodd" clip-rule="evenodd" d="M215.503 98.66C210.743 111.357 200.071 110.329 195.086 99.7805C195.071 99.7574 195.055 99.7265 195.04 99.7033C195.11 101.079 195.218 102.423 195.357 103.768C195.805 104.595 196.3 105.383 196.841 106.086C198.031 107.647 199.453 108.814 201.145 109.247C201.276 109.278 201.415 109.309 201.555 109.332C213.664 111.488 219.63 100.399 222.52 88.529C224.32 81.1413 224.931 73.4599 225.085 68.4833C225.124 67.3009 225.109 66.1958 225.062 65.1758C223.208 75.2296 219.143 88.9772 215.511 98.66H215.503Z" fill="#F192A0"/>
<path fill-rule="evenodd" clip-rule="evenodd" d="M213.277 36.9078C213.131 36.931 203.571 44.5814 202.327 45.9106C201.083 47.2398 199.677 49.9058 199.53 50.4545C199.383 51.0032 200.38 58.3832 200.581 57.6799C200.782 56.9767 204.043 50.9568 209.213 46.892C214.383 42.8272 216.979 41.3126 216.979 41.3126C216.523 40.2462 214.251 36.7455 213.277 36.9078Z" fill="#C2808B"/>
<path fill-rule="evenodd" clip-rule="evenodd" d="M178.719 20.7025C179.121 22.4104 184.538 25.8183 194.074 26.2201C203.61 26.622 209.429 27.5261 211.639 33.2446C213.849 38.9632 211.237 40.671 218.563 43.283C231.608 47.9273 232.713 59.5189 232.713 58.9393C232.713 57.9347 236.824 53.7695 234.32 45.3926C231.809 37.0158 226.963 35.9725 225.889 29.7362C223.223 14.2422 206.609 -18.1679 182.436 13.1757C180.435 15.7722 178.82 15.7877 178.225 17.7892C177.622 19.7984 178.727 20.7025 178.727 20.7025H178.719Z" fill="#3D2020"/>
<path fill-rule="evenodd" clip-rule="evenodd" d="M203.193 59.7043C201.408 59.1943 188.155 63.3595 188.054 64.0627C187.954 64.7659 189.36 70.9868 189.36 70.9868L190.689 70.809C190.689 70.809 191.972 87.045 193.371 93.5672C194.777 100.089 199.283 105.87 203.502 107.67C207.714 109.479 208.525 105.105 209.128 102.392C209.313 101.542 203.224 59.712 203.193 59.6966V59.7043Z" fill="#F59EAB"/>
<path fill-rule="evenodd" clip-rule="evenodd" d="M66.922 112.013C66.2033 112.09 64.6423 112.786 64.9824 114.803C65.3224 116.82 69.3331 119.231 70.8864 119.509C72.4396 119.787 72.911 116.92 71.6591 115.97C71.4968 115.846 70.4536 116.426 69.8972 115.63C69.3794 114.888 70.33 113.914 70.3145 113.906C69.4026 112.693 66.922 112.013 66.922 112.013Z" fill="#EAB496"/>
<path fill-rule="evenodd" clip-rule="evenodd" d="M199.8 48.6075C200.148 47.9661 200.929 46.1501 200.905 45.1842C200.882 44.2182 199.893 40.1766 200.905 39.5352C201.918 38.8938 202.513 40.0607 203 41.668C203.486 43.2754 204.769 49.6894 204.769 49.6894C204.576 50.6631 204.12 59.5191 203.1 60.2609C202.729 60.5314 195.326 62.2392 195.048 62.0151C194.77 61.7833 189.329 51.5595 187.034 49.0789C184.739 46.5983 183.982 44.7591 184.275 44.2568C184.577 43.7545 187.281 46.0033 187.583 46.3279C187.884 46.6524 188.935 47.8425 188.866 47.657C188.796 47.4716 186.223 42.1394 185.628 40.8334C185.033 39.5275 185.172 38.9711 185.535 38.6774C185.906 38.376 186.57 38.8861 186.57 38.8861C186.57 38.8861 185.72 37.3019 186.223 36.6605C186.725 36.0191 188.487 38.1983 188.487 38.1983C188.487 38.1983 187.366 36.6141 188.24 36.1504C189.113 35.6945 191.114 38.4224 191.269 38.5847C191.431 38.747 199.793 48.623 199.793 48.623L199.8 48.6075Z" fill="#F8CAB0"/>
<path fill-rule="evenodd" clip-rule="evenodd" d="M201.423 24.3112C200.163 26.3127 200.967 29.5738 203.216 31.583C205.465 33.5999 207.033 34.4036 208.223 32.7885C212.528 26.9154 204.344 19.6591 201.423 24.3112Z" fill="#F9D3BD"/>
<path fill-rule="evenodd" clip-rule="evenodd" d="M202.729 25.0223C203.077 24.4505 204.259 23.4072 205.82 24.4737C207.381 25.5401 207.853 29.8367 207.482 31.2431C207.119 32.6496 204.53 31.9464 204.213 30.5245C204.174 30.3467 205.063 29.6899 204.607 28.9171C204.19 28.1984 203.007 28.6157 203 28.6003C202.335 27.3638 202.729 25.0223 202.729 25.0223Z" fill="#EAB496"/>
<path fill-rule="evenodd" clip-rule="evenodd" d="M205.975 58.5685C205.163 58.5066 187.505 63.3828 187.505 63.3828L189.685 72.0842L207.829 66.443L205.975 58.5685Z" fill="#EE8997"/>
<path fill-rule="evenodd" clip-rule="evenodd" d="M214.754 43.0821C212.443 42.8812 205.619 49.5038 204.715 52.7186C203.811 55.9333 202.606 84.9355 202.304 86.5428C202.003 88.1502 199.182 101.658 201.091 105.074C203 108.49 205.442 107.632 207.451 107.531C209.46 107.431 213.695 103.482 215.503 98.6599C216.894 94.9506 225.766 65.508 225.487 61.6518C225.387 60.2454 225.789 52.5177 222.172 47.9042C218.563 43.2908 214.746 43.0898 214.746 43.0898L214.754 43.0821Z" fill="#F59EAB"/>
<path fill-rule="evenodd" clip-rule="evenodd" d="M202.072 61.0414C202.018 61.4974 202.126 63.3366 202.235 65.0212C202.343 66.6595 202.466 68.1587 202.466 68.1587L204.097 67.6486C204.159 66.5822 204.228 65.5312 204.29 64.5034C204.321 64.0011 204.352 63.4988 204.383 63.012C204.483 61.5205 204.584 60.0986 204.677 58.8081C203.989 58.9781 203.162 59.1868 202.242 59.4263C201.755 59.55 201.238 59.6891 200.712 59.8282C200.395 59.9132 200.063 59.9982 199.731 60.0832C199.677 60.0986 199.615 60.1141 199.561 60.1295C199.561 60.145 199.561 60.1682 199.561 60.1836C199.561 60.1836 199.63 60.1836 199.746 60.1836C199.947 60.1836 200.279 60.1991 200.635 60.2377C201.338 60.3227 202.126 60.5237 202.072 61.0337V61.0414Z" fill="#D97182"/>
<path fill-rule="evenodd" clip-rule="evenodd" d="M201.794 68.3211L199.368 69.0784L198.363 69.3875L194.561 70.5698C194.561 70.5698 196.354 70.7939 197.984 71.3503C199.012 71.6981 199.97 72.1772 200.388 72.8186C200.542 73.0582 200.62 73.3209 200.596 73.5991C200.581 73.7459 200.573 73.97 200.565 74.2637C200.488 77.7412 200.82 90.631 200.929 94.719C200.952 95.5072 200.96 95.9709 200.96 95.9709C200.998 95.5381 201.045 95.0976 201.099 94.6649C201.531 90.8165 202.165 87.2926 202.312 86.5353C202.381 86.1721 202.497 84.3793 202.644 81.8059C202.776 79.5108 202.93 76.582 203.108 73.4755C203.208 71.6208 203.317 69.7043 203.432 67.811L201.802 68.3211H201.794Z" fill="#D97182"/>
<path fill-rule="evenodd" clip-rule="evenodd" d="M203.618 64.6658C203.556 65.6935 203.487 66.7445 203.425 67.8109C203.309 69.7042 203.201 71.6207 203.1 73.4754C202.93 76.5819 202.768 79.5107 202.637 81.8059C202.49 84.3869 202.374 86.172 202.304 86.5352C202.165 87.3003 201.524 90.8164 201.091 94.6648C201.045 95.0975 200.998 95.5303 200.952 95.9708C200.952 95.9708 201.191 95.4298 201.562 94.518C202.142 93.0806 203.038 90.7237 203.78 88.0962C204.476 85.662 205.04 83.0037 205.109 80.6544C205.202 77.4783 204.105 57.7263 206.663 52.7032C207.837 50.4004 208.378 48.1207 210.357 45.5474C208.378 47.402 205.635 50.4545 204.916 52.1237C204.831 52.3246 204.754 52.5178 204.708 52.7032C204.653 52.9042 204.592 53.1978 204.538 53.5842C204.483 53.9474 204.429 54.3802 204.375 54.8902C204.252 55.9798 204.136 57.3708 204.012 58.9627C203.912 60.2532 203.811 61.6674 203.718 63.1666C203.688 63.6534 203.657 64.1557 203.626 64.658L203.618 64.6658Z" fill="#E1808E"/>
<path fill-rule="evenodd" clip-rule="evenodd" d="M207.42 107.918C209.422 107.779 213.44 104.603 215.248 99.7883C215.704 98.5828 217.69 94.7112 219.074 89.634C221.701 79.9898 226.214 62.8497 222.829 48.8548C222.736 48.4839 225.341 66.2113 217.984 89.4563C214.908 99.2242 212.791 104.981 209.12 106.442C197.026 111.279 192.258 85.8166 190.968 77.6097C191.493 87.563 192.784 108.93 207.412 107.918H207.42Z" fill="#E1808E"/>
<path fill-rule="evenodd" clip-rule="evenodd" d="M233.184 127.384C227.86 126.596 221.956 127.067 216.461 128.033C216.461 128.033 229.869 135.892 226.94 151.34C226.044 156.069 225.016 160.675 224.034 164.84C221.817 174.268 219.838 181.462 220.116 182.853C220.518 184.863 223.045 222.721 224.73 245.278C225.603 256.97 225.139 263.956 224.49 267.974C224.398 268.546 224.305 269.056 224.204 269.512C223.671 272.039 223.123 272.881 223.123 272.881C224.506 272.881 225.804 272.843 226.762 272.796C227.72 272.75 228.339 272.681 228.354 272.603C233.292 247.774 230.093 229.637 229.243 223.123C228.037 213.842 227.489 200.79 228.339 196.176C229.189 191.563 228.887 178.31 230.193 169.485C231.499 160.652 232.303 158.241 232.303 158.241C236.87 152.53 240.355 137.615 233.184 127.384Z" fill="#414B53"/>
<path fill-rule="evenodd" clip-rule="evenodd" d="M226.762 272.797C225.804 272.843 224.506 272.874 223.123 272.882C223.123 272.882 224.939 275.88 225.039 280.493C225.086 282.534 223.54 285.285 221.933 287.703C221.322 288.623 220.696 289.504 220.155 290.269C220.688 290.563 221.206 290.74 221.678 290.756C222.319 290.779 223.076 290.524 223.872 290.114C224.923 289.574 226.036 288.77 227.01 288.005C227.69 287.472 228.308 286.962 228.787 286.583C228.439 282.495 228.447 276.189 228.362 272.596C228.347 272.673 227.728 272.735 226.77 272.789L226.762 272.797Z" fill="#EDBEA2"/>
<path fill-rule="evenodd" clip-rule="evenodd" d="M228.393 53.1284C231.314 63.5686 229.081 90.322 225.487 100.144C225.008 101.465 224.498 102.478 223.973 103.104C219.56 108.42 213.679 109.131 207.814 112.137C206.006 113.065 204.066 114.896 202.389 116.998C200.983 118.76 199.762 120.715 198.95 122.5C199.012 122.755 199.074 123.018 199.143 123.273C199.275 123.798 199.406 124.332 199.545 124.88C199.847 126.07 218.563 121.65 229.413 118.536C233.192 117.454 236.012 116.527 236.777 116.048C237.581 115.545 235.471 110.53 234.768 109.927C234.065 109.324 232.859 100.492 232.458 91.5584C232.148 84.7426 233.246 67.9966 232.759 58.7079C232.728 58.8006 232.713 58.8779 232.713 58.9474C232.713 59.3879 232.079 52.8348 226.09 47.6108C226.971 49.0791 227.767 50.8951 228.393 53.1284Z" fill="#F192A0"/>
<path fill-rule="evenodd" clip-rule="evenodd" d="M229.413 118.536C218.563 121.65 199.839 126.07 199.545 124.88C199.406 124.339 199.275 123.798 199.143 123.273C199.082 123.01 199.012 122.755 198.95 122.5C197.451 116.418 196.331 111.364 195.658 106.38C195.542 105.507 195.434 104.641 195.349 103.776C195.241 102.74 195.156 101.697 195.086 100.638C195.086 100.638 195.179 103.049 195.372 106.434C195.681 111.921 196.4 119.293 197.242 123.814C199.097 133.759 210.689 118.474 215.781 128.164C216.013 128.126 216.237 128.079 216.469 128.041C221.963 127.067 227.86 126.603 233.192 127.392C233.478 127.43 233.764 127.477 234.042 127.531C234.111 127.546 231.762 125.066 229.413 118.536Z" fill="#7B9CA5"/>
<path fill-rule="evenodd" clip-rule="evenodd" d="M213.061 88.8918C211.879 93.6985 210.496 97.686 208.888 99.9734C203.494 107.662 196.887 92.1607 196.238 86.6663C196.076 85.2753 195.952 83.7684 195.867 82.2228C195.759 80.3604 195.697 78.4517 195.643 76.6357C195.643 76.3575 195.627 76.0715 195.62 75.8011C195.573 73.9155 195.542 72.1613 195.488 70.724C194.924 70.6235 194.553 70.5694 194.553 70.5694L190.759 71.7517C190.852 72.8491 191.022 74.8119 191.246 77.1611C191.269 77.4316 191.3 77.7021 191.323 77.9803C191.447 79.2322 191.578 80.5691 191.725 81.9292C191.833 82.4933 191.949 83.0729 192.073 83.6756C192.73 86.8131 193.626 90.4374 194.832 93.8839C194.87 93.9844 194.901 94.0849 194.94 94.1853C196.292 97.9951 198.008 101.558 200.171 103.961C200.295 104.1 200.426 104.239 200.558 104.378C200.681 104.502 200.805 104.625 200.929 104.741C202.807 106.511 204.993 107.407 207.536 106.921C208.054 106.82 208.579 106.666 209.128 106.449C212.799 104.981 214.924 99.2315 217.992 89.4637C218.084 89.1623 218.177 88.8687 218.27 88.575C224.761 67.4397 223.069 51.0646 222.852 49.0631L218.579 45.5161C218.594 48.8081 216.91 73.2432 213.061 88.9073V88.8918Z" fill="#F195A2"/>
<path fill-rule="evenodd" clip-rule="evenodd" d="M186.47 34.3034C187.297 33.7007 186.818 33.6543 189.584 32.897C192.343 32.1474 194.097 32.0701 193.626 31.9465C193.147 31.8228 190.612 31.6992 188.379 32.0469C182.838 32.9202 185.574 34.9603 186.47 34.3034Z" fill="#3E3A39"/>
<path fill-rule="evenodd" clip-rule="evenodd" d="M224.637 298.074C212.311 298.939 193.935 298.213 185.295 295.833C184.484 295.609 183.757 295.369 183.132 295.114C183.108 295.454 183.132 295.802 183.217 296.157C183.356 296.76 183.649 297.378 184.136 297.958C185.102 299.109 187.807 300.014 191.47 300.678C192.768 300.918 194.182 301.119 195.674 301.296C209.043 302.888 229.119 302.239 231.098 300.006C231.275 299.813 231.368 298.731 231.407 297.317C230.928 297.394 230.425 297.471 229.9 297.541C228.331 297.757 226.554 297.927 224.629 298.066L224.637 298.074Z" fill="#E9A482"/>
<path fill-rule="evenodd" clip-rule="evenodd" d="M196.57 290.053C196.756 290.006 196.933 290.115 196.98 290.3L197.552 292.788C197.59 292.974 197.482 293.159 197.297 293.206C197.119 293.252 196.933 293.144 196.887 292.958L196.315 290.47C196.277 290.285 196.385 290.099 196.57 290.053Z" fill="#D4E9D7"/>
<path fill-rule="evenodd" clip-rule="evenodd" d="M198.379 289.565C198.564 289.519 198.742 289.627 198.788 289.813L199.36 292.301C199.399 292.486 199.29 292.672 199.105 292.718C198.919 292.765 198.742 292.656 198.695 292.471L198.124 289.983C198.085 289.797 198.193 289.612 198.379 289.565Z" fill="#D4E9D7"/>
<path fill-rule="evenodd" clip-rule="evenodd" d="M200.279 288.862C200.457 288.816 200.643 288.924 200.689 289.11L201.261 291.598C201.299 291.783 201.191 291.969 201.006 292.015C200.828 292.062 200.643 291.953 200.596 291.768L200.024 289.28C199.986 289.094 200.094 288.909 200.279 288.862Z" fill="#D4E9D7"/>
<path fill-rule="evenodd" clip-rule="evenodd" d="M201.964 288.082C202.142 288.028 202.327 288.128 202.381 288.314L203.038 290.771C203.085 290.957 202.976 291.15 202.799 291.204C202.621 291.258 202.436 291.158 202.381 290.972L201.725 288.515C201.678 288.329 201.786 288.136 201.964 288.082Z" fill="#D4E9D7"/>
<path fill-rule="evenodd" clip-rule="evenodd" d="M203.471 287.185C203.641 287.108 203.842 287.185 203.919 287.355L204.932 289.674C205.009 289.844 204.932 290.052 204.762 290.137C204.592 290.215 204.391 290.137 204.313 289.967L203.301 287.649C203.224 287.479 203.301 287.27 203.471 287.185Z" fill="#D4E9D7"/>
<path fill-rule="evenodd" clip-rule="evenodd" d="M204.931 286.142C205.094 286.042 205.302 286.096 205.403 286.258L206.686 288.429C206.778 288.592 206.732 288.808 206.57 288.909C206.407 289.009 206.199 288.955 206.098 288.793L204.816 286.621C204.723 286.459 204.769 286.242 204.931 286.142Z" fill="#D4E9D7"/>
<path fill-rule="evenodd" clip-rule="evenodd" d="M89.5799 104.85C88.8071 105.02 88.3589 106.024 88.5907 107.091C88.8148 108.157 89.6262 108.891 90.399 108.714C91.1718 108.544 91.62 107.539 91.3881 106.473C91.1563 105.406 90.3526 104.672 89.5799 104.85Z" fill="#3E3A39"/>
<path fill-rule="evenodd" clip-rule="evenodd" d="M91.8826 100.955C92.1608 100.955 92.4081 101.156 92.4236 101.411C92.439 101.666 92.439 102.74 92.1531 102.748C88.127 104.031 85.1441 106.519 84.5799 106.38C84.3095 106.256 83.9849 105.793 84.1626 105.329C84.7499 103.814 89.2243 100.978 91.8749 100.955H91.8826Z" fill="#57210B"/>
<path fill-rule="evenodd" clip-rule="evenodd" d="M86.1796 83.7915C90.1285 86.558 87.7484 94.533 82.5708 94.9658C86.5738 92.1143 88.1502 88.49 86.1796 83.7915Z" fill="#63260D"/>
<path fill-rule="evenodd" clip-rule="evenodd" d="M83.0884 81.5586C87.4159 84.5415 79.2864 96.2413 75.9248 94.8812C79.7037 93.0652 84.5953 86.2416 83.0884 81.5586Z" fill="#63260D"/>
<path fill-rule="evenodd" clip-rule="evenodd" d="M81.2184 83.5752C83.699 87.9182 72.092 92.8948 69.9514 93.8376C73.313 91.1638 80.4766 87.6863 81.2184 83.5752Z" fill="#61250D"/>
<path fill-rule="evenodd" clip-rule="evenodd" d="M85.5229 85.3218C85.6465 90.5148 80.554 97.4388 74.8123 96.8902C80.0594 94.8191 83.6914 90.6385 85.5229 85.3218Z" fill="#471B09"/>
<path fill-rule="evenodd" clip-rule="evenodd" d="M72.0997 99.0151C69.4954 104.185 71.2341 104.873 72.0301 110.707C70.1909 107.114 67.3626 102.021 72.0997 99.0151Z" fill="#61250D"/>
<path fill-rule="evenodd" clip-rule="evenodd" d="M69.171 96.3804C66.2499 100.739 65.7399 104.209 65.7631 109.378C64.0707 104.842 64.7662 98.946 69.171 96.3804Z" fill="#61250D"/>
<path fill-rule="evenodd" clip-rule="evenodd" d="M80.4225 89.8037C75.7472 93.7526 73.3052 95.3522 69.0164 100.043C72.7488 93.3739 73.5525 93.0803 80.4225 89.8037Z" fill="#6E2A0E"/>
<path fill-rule="evenodd" clip-rule="evenodd" d="M80.291 96.0942C78.9155 98.2039 77.54 99.6799 74.7966 98.768C75.4844 98.2812 79.4951 96.3802 80.291 96.0942Z" fill="#6E2A0E"/>
<path fill-rule="evenodd" clip-rule="evenodd" d="M70.5311 91.7051C66.0336 94.943 62.1697 100.329 62.502 105.955H62.4093C58.7464 104.734 66.9146 90.4532 70.5234 91.7051H70.5311Z" fill="#63260D"/>
<path fill-rule="evenodd" clip-rule="evenodd" d="M64.2869 94.5177C61.1649 97.7402 60.114 102.508 59.8435 106.82L59.2098 104.587C58.7461 101.326 61.6827 94.4791 64.2869 94.5177Z" fill="#471B09"/>
<path fill-rule="evenodd" clip-rule="evenodd" d="M79.611 84.1396C78.8691 85.5693 75.9867 90.3141 73.6375 89.0313C73.8075 88.8149 73.707 88.8999 73.9234 88.7763H73.9002C76.2417 87.2462 77.1381 85.8707 79.6187 84.1474L79.611 84.1396Z" fill="#6E2A0E"/>
<path fill-rule="evenodd" clip-rule="evenodd" d="M72.3238 89.5103C68.9623 91.5118 68.0658 91.6972 64.9207 94.286C66.3426 90.8317 68.4986 89.4485 72.3238 89.5103Z" fill="#471B09"/>
<path fill-rule="evenodd" clip-rule="evenodd" d="M67.7489 102.021C69.2017 105.576 69.1167 106.449 69.7427 110.051C67.4398 107.23 67.4321 105.553 67.7489 102.021Z" fill="#471B09"/>
<path fill-rule="evenodd" clip-rule="evenodd" d="M71.6051 102.957C71.6051 102.957 74.6808 112.075 73.2357 111.89C72.3238 107.856 71.4428 108.853 71.6051 102.957Z" fill="#6E2A0E"/>
<path fill-rule="evenodd" clip-rule="evenodd" d="M64.1787 118.52C68.5217 121.92 66.8448 119.88 69.3176 124.563C65.4847 121.055 67.2234 123.048 64.1787 118.52Z" fill="#61250D"/>
<path fill-rule="evenodd" clip-rule="evenodd" d="M186.377 18.5391C188.997 21.1819 192.892 22.6966 196.617 22.4493C195.071 25.3626 185.465 21.406 186.377 18.5391Z" fill="#4F2A2A"/>
<path fill-rule="evenodd" clip-rule="evenodd" d="M186.478 15.3242C192.606 17.828 194.213 17.6503 200.627 18.539C193.255 19.4663 192.389 19.8218 186.478 15.3242Z" fill="#472525"/>
<path fill-rule="evenodd" clip-rule="evenodd" d="M191.995 12.519C203.061 12.604 209.56 13.655 216.361 22.9669C217.705 24.8061 217.427 24.5202 218.084 26.6685C211.771 16.352 203.34 14.1496 191.988 12.519H191.995Z" fill="#4F2A2A"/>
<path fill-rule="evenodd" clip-rule="evenodd" d="M189.384 9.50535C196.253 7.58888 202.907 8.16073 208.95 12.1173C202.675 10.0308 195.975 9.35853 189.384 9.50535Z" fill="#381D1D"/>
<path fill-rule="evenodd" clip-rule="evenodd" d="M196.307 3.9873C205.31 4.42006 207.52 5.84196 214.073 11.9623C207.343 7.90526 203.996 5.99651 196.307 3.9873Z" fill="#4F2A2A"/>
<path fill-rule="evenodd" clip-rule="evenodd" d="M203.031 2.1792C208.154 2.75105 219.8 9.62873 218.934 13.5158C215.92 8.84823 207.876 4.18068 203.031 2.1792Z" fill="#472525"/>
<path fill-rule="evenodd" clip-rule="evenodd" d="M205.596 20.2929C207.505 19.582 214.506 27.5415 215.132 28.5538C217.559 32.4718 217.52 34.056 218.494 38.5072C215.812 32.1472 211.639 24.2804 205.596 20.2929Z" fill="#472525"/>
<path fill-rule="evenodd" clip-rule="evenodd" d="M216.485 26.1118C221.94 32.889 221.206 35.7328 227.427 41.7605C227.45 41.7836 227.45 41.7836 227.473 41.8146C227.458 41.8455 227.473 41.8455 227.435 41.8609C224.058 43.1669 217.327 27.8892 216.485 26.1118Z" fill="#4F2A2A"/>
<path fill-rule="evenodd" clip-rule="evenodd" d="M213.022 34.2417C216.5 38.2524 217.96 41.8612 222.458 42.6726C222.427 42.7963 222.458 42.7808 222.358 42.8658C218.857 45.8024 213.594 35.6791 213.022 34.2417Z" fill="#381D1D"/>
<path fill-rule="evenodd" clip-rule="evenodd" d="M221.6 39.7593C224.707 40.7793 233.617 47.6106 232.342 50.099C228.864 45.7328 226.021 43.4531 221.6 39.7593Z" fill="#381D1D"/>
<path fill-rule="evenodd" clip-rule="evenodd" d="M221.701 27.9668C224.352 35.9727 234.166 43.0359 233.192 48.0357C231.113 40.9494 221.755 36.5214 221.701 27.9668Z" fill="#381D1D"/>
<path fill-rule="evenodd" clip-rule="evenodd" d="M212.219 14.2729C217.907 18.585 219.406 20.5092 220.951 27.5183C218.324 22.4721 215.704 18.7396 212.219 14.2729Z" fill="#381D1D"/>
<path fill-rule="evenodd" clip-rule="evenodd" d="M217.636 14.1187C222.736 21.4832 220.935 17.4802 223.053 26.1121C219.197 18.2607 221.005 22.2559 217.636 14.1187Z" fill="#4F2A2A"/>
<path fill-rule="evenodd" clip-rule="evenodd" d="M180.002 18.1372C182.753 20.3628 186.192 22.6734 189.438 24.1107C187.057 25.2931 181.092 21.2824 180.002 18.1372Z" fill="#3D2020"/>
<path fill-rule="evenodd" clip-rule="evenodd" d="M186.826 12.6655C194.151 16.4367 191.934 14.9298 198.935 16.8849C199.012 16.908 199.005 16.9158 199.066 16.9776C199.02 17.0317 199.004 17.0626 198.935 17.0858C193.564 18.5386 190.411 16.1353 186.818 12.6655H186.826Z" fill="#381D1D"/>
<path fill-rule="evenodd" clip-rule="evenodd" d="M100.051 109.007C100.051 109.007 98.142 112.153 97.2533 112.338C96.3647 112.523 93.6368 112.346 93.8377 112.562C95.0509 113.891 97.1065 114.015 97.9566 113.698C99.1003 113.273 100.599 110.367 100.051 109.007Z" fill="#F5B78F"/>
<path fill-rule="evenodd" clip-rule="evenodd" d="M90.1054 105.344C89.8426 105.406 89.7267 105.746 89.8504 106.109C89.974 106.473 90.2831 106.72 90.5459 106.658C90.8086 106.596 90.9245 106.256 90.8009 105.893C90.6772 105.53 90.3681 105.283 90.1054 105.344Z" fill="white"/>
<path fill-rule="evenodd" clip-rule="evenodd" d="M145.513 140.699C143.705 142.028 137.013 145.637 136.634 145.637C136.255 145.637 133.296 145.374 133.296 145.374L134.115 148.682C134.115 148.682 114.316 172.808 112.601 172.282C112.477 172.244 104.162 167.391 101.604 166.332C101.233 166.177 100.862 166.023 100.491 165.868C100.445 166.061 100.406 166.255 100.36 166.448C99.7108 169.276 99.0076 172.035 98.3817 173.975C98.3817 173.99 98.3739 174.005 98.3662 174.013C104.687 176.471 110.352 178.372 111.449 178.14C115.785 177.22 137.268 149.091 137.268 147.337C138.566 146.611 141.804 144.408 142.924 143.906C144.037 143.404 146.873 140.985 146.958 140.73C147.043 140.475 149.918 134.934 149.918 134.934C149.918 134.934 149.98 133.744 149.91 132.577C149.91 132.577 147.314 139.362 145.505 140.691L145.513 140.699Z" fill="#EDBEA2"/>
<path fill-rule="evenodd" clip-rule="evenodd" d="M111.086 162.924L103.884 156.641C103.814 156.973 103.737 157.321 103.66 157.684C106.643 160.219 109.255 162.476 111.078 163.882C116.859 156.224 128.612 149.338 132.067 143.975C132.901 141.634 134.686 137.314 135.938 136.356C137.569 135.112 141 133.613 141.858 132.793C141.943 132.708 142.036 132.608 142.128 132.5C142.02 132.322 141.912 132.137 141.811 131.943C141.294 132.206 140.714 132.523 140.096 132.902C137.893 134.262 136.533 134.37 134.872 135.514C133.21 136.65 132.121 142.113 131.356 143.821C130.599 145.529 127.987 147.337 120.576 153.226C113.165 159.114 111.078 162.916 111.078 162.916L111.086 162.924Z" fill="#F6BA96"/>
<path fill-rule="evenodd" clip-rule="evenodd" d="M98.3892 173.974C99.0152 172.034 99.7184 169.276 100.368 166.447C100.414 166.254 100.453 166.061 100.499 165.868L99.8498 165.883L99.1852 165.899L95.8932 165.96L95.1281 165.976H94.989L93.8299 165.999C93.4435 167.498 93.088 168.912 92.7789 170.102C92.6398 170.651 92.5084 171.146 92.3925 171.594C92.3925 171.602 92.3925 171.609 92.3925 171.617C92.2302 172.243 92.0911 172.745 91.9829 173.101C91.9134 173.348 91.8516 173.518 91.8129 173.619C91.5811 174.152 91.9984 174.646 92.6939 175.079C93.428 175.535 94.479 175.929 95.4063 176.231C96.0168 176.424 96.5732 176.586 96.9673 176.702C97.3228 176.802 97.8251 175.744 98.3815 174.028C98.3815 174.013 98.3892 173.997 98.397 173.99L98.3892 173.974Z" fill="#C0A66C"/>
<path fill-rule="evenodd" clip-rule="evenodd" d="M92.779 170.087C93.0882 168.897 93.4436 167.491 93.83 165.984C93.83 165.984 92.5472 165.667 90.5148 164.948C90.2675 164.863 90.0125 164.77 89.7498 164.67C86.4037 163.426 81.4811 161.231 76.8136 157.769C75.5849 156.857 74.4953 155.969 73.537 155.119C70.5 152.422 68.769 150.103 67.8417 148.612C66.9221 154.075 69.9823 161.177 78.8769 166.61C79.186 166.795 79.5415 167.004 79.9356 167.236C83.1503 169.067 88.9306 171.965 91.9831 173.093C92.0913 172.738 92.2304 172.228 92.3927 171.61C92.3927 171.602 92.3927 171.594 92.3927 171.586C92.5086 171.146 92.6399 170.644 92.779 170.095V170.087Z" fill="#CFB57D"/>
<path fill-rule="evenodd" clip-rule="evenodd" d="M84.835 177.289C85.4069 180.141 85.121 193.147 79.2324 209.298C78.9697 210.024 78.707 210.727 78.4597 211.407C76.4118 216.987 74.8817 220.905 73.2435 223.663C70.6701 227.999 67.8418 229.459 62.3242 230C59.094 230.317 55.7943 230.108 52.8886 229.745C51.119 229.529 49.5039 229.251 48.1438 229.003C48.167 229.22 48.2288 229.351 48.3293 229.39C49.983 230.023 51.4899 230.587 52.8809 231.082C71.6593 237.828 67.7413 232.767 76.8755 228.323C77.8105 227.867 80.0593 224.699 82.679 219.946C82.8258 219.676 82.9804 219.398 83.1272 219.119C84.495 216.585 85.9401 213.648 87.3543 210.464C87.362 210.449 87.3697 210.426 87.3775 210.41C88.7453 207.304 90.0822 203.958 91.2491 200.519C93.7451 193.185 95.5225 185.419 95.4375 178.58C95.4298 177.761 95.4143 176.972 95.3988 176.215C94.4638 175.914 93.4205 175.52 92.6864 175.064C91.9909 174.631 91.5736 174.136 91.8055 173.603C91.8441 173.51 91.9059 173.333 91.9755 173.085C88.9307 171.949 83.1427 169.059 79.9279 167.228C79.5338 167.004 79.1783 166.795 78.8692 166.602C69.9746 161.177 66.9144 154.075 67.834 148.604C67.834 148.604 65.933 155.064 71.5356 163.325C73.6762 166.478 76.0332 168.843 78.166 170.721C81.6203 173.765 84.4796 175.527 84.835 177.289Z" fill="#C5AB71"/>
<path fill-rule="evenodd" clip-rule="evenodd" d="M113.559 234.359C109.641 246.762 99.0154 288.639 102.3 289.365C103.235 289.574 106.697 289.527 110.437 289.295C110.082 288.167 109.68 286.784 109.317 285.238C108.976 283.793 108.675 282.209 108.482 280.571C107.725 274.304 120.831 228.053 120.831 228.053C114.757 228.633 90.314 231.214 89.3403 221.995C89.9122 228.038 90.2677 234.645 90.399 237.365C100.515 236.816 112.547 234.614 113.559 234.359Z" fill="#2B2321"/>
<path fill-rule="evenodd" clip-rule="evenodd" d="M66.0798 168.743C63.2824 161.772 61.7059 153.025 60.825 146C55.9256 156.34 57.2238 166.208 57.5098 176.95C57.6798 183.186 59.8667 192.799 57.9348 198.402C57.3938 199.986 51.5671 215.457 49.1638 223.926C51.2039 223.455 53.1977 222.729 54.7046 221.67C55.1142 221.384 55.4851 221.067 55.8174 220.727C57.1157 219.382 58.1975 217.69 59.0939 215.874C61.2036 211.562 62.2159 206.554 62.2778 203.881C62.3319 201.701 64.0088 200.867 66.443 201.106C68.259 201.284 70.5078 202.057 72.8184 203.309C76.234 205.163 72.8107 198.409 69.5727 192.451C67.6795 188.966 65.8557 185.751 65.5002 184.693C64.797 182.583 68.5372 184.747 71.7133 186.702C72.8184 187.382 73.8616 188.047 74.6189 188.487C76.234 189.43 75.1753 187.583 72.9729 183.402C71.1724 179.987 68.5913 175.01 66.0721 168.735L66.0798 168.743Z" fill="#D3B87B"/>
<path fill-rule="evenodd" clip-rule="evenodd" d="M205.403 157.792C210.696 178.48 207.273 204.808 209.182 212.837C211.09 220.866 212.296 225.681 213.494 229.9C214.699 234.111 212.288 263.423 215.603 263.716C218.919 264.018 221.121 267.627 221.021 260.803C220.92 253.979 218.463 215.364 217.605 206.809C216.755 198.255 219.112 170.28 220.116 159.438C221.786 141.402 200.102 137.098 205.395 157.785L205.403 157.792Z" fill="#4C575D"/>
<path fill-rule="evenodd" clip-rule="evenodd" d="M57.9502 108.242C57.216 110.97 60.0444 115.669 61.1417 118.327L59.2871 116.279C57.5483 114.038 55.9332 108.134 57.9502 108.242Z" fill="#6E2A0E"/>
<path fill-rule="evenodd" clip-rule="evenodd" d="M62.1928 107.84C62.4324 110.908 62.9656 114.146 63.3597 117.237C61.0955 113.427 60.7477 112.052 62.1928 107.84Z" fill="#63260D"/>
<path fill-rule="evenodd" clip-rule="evenodd" d="M85.4919 224.722C84.2709 228.377 72.5093 235.085 72.5093 235.085C72.5093 235.085 75.4613 285.199 75.044 290.493C74.6189 295.794 84.9818 294.102 85.3605 289.79C85.7391 285.478 85.4996 224.722 85.4996 224.722H85.4919Z" fill="#383030"/>
<path fill-rule="evenodd" clip-rule="evenodd" d="M232.527 53.2981C234.057 51.9612 236.638 63.2668 235.865 67.7566L234.459 72.5169C234.699 69.704 235.232 55.7555 232.527 53.2981Z" fill="#472525"/>
<path fill-rule="evenodd" clip-rule="evenodd" d="M224.15 25.8027C230.078 37.8503 238.601 37.773 236.631 51.3661C235.425 35.0065 227.551 39.3417 224.15 25.8027Z" fill="#3D2020"/>
<path fill-rule="evenodd" clip-rule="evenodd" d="M234.258 48.2905C235.232 56.4201 242.543 57.0924 239.065 74.2325C238.941 74.843 238.872 74.8275 238.516 75.3376C239.243 69.8432 238.787 64.0165 237.288 58.6843C236.755 56.7756 233.208 50.2688 234.258 48.2905Z" fill="#3D2020"/>
<path fill-rule="evenodd" clip-rule="evenodd" d="M236.438 68.854C238.617 75.8553 237.458 80.7161 233.169 86.4887C235.873 79.781 236.569 76.0949 236.438 68.854Z" fill="#3D2020"/>
<path fill-rule="evenodd" clip-rule="evenodd" d="M179.422 19.4663C184.02 26.854 186.957 27.2559 194.53 31.5525C186.408 29.2651 182.065 27.5418 179.422 19.4663Z" fill="#3D2020"/>
<path fill-rule="evenodd" clip-rule="evenodd" d="M181.007 20.8496C187.83 24.3194 195.326 25.4244 200.341 29.6129C201.725 30.772 203.857 34.605 202.706 34.9682C202.567 32.4257 200.457 30.7025 198.425 29.5124C191.23 25.3085 189.909 27.3254 181.014 20.8496H181.007Z" fill="#3D2020"/>
<path fill-rule="evenodd" clip-rule="evenodd" d="M94.8503 127.453C91.1487 128.442 85.0129 129.146 80.4303 126.333C74.905 122.94 74.3023 119.007 74.3023 119.007C74.3023 119.007 74.0859 119.223 73.0117 120.297C71.9376 121.372 71.3425 120.846 71.3425 120.846C71.3812 120.908 71.4198 120.97 71.4584 121.039C75.1137 127.77 85.0515 134.47 97.5086 127.994C97.7404 127.871 97.8486 127.245 97.9027 126.456C97.1145 126.773 96.1022 127.121 94.858 127.453H94.8503Z" fill="#F2C5A9"/>
</g>
<defs>
<clipPath id="clip0_1_4159">
<rect width="240" height="302.185" fill="white"/>
</clipPath>
</defs>
</svg>
